<svg width="39" height="42" viewBox="0 0 39 42" fill="none" xmlns="http://www.w3.org/2000/svg">
<g id="Graduation Cap 02">
<path id="Icon" d="M29.977 31.9443L29.4404 31.1004L29.4404 31.1004L29.977 31.9443ZM30.7758 30.4374L29.7758 30.4374L29.7758 30.4374L30.7758 30.4374ZM17.8191 37.4562L17.2542 38.2813L17.2542 38.2813L17.8191 37.4562ZM21.2151 37.5162L21.7517 38.36L21.7517 38.36L21.2151 37.5162ZM3.09414 14.2394L2.55403 13.3978L2.55403 13.3978L3.09414 14.2394ZM3.09414 15.7427L2.55403 16.5843L2.55403 16.5843L3.09414 15.7427ZM20.3319 25.7378L20.872 26.5793L20.3319 25.7378ZM18.6681 25.7378L19.2082 24.8962L19.2082 24.8962L18.6681 25.7378ZM35.9058 14.2394L36.446 13.3978L35.9058 14.2394ZM35.9058 15.7427L35.3657 14.9011L35.3657 14.9011L35.9058 15.7427ZM9.77856 31.952L10.3434 31.1268L10.3434 31.1268L9.77856 31.952ZM20.3319 4.24432L19.7918 5.08591L20.3319 4.24432ZM18.6681 4.24432L19.2082 5.08591L19.2082 5.08591L18.6681 4.24432ZM37.075 14.9619C37.075 14.4096 36.6273 13.9619 36.075 13.9619C35.5227 13.9619 35.075 14.4096 35.075 14.9619H37.075ZM35.075 24.4119C35.075 24.9642 35.5227 25.4119 36.075 25.4119C36.6273 25.4119 37.075 24.9642 37.075 24.4119H35.075ZM19.7918 5.08591L35.3657 15.081L36.446 13.3978L20.872 3.40273L19.7918 5.08591ZM35.3657 14.9011L19.7918 24.8962L20.872 26.5793L36.446 16.5843L35.3657 14.9011ZM3.63426 15.081L19.2082 5.08591L18.128 3.40273L2.55403 13.3978L3.63426 15.081ZM19.2082 24.8962L9.56541 18.7076L8.48518 20.3908L18.128 26.5793L19.2082 24.8962ZM9.56541 18.7076L3.63426 14.9011L2.55403 16.5843L8.48518 20.3908L9.56541 18.7076ZM8.02529 19.5492V30.4751H10.0253V19.5492H8.02529ZM9.21368 32.7772L17.2542 38.2813L18.384 36.631L10.3434 31.1268L9.21368 32.7772ZM21.7517 38.36L30.5136 32.7881L29.4404 31.1004L20.6785 36.6723L21.7517 38.36ZM31.7758 30.4374L31.7758 19.5492L29.7758 19.5492L29.7758 30.4374L31.7758 30.4374ZM30.5136 32.7881C31.316 32.2779 31.7758 31.3757 31.7758 30.4374L29.7758 30.4374C29.7758 30.7372 29.6281 30.9811 29.4404 31.1004L30.5136 32.7881ZM17.2542 38.2813C18.615 39.2129 20.3605 39.2447 21.7517 38.36L20.6785 36.6723C19.9648 37.1262 19.0861 37.1116 18.384 36.631L17.2542 38.2813ZM2.55403 13.3978C1.4121 14.1307 1.41211 15.8514 2.55403 16.5843L3.63426 14.9011C3.6604 14.9179 3.67888 14.9409 3.6886 14.9601C3.69699 14.9766 3.69759 14.9871 3.69759 14.991C3.69759 14.995 3.69699 15.0055 3.6886 15.022C3.67888 15.0412 3.6604 15.0642 3.63426 15.081L2.55403 13.3978ZM19.7918 24.8962C19.6083 25.0139 19.3917 25.0139 19.2082 24.8962L18.128 26.5793C18.9696 27.1195 20.0304 27.1195 20.872 26.5793L19.7918 24.8962ZM35.3657 15.081C35.3396 15.0642 35.3211 15.0412 35.3114 15.022C35.303 15.0055 35.3024 14.995 35.3024 14.991C35.3024 14.9871 35.303 14.9766 35.3114 14.9601C35.3211 14.9409 35.3396 14.9179 35.3657 14.9011L36.446 16.5843C37.5879 15.8514 37.5879 14.1307 36.446 13.3978L35.3657 15.081ZM8.02529 30.4751C8.02529 31.383 8.45554 32.2582 9.21368 32.7772L10.3434 31.1268C10.1633 31.0035 10.0253 30.7645 10.0253 30.4751H8.02529ZM20.872 3.40273C20.0304 2.86258 18.9696 2.86258 18.128 3.40273L19.2082 5.08591C19.3917 4.96819 19.6083 4.96819 19.7918 5.08591L20.872 3.40273ZM35.075 14.9619V24.4119H37.075V14.9619H35.075Z" fill="url(#paint0_linear_120_543)"/>
</g>
<defs>
<linearGradient id="paint0_linear_120_543" x1="19.5" y1="3.99762" x2="19.5" y2="38.0024" gradientUnits="userSpaceOnUse">
<stop stop-color="#C7EBFA"/>
<stop offset="1" stop-color="#3C9DDB"/>
</linearGradient>
</defs>
</svg>
