<svg width="41" height="31" viewBox="0 0 41 31" fill="none" xmlns="http://www.w3.org/2000/svg">
<g id="Users Profiles Check">
<path id="Icon" d="M4.10001 27.9L4.1007 23.2494C4.10108 20.6815 6.85442 18.6 10.2507 18.6H22.5498M27.675 22.475L29.725 24.025L36.9 18.6M29.725 3.09998C32.2128 4.15433 33.825 5.84461 33.825 7.74997C33.825 9.65534 32.2128 11.3456 29.725 12.4M24.6 7.74997C24.6 10.3181 21.8466 12.4 18.45 12.4C15.0535 12.4 12.3 10.3181 12.3 7.74997C12.3 5.18185 15.0535 3.09998 18.45 3.09998C21.8466 3.09998 24.6 5.18185 24.6 7.74997Z" stroke="url(#paint0_linear_120_547)" stroke-width="2" stroke-linecap="round" stroke-linejoin="round"/>
</g>
<defs>
<linearGradient id="paint0_linear_120_547" x1="20.5" y1="3.09998" x2="20.5" y2="27.9" gradientUnits="userSpaceOnUse">
<stop stop-color="#C7EBFA"/>
<stop offset="1" stop-color="#3C9DDB"/>
</linearGradient>
</defs>
</svg>
