<svg width="111" height="36" viewBox="0 0 111 36" fill="none" xmlns="http://www.w3.org/2000/svg">
<g id="Theme" filter="url(#filter0_d_111_53)">
<path d="M12.3116 26V5.936H5.52763V2.384H23.0316V5.936H16.2796V26H12.3116ZM25.5629 26V1.616H29.5309V10.64C30.2135 10.128 31.0669 9.65867 32.0909 9.232C33.1362 8.784 34.2029 8.56 35.2909 8.56C36.5495 8.56 37.5629 8.816 38.3309 9.328C39.1202 9.84 39.6855 10.5547 40.0269 11.472C40.3895 12.368 40.5709 13.392 40.5709 14.544V26H36.6029V15.024C36.6029 14.4267 36.4855 13.9147 36.2509 13.488C36.0162 13.04 35.6855 12.7093 35.2589 12.496C34.8322 12.2613 34.3309 12.144 33.7549 12.144C33.2002 12.144 32.6882 12.208 32.2189 12.336C31.7495 12.4427 31.2909 12.6027 30.8429 12.816C30.4162 13.0293 29.9789 13.2747 29.5309 13.552V26H25.5629ZM51.5396 26.16C49.6836 26.16 48.201 25.904 47.0916 25.392C46.0036 24.88 45.2143 23.9947 44.7236 22.736C44.233 21.456 43.9876 19.6853 43.9876 17.424C43.9876 15.12 44.2223 13.3387 44.6916 12.08C45.161 10.8 45.9396 9.904 47.0276 9.392C48.1156 8.88 49.5876 8.624 51.4436 8.624C53.0863 8.624 54.3983 8.79467 55.3796 9.136C56.3823 9.456 57.1076 10.0427 57.5556 10.896C58.025 11.728 58.2596 12.912 58.2596 14.448C58.2596 15.536 58.0463 16.4107 57.6196 17.072C57.193 17.712 56.5743 18.1707 55.7636 18.448C54.9743 18.7253 54.0356 18.864 52.9476 18.864H47.9236C47.9663 19.9307 48.105 20.784 48.3396 21.424C48.5956 22.0427 49.0436 22.4907 49.6836 22.768C50.345 23.0453 51.305 23.184 52.5636 23.184H57.7476V25.52C56.873 25.6907 55.945 25.84 54.9636 25.968C54.0036 26.096 52.8623 26.16 51.5396 26.16ZM47.8916 16.464H52.5636C53.3103 16.464 53.8543 16.3253 54.1956 16.048C54.5583 15.7493 54.7396 15.216 54.7396 14.448C54.7396 13.7013 54.633 13.1147 54.4196 12.688C54.2063 12.2613 53.8543 11.9627 53.3636 11.792C52.873 11.6 52.233 11.504 51.4436 11.504C50.5476 11.504 49.8436 11.6427 49.3316 11.92C48.8196 12.1973 48.4463 12.6987 48.2116 13.424C47.9983 14.128 47.8916 15.1413 47.8916 16.464ZM61.7816 26V8.848H65.0136L65.7496 10.64C66.539 10.0853 67.403 9.60533 68.3416 9.2C69.3016 8.77333 70.4323 8.56 71.7336 8.56C72.8003 8.56 73.6963 8.79467 74.4216 9.264C75.1683 9.712 75.723 10.2987 76.0856 11.024C76.5763 10.64 77.163 10.2667 77.8456 9.904C78.5496 9.52 79.2963 9.2 80.0856 8.944C80.875 8.688 81.6536 8.56 82.4216 8.56C83.7443 8.56 84.8003 8.82667 85.5896 9.36C86.4003 9.872 86.9763 10.5973 87.3176 11.536C87.659 12.4533 87.8296 13.52 87.8296 14.736V26H83.8616V15.056C83.8616 14.4373 83.7443 13.9147 83.5096 13.488C83.275 13.0613 82.9443 12.7307 82.5176 12.496C82.1123 12.2613 81.611 12.144 81.0136 12.144C80.2456 12.144 79.467 12.2933 78.6776 12.592C77.9096 12.8907 77.2056 13.2533 76.5656 13.68C76.651 13.8933 76.7043 14.128 76.7256 14.384C76.7683 14.64 76.7896 14.896 76.7896 15.152V26H72.8216V15.056C72.8216 14.4373 72.7043 13.9147 72.4696 13.488C72.235 13.0613 71.9043 12.7307 71.4776 12.496C71.0723 12.2613 70.571 12.144 69.9736 12.144C69.419 12.144 68.8963 12.1973 68.4056 12.304C67.9363 12.4107 67.4883 12.5707 67.0616 12.784C66.635 12.9973 66.1976 13.2533 65.7496 13.552V26H61.7816ZM98.7584 26.16C96.9024 26.16 95.4197 25.904 94.3104 25.392C93.2224 24.88 92.433 23.9947 91.9424 22.736C91.4517 21.456 91.2064 19.6853 91.2064 17.424C91.2064 15.12 91.441 13.3387 91.9104 12.08C92.3797 10.8 93.1584 9.904 94.2464 9.392C95.3344 8.88 96.8064 8.624 98.6624 8.624C100.305 8.624 101.617 8.79467 102.598 9.136C103.601 9.456 104.326 10.0427 104.774 10.896C105.244 11.728 105.478 12.912 105.478 14.448C105.478 15.536 105.265 16.4107 104.838 17.072C104.412 17.712 103.793 18.1707 102.982 18.448C102.193 18.7253 101.254 18.864 100.166 18.864H95.1424C95.185 19.9307 95.3237 20.784 95.5584 21.424C95.8144 22.0427 96.2624 22.4907 96.9024 22.768C97.5637 23.0453 98.5237 23.184 99.7824 23.184H104.966V25.52C104.092 25.6907 103.164 25.84 102.182 25.968C101.222 26.096 100.081 26.16 98.7584 26.16ZM95.1104 16.464H99.7824C100.529 16.464 101.073 16.3253 101.414 16.048C101.777 15.7493 101.958 15.216 101.958 14.448C101.958 13.7013 101.852 13.1147 101.638 12.688C101.425 12.2613 101.073 11.9627 100.582 11.792C100.092 11.6 99.4517 11.504 98.6624 11.504C97.7664 11.504 97.0624 11.6427 96.5504 11.92C96.0384 12.1973 95.665 12.6987 95.4304 13.424C95.217 14.128 95.1104 15.1413 95.1104 16.464Z" fill="#1A1A1A"/>
<path d="M12.3116 26H10.8116V27.5H12.3116V26ZM12.3116 5.936H13.8116V4.436H12.3116V5.936ZM5.52763 5.936H4.02762V7.436H5.52763V5.936ZM5.52763 2.384V0.883999H4.02762V2.384H5.52763ZM23.0316 2.384H24.5316V0.883999H23.0316V2.384ZM23.0316 5.936V7.436H24.5316V5.936H23.0316ZM16.2796 5.936V4.436H14.7796V5.936H16.2796ZM16.2796 26V27.5H17.7796V26H16.2796ZM13.8116 26V5.936H10.8116V26H13.8116ZM12.3116 4.436H5.52763V7.436H12.3116V4.436ZM7.02763 5.936V2.384H4.02762V5.936H7.02763ZM5.52763 3.884H23.0316V0.883999H5.52763V3.884ZM21.5316 2.384V5.936H24.5316V2.384H21.5316ZM23.0316 4.436H16.2796V7.436H23.0316V4.436ZM14.7796 5.936V26H17.7796V5.936H14.7796ZM16.2796 24.5H12.3116V27.5H16.2796V24.5ZM25.5629 26H24.0629V27.5H25.5629V26ZM25.5629 1.616V0.115999H24.0629V1.616H25.5629ZM29.5309 1.616H31.0309V0.115999H29.5309V1.616ZM29.5309 10.64H28.0309V13.64L30.4309 11.84L29.5309 10.64ZM32.0909 9.232L32.6678 10.6166L32.6748 10.6137L32.6818 10.6107L32.0909 9.232ZM38.3309 9.328L37.4988 10.5761L37.5067 10.5813L37.5146 10.5864L38.3309 9.328ZM40.0269 11.472L38.621 11.9951L38.6285 12.0151L38.6365 12.0348L40.0269 11.472ZM40.5709 26V27.5H42.0709V26H40.5709ZM36.6029 26H35.1029V27.5H36.6029V26ZM36.2509 13.488L34.9221 14.184L34.9292 14.1975L34.9366 14.2109L36.2509 13.488ZM35.2589 12.496L34.536 13.8103L34.5618 13.8245L34.5881 13.8376L35.2589 12.496ZM32.2189 12.336L32.5513 13.7987L32.5826 13.7916L32.6136 13.7831L32.2189 12.336ZM30.8429 12.816L30.198 11.4617L30.185 11.4679L30.1721 11.4744L30.8429 12.816ZM29.5309 13.552L28.7413 12.2766L28.0309 12.7164V13.552H29.5309ZM29.5309 26V27.5H31.0309V26H29.5309ZM27.0629 26V1.616H24.0629V26H27.0629ZM25.5629 3.116H29.5309V0.115999H25.5629V3.116ZM28.0309 1.616V10.64H31.0309V1.616H28.0309ZM30.4309 11.84C30.9894 11.4211 31.7264 11.0089 32.6678 10.6166L31.514 7.84738C30.4073 8.30848 29.4377 8.83486 28.6309 9.44L30.4309 11.84ZM32.6818 10.6107C33.549 10.239 34.4152 10.06 35.2909 10.06V7.06C33.9906 7.06 32.7234 7.32896 31.5 7.85328L32.6818 10.6107ZM35.2909 10.06C36.3581 10.06 37.0519 10.2781 37.4988 10.5761L39.1629 8.07992C38.0738 7.35387 36.741 7.06 35.2909 7.06V10.06ZM37.5146 10.5864C38.0221 10.9156 38.3873 11.3668 38.621 11.9951L41.4327 10.9489C40.9838 9.74251 40.2184 8.76439 39.1472 8.06956L37.5146 10.5864ZM38.6365 12.0348C38.9143 12.7212 39.0709 13.5487 39.0709 14.544H42.0709C42.0709 13.2353 41.8648 12.0148 41.4173 10.9092L38.6365 12.0348ZM39.0709 14.544V26H42.0709V14.544H39.0709ZM40.5709 24.5H36.6029V27.5H40.5709V24.5ZM38.1029 26V15.024H35.1029V26H38.1029ZM38.1029 15.024C38.1029 14.2306 37.9464 13.4581 37.5652 12.7651L34.9366 14.2109C35.0247 14.3712 35.1029 14.6227 35.1029 15.024H38.1029ZM37.5796 12.792C37.2082 12.0829 36.6555 11.5172 35.9297 11.1544L34.5881 13.8376C34.7156 13.9014 34.8242 13.9971 34.9221 14.184L37.5796 12.792ZM35.9818 11.1817C35.2963 10.8047 34.5373 10.644 33.7549 10.644V13.644C34.1244 13.644 34.3681 13.718 34.536 13.8103L35.9818 11.1817ZM33.7549 10.644C33.0852 10.644 32.4387 10.7213 31.8242 10.8889L32.6136 13.7831C32.9377 13.6947 33.3153 13.644 33.7549 13.644V10.644ZM31.8864 10.8733C31.306 11.0052 30.7427 11.2023 30.198 11.4617L31.4878 14.1703C31.839 14.003 32.1931 13.8801 32.5513 13.7987L31.8864 10.8733ZM30.1721 11.4744C29.7009 11.7099 29.224 11.9778 28.7413 12.2766L30.3204 14.8274C30.7338 14.5715 31.1315 14.3487 31.5137 14.1576L30.1721 11.4744ZM28.0309 13.552V26H31.0309V13.552H28.0309ZM29.5309 24.5H25.5629V27.5H29.5309V24.5ZM47.0916 25.392L46.4529 26.7493L46.463 26.7539L47.0916 25.392ZM44.7236 22.736L43.323 23.2729L43.3261 23.2808L44.7236 22.736ZM44.6916 12.08L46.0971 12.6041L46.0999 12.5964L44.6916 12.08ZM47.0276 9.392L46.3889 8.03477V8.03477L47.0276 9.392ZM55.3796 9.136L54.8868 10.5527L54.9051 10.5591L54.9236 10.565L55.3796 9.136ZM57.5556 10.896L56.2275 11.5932L56.238 11.6133L56.2492 11.633L57.5556 10.896ZM57.6196 17.072L58.8677 17.904L58.874 17.8947L58.8801 17.8852L57.6196 17.072ZM55.7636 18.448L55.2781 17.0287L55.2664 17.0328L55.7636 18.448ZM47.9236 18.864V17.364H46.3624L46.4248 18.924L47.9236 18.864ZM48.3396 21.424L46.9313 21.9404L46.9419 21.9692L46.9536 21.9975L48.3396 21.424ZM49.6836 22.768L49.0872 24.1443L49.0954 24.1479L49.1035 24.1513L49.6836 22.768ZM57.7476 23.184H59.2476V21.684H57.7476V23.184ZM57.7476 25.52L58.0349 26.9922L59.2476 26.7556V25.52H57.7476ZM54.9636 25.968L54.7696 24.4806L54.7654 24.4812L54.9636 25.968ZM47.8916 16.464H46.3916V17.964H47.8916V16.464ZM54.1956 16.048L55.1415 17.2122L55.1492 17.2059L54.1956 16.048ZM54.4196 12.688L53.078 13.3588V13.3588L54.4196 12.688ZM53.3636 11.792L52.817 13.1889L52.8437 13.1993L52.8708 13.2087L53.3636 11.792ZM49.3316 11.92L48.6172 10.6011V10.6011L49.3316 11.92ZM48.2116 13.424L46.7845 12.9623L46.7802 12.9756L46.7761 12.989L48.2116 13.424ZM51.5396 24.66C49.7986 24.66 48.5571 24.4163 47.7202 24.0301L46.463 26.7539C47.8448 27.3917 49.5687 27.66 51.5396 27.66V24.66ZM47.7303 24.0348C47.0339 23.707 46.491 23.1397 46.1212 22.1912L43.3261 23.2808C43.9376 24.8496 44.9734 26.053 46.4529 26.7492L47.7303 24.0348ZM46.1242 22.1991C45.7282 21.166 45.4876 19.6053 45.4876 17.424H42.4876C42.4876 19.7654 42.7377 21.746 43.323 23.2729L46.1242 22.1991ZM45.4876 17.424C45.4876 15.1898 45.7195 13.6166 46.0971 12.6041L43.2862 11.5559C42.725 13.0607 42.4876 15.0502 42.4876 17.424H45.4876ZM46.0999 12.5964C46.4531 11.6331 46.9843 11.0702 47.6663 10.7492L46.3889 8.03477C44.8949 8.73782 43.8688 9.96689 43.2833 11.5636L46.0999 12.5964ZM47.6663 10.7492C48.4755 10.3684 49.7002 10.124 51.4436 10.124V7.124C49.475 7.124 47.7558 7.39156 46.3889 8.03477L47.6663 10.7492ZM51.4436 10.124C53.0043 10.124 54.1286 10.289 54.8868 10.5527L55.8724 7.71925C54.668 7.30033 53.1683 7.124 51.4436 7.124V10.124ZM54.9236 10.565C55.5887 10.7773 55.9805 11.1227 56.2275 11.5932L58.8837 10.1987C58.2348 8.96262 57.1759 8.13474 55.8357 7.70701L54.9236 10.565ZM56.2492 11.633C56.5368 12.1428 56.7596 13.0292 56.7596 14.448H59.7596C59.7596 12.7948 59.5131 11.3132 58.8621 10.159L56.2492 11.633ZM56.7596 14.448C56.7596 15.3539 56.5804 15.916 56.3592 16.2588L58.8801 17.8852C59.5122 16.9053 59.7596 15.7181 59.7596 14.448H56.7596ZM56.3716 16.2399C56.1485 16.5746 55.8144 16.8453 55.2781 17.0288L56.2492 19.8672C57.3342 19.4961 58.2374 18.8494 58.8677 17.904L56.3716 16.2399ZM55.2664 17.0328C54.6767 17.24 53.9144 17.364 52.9476 17.364V20.364C54.1568 20.364 55.2719 20.2107 56.2609 19.8632L55.2664 17.0328ZM52.9476 17.364H47.9236V20.364H52.9476V17.364ZM46.4248 18.924C46.4706 20.0688 46.6215 21.0953 46.9313 21.9404L49.7479 20.9076C49.5885 20.4727 49.462 19.7925 49.4224 18.804L46.4248 18.924ZM46.9536 21.9975C47.3653 22.9925 48.1063 23.7193 49.0872 24.1443L50.28 21.3917C49.9809 21.2621 49.8259 21.0928 49.7256 20.8505L46.9536 21.9975ZM49.1035 24.1513C50.038 24.5431 51.2335 24.684 52.5636 24.684V21.684C51.3764 21.684 50.652 21.5475 50.2637 21.3847L49.1035 24.1513ZM52.5636 24.684H57.7476V21.684H52.5636V24.684ZM56.2476 23.184V25.52H59.2476V23.184H56.2476ZM57.4604 24.0478C56.6198 24.2118 55.7231 24.3562 54.7696 24.4806L55.1576 27.4554C56.1668 27.3238 57.1262 27.1696 58.0349 26.9922L57.4604 24.0478ZM54.7654 24.4812C53.8899 24.5979 52.8181 24.66 51.5396 24.66V27.66C52.9064 27.66 54.1173 27.5941 55.1619 27.4548L54.7654 24.4812ZM47.8916 17.964H52.5636V14.964H47.8916V17.964ZM52.5636 17.964C53.4357 17.964 54.4016 17.8133 55.1415 17.2122L53.2497 14.8838C53.2875 14.8532 53.2788 14.8765 53.1611 14.9065C53.0424 14.9367 52.8503 14.964 52.5636 14.964V17.964ZM55.1492 17.2059C56.0275 16.4826 56.2396 15.3844 56.2396 14.448H53.2396C53.2396 14.7232 53.206 14.875 53.1835 14.9411C53.1646 14.9967 53.1687 14.9505 53.2421 14.8901L55.1492 17.2059ZM56.2396 14.448C56.2396 13.587 56.1212 12.7371 55.7613 12.0172L53.078 13.3588C53.1447 13.4922 53.2396 13.8157 53.2396 14.448H56.2396ZM55.7613 12.0172C55.3567 11.208 54.6804 10.6618 53.8564 10.3753L52.8708 13.2087C53.0282 13.2635 53.0559 13.3147 53.078 13.3588L55.7613 12.0172ZM53.9102 10.3951C53.1812 10.1099 52.3359 10.004 51.4436 10.004V13.004C52.1301 13.004 52.5647 13.0901 52.817 13.1889L53.9102 10.3951ZM51.4436 10.004C50.4207 10.004 49.4357 10.1577 48.6172 10.6011L50.0461 13.2389C50.2516 13.1276 50.6746 13.004 51.4436 13.004V10.004ZM48.6172 10.6011C47.6717 11.1132 47.0999 11.9873 46.7845 12.9623L49.6388 13.8857C49.7927 13.41 49.9675 13.2815 50.0461 13.2389L48.6172 10.6011ZM46.7761 12.989C46.4988 13.9041 46.3916 15.0915 46.3916 16.464H49.3916C49.3916 15.1912 49.4978 14.3519 49.6472 13.859L46.7761 12.989ZM61.7816 26H60.2816V27.5H61.7816V26ZM61.7816 8.848V7.348H60.2816V8.848H61.7816ZM65.0136 8.848L66.4012 8.27812L66.0191 7.348H65.0136V8.848ZM65.7496 10.64L64.3621 11.2099L65.0756 12.947L66.612 11.8673L65.7496 10.64ZM68.3416 9.2L68.9363 10.5771L68.9436 10.5739L68.9508 10.5707L68.3416 9.2ZM74.4216 9.264L73.6068 10.5234L73.6281 10.5372L73.6499 10.5502L74.4216 9.264ZM76.0856 11.024L74.744 11.6948L75.5648 13.3364L77.0101 12.2053L76.0856 11.024ZM77.8456 9.904L78.5494 11.2287L78.5566 11.2248L78.5639 11.2208L77.8456 9.904ZM80.0856 8.944L79.6229 7.51716V7.51716L80.0856 8.944ZM85.5896 9.36L84.7498 10.6029L84.769 10.6159L84.7886 10.6282L85.5896 9.36ZM87.3176 11.536L85.9079 12.0486L85.9118 12.0591L87.3176 11.536ZM87.8296 26V27.5H89.3296V26H87.8296ZM83.8616 26H82.3616V27.5H83.8616V26ZM83.5096 13.488L84.824 12.7651V12.7651L83.5096 13.488ZM82.5176 12.496L81.7661 13.7941L81.7803 13.8024L81.7947 13.8103L82.5176 12.496ZM78.6776 12.592L78.1468 11.189L78.134 11.194L78.6776 12.592ZM76.5656 13.68L75.7336 12.4319L74.7209 13.107L75.1729 14.2371L76.5656 13.68ZM76.7256 14.384L75.2308 14.5086L75.2359 14.5699L75.246 14.6306L76.7256 14.384ZM76.7896 26V27.5H78.2896V26H76.7896ZM72.8216 26H71.3216V27.5H72.8216V26ZM72.4696 13.488L73.784 12.7651V12.7651L72.4696 13.488ZM71.4776 12.496L70.7261 13.7941L70.7403 13.8024L70.7547 13.8103L71.4776 12.496ZM68.4056 12.304L68.087 10.8382L68.0732 10.8413L68.4056 12.304ZM67.0616 12.784L67.7324 14.1256L67.0616 12.784ZM65.7496 13.552L64.9176 12.3039L64.2496 12.7492V13.552H65.7496ZM65.7496 26V27.5H67.2496V26H65.7496ZM63.2816 26V8.848H60.2816V26H63.2816ZM61.7816 10.348H65.0136V7.348H61.7816V10.348ZM63.6261 9.41788L64.3621 11.2099L67.1372 10.0701L66.4012 8.27812L63.6261 9.41788ZM66.612 11.8673C67.3126 11.375 68.0862 10.9442 68.9363 10.5771L67.747 7.82291C66.7198 8.26648 65.7653 8.79569 64.8872 9.41271L66.612 11.8673ZM68.9508 10.5707C69.679 10.2471 70.5935 10.06 71.7336 10.06V7.06C70.2711 7.06 68.9242 7.29959 67.7324 7.82928L68.9508 10.5707ZM71.7336 10.06C72.5792 10.06 73.1756 10.2444 73.6068 10.5234L75.2365 8.00464C74.217 7.34496 73.0214 7.06 71.7336 7.06V10.06ZM73.6499 10.5502C74.1708 10.8628 74.5184 11.2436 74.744 11.6948L77.4273 10.3532C76.9275 9.35373 76.1658 8.56124 75.1934 7.97776L73.6499 10.5502ZM77.0101 12.2053C77.4174 11.8865 77.9267 11.5595 78.5494 11.2287L77.1419 8.57933C76.3993 8.97385 75.7352 9.39348 75.1612 9.84274L77.0101 12.2053ZM78.5639 11.2208C79.1835 10.8829 79.8444 10.5992 80.5484 10.3708L79.6229 7.51716C78.7482 7.80084 77.9157 8.15714 77.1273 8.58716L78.5639 11.2208ZM80.5484 10.3708C81.2003 10.1594 81.8229 10.06 82.4216 10.06V7.06C81.4844 7.06 80.5497 7.21658 79.6229 7.51716L80.5484 10.3708ZM82.4216 10.06C83.5575 10.06 84.2877 10.2906 84.7498 10.6029L86.4294 8.11711C85.3129 7.36271 83.9311 7.06 82.4216 7.06V10.06ZM84.7886 10.6282C85.3059 10.955 85.6751 11.4083 85.9079 12.0486L88.7273 11.0234C88.2775 9.78637 87.4946 8.78905 86.3906 8.09177L84.7886 10.6282ZM85.9118 12.0591C86.1778 12.774 86.3296 13.6569 86.3296 14.736H89.3296C89.3296 13.3831 89.1401 12.1327 88.7235 11.0129L85.9118 12.0591ZM86.3296 14.736V26H89.3296V14.736H86.3296ZM87.8296 24.5H83.8616V27.5H87.8296V24.5ZM85.3616 26V15.056H82.3616V26H85.3616ZM85.3616 15.056C85.3616 14.2515 85.2091 13.4653 84.824 12.7651L82.1953 14.2109C82.2795 14.364 82.3616 14.6232 82.3616 15.056H85.3616ZM84.824 12.7651C84.4522 12.0892 83.9164 11.5534 83.2405 11.1817L81.7947 13.8103C81.9722 13.9079 82.0977 14.0335 82.1953 14.2109L84.824 12.7651ZM83.2692 11.1979C82.5807 10.7993 81.8035 10.644 81.0136 10.644V13.644C81.4184 13.644 81.6438 13.7234 81.7661 13.7941L83.2692 11.1979ZM81.0136 10.644C80.0472 10.644 79.089 10.8326 78.1468 11.1891L79.2085 13.9949C79.8449 13.7541 80.4441 13.644 81.0136 13.644V10.644ZM78.134 11.194C77.2718 11.5293 76.4702 11.9409 75.7336 12.4319L77.3977 14.9281C77.9411 14.5658 78.5474 14.2521 79.2213 13.99L78.134 11.194ZM75.1729 14.2371C75.1968 14.2969 75.2204 14.3837 75.2308 14.5086L78.2204 14.2594C78.1882 13.8723 78.1051 13.4898 77.9583 13.1229L75.1729 14.2371ZM75.246 14.6306C75.2753 14.8062 75.2896 14.9798 75.2896 15.152H78.2896C78.2896 14.8122 78.2613 14.4738 78.2052 14.1374L75.246 14.6306ZM75.2896 15.152V26H78.2896V15.152H75.2896ZM76.7896 24.5H72.8216V27.5H76.7896V24.5ZM74.3216 26V15.056H71.3216V26H74.3216ZM74.3216 15.056C74.3216 14.2515 74.1691 13.4653 73.784 12.7651L71.1553 14.2109C71.2395 14.364 71.3216 14.6232 71.3216 15.056H74.3216ZM73.784 12.7651C73.4122 12.0892 72.8764 11.5534 72.2005 11.1817L70.7547 13.8103C70.9322 13.9079 71.0577 14.0335 71.1553 14.2109L73.784 12.7651ZM72.2292 11.1979C71.5407 10.7993 70.7635 10.644 69.9736 10.644V13.644C70.3784 13.644 70.6038 13.7234 70.7261 13.7941L72.2292 11.1979ZM69.9736 10.644C69.3228 10.644 68.6926 10.7066 68.087 10.8382L68.7243 13.7698C69.1 13.6881 69.5151 13.644 69.9736 13.644V10.644ZM68.0732 10.8413C67.4877 10.9744 66.926 11.1748 66.3908 11.4424L67.7324 14.1256C68.0506 13.9666 68.3849 13.847 68.7381 13.7667L68.0732 10.8413ZM66.3908 11.4424C65.902 11.6868 65.4109 11.9751 64.9176 12.3039L66.5817 14.8001C66.9844 14.5316 67.368 14.3079 67.7324 14.1256L66.3908 11.4424ZM64.2496 13.552V26H67.2496V13.552H64.2496ZM65.7496 24.5H61.7816V27.5H65.7496V24.5ZM94.3104 25.392L93.6717 26.7493L93.6818 26.7539L94.3104 25.392ZM91.9424 22.736L90.5417 23.2729L90.5448 23.2808L91.9424 22.736ZM91.9104 12.08L93.3159 12.6041L93.3187 12.5964L91.9104 12.08ZM94.2464 9.392L93.6077 8.03477V8.03477L94.2464 9.392ZM102.598 9.136L102.106 10.5527L102.124 10.5591L102.142 10.565L102.598 9.136ZM104.774 10.896L103.446 11.5932L103.457 11.6133L103.468 11.633L104.774 10.896ZM104.838 17.072L106.086 17.904L106.093 17.8947L106.099 17.8852L104.838 17.072ZM102.982 18.448L102.497 17.0287L102.485 17.0328L102.982 18.448ZM95.1424 18.864V17.364H93.5812L93.6436 18.924L95.1424 18.864ZM95.5584 21.424L94.1501 21.9404L94.1606 21.9692L94.1723 21.9975L95.5584 21.424ZM96.9024 22.768L96.306 24.1443L96.3141 24.1479L96.3223 24.1513L96.9024 22.768ZM104.966 23.184H106.466V21.684H104.966V23.184ZM104.966 25.52L105.254 26.9922L106.466 26.7556V25.52H104.966ZM102.182 25.968L101.988 24.4806L101.984 24.4812L102.182 25.968ZM95.1104 16.464H93.6104V17.964H95.1104V16.464ZM101.414 16.048L102.36 17.2122L102.368 17.2059L101.414 16.048ZM101.638 12.688L100.297 13.3588V13.3588L101.638 12.688ZM100.582 11.792L100.036 13.1889L100.062 13.1993L100.09 13.2087L100.582 11.792ZM96.5504 11.92L95.836 10.6011V10.6011L96.5504 11.92ZM95.4304 13.424L94.0032 12.9623L93.9989 12.9756L93.9948 12.989L95.4304 13.424ZM98.7584 24.66C97.0173 24.66 95.7758 24.4163 94.939 24.0301L93.6818 26.7539C95.0636 27.3917 96.7874 27.66 98.7584 27.66V24.66ZM94.9491 24.0348C94.2526 23.707 93.7097 23.1397 93.3399 22.1912L90.5448 23.2808C91.1564 24.8496 92.1921 26.053 93.6717 26.7492L94.9491 24.0348ZM93.343 22.1991C92.947 21.166 92.7064 19.6053 92.7064 17.424H89.7064C89.7064 19.7654 89.9564 21.746 90.5418 23.2729L93.343 22.1991ZM92.7064 17.424C92.7064 15.1898 92.9383 13.6166 93.3158 12.6041L90.5049 11.5559C89.9438 13.0607 89.7064 15.0502 89.7064 17.424H92.7064ZM93.3187 12.5964C93.6719 11.6331 94.2031 11.0702 94.8851 10.7492L93.6077 8.03477C92.1137 8.73782 91.0875 9.96689 90.5021 11.5636L93.3187 12.5964ZM94.8851 10.7492C95.6943 10.3684 96.919 10.124 98.6624 10.124V7.124C96.6938 7.124 94.9745 7.39156 93.6077 8.03477L94.8851 10.7492ZM98.6624 10.124C100.223 10.124 101.347 10.289 102.106 10.5527L103.091 7.71925C101.887 7.30033 100.387 7.124 98.6624 7.124V10.124ZM102.142 10.565C102.807 10.7773 103.199 11.1227 103.446 11.5932L106.102 10.1987C105.454 8.96262 104.395 8.13474 103.054 7.70701L102.142 10.565ZM103.468 11.633C103.756 12.1428 103.978 13.0292 103.978 14.448H106.978C106.978 12.7948 106.732 11.3132 106.081 10.159L103.468 11.633ZM103.978 14.448C103.978 15.3539 103.799 15.916 103.578 16.2588L106.099 17.8852C106.731 16.9053 106.978 15.7181 106.978 14.448H103.978ZM103.59 16.2399C103.367 16.5746 103.033 16.8453 102.497 17.0288L103.468 19.8672C104.553 19.4961 105.456 18.8494 106.086 17.904L103.59 16.2399ZM102.485 17.0328C101.895 17.24 101.133 17.364 100.166 17.364V20.364C101.376 20.364 102.491 20.2107 103.48 19.8632L102.485 17.0328ZM100.166 17.364H95.1424V20.364H100.166V17.364ZM93.6436 18.924C93.6894 20.0688 93.8402 21.0953 94.1501 21.9404L96.9667 20.9076C96.8072 20.4727 96.6807 19.7925 96.6412 18.804L93.6436 18.924ZM94.1723 21.9975C94.5841 22.9925 95.3251 23.7193 96.306 24.1443L97.4988 21.3917C97.1997 21.2621 97.0447 21.0928 96.9444 20.8505L94.1723 21.9975ZM96.3223 24.1513C97.2567 24.5431 98.4522 24.684 99.7824 24.684V21.684C98.5952 21.684 97.8707 21.5475 97.4825 21.3847L96.3223 24.1513ZM99.7824 24.684H104.966V21.684H99.7824V24.684ZM103.466 23.184V25.52H106.466V23.184H103.466ZM104.679 24.0478C103.839 24.2118 102.942 24.3562 101.988 24.4806L102.376 27.4554C103.386 27.3238 104.345 27.1696 105.254 26.9922L104.679 24.0478ZM101.984 24.4812C101.109 24.5979 100.037 24.66 98.7584 24.66V27.66C100.125 27.66 101.336 27.5941 102.381 27.4548L101.984 24.4812ZM95.1104 17.964H99.7824V14.964H95.1104V17.964ZM99.7824 17.964C100.654 17.964 101.62 17.8133 102.36 17.2122L100.468 14.8838C100.506 14.8532 100.498 14.8765 100.38 14.9065C100.261 14.9367 100.069 14.964 99.7824 14.964V17.964ZM102.368 17.2059C103.246 16.4826 103.458 15.3844 103.458 14.448H100.458C100.458 14.7232 100.425 14.875 100.402 14.9411C100.383 14.9967 100.387 14.9505 100.461 14.8901L102.368 17.2059ZM103.458 14.448C103.458 13.587 103.34 12.7371 102.98 12.0172L100.297 13.3588C100.363 13.4922 100.458 13.8157 100.458 14.448H103.458ZM102.98 12.0172C102.575 11.208 101.899 10.6618 101.075 10.3753L100.09 13.2087C100.247 13.2635 100.275 13.3147 100.297 13.3588L102.98 12.0172ZM101.129 10.3951C100.4 10.1099 99.5546 10.004 98.6624 10.004V13.004C99.3488 13.004 99.7834 13.0901 100.036 13.1889L101.129 10.3951ZM98.6624 10.004C97.6394 10.004 96.6544 10.1577 95.836 10.6011L97.2648 13.2389C97.4703 13.1276 97.8933 13.004 98.6624 13.004V10.004ZM95.836 10.6011C94.8905 11.1132 94.3186 11.9873 94.0032 12.9623L96.8575 13.8857C97.0114 13.41 97.1863 13.2815 97.2648 13.2389L95.836 10.6011ZM93.9948 12.989C93.7175 13.9041 93.6104 15.0915 93.6104 16.464H96.6104C96.6104 15.1912 96.7166 14.3519 96.8659 13.859L93.9948 12.989Z" fill="url(#paint0_linear_111_53)"/>
</g>
<defs>
<filter id="filter0_d_111_53" x="0.027626" y="0.115997" width="110.951" height="35.544" filterUnits="userSpaceOnUse" color-interpolation-filters="sRGB">
<feFlood flood-opacity="0" result="BackgroundImageFix"/>
<feColorMatrix in="SourceAlpha" type="matrix" values="0 0 0 0 0 0 0 0 0 0 0 0 0 0 0 0 0 0 127 0" result="hardAlpha"/>
<feOffset dy="4"/>
<feGaussianBlur stdDeviation="2"/>
<feComposite in2="hardAlpha" operator="out"/>
<feColorMatrix type="matrix" values="0 0 0 0 0 0 0 0 0 0 0 0 0 0 0 0 0 0 0.25 0"/>
<feBlend mode="normal" in2="BackgroundImageFix" result="effect1_dropShadow_111_53"/>
<feBlend mode="normal" in="SourceGraphic" in2="effect1_dropShadow_111_53" result="shape"/>
</filter>
<linearGradient id="paint0_linear_111_53" x1="56" y1="5" x2="56" y2="26" gradientUnits="userSpaceOnUse">
<stop stop-color="#FAC6EA"/>
<stop offset="1" stop-color="#C9EDFB"/>
</linearGradient>
</defs>
</svg>
