<svg width="142" height="33" viewBox="0 0 142 33" fill="none" xmlns="http://www.w3.org/2000/svg">
<g id="Landing page" filter="url(#filter0_d_114_64)">
<path d="M14.0258 19H6.24984C5.97784 19 5.84184 18.864 5.84184 18.592V3.976C5.84184 3.704 5.97784 3.568 6.24984 3.568H7.76184C8.03384 3.568 8.16984 3.704 8.16984 3.976V16.672C8.16984 16.832 8.26584 16.912 8.45784 16.912H14.0258C14.2978 16.912 14.4338 17.056 14.4338 17.344V18.592C14.4338 18.864 14.2978 19 14.0258 19ZM20.8225 19H19.8865C18.7025 19 17.7825 18.672 17.1265 18.016C16.4865 17.36 16.1665 16.448 16.1665 15.28V10.48C16.1665 9.296 16.4865 8.384 17.1265 7.744C17.7825 7.088 18.7025 6.76 19.8865 6.76H25.2625C25.5505 6.76 25.6945 6.896 25.6945 7.168V18.592C25.6945 18.864 25.5505 19 25.2625 19H23.7505C23.4785 19 23.3425 18.864 23.3425 18.592V17.728H23.2465C22.8625 18.576 22.0545 19 20.8225 19ZM23.3425 14.92V9.04C23.3425 8.88 23.2545 8.8 23.0785 8.8H20.2225C19.0705 8.8 18.4945 9.392 18.4945 10.576V15.184C18.4945 16.368 19.0705 16.96 20.2225 16.96H21.3745C22.6865 16.96 23.3425 16.28 23.3425 14.92ZM30.6078 19H29.0958C28.8238 19 28.6878 18.864 28.6878 18.592V7.168C28.6878 6.896 28.8238 6.76 29.0958 6.76H30.6078C30.8798 6.76 31.0158 6.896 31.0158 7.168V8.032H31.1118C31.4958 7.184 32.3038 6.76 33.5358 6.76H34.5918C35.7598 6.76 36.6558 7.08 37.2798 7.72C37.9038 8.36 38.2158 9.28 38.2158 10.48V18.592C38.2158 18.864 38.0718 19 37.7838 19H36.2718C35.9998 19 35.8638 18.864 35.8638 18.592V10.576C35.8638 9.392 35.2798 8.8 34.1118 8.8H32.9838C31.6718 8.8 31.0158 9.48 31.0158 10.84V18.592C31.0158 18.864 30.8798 19 30.6078 19ZM45.6462 19H44.4222C43.2702 19 42.3822 18.68 41.7582 18.04C41.1502 17.384 40.8462 16.464 40.8462 15.28V10.48C40.8462 9.28 41.1502 8.36 41.7582 7.72C42.3822 7.08 43.2702 6.76 44.4222 6.76H45.6462C46.8782 6.76 47.6782 7.184 48.0462 8.032H48.1422V2.536C48.1422 2.264 48.2782 2.128 48.5502 2.128H50.0862C50.3582 2.128 50.4942 2.264 50.4942 2.536V18.592C50.4942 18.864 50.3582 19 50.0862 19H48.5502C48.2782 19 48.1422 18.864 48.1422 18.592V17.728H48.0462C47.6782 18.576 46.8782 19 45.6462 19ZM48.1422 14.92V10.84C48.1422 9.48 47.4862 8.8 46.1742 8.8H44.9022C43.7502 8.8 43.1742 9.392 43.1742 10.576V15.184C43.1742 16.368 43.7502 16.96 44.9022 16.96H46.1742C47.4862 16.96 48.1422 16.28 48.1422 14.92ZM53.6281 4.72V2.536C53.6281 2.28 53.7561 2.152 54.0121 2.152H55.5721C55.8281 2.152 55.9561 2.28 55.9561 2.536V4.72C55.9561 4.992 55.8281 5.128 55.5721 5.128H54.0121C53.7561 5.128 53.6281 4.992 53.6281 4.72ZM53.6281 18.592V7.168C53.6281 6.896 53.7561 6.76 54.0121 6.76H55.5481C55.8201 6.76 55.9561 6.896 55.9561 7.168V18.592C55.9561 18.752 55.9241 18.864 55.8601 18.928C55.8121 18.976 55.7161 19 55.5721 19H54.0361C53.7641 19 53.6281 18.864 53.6281 18.592ZM61.0297 19H59.5177C59.2457 19 59.1097 18.864 59.1097 18.592V7.168C59.1097 6.896 59.2457 6.76 59.5177 6.76H61.0297C61.3017 6.76 61.4377 6.896 61.4377 7.168V8.032H61.5337C61.9177 7.184 62.7257 6.76 63.9577 6.76H65.0137C66.1817 6.76 67.0777 7.08 67.7017 7.72C68.3257 8.36 68.6377 9.28 68.6377 10.48V18.592C68.6377 18.864 68.4937 19 68.2057 19H66.6937C66.4217 19 66.2857 18.864 66.2857 18.592V10.576C66.2857 9.392 65.7017 8.8 64.5337 8.8H63.4057C62.0937 8.8 61.4377 9.48 61.4377 10.84V18.592C61.4377 18.864 61.3017 19 61.0297 19ZM75.9721 18.4H74.8921C73.7401 18.4 72.8521 18.08 72.2281 17.44C71.6201 16.784 71.3161 15.864 71.3161 14.68V10.48C71.3161 9.296 71.6441 8.384 72.3001 7.744C72.9561 7.088 73.8681 6.76 75.0361 6.76H80.4121C80.7001 6.76 80.8441 6.896 80.8441 7.168V19.048C80.8441 20.216 80.5081 21.12 79.8361 21.76C79.1801 22.416 78.2681 22.744 77.1001 22.744H72.5881C72.3161 22.744 72.1801 22.616 72.1801 22.36V21.112C72.1801 20.84 72.3161 20.704 72.5881 20.704H76.7401C77.9081 20.704 78.4921 20.112 78.4921 18.928V17.104H78.3961C77.9961 17.968 77.1881 18.4 75.9721 18.4ZM78.4921 14.32V9.04C78.4921 8.88 78.4041 8.8 78.2281 8.8H75.3721C74.2361 8.8 73.6681 9.392 73.6681 10.576V14.56C73.6681 15.744 74.2361 16.336 75.3721 16.336H76.5241C77.8361 16.336 78.4921 15.664 78.4921 14.32ZM91.475 22.384H89.963C89.691 22.384 89.555 22.248 89.555 21.976V7.168C89.555 6.896 89.691 6.76 89.963 6.76H91.475C91.747 6.76 91.883 6.896 91.883 7.168V8.032H91.979C92.363 7.184 93.171 6.76 94.403 6.76H95.627C96.779 6.76 97.659 7.08 98.267 7.72C98.891 8.36 99.203 9.28 99.203 10.48V15.28C99.203 16.464 98.891 17.384 98.267 18.04C97.659 18.68 96.779 19 95.627 19H94.403C93.171 19 92.363 18.576 91.979 17.728H91.883V21.976C91.883 22.248 91.747 22.384 91.475 22.384ZM93.851 16.96H95.123C96.275 16.96 96.851 16.368 96.851 15.184V10.576C96.851 9.392 96.275 8.8 95.123 8.8H93.851C92.539 8.8 91.883 9.48 91.883 10.84V14.92C91.883 16.28 92.539 16.96 93.851 16.96ZM106.393 19H105.457C104.273 19 103.353 18.672 102.697 18.016C102.057 17.36 101.737 16.448 101.737 15.28V10.48C101.737 9.296 102.057 8.384 102.697 7.744C103.353 7.088 104.273 6.76 105.457 6.76H110.833C111.121 6.76 111.265 6.896 111.265 7.168V18.592C111.265 18.864 111.121 19 110.833 19H109.321C109.049 19 108.913 18.864 108.913 18.592V17.728H108.817C108.433 18.576 107.625 19 106.393 19ZM108.913 14.92V9.04C108.913 8.88 108.825 8.8 108.649 8.8H105.793C104.641 8.8 104.065 9.392 104.065 10.576V15.184C104.065 16.368 104.641 16.96 105.793 16.96H106.945C108.257 16.96 108.913 16.28 108.913 14.92ZM118.722 18.4H117.642C116.49 18.4 115.602 18.08 114.978 17.44C114.37 16.784 114.066 15.864 114.066 14.68V10.48C114.066 9.296 114.394 8.384 115.05 7.744C115.706 7.088 116.618 6.76 117.786 6.76H123.162C123.45 6.76 123.594 6.896 123.594 7.168V19.048C123.594 20.216 123.258 21.12 122.586 21.76C121.93 22.416 121.018 22.744 119.85 22.744H115.338C115.066 22.744 114.93 22.616 114.93 22.36V21.112C114.93 20.84 115.066 20.704 115.338 20.704H119.49C120.658 20.704 121.242 20.112 121.242 18.928V17.104H121.146C120.746 17.968 119.938 18.4 118.722 18.4ZM121.242 14.32V9.04C121.242 8.88 121.154 8.8 120.978 8.8H118.122C116.986 8.8 116.418 9.392 116.418 10.576V14.56C116.418 15.744 116.986 16.336 118.122 16.336H119.274C120.586 16.336 121.242 15.664 121.242 14.32ZM135.25 19H130.066C128.882 19 127.962 18.672 127.306 18.016C126.666 17.36 126.346 16.448 126.346 15.28V10.48C126.346 9.296 126.666 8.384 127.306 7.744C127.962 7.088 128.882 6.76 130.066 6.76H132.034C133.218 6.76 134.138 7.088 134.794 7.744C135.45 8.384 135.778 9.296 135.778 10.48V13.528C135.778 13.816 135.634 13.96 135.346 13.96H128.914C128.738 13.96 128.65 14.04 128.65 14.2V15.232C128.65 16.4 129.234 16.984 130.402 16.984H135.25C135.538 16.984 135.682 17.128 135.682 17.416V18.616C135.682 18.872 135.538 19 135.25 19ZM128.914 12.328H133.21C133.37 12.328 133.45 12.248 133.45 12.088V10.552C133.45 9.944 133.314 9.504 133.042 9.232C132.77 8.944 132.33 8.8 131.722 8.8H130.402C129.794 8.8 129.354 8.944 129.082 9.232C128.81 9.504 128.674 9.944 128.674 10.552V12.088C128.674 12.248 128.754 12.328 128.914 12.328Z" fill="#1A1A1A"/>
<path d="M14.0258 17.5H6.24984V20.5H14.0258V17.5ZM6.24984 17.5C6.34506 17.5 6.69198 17.5248 7.0045 17.8373C7.31702 18.1499 7.34184 18.4968 7.34184 18.592H4.34184C4.34184 18.9592 4.43466 19.5101 4.88318 19.9587C5.3317 20.4072 5.88263 20.5 6.24984 20.5V17.5ZM7.34184 18.592V3.976H4.34184V18.592H7.34184ZM7.34184 3.976C7.34184 4.07122 7.31702 4.41814 7.0045 4.73066C6.69198 5.04318 6.34506 5.068 6.24984 5.068V2.068C5.88263 2.068 5.3317 2.16082 4.88318 2.60934C4.43466 3.05786 4.34184 3.60878 4.34184 3.976H7.34184ZM6.24984 5.068H7.76184V2.068H6.24984V5.068ZM7.76184 5.068C7.66663 5.068 7.3197 5.04318 7.00718 4.73066C6.69466 4.41814 6.66984 4.07122 6.66984 3.976H9.66984C9.66984 3.60878 9.57702 3.05786 9.1285 2.60934C8.67998 2.16082 8.12906 2.068 7.76184 2.068V5.068ZM6.66984 3.976V16.672H9.66984V3.976H6.66984ZM6.66984 16.672C6.66984 17.0624 6.80003 17.6031 7.28157 18.0043C7.71072 18.362 8.19048 18.412 8.45784 18.412V15.412C8.53321 15.412 8.86897 15.422 9.20212 15.6997C9.58766 16.0209 9.66984 16.4416 9.66984 16.672H6.66984ZM8.45784 18.412H14.0258V15.412H8.45784V18.412ZM14.0258 18.412C13.908 18.412 13.5499 18.3766 13.2413 18.0499C12.948 17.7393 12.9338 17.4105 12.9338 17.344H15.9338C15.9338 16.9895 15.8517 16.4447 15.4224 15.9901C14.9778 15.5194 14.4157 15.412 14.0258 15.412V18.412ZM12.9338 17.344V18.592H15.9338V17.344H12.9338ZM12.9338 18.592C12.9338 18.4968 12.9587 18.1499 13.2712 17.8373C13.5837 17.5248 13.9306 17.5 14.0258 17.5V20.5C14.3931 20.5 14.944 20.4072 15.3925 19.9587C15.841 19.5101 15.9338 18.9592 15.9338 18.592H12.9338ZM17.1265 18.016L16.0529 19.0635L16.0593 19.0701L16.0659 19.0767L17.1265 18.016ZM17.1265 7.744L18.1872 8.80466H18.1872L17.1265 7.744ZM23.3425 17.728H24.8425V16.228H23.3425V17.728ZM23.2465 17.728V16.228H22.2792L21.8801 17.1092L23.2465 17.728ZM20.8225 17.5H19.8865V20.5H20.8225V17.5ZM19.8865 17.5C18.9851 17.5 18.4897 17.2578 18.1872 16.9553L16.0659 19.0767C17.0754 20.0862 18.42 20.5 19.8865 20.5V17.5ZM18.2002 16.9685C17.903 16.6639 17.6665 16.1689 17.6665 15.28H14.6665C14.6665 16.7271 15.07 18.0561 16.0529 19.0635L18.2002 16.9685ZM17.6665 15.28V10.48H14.6665V15.28H17.6665ZM17.6665 10.48C17.6665 9.56632 17.9074 9.08447 18.1872 8.80466L16.0659 6.68334C15.0657 7.68353 14.6665 9.02568 14.6665 10.48H17.6665ZM18.1872 8.80466C18.4897 8.50215 18.9851 8.26 19.8865 8.26V5.26C18.42 5.26 17.0754 5.67384 16.0659 6.68334L18.1872 8.80466ZM19.8865 8.26H25.2625V5.26H19.8865V8.26ZM25.2625 8.26C25.196 8.26 24.8672 8.24589 24.5566 7.95252C24.2299 7.64396 24.1945 7.28582 24.1945 7.168H27.1945C27.1945 6.77818 27.0872 6.21604 26.6165 5.77148C26.1618 5.34211 25.6171 5.26 25.2625 5.26V8.26ZM24.1945 7.168V18.592H27.1945V7.168H24.1945ZM24.1945 18.592C24.1945 18.4742 24.2299 18.116 24.5566 17.8075C24.8672 17.5141 25.196 17.5 25.2625 17.5V20.5C25.6171 20.5 26.1618 20.4179 26.6165 19.9885C27.0872 19.544 27.1945 18.9818 27.1945 18.592H24.1945ZM25.2625 17.5H23.7505V20.5H25.2625V17.5ZM23.7505 17.5C23.8457 17.5 24.1927 17.5248 24.5052 17.8373C24.8177 18.1499 24.8425 18.4968 24.8425 18.592H21.8425C21.8425 18.9592 21.9354 19.5101 22.3839 19.9587C22.8324 20.4072 23.3833 20.5 23.7505 20.5V17.5ZM24.8425 18.592V17.728H21.8425V18.592H24.8425ZM23.3425 16.228H23.2465V19.228H23.3425V16.228ZM21.8801 17.1092C21.8208 17.2403 21.6931 17.5 20.8225 17.5V20.5C22.4159 20.5 23.9043 19.9117 24.613 18.3468L21.8801 17.1092ZM24.8425 14.92V9.04H21.8425V14.92H24.8425ZM24.8425 9.04C24.8425 8.68999 24.7397 8.16296 24.2855 7.75009C23.8585 7.36187 23.3643 7.3 23.0785 7.3V10.3C22.9688 10.3 22.6066 10.2781 22.2675 9.96991C21.9014 9.63704 21.8425 9.23001 21.8425 9.04H24.8425ZM23.0785 7.3H20.2225V10.3H23.0785V7.3ZM20.2225 7.3C19.4047 7.3 18.5183 7.51259 17.8514 8.19797C17.192 8.87572 16.9945 9.76293 16.9945 10.576H19.9945C19.9945 10.397 20.0168 10.3004 20.0294 10.2618C20.0397 10.2299 20.0378 10.2528 20.0016 10.29C19.9646 10.3281 19.9356 10.3359 19.9527 10.33C19.9774 10.3216 20.0587 10.3 20.2225 10.3V7.3ZM16.9945 10.576V15.184H19.9945V10.576H16.9945ZM16.9945 15.184C16.9945 15.9971 17.192 16.8843 17.8514 17.562C18.5183 18.2474 19.4047 18.46 20.2225 18.46V15.46C20.0587 15.46 19.9774 15.4384 19.9527 15.43C19.9356 15.4241 19.9646 15.4319 20.0016 15.47C20.0378 15.5072 20.0397 15.5301 20.0294 15.4982C20.0168 15.4596 19.9945 15.363 19.9945 15.184H16.9945ZM20.2225 18.46H21.3745V15.46H20.2225V18.46ZM21.3745 18.46C22.2757 18.46 23.2238 18.2235 23.9301 17.4914C24.6266 16.7694 24.8425 15.818 24.8425 14.92H21.8425C21.8425 15.382 21.7304 15.4506 21.771 15.4086C21.8212 15.3565 21.7853 15.46 21.3745 15.46V18.46ZM31.0158 8.032H29.5158V9.532H31.0158V8.032ZM31.1118 8.032V9.532H32.0792L32.4782 8.65076L31.1118 8.032ZM37.2798 7.72L38.3538 6.67285L37.2798 7.72ZM30.6078 17.5H29.0958V20.5H30.6078V17.5ZM29.0958 17.5C29.191 17.5 29.5379 17.5248 29.8504 17.8373C30.163 18.1499 30.1878 18.4968 30.1878 18.592H27.1878C27.1878 18.9592 27.2806 19.5101 27.7291 19.9587C28.1776 20.4072 28.7286 20.5 29.0958 20.5V17.5ZM30.1878 18.592V7.168H27.1878V18.592H30.1878ZM30.1878 7.168C30.1878 7.26322 30.163 7.61014 29.8504 7.92266C29.5379 8.23518 29.191 8.26 29.0958 8.26V5.26C28.7286 5.26 28.1776 5.35282 27.7291 5.80134C27.2806 6.24986 27.1878 6.80078 27.1878 7.168H30.1878ZM29.0958 8.26H30.6078V5.26H29.0958V8.26ZM30.6078 8.26C30.5126 8.26 30.1656 8.23518 29.8531 7.92266C29.5406 7.61014 29.5158 7.26322 29.5158 7.168H32.5158C32.5158 6.80078 32.423 6.24986 31.9744 5.80134C31.5259 5.35282 30.975 5.26 30.6078 5.26V8.26ZM29.5158 7.168V8.032H32.5158V7.168H29.5158ZM31.0158 9.532H31.1118V6.532H31.0158V9.532ZM32.4782 8.65076C32.5376 8.5197 32.6652 8.26 33.5358 8.26V5.26C31.9424 5.26 30.454 5.8483 29.7453 7.41324L32.4782 8.65076ZM33.5358 8.26H34.5918V5.26H33.5358V8.26ZM34.5918 8.26C35.4849 8.26 35.9433 8.49792 36.2058 8.76715L38.3538 6.67285C37.3683 5.66208 36.0346 5.26 34.5918 5.26V8.26ZM36.2058 8.76715C36.4737 9.04193 36.7158 9.53368 36.7158 10.48H39.7158C39.7158 9.02632 39.3339 7.67807 38.3538 6.67285L36.2058 8.76715ZM36.7158 10.48V18.592H39.7158V10.48H36.7158ZM36.7158 18.592C36.7158 18.4742 36.7511 18.116 37.0778 17.8075C37.3885 17.5141 37.7173 17.5 37.7838 17.5V20.5C38.1383 20.5 38.6831 20.4179 39.1377 19.9885C39.6084 19.544 39.7158 18.9818 39.7158 18.592H36.7158ZM37.7838 17.5H36.2718V20.5H37.7838V17.5ZM36.2718 17.5C36.367 17.5 36.7139 17.5248 37.0264 17.8373C37.339 18.1499 37.3638 18.4968 37.3638 18.592H34.3638C34.3638 18.9592 34.4566 19.5101 34.9051 19.9587C35.3536 20.4072 35.9046 20.5 36.2718 20.5V17.5ZM37.3638 18.592V10.576H34.3638V18.592H37.3638ZM37.3638 10.576C37.3638 9.75788 37.1617 8.86777 36.4936 8.19058C35.8219 7.50963 34.9322 7.3 34.1118 7.3V10.3C34.2815 10.3 34.3684 10.322 34.3981 10.3321C34.4204 10.3396 34.3941 10.3341 34.3579 10.2974C34.3222 10.2612 34.3196 10.2379 34.3293 10.2676C34.3414 10.3042 34.3638 10.3988 34.3638 10.576H37.3638ZM34.1118 7.3H32.9838V10.3H34.1118V7.3ZM32.9838 7.3C32.0826 7.3 31.1345 7.53647 30.4282 8.26856C29.7317 8.99062 29.5158 9.94201 29.5158 10.84H32.5158C32.5158 10.378 32.6279 10.3094 32.5873 10.3514C32.5371 10.4035 32.573 10.3 32.9838 10.3V7.3ZM29.5158 10.84V18.592H32.5158V10.84H29.5158ZM29.5158 18.592C29.5158 18.4968 29.5406 18.1499 29.8531 17.8373C30.1656 17.5248 30.5126 17.5 30.6078 17.5V20.5C30.975 20.5 31.5259 20.4072 31.9744 19.9587C32.423 19.5101 32.5158 18.9592 32.5158 18.592H29.5158ZM41.7582 18.04L40.6581 19.0596L40.671 19.0736L40.6842 19.0872L41.7582 18.04ZM41.7582 7.72L40.6842 6.67285L40.6774 6.67982L40.6707 6.68688L41.7582 7.72ZM48.0462 8.032L46.6702 8.62914L47.062 9.532H48.0462V8.032ZM48.1422 8.032V9.532H49.6422V8.032H48.1422ZM48.1422 17.728H49.6422V16.228H48.1422V17.728ZM48.0462 17.728V16.228H47.062L46.6702 17.1309L48.0462 17.728ZM45.6462 17.5H44.4222V20.5H45.6462V17.5ZM44.4222 17.5C43.552 17.5 43.0985 17.2659 42.8322 16.9928L40.6842 19.0872C41.666 20.0941 42.9884 20.5 44.4222 20.5V17.5ZM42.8584 17.0204C42.5815 16.7217 42.3462 16.2112 42.3462 15.28H39.3462C39.3462 16.7168 39.7189 18.0463 40.6581 19.0596L42.8584 17.0204ZM42.3462 15.28V10.48H39.3462V15.28H42.3462ZM42.3462 10.48C42.3462 9.52384 42.5857 9.02678 42.8457 8.75312L40.6707 6.68688C39.7147 7.69322 39.3462 9.03616 39.3462 10.48H42.3462ZM42.8322 8.76715C43.0985 8.49407 43.552 8.26 44.4222 8.26V5.26C42.9884 5.26 41.666 5.66593 40.6842 6.67285L42.8322 8.76715ZM44.4222 8.26H45.6462V5.26H44.4222V8.26ZM45.6462 8.26C46.1015 8.26 46.348 8.33988 46.4678 8.40336C46.5604 8.45244 46.6186 8.51014 46.6702 8.62914L49.4222 7.43486C49.1059 6.70586 48.58 6.12756 47.8727 5.75264C47.1924 5.39212 46.4229 5.26 45.6462 5.26V8.26ZM48.0462 9.532H48.1422V6.532H48.0462V9.532ZM49.6422 8.032V2.536H46.6422V8.032H49.6422ZM49.6422 2.536C49.6422 2.63122 49.6174 2.97814 49.3049 3.29066C48.9924 3.60318 48.6454 3.628 48.5502 3.628V0.628C48.183 0.628 47.6321 0.720819 47.1836 1.16934C46.735 1.61786 46.6422 2.16878 46.6422 2.536H49.6422ZM48.5502 3.628H50.0862V0.628H48.5502V3.628ZM50.0862 3.628C49.991 3.628 49.6441 3.60318 49.3316 3.29066C49.019 2.97814 48.9942 2.63122 48.9942 2.536H51.9942C51.9942 2.16878 51.9014 1.61786 51.4529 1.16934C51.0044 0.720819 50.4534 0.628 50.0862 0.628V3.628ZM48.9942 2.536V18.592H51.9942V2.536H48.9942ZM48.9942 18.592C48.9942 18.4968 49.019 18.1499 49.3316 17.8373C49.6441 17.5248 49.991 17.5 50.0862 17.5V20.5C50.4534 20.5 51.0044 20.4072 51.4529 19.9587C51.9014 19.5101 51.9942 18.9592 51.9942 18.592H48.9942ZM50.0862 17.5H48.5502V20.5H50.0862V17.5ZM48.5502 17.5C48.6454 17.5 48.9924 17.5248 49.3049 17.8373C49.6174 18.1499 49.6422 18.4968 49.6422 18.592H46.6422C46.6422 18.9592 46.735 19.5101 47.1836 19.9587C47.6321 20.4072 48.183 20.5 48.5502 20.5V17.5ZM49.6422 18.592V17.728H46.6422V18.592H49.6422ZM48.1422 16.228H48.0462V19.228H48.1422V16.228ZM46.6702 17.1309C46.6186 17.2499 46.5604 17.3076 46.4678 17.3566C46.348 17.4201 46.1015 17.5 45.6462 17.5V20.5C46.4229 20.5 47.1924 20.3679 47.8727 20.0074C48.58 19.6324 49.1059 19.0541 49.4222 18.3251L46.6702 17.1309ZM49.6422 14.92V10.84H46.6422V14.92H49.6422ZM49.6422 10.84C49.6422 9.94201 49.4263 8.99062 48.7298 8.26856C48.0235 7.53647 47.0754 7.3 46.1742 7.3V10.3C46.585 10.3 46.6209 10.4035 46.5707 10.3514C46.5301 10.3094 46.6422 10.378 46.6422 10.84H49.6422ZM46.1742 7.3H44.9022V10.3H46.1742V7.3ZM44.9022 7.3C44.0844 7.3 43.198 7.51259 42.5311 8.19797C41.8717 8.87572 41.6742 9.76293 41.6742 10.576H44.6742C44.6742 10.397 44.6965 10.3004 44.7091 10.2618C44.7194 10.2299 44.7175 10.2528 44.6813 10.29C44.6442 10.3281 44.6153 10.3359 44.6324 10.33C44.6571 10.3216 44.7383 10.3 44.9022 10.3V7.3ZM41.6742 10.576V15.184H44.6742V10.576H41.6742ZM41.6742 15.184C41.6742 15.9971 41.8717 16.8843 42.5311 17.562C43.198 18.2474 44.0844 18.46 44.9022 18.46V15.46C44.7383 15.46 44.6571 15.4384 44.6324 15.43C44.6153 15.4241 44.6442 15.4319 44.6813 15.47C44.7175 15.5072 44.7194 15.5301 44.7091 15.4982C44.6965 15.4596 44.6742 15.363 44.6742 15.184H41.6742ZM44.9022 18.46H46.1742V15.46H44.9022V18.46ZM46.1742 18.46C47.0754 18.46 48.0235 18.2235 48.7298 17.4914C49.4263 16.7694 49.6422 15.818 49.6422 14.92H46.6422C46.6422 15.382 46.5301 15.4506 46.5707 15.4086C46.6209 15.3565 46.585 15.46 46.1742 15.46V18.46ZM55.8601 18.928L56.9208 19.9887V19.9887L55.8601 18.928ZM55.1281 4.72V2.536H52.1281V4.72H55.1281ZM55.1281 2.536C55.1281 2.63922 55.1013 2.99214 54.7848 3.30866C54.4682 3.62518 54.1153 3.652 54.0121 3.652V0.651999C53.6529 0.651999 53.108 0.742819 52.6634 1.18734C52.2189 1.63186 52.1281 2.17678 52.1281 2.536H55.1281ZM54.0121 3.652H55.5721V0.651999H54.0121V3.652ZM55.5721 3.652C55.4689 3.652 55.116 3.62518 54.7994 3.30866C54.4829 2.99214 54.4561 2.63922 54.4561 2.536H57.4561C57.4561 2.17678 57.3653 1.63186 56.9208 1.18734C56.4762 0.742819 55.9313 0.651999 55.5721 0.651999V3.652ZM54.4561 2.536V4.72H57.4561V2.536H54.4561ZM54.4561 4.72C54.4561 4.64667 54.4716 4.31265 54.7678 3.99795C55.0801 3.66617 55.4448 3.628 55.5721 3.628V6.628C55.9553 6.628 56.5121 6.52183 56.9524 6.05405C57.3766 5.60335 57.4561 5.06533 57.4561 4.72H54.4561ZM55.5721 3.628H54.0121V6.628H55.5721V3.628ZM54.0121 3.628C54.1393 3.628 54.5041 3.66617 54.8164 3.99795C55.1126 4.31265 55.1281 4.64667 55.1281 4.72H52.1281C52.1281 5.06533 52.2076 5.60335 52.6318 6.05405C53.0721 6.52183 53.6288 6.628 54.0121 6.628V3.628ZM55.1281 18.592V7.168H52.1281V18.592H55.1281ZM55.1281 7.168C55.1281 7.24133 55.1126 7.57535 54.8164 7.89005C54.5041 8.22183 54.1393 8.26 54.0121 8.26V5.26C53.6288 5.26 53.0721 5.36617 52.6318 5.83395C52.2076 6.28465 52.1281 6.82267 52.1281 7.168H55.1281ZM54.0121 8.26H55.5481V5.26H54.0121V8.26ZM55.5481 8.26C55.4529 8.26 55.106 8.23518 54.7934 7.92266C54.4809 7.61014 54.4561 7.26322 54.4561 7.168H57.4561C57.4561 6.80078 57.3633 6.24986 56.9148 5.80134C56.4662 5.35282 55.9153 5.26 55.5481 5.26V8.26ZM54.4561 7.168V18.592H57.4561V7.168H54.4561ZM54.4561 18.592C54.4561 18.5806 54.4563 18.5014 54.4898 18.3839C54.5242 18.2634 54.6067 18.0601 54.7994 17.8673L56.9208 19.9887C57.4166 19.4928 57.4561 18.8686 57.4561 18.592H54.4561ZM54.7994 17.8673C55.0362 17.6305 55.2859 17.5524 55.3883 17.5268C55.4997 17.4989 55.5717 17.5 55.5721 17.5V20.5C55.7165 20.5 55.9084 20.4891 56.1159 20.4372C56.3143 20.3876 56.6359 20.2735 56.9208 19.9887L54.7994 17.8673ZM55.5721 17.5H54.0361V20.5H55.5721V17.5ZM54.0361 17.5C54.1313 17.5 54.4782 17.5248 54.7908 17.8373C55.1033 18.1499 55.1281 18.4968 55.1281 18.592H52.1281C52.1281 18.9592 52.2209 19.5101 52.6694 19.9587C53.118 20.4072 53.6689 20.5 54.0361 20.5V17.5ZM61.4377 8.032H59.9377V9.532H61.4377V8.032ZM61.5337 8.032V9.532H62.501L62.9001 8.65076L61.5337 8.032ZM67.7017 7.72L68.7757 6.67285L67.7017 7.72ZM61.0297 17.5H59.5177V20.5H61.0297V17.5ZM59.5177 17.5C59.6129 17.5 59.9598 17.5248 60.2723 17.8373C60.5848 18.1499 60.6097 18.4968 60.6097 18.592H57.6097C57.6097 18.9592 57.7025 19.5101 58.151 19.9587C58.5995 20.4072 59.1504 20.5 59.5177 20.5V17.5ZM60.6097 18.592V7.168H57.6097V18.592H60.6097ZM60.6097 7.168C60.6097 7.26322 60.5848 7.61014 60.2723 7.92266C59.9598 8.23518 59.6129 8.26 59.5177 8.26V5.26C59.1504 5.26 58.5995 5.35282 58.151 5.80134C57.7025 6.24986 57.6097 6.80078 57.6097 7.168H60.6097ZM59.5177 8.26H61.0297V5.26H59.5177V8.26ZM61.0297 8.26C60.9344 8.26 60.5875 8.23518 60.275 7.92266C59.9625 7.61014 59.9377 7.26322 59.9377 7.168H62.9377C62.9377 6.80078 62.8448 6.24986 62.3963 5.80134C61.9478 5.35282 61.3969 5.26 61.0297 5.26V8.26ZM59.9377 7.168V8.032H62.9377V7.168H59.9377ZM61.4377 9.532H61.5337V6.532H61.4377V9.532ZM62.9001 8.65076C62.9594 8.5197 63.087 8.26 63.9577 8.26V5.26C62.3643 5.26 60.8759 5.8483 60.1672 7.41324L62.9001 8.65076ZM63.9577 8.26H65.0137V5.26H63.9577V8.26ZM65.0137 8.26C65.9068 8.26 66.3652 8.49792 66.6277 8.76715L68.7757 6.67285C67.7902 5.66208 66.4565 5.26 65.0137 5.26V8.26ZM66.6277 8.76715C66.8956 9.04193 67.1377 9.53368 67.1377 10.48H70.1377C70.1377 9.02632 69.7558 7.67807 68.7757 6.67285L66.6277 8.76715ZM67.1377 10.48V18.592H70.1377V10.48H67.1377ZM67.1377 18.592C67.1377 18.4742 67.173 18.116 67.4997 17.8075C67.8103 17.5141 68.1391 17.5 68.2057 17.5V20.5C68.5602 20.5 69.105 20.4179 69.5596 19.9885C70.0303 19.544 70.1377 18.9818 70.1377 18.592H67.1377ZM68.2057 17.5H66.6937V20.5H68.2057V17.5ZM66.6937 17.5C66.7889 17.5 67.1358 17.5248 67.4483 17.8373C67.7608 18.1499 67.7857 18.4968 67.7857 18.592H64.7857C64.7857 18.9592 64.8785 19.5101 65.327 19.9587C65.7755 20.4072 66.3264 20.5 66.6937 20.5V17.5ZM67.7857 18.592V10.576H64.7857V18.592H67.7857ZM67.7857 10.576C67.7857 9.75788 67.5835 8.86777 66.9155 8.19058C66.2438 7.50963 65.3541 7.3 64.5337 7.3V10.3C64.7034 10.3 64.7902 10.322 64.82 10.3321C64.8422 10.3396 64.816 10.3341 64.7798 10.2974C64.744 10.2612 64.7415 10.2379 64.7512 10.2676C64.7633 10.3042 64.7857 10.3988 64.7857 10.576H67.7857ZM64.5337 7.3H63.4057V10.3H64.5337V7.3ZM63.4057 7.3C62.5045 7.3 61.5564 7.53647 60.8501 8.26856C60.1535 8.99062 59.9377 9.94201 59.9377 10.84H62.9377C62.9377 10.378 63.0498 10.3094 63.0092 10.3514C62.9589 10.4035 62.9949 10.3 63.4057 10.3V7.3ZM59.9377 10.84V18.592H62.9377V10.84H59.9377ZM59.9377 18.592C59.9377 18.4968 59.9625 18.1499 60.275 17.8373C60.5875 17.5248 60.9344 17.5 61.0297 17.5V20.5C61.3969 20.5 61.9478 20.4072 62.3963 19.9587C62.8448 19.5101 62.9377 18.9592 62.9377 18.592H59.9377ZM72.2281 17.44L71.1279 18.4596L71.1408 18.4736L71.1541 18.4872L72.2281 17.44ZM72.3001 7.744L73.3476 8.81767L73.3542 8.81121L73.3608 8.80466L72.3001 7.744ZM79.8361 21.76L78.8016 20.6738L78.7884 20.6864L78.7754 20.6993L79.8361 21.76ZM78.4921 17.104H79.9921V15.604H78.4921V17.104ZM78.3961 17.104V15.604H77.4376L77.0349 16.4738L78.3961 17.104ZM75.9721 16.9H74.8921V19.9H75.9721V16.9ZM74.8921 16.9C74.0219 16.9 73.5684 16.6659 73.3021 16.3928L71.1541 18.4872C72.1358 19.4941 73.4583 19.9 74.8921 19.9V16.9ZM73.3282 16.4204C73.0514 16.1217 72.8161 15.6112 72.8161 14.68H69.8161C69.8161 16.1168 70.1888 17.4463 71.1279 18.4596L73.3282 16.4204ZM72.8161 14.68V10.48H69.8161V14.68H72.8161ZM72.8161 10.48C72.8161 9.57651 73.0589 9.09931 73.3476 8.81767L71.2526 6.67033C70.2293 7.66869 69.8161 9.01549 69.8161 10.48H72.8161ZM73.3608 8.80466C73.667 8.49842 74.1573 8.26 75.0361 8.26V5.26C73.5788 5.26 72.2452 5.67758 71.2394 6.68334L73.3608 8.80466ZM75.0361 8.26H80.4121V5.26H75.0361V8.26ZM80.4121 8.26C80.3456 8.26 80.0168 8.24589 79.7062 7.95252C79.3794 7.64396 79.3441 7.28582 79.3441 7.168H82.3441C82.3441 6.77818 82.2367 6.21604 81.766 5.77148C81.3114 5.34211 80.7666 5.26 80.4121 5.26V8.26ZM79.3441 7.168V19.048H82.3441V7.168H79.3441ZM79.3441 19.048C79.3441 19.9182 79.1035 20.3863 78.8016 20.6738L80.8706 22.8462C81.9127 21.8537 82.3441 20.5138 82.3441 19.048H79.3441ZM78.7754 20.6993C78.4692 21.0056 77.9788 21.244 77.1001 21.244V24.244C78.5573 24.244 79.891 23.8264 80.8968 22.8207L78.7754 20.6993ZM77.1001 21.244H72.5881V24.244H77.1001V21.244ZM72.5881 21.244C72.6614 21.244 72.9954 21.2595 73.3101 21.5557C73.6419 21.868 73.6801 22.2327 73.6801 22.36H70.6801C70.6801 22.7433 70.7863 23.3 71.254 23.7403C71.7047 24.1645 72.2428 24.244 72.5881 24.244V21.244ZM73.6801 22.36V21.112H70.6801V22.36H73.6801ZM73.6801 21.112C73.6801 21.2072 73.6553 21.5541 73.3428 21.8667C73.0302 22.1792 72.6833 22.204 72.5881 22.204V19.204C72.2209 19.204 71.67 19.2968 71.2214 19.7453C70.7729 20.1939 70.6801 20.7448 70.6801 21.112H73.6801ZM72.5881 22.204H76.7401V19.204H72.5881V22.204ZM76.7401 22.204C77.5605 22.204 78.4502 21.9944 79.1219 21.3134C79.79 20.6362 79.9921 19.7461 79.9921 18.928H76.9921C76.9921 19.1052 76.9697 19.1998 76.9577 19.2364C76.9479 19.2661 76.9505 19.2428 76.9862 19.2066C77.0224 19.1699 77.0487 19.1644 77.0264 19.1719C76.9967 19.182 76.9098 19.204 76.7401 19.204V22.204ZM79.9921 18.928V17.104H76.9921V18.928H79.9921ZM78.4921 15.604H78.3961V18.604H78.4921V15.604ZM77.0349 16.4738C76.9661 16.6224 76.8876 16.6972 76.7829 16.7532C76.6559 16.821 76.411 16.9 75.9721 16.9V19.9C76.7491 19.9 77.5162 19.763 78.1973 19.3988C78.9006 19.0228 79.4261 18.4496 79.7573 17.7342L77.0349 16.4738ZM79.9921 14.32V9.04H76.9921V14.32H79.9921ZM79.9921 9.04C79.9921 8.68999 79.8893 8.16296 79.4351 7.75009C79.0081 7.36187 78.5138 7.3 78.2281 7.3V10.3C78.1184 10.3 77.7561 10.2781 77.4171 9.96991C77.0509 9.63704 76.9921 9.23001 76.9921 9.04H79.9921ZM78.2281 7.3H75.3721V10.3H78.2281V7.3ZM75.3721 7.3C74.5567 7.3 73.6736 7.5157 73.0117 8.20551C72.361 8.88373 72.1681 9.76795 72.1681 10.576H75.1681C75.1681 10.3953 75.1903 10.2966 75.2033 10.2559C75.2142 10.2218 75.2131 10.2444 75.1765 10.2825C75.1386 10.322 75.1071 10.332 75.1189 10.3279C75.1386 10.3211 75.2141 10.3 75.3721 10.3V7.3ZM72.1681 10.576V14.56H75.1681V10.576H72.1681ZM72.1681 14.56C72.1681 15.368 72.361 16.2523 73.0117 16.9305C73.6736 17.6203 74.5567 17.836 75.3721 17.836V14.836C75.2141 14.836 75.1386 14.8149 75.1189 14.8081C75.1071 14.804 75.1386 14.814 75.1765 14.8535C75.2131 14.8916 75.2142 14.9142 75.2033 14.8801C75.1903 14.8394 75.1681 14.7407 75.1681 14.56H72.1681ZM75.3721 17.836H76.5241V14.836H75.3721V17.836ZM76.5241 17.836C77.4206 17.836 78.3664 17.6041 79.0735 16.8798C79.774 16.1622 79.9921 15.2143 79.9921 14.32H76.9921C76.9921 14.7697 76.8822 14.8298 76.9267 14.7842C76.9778 14.7319 76.9396 14.836 76.5241 14.836V17.836ZM91.883 8.032H90.383V9.532H91.883V8.032ZM91.979 8.032V9.532H92.9464L93.3454 8.65076L91.979 8.032ZM98.267 7.72L97.1795 8.75312L97.1862 8.76018L97.193 8.76715L98.267 7.72ZM98.267 18.04L97.1801 17.0062L97.1795 17.0069L98.267 18.04ZM91.979 17.728L93.3454 17.1092L92.9464 16.228H91.979V17.728ZM91.883 17.728V16.228H90.383V17.728H91.883ZM91.475 20.884H89.963V23.884H91.475V20.884ZM89.963 20.884C90.0582 20.884 90.4051 20.9088 90.7176 21.2213C91.0302 21.5339 91.055 21.8808 91.055 21.976H88.055C88.055 22.3432 88.1478 22.8941 88.5963 23.3427C89.0448 23.7912 89.5957 23.884 89.963 23.884V20.884ZM91.055 21.976V7.168H88.055V21.976H91.055ZM91.055 7.168C91.055 7.26322 91.0302 7.61014 90.7176 7.92266C90.4051 8.23518 90.0582 8.26 89.963 8.26V5.26C89.5957 5.26 89.0448 5.35282 88.5963 5.80134C88.1478 6.24986 88.055 6.80078 88.055 7.168H91.055ZM89.963 8.26H91.475V5.26H89.963V8.26ZM91.475 8.26C91.3798 8.26 91.0328 8.23518 90.7203 7.92266C90.4078 7.61014 90.383 7.26322 90.383 7.168H93.383C93.383 6.80078 93.2901 6.24986 92.8416 5.80134C92.3931 5.35282 91.8422 5.26 91.475 5.26V8.26ZM90.383 7.168V8.032H93.383V7.168H90.383ZM91.883 9.532H91.979V6.532H91.883V9.532ZM93.3454 8.65076C93.4047 8.5197 93.5324 8.26 94.403 8.26V5.26C92.8096 5.26 91.3212 5.8483 90.6125 7.41324L93.3454 8.65076ZM94.403 8.26H95.627V5.26H94.403V8.26ZM95.627 8.26C96.4994 8.26 96.9341 8.4948 97.1795 8.75312L99.3545 6.68688C98.3839 5.6652 97.0585 5.26 95.627 5.26V8.26ZM97.193 8.76715C97.4609 9.04193 97.703 9.53368 97.703 10.48H100.703C100.703 9.02632 100.321 7.67807 99.341 6.67285L97.193 8.76715ZM97.703 10.48V15.28H100.703V10.48H97.703ZM97.703 15.28C97.703 16.2014 97.4652 16.7065 97.1801 17.0062L99.3538 19.0738C100.317 18.0615 100.703 16.7266 100.703 15.28H97.703ZM97.1795 17.0069C96.9341 17.2652 96.4994 17.5 95.627 17.5V20.5C97.0585 20.5 98.3839 20.0948 99.3545 19.0731L97.1795 17.0069ZM95.627 17.5H94.403V20.5H95.627V17.5ZM94.403 17.5C93.5324 17.5 93.4047 17.2403 93.3454 17.1092L90.6125 18.3468C91.3212 19.9117 92.8096 20.5 94.403 20.5V17.5ZM91.979 16.228H91.883V19.228H91.979V16.228ZM90.383 17.728V21.976H93.383V17.728H90.383ZM90.383 21.976C90.383 21.8808 90.4078 21.5339 90.7203 21.2213C91.0328 20.9088 91.3798 20.884 91.475 20.884V23.884C91.8422 23.884 92.3931 23.7912 92.8416 23.3427C93.2901 22.8941 93.383 22.3432 93.383 21.976H90.383ZM93.851 18.46H95.123V15.46H93.851V18.46ZM95.123 18.46C95.9408 18.46 96.8272 18.2474 97.4941 17.562C98.1535 16.8843 98.351 15.9971 98.351 15.184H95.351C95.351 15.363 95.3287 15.4596 95.3161 15.4982C95.3058 15.5301 95.3077 15.5072 95.3439 15.47C95.3809 15.4319 95.4099 15.4241 95.3928 15.43C95.3681 15.4384 95.2868 15.46 95.123 15.46V18.46ZM98.351 15.184V10.576H95.351V15.184H98.351ZM98.351 10.576C98.351 9.76293 98.1535 8.87572 97.4941 8.19797C96.8272 7.51259 95.9408 7.3 95.123 7.3V10.3C95.2868 10.3 95.3681 10.3216 95.3928 10.33C95.4099 10.3359 95.3809 10.3281 95.3439 10.29C95.3077 10.2528 95.3058 10.2299 95.3161 10.2618C95.3287 10.3004 95.351 10.397 95.351 10.576H98.351ZM95.123 7.3H93.851V10.3H95.123V7.3ZM93.851 7.3C92.9498 7.3 92.0017 7.53647 91.2954 8.26856C90.5989 8.99062 90.383 9.94201 90.383 10.84H93.383C93.383 10.378 93.4951 10.3094 93.4545 10.3514C93.4043 10.4035 93.4402 10.3 93.851 10.3V7.3ZM90.383 10.84V14.92H93.383V10.84H90.383ZM90.383 14.92C90.383 15.818 90.5989 16.7694 91.2954 17.4914C92.0017 18.2235 92.9498 18.46 93.851 18.46V15.46C93.4402 15.46 93.4043 15.3565 93.4545 15.4086C93.4951 15.4506 93.383 15.382 93.383 14.92H90.383ZM102.697 18.016L101.623 19.0635L101.63 19.0701L101.636 19.0767L102.697 18.016ZM102.697 7.744L103.758 8.80466L102.697 7.744ZM108.913 17.728H110.413V16.228H108.913V17.728ZM108.817 17.728V16.228H107.849L107.45 17.1092L108.817 17.728ZM106.393 17.5H105.457V20.5H106.393V17.5ZM105.457 17.5C104.555 17.5 104.06 17.2578 103.758 16.9553L101.636 19.0767C102.646 20.0862 103.99 20.5 105.457 20.5V17.5ZM103.771 16.9685C103.473 16.6639 103.237 16.1689 103.237 15.28H100.237C100.237 16.7271 100.64 18.0561 101.623 19.0635L103.771 16.9685ZM103.237 15.28V10.48H100.237V15.28H103.237ZM103.237 10.48C103.237 9.56632 103.478 9.08447 103.758 8.80466L101.636 6.68334C100.636 7.68353 100.237 9.02568 100.237 10.48H103.237ZM103.758 8.80466C104.06 8.50215 104.555 8.26 105.457 8.26V5.26C103.99 5.26 102.646 5.67384 101.636 6.68334L103.758 8.80466ZM105.457 8.26H110.833V5.26H105.457V8.26ZM110.833 8.26C110.766 8.26 110.438 8.24589 110.127 7.95252C109.8 7.64396 109.765 7.28582 109.765 7.168H112.765C112.765 6.77818 112.657 6.21604 112.187 5.77148C111.732 5.34211 111.187 5.26 110.833 5.26V8.26ZM109.765 7.168V18.592H112.765V7.168H109.765ZM109.765 18.592C109.765 18.4742 109.8 18.116 110.127 17.8075C110.438 17.5141 110.766 17.5 110.833 17.5V20.5C111.187 20.5 111.732 20.4179 112.187 19.9885C112.657 19.544 112.765 18.9818 112.765 18.592H109.765ZM110.833 17.5H109.321V20.5H110.833V17.5ZM109.321 17.5C109.416 17.5 109.763 17.5248 110.076 17.8373C110.388 18.1499 110.413 18.4968 110.413 18.592H107.413C107.413 18.9592 107.506 19.5101 107.954 19.9587C108.403 20.4072 108.954 20.5 109.321 20.5V17.5ZM110.413 18.592V17.728H107.413V18.592H110.413ZM108.913 16.228H108.817V19.228H108.913V16.228ZM107.45 17.1092C107.391 17.2403 107.263 17.5 106.393 17.5V20.5C107.986 20.5 109.475 19.9117 110.183 18.3468L107.45 17.1092ZM110.413 14.92V9.04H107.413V14.92H110.413ZM110.413 9.04C110.413 8.68999 110.31 8.16296 109.856 7.75009C109.429 7.36187 108.935 7.3 108.649 7.3V10.3C108.539 10.3 108.177 10.2781 107.838 9.96991C107.472 9.63704 107.413 9.23001 107.413 9.04H110.413ZM108.649 7.3H105.793V10.3H108.649V7.3ZM105.793 7.3C104.975 7.3 104.089 7.51259 103.422 8.19797C102.762 8.87572 102.565 9.76293 102.565 10.576H105.565C105.565 10.397 105.587 10.3004 105.6 10.2618C105.61 10.2299 105.608 10.2528 105.572 10.29C105.535 10.3281 105.506 10.3359 105.523 10.33C105.548 10.3216 105.629 10.3 105.793 10.3V7.3ZM102.565 10.576V15.184H105.565V10.576H102.565ZM102.565 15.184C102.565 15.9971 102.762 16.8843 103.422 17.562C104.089 18.2474 104.975 18.46 105.793 18.46V15.46C105.629 15.46 105.548 15.4384 105.523 15.43C105.506 15.4241 105.535 15.4319 105.572 15.47C105.608 15.5072 105.61 15.5301 105.6 15.4982C105.587 15.4596 105.565 15.363 105.565 15.184H102.565ZM105.793 18.46H106.945V15.46H105.793V18.46ZM106.945 18.46C107.846 18.46 108.794 18.2235 109.5 17.4914C110.197 16.7694 110.413 15.818 110.413 14.92H107.413C107.413 15.382 107.301 15.4506 107.341 15.4086C107.392 15.3565 107.356 15.46 106.945 15.46V18.46ZM114.978 17.44L113.878 18.4596L113.891 18.4736L113.904 18.4872L114.978 17.44ZM115.05 7.744L116.098 8.81767L116.104 8.81121L116.111 8.80466L115.05 7.744ZM122.586 21.76L121.552 20.6738L121.538 20.6864L121.525 20.6993L122.586 21.76ZM121.242 17.104H122.742V15.604H121.242V17.104ZM121.146 17.104V15.604H120.188L119.785 16.4738L121.146 17.104ZM118.722 16.9H117.642V19.9H118.722V16.9ZM117.642 16.9C116.772 16.9 116.318 16.6659 116.052 16.3928L113.904 18.4872C114.886 19.4941 116.208 19.9 117.642 19.9V16.9ZM116.078 16.4204C115.801 16.1217 115.566 15.6112 115.566 14.68H112.566C112.566 16.1168 112.939 17.4463 113.878 18.4596L116.078 16.4204ZM115.566 14.68V10.48H112.566V14.68H115.566ZM115.566 10.48C115.566 9.57651 115.809 9.09931 116.098 8.81767L114.003 6.67033C112.979 7.66869 112.566 9.01549 112.566 10.48H115.566ZM116.111 8.80466C116.417 8.49842 116.907 8.26 117.786 8.26V5.26C116.329 5.26 114.995 5.67758 113.989 6.68334L116.111 8.80466ZM117.786 8.26H123.162V5.26H117.786V8.26ZM123.162 8.26C123.096 8.26 122.767 8.24589 122.456 7.95252C122.129 7.64396 122.094 7.28582 122.094 7.168H125.094C125.094 6.77818 124.987 6.21604 124.516 5.77148C124.061 5.34211 123.517 5.26 123.162 5.26V8.26ZM122.094 7.168V19.048H125.094V7.168H122.094ZM122.094 19.048C122.094 19.9182 121.854 20.3863 121.552 20.6738L123.621 22.8462C124.663 21.8537 125.094 20.5138 125.094 19.048H122.094ZM121.525 20.6993C121.219 21.0056 120.729 21.244 119.85 21.244V24.244C121.307 24.244 122.641 23.8264 123.647 22.8207L121.525 20.6993ZM119.85 21.244H115.338V24.244H119.85V21.244ZM115.338 21.244C115.411 21.244 115.745 21.2595 116.06 21.5557C116.392 21.868 116.43 22.2327 116.43 22.36H113.43C113.43 22.7433 113.536 23.3 114.004 23.7403C114.455 24.1645 114.993 24.244 115.338 24.244V21.244ZM116.43 22.36V21.112H113.43V22.36H116.43ZM116.43 21.112C116.43 21.2072 116.405 21.5541 116.093 21.8667C115.78 22.1792 115.433 22.204 115.338 22.204V19.204C114.971 19.204 114.42 19.2968 113.971 19.7453C113.523 20.1939 113.43 20.7448 113.43 21.112H116.43ZM115.338 22.204H119.49V19.204H115.338V22.204ZM119.49 22.204C120.311 22.204 121.2 21.9944 121.872 21.3134C122.54 20.6362 122.742 19.7461 122.742 18.928H119.742C119.742 19.1052 119.72 19.1998 119.708 19.2364C119.698 19.2661 119.7 19.2428 119.736 19.2066C119.772 19.1699 119.799 19.1644 119.776 19.1719C119.747 19.182 119.66 19.204 119.49 19.204V22.204ZM122.742 18.928V17.104H119.742V18.928H122.742ZM121.242 15.604H121.146V18.604H121.242V15.604ZM119.785 16.4738C119.716 16.6224 119.638 16.6972 119.533 16.7532C119.406 16.821 119.161 16.9 118.722 16.9V19.9C119.499 19.9 120.266 19.763 120.947 19.3988C121.651 19.0228 122.176 18.4496 122.507 17.7342L119.785 16.4738ZM122.742 14.32V9.04H119.742V14.32H122.742ZM122.742 9.04C122.742 8.68999 122.639 8.16296 122.185 7.75009C121.758 7.36187 121.264 7.3 120.978 7.3V10.3C120.868 10.3 120.506 10.2781 120.167 9.96991C119.801 9.63704 119.742 9.23001 119.742 9.04H122.742ZM120.978 7.3H118.122V10.3H120.978V7.3ZM118.122 7.3C117.307 7.3 116.424 7.5157 115.762 8.20551C115.111 8.88373 114.918 9.76795 114.918 10.576H117.918C117.918 10.3953 117.94 10.2966 117.953 10.2559C117.964 10.2218 117.963 10.2444 117.926 10.2825C117.889 10.322 117.857 10.332 117.869 10.3279C117.889 10.3211 117.964 10.3 118.122 10.3V7.3ZM114.918 10.576V14.56H117.918V10.576H114.918ZM114.918 14.56C114.918 15.368 115.111 16.2523 115.762 16.9305C116.424 17.6203 117.307 17.836 118.122 17.836V14.836C117.964 14.836 117.889 14.8149 117.869 14.8081C117.857 14.804 117.889 14.814 117.926 14.8535C117.963 14.8916 117.964 14.9142 117.953 14.8801C117.94 14.8394 117.918 14.7407 117.918 14.56H114.918ZM118.122 17.836H119.274V14.836H118.122V17.836ZM119.274 17.836C120.171 17.836 121.116 17.6041 121.823 16.8798C122.524 16.1622 122.742 15.2143 122.742 14.32H119.742C119.742 14.7697 119.632 14.8298 119.677 14.7842C119.728 14.7319 119.69 14.836 119.274 14.836V17.836ZM127.306 18.016L126.233 19.0635L126.239 19.0701L126.246 19.0767L127.306 18.016ZM127.306 7.744L128.367 8.80466L127.306 7.744ZM134.794 7.744L133.734 8.80466L133.74 8.81121L133.747 8.81767L134.794 7.744ZM133.042 9.232L131.952 10.2619L131.966 10.2775L131.982 10.2927L133.042 9.232ZM129.082 9.232L130.143 10.2927L130.158 10.2775L130.173 10.2619L129.082 9.232ZM135.25 17.5H130.066V20.5H135.25V17.5ZM130.066 17.5C129.165 17.5 128.669 17.2578 128.367 16.9553L126.246 19.0767C127.255 20.0862 128.6 20.5 130.066 20.5V17.5ZM128.38 16.9685C128.083 16.6639 127.846 16.1689 127.846 15.28H124.846C124.846 16.7271 125.25 18.0561 126.233 19.0635L128.38 16.9685ZM127.846 15.28V10.48H124.846V15.28H127.846ZM127.846 10.48C127.846 9.56632 128.087 9.08447 128.367 8.80466L126.246 6.68334C125.245 7.68353 124.846 9.02568 124.846 10.48H127.846ZM128.367 8.80466C128.669 8.50215 129.165 8.26 130.066 8.26V5.26C128.6 5.26 127.255 5.67384 126.246 6.68334L128.367 8.80466ZM130.066 8.26H132.034V5.26H130.066V8.26ZM132.034 8.26C132.936 8.26 133.431 8.50215 133.734 8.80466L135.855 6.68334C134.845 5.67384 133.501 5.26 132.034 5.26V8.26ZM133.747 8.81767C134.035 9.09931 134.278 9.57651 134.278 10.48H137.278C137.278 9.01549 136.865 7.66869 135.842 6.67033L133.747 8.81767ZM134.278 10.48V13.528H137.278V10.48H134.278ZM134.278 13.528C134.278 13.4408 134.301 13.0999 134.61 12.7913C134.918 12.4828 135.259 12.46 135.346 12.46V15.46C135.721 15.46 136.278 15.3652 136.731 14.9127C137.183 14.4601 137.278 13.9032 137.278 13.528H134.278ZM135.346 12.46H128.914V15.46H135.346V12.46ZM128.914 12.46C128.628 12.46 128.134 12.5219 127.707 12.9101C127.253 13.323 127.15 13.85 127.15 14.2H130.15C130.15 14.39 130.091 14.797 129.725 15.1299C129.386 15.4381 129.024 15.46 128.914 15.46V12.46ZM127.15 14.2V15.232H130.15V14.2H127.15ZM127.15 15.232C127.15 16.0472 127.355 16.9341 128.028 17.6067C128.7 18.2792 129.587 18.484 130.402 18.484V15.484C130.231 15.484 130.142 15.462 130.11 15.4515C130.086 15.4433 130.112 15.4481 130.149 15.4853C130.186 15.5226 130.191 15.5486 130.183 15.5242C130.172 15.4925 130.15 15.4035 130.15 15.232H127.15ZM130.402 18.484H135.25V15.484H130.402V18.484ZM135.25 18.484C135.163 18.484 134.822 18.4612 134.514 18.1527C134.205 17.8441 134.182 17.5032 134.182 17.416H137.182C137.182 17.0408 137.087 16.4839 136.635 16.0313C136.182 15.5788 135.625 15.484 135.25 15.484V18.484ZM134.182 17.416V18.616H137.182V17.416H134.182ZM134.182 18.616C134.182 18.464 134.233 18.0892 134.578 17.7829C134.889 17.5065 135.204 17.5 135.25 17.5V20.5C135.585 20.5 136.116 20.4295 136.571 20.0251C137.059 19.5908 137.182 19.024 137.182 18.616H134.182ZM128.914 13.828H133.21V10.828H128.914V13.828ZM133.21 13.828C133.521 13.828 134.03 13.7492 134.451 13.3287C134.871 12.9081 134.95 12.3992 134.95 12.088H131.95C131.95 11.9368 131.989 11.5479 132.33 11.2073C132.67 10.8668 133.059 10.828 133.21 10.828V13.828ZM134.95 12.088V10.552H131.95V12.088H134.95ZM134.95 10.552C134.95 9.76959 134.782 8.85074 134.103 8.17134L131.982 10.2927C131.914 10.2252 131.905 10.1764 131.915 10.209C131.927 10.248 131.95 10.3531 131.95 10.552H134.95ZM134.133 8.20207C133.456 7.48572 132.525 7.3 131.722 7.3V10.3C131.914 10.3 132.011 10.3236 132.042 10.3336C132.064 10.341 132.014 10.3283 131.952 10.2619L134.133 8.20207ZM131.722 7.3H130.402V10.3H131.722V7.3ZM130.402 7.3C129.6 7.3 128.668 7.48572 127.992 8.20206L130.173 10.2619C130.11 10.3283 130.06 10.341 130.083 10.3336C130.113 10.3236 130.21 10.3 130.402 10.3V7.3ZM128.022 8.17134C127.342 8.85074 127.174 9.76959 127.174 10.552H130.174C130.174 10.3531 130.197 10.248 130.209 10.209C130.219 10.1764 130.21 10.2252 130.143 10.2927L128.022 8.17134ZM127.174 10.552V12.088H130.174V10.552H127.174ZM127.174 12.088C127.174 12.3992 127.253 12.9081 127.674 13.3287C128.094 13.7492 128.603 13.828 128.914 13.828V10.828C129.065 10.828 129.454 10.8668 129.795 11.2073C130.135 11.5479 130.174 11.9368 130.174 12.088H127.174Z" fill="url(#paint0_linear_114_64)"/>
</g>
<defs>
<filter id="filter0_d_114_64" x="0.341843" y="0.627991" width="140.936" height="31.616" filterUnits="userSpaceOnUse" color-interpolation-filters="sRGB">
<feFlood flood-opacity="0" result="BackgroundImageFix"/>
<feColorMatrix in="SourceAlpha" type="matrix" values="0 0 0 0 0 0 0 0 0 0 0 0 0 0 0 0 0 0 127 0" result="hardAlpha"/>
<feOffset dy="4"/>
<feGaussianBlur stdDeviation="2"/>
<feComposite in2="hardAlpha" operator="out"/>
<feColorMatrix type="matrix" values="0 0 0 0 0 0 0 0 0 0 0 0 0 0 0 0 0 0 0.25 0"/>
<feBlend mode="normal" in2="BackgroundImageFix" result="effect1_dropShadow_114_64"/>
<feBlend mode="normal" in="SourceGraphic" in2="effect1_dropShadow_114_64" result="shape"/>
</filter>
<linearGradient id="paint0_linear_114_64" x1="70.5" y1="-4" x2="70.5" y2="27" gradientUnits="userSpaceOnUse">
<stop stop-color="#C6EBFA"/>
<stop offset="1" stop-color="#C9EDFB"/>
</linearGradient>
</defs>
</svg>
