<svg width="127" height="29" viewBox="0 0 127 29" fill="none" xmlns="http://www.w3.org/2000/svg">
<g filter="url(#filter0_d_111_56)">
<path d="M5.56556 15.256V14.632C5.56556 14.36 5.70156 14.224 5.97356 14.224H7.50956C7.78156 14.224 7.91756 14.36 7.91756 14.632V15.064C7.91756 15.736 8.06156 16.224 8.34956 16.528C8.65356 16.816 9.14956 16.96 9.83756 16.96H11.4936C12.1816 16.96 12.6776 16.808 12.9816 16.504C13.2856 16.184 13.4376 15.672 13.4376 14.968V14.416C13.4376 13.904 13.2376 13.504 12.8376 13.216C12.4536 12.912 11.9736 12.72 11.3976 12.64C10.8216 12.544 10.1896 12.416 9.50156 12.256C8.81356 12.096 8.18156 11.912 7.60556 11.704C7.02956 11.496 6.54156 11.104 6.14156 10.528C5.75756 9.952 5.56556 9.216 5.56556 8.32V7.312C5.56556 6.144 5.89356 5.232 6.54956 4.576C7.22156 3.904 8.14156 3.568 9.30956 3.568H11.8536C13.0376 3.568 13.9576 3.904 14.6136 4.576C15.2856 5.232 15.6216 6.144 15.6216 7.312V7.84C15.6216 8.112 15.4856 8.248 15.2136 8.248H13.6776C13.4056 8.248 13.2696 8.112 13.2696 7.84V7.528C13.2696 6.84 13.1176 6.352 12.8136 6.064C12.5256 5.76 12.0376 5.608 11.3496 5.608H9.83756C9.14956 5.608 8.65356 5.768 8.34956 6.088C8.06156 6.392 7.91756 6.92 7.91756 7.672V8.416C7.91756 9.136 8.43756 9.624 9.47756 9.88C9.94156 9.992 10.4456 10.088 10.9896 10.168C11.5496 10.248 12.1096 10.368 12.6696 10.528C13.2296 10.688 13.7416 10.904 14.2056 11.176C14.6696 11.432 15.0456 11.832 15.3336 12.376C15.6216 12.904 15.7656 13.552 15.7656 14.32V15.256C15.7656 16.424 15.4296 17.344 14.7576 18.016C14.1016 18.672 13.1896 19 12.0216 19H9.33356C8.16556 19 7.24556 18.672 6.57356 18.016C5.90156 17.344 5.56556 16.424 5.56556 15.256ZM18.882 4.72V2.536C18.882 2.28 19.01 2.152 19.266 2.152H20.826C21.082 2.152 21.21 2.28 21.21 2.536V4.72C21.21 4.992 21.082 5.128 20.826 5.128H19.266C19.01 5.128 18.882 4.992 18.882 4.72ZM18.882 18.592V7.168C18.882 6.896 19.01 6.76 19.266 6.76H20.802C21.074 6.76 21.21 6.896 21.21 7.168V18.592C21.21 18.752 21.178 18.864 21.114 18.928C21.066 18.976 20.97 19 20.826 19H19.29C19.018 19 18.882 18.864 18.882 18.592ZM24.7236 8.8H23.5716C23.4116 8.8 23.2996 8.776 23.2356 8.728C23.1876 8.664 23.1636 8.56 23.1636 8.416V7.168C23.1636 6.896 23.2996 6.76 23.5716 6.76H24.7236C24.8836 6.76 24.9636 6.68 24.9636 6.52V4.36C24.9636 4.088 25.1076 3.952 25.3956 3.952H26.9076C27.1796 3.952 27.3156 4.088 27.3156 4.36V6.52C27.3156 6.68 27.4036 6.76 27.5796 6.76H29.8116C30.0996 6.76 30.2436 6.896 30.2436 7.168V8.416C30.2436 8.672 30.0996 8.8 29.8116 8.8H27.5796C27.4036 8.8 27.3156 8.88 27.3156 9.04V15.208C27.3156 16.376 27.9156 16.96 29.1156 16.96H30.0516C30.3396 16.96 30.4836 17.096 30.4836 17.368V18.616C30.4836 18.872 30.3396 19 30.0516 19H28.7556C27.5716 19 26.6436 18.68 25.9716 18.04C25.2996 17.4 24.9636 16.496 24.9636 15.328V9.04C24.9636 8.88 24.8836 8.8 24.7236 8.8ZM41.4416 19H36.2576C35.0736 19 34.1536 18.672 33.4976 18.016C32.8576 17.36 32.5376 16.448 32.5376 15.28V10.48C32.5376 9.296 32.8576 8.384 33.4976 7.744C34.1536 7.088 35.0736 6.76 36.2576 6.76H38.2256C39.4096 6.76 40.3296 7.088 40.9856 7.744C41.6416 8.384 41.9696 9.296 41.9696 10.48V13.528C41.9696 13.816 41.8256 13.96 41.5376 13.96H35.1056C34.9296 13.96 34.8416 14.04 34.8416 14.2V15.232C34.8416 16.4 35.4256 16.984 36.5936 16.984H41.4416C41.7296 16.984 41.8736 17.128 41.8736 17.416V18.616C41.8736 18.872 41.7296 19 41.4416 19ZM35.1056 12.328H39.4016C39.5616 12.328 39.6416 12.248 39.6416 12.088V10.552C39.6416 9.944 39.5056 9.504 39.2336 9.232C38.9616 8.944 38.5216 8.8 37.9136 8.8H36.5936C35.9856 8.8 35.5456 8.944 35.2736 9.232C35.0016 9.504 34.8656 9.944 34.8656 10.552V12.088C34.8656 12.248 34.9456 12.328 35.1056 12.328ZM49.5643 6.76H51.1723C51.4283 6.76 51.5803 6.896 51.6283 7.168L54.1243 16.816H54.2923L56.7403 7.168C56.8043 6.896 56.9723 6.76 57.2443 6.76H58.8283C59.1163 6.76 59.2123 6.896 59.1163 7.168L55.8763 18.568C55.8123 18.856 55.6363 19 55.3483 19H53.0443C52.7563 19 52.5803 18.856 52.5163 18.568L49.2763 7.168C49.2123 6.896 49.3083 6.76 49.5643 6.76ZM61.2101 4.72V2.536C61.2101 2.28 61.3381 2.152 61.5941 2.152H63.1541C63.4101 2.152 63.5381 2.28 63.5381 2.536V4.72C63.5381 4.992 63.4101 5.128 63.1541 5.128H61.5941C61.3381 5.128 61.2101 4.992 61.2101 4.72ZM61.2101 18.592V7.168C61.2101 6.896 61.3381 6.76 61.5941 6.76H63.1301C63.4021 6.76 63.5381 6.896 63.5381 7.168V18.592C63.5381 18.752 63.5061 18.864 63.4421 18.928C63.3941 18.976 63.2981 19 63.1541 19H61.6181C61.3461 19 61.2101 18.864 61.2101 18.592ZM67.0517 8.8H65.8997C65.7397 8.8 65.6277 8.776 65.5637 8.728C65.5157 8.664 65.4917 8.56 65.4917 8.416V7.168C65.4917 6.896 65.6277 6.76 65.8997 6.76H67.0517C67.2117 6.76 67.2917 6.68 67.2917 6.52V4.36C67.2917 4.088 67.4357 3.952 67.7237 3.952H69.2357C69.5077 3.952 69.6437 4.088 69.6437 4.36V6.52C69.6437 6.68 69.7317 6.76 69.9077 6.76H72.1397C72.4277 6.76 72.5717 6.896 72.5717 7.168V8.416C72.5717 8.672 72.4277 8.8 72.1397 8.8H69.9077C69.7317 8.8 69.6437 8.88 69.6437 9.04V15.208C69.6437 16.376 70.2437 16.96 71.4437 16.96H72.3797C72.6677 16.96 72.8117 17.096 72.8117 17.368V18.616C72.8117 18.872 72.6677 19 72.3797 19H71.0837C69.8997 19 68.9717 18.68 68.2997 18.04C67.6277 17.4 67.2917 16.496 67.2917 15.328V9.04C67.2917 8.88 67.2117 8.8 67.0517 8.8ZM77.0258 19H75.5138C75.2418 19 75.1058 18.864 75.1058 18.592V7.168C75.1058 6.896 75.2418 6.76 75.5138 6.76H77.0258C77.2978 6.76 77.4338 6.896 77.4338 7.168V8.08H77.5298C77.6898 7.68 77.9938 7.36 78.4418 7.12C78.9058 6.88 79.4178 6.76 79.9778 6.76H80.8658C81.1378 6.76 81.2738 6.896 81.2738 7.168V8.416C81.2738 8.72 81.1378 8.848 80.8658 8.8H79.4258C78.0978 8.8 77.4338 9.528 77.4338 10.984V18.592C77.4338 18.864 77.2978 19 77.0258 19ZM83.2648 4.72V2.536C83.2648 2.28 83.3928 2.152 83.6488 2.152H85.2088C85.4648 2.152 85.5928 2.28 85.5928 2.536V4.72C85.5928 4.992 85.4648 5.128 85.2088 5.128H83.6488C83.3928 5.128 83.2648 4.992 83.2648 4.72ZM83.2648 18.592V7.168C83.2648 6.896 83.3928 6.76 83.6488 6.76H85.1848C85.4568 6.76 85.5928 6.896 85.5928 7.168V18.592C85.5928 18.752 85.5608 18.864 85.4968 18.928C85.4488 18.976 85.3528 19 85.2088 19H83.6728C83.4008 19 83.2648 18.864 83.2648 18.592ZM90.6664 19H89.1544C88.8824 19 88.7464 18.864 88.7464 18.592V7.168C88.7464 6.896 88.8824 6.76 89.1544 6.76H90.6664C90.9384 6.76 91.0744 6.896 91.0744 7.168V8.032H91.1704C91.5544 7.184 92.3624 6.76 93.5944 6.76H94.6504C95.8184 6.76 96.7144 7.08 97.3384 7.72C97.9624 8.36 98.2744 9.28 98.2744 10.48V18.592C98.2744 18.864 98.1304 19 97.8424 19H96.3304C96.0584 19 95.9224 18.864 95.9224 18.592V10.576C95.9224 9.392 95.3384 8.8 94.1704 8.8H93.0424C91.7304 8.8 91.0744 9.48 91.0744 10.84V18.592C91.0744 18.864 90.9384 19 90.6664 19ZM109.809 19H104.625C103.441 19 102.521 18.672 101.865 18.016C101.225 17.36 100.905 16.448 100.905 15.28V10.48C100.905 9.296 101.225 8.384 101.865 7.744C102.521 7.088 103.441 6.76 104.625 6.76H106.593C107.777 6.76 108.697 7.088 109.353 7.744C110.009 8.384 110.337 9.296 110.337 10.48V13.528C110.337 13.816 110.193 13.96 109.905 13.96H103.473C103.297 13.96 103.209 14.04 103.209 14.2V15.232C103.209 16.4 103.793 16.984 104.961 16.984H109.809C110.097 16.984 110.241 17.128 110.241 17.416V18.616C110.241 18.872 110.097 19 109.809 19ZM103.473 12.328H107.769C107.929 12.328 108.009 12.248 108.009 12.088V10.552C108.009 9.944 107.873 9.504 107.601 9.232C107.329 8.944 106.889 8.8 106.281 8.8H104.961C104.353 8.8 103.913 8.944 103.641 9.232C103.369 9.504 103.233 9.944 103.233 10.552V12.088C103.233 12.248 103.313 12.328 103.473 12.328ZM117.349 19H112.933C112.661 19 112.525 18.864 112.525 18.592V17.416C112.525 17.16 112.661 17.032 112.933 17.032H116.965C118.005 17.032 118.525 16.672 118.525 15.952V15.664C118.525 15.024 118.149 14.536 117.397 14.2L114.781 12.952C113.965 12.568 113.373 12.144 113.005 11.68C112.637 11.216 112.453 10.608 112.453 9.856C112.453 7.792 113.597 6.76 115.885 6.76H119.869C120.125 6.76 120.253 6.896 120.253 7.168V8.344C120.253 8.616 120.125 8.752 119.869 8.752H116.365C115.885 8.752 115.517 8.84 115.261 9.016C115.005 9.176 114.877 9.392 114.877 9.664V9.928C114.877 10.44 115.285 10.888 116.101 11.272L118.741 12.616C119.573 12.984 120.141 13.424 120.445 13.936C120.765 14.432 120.925 15.08 120.925 15.88C120.925 17.96 119.733 19 117.349 19Z" fill="#1A1A1A"/>
<path d="M8.34956 16.528L7.26063 17.5596L7.28851 17.589L7.31795 17.6169L8.34956 16.528ZM12.9816 16.504L14.0422 17.5647L14.0558 17.5511L14.0691 17.5371L12.9816 16.504ZM12.8376 13.216L11.9065 14.3921L11.9333 14.4133L11.9611 14.4333L12.8376 13.216ZM11.3976 12.64L11.151 14.1196L11.171 14.1229L11.1912 14.1257L11.3976 12.64ZM7.60556 11.704L8.11503 10.2932L8.11503 10.2932L7.60556 11.704ZM6.14156 10.528L4.89349 11.36L4.90139 11.3719L4.90951 11.3836L6.14156 10.528ZM6.54956 4.576L5.4889 3.51534L5.4889 3.51534L6.54956 4.576ZM14.6136 4.576L13.5402 5.62381L13.5528 5.63674L13.5658 5.64936L14.6136 4.576ZM12.8136 6.064L11.7246 7.09562L11.7525 7.12505L11.7819 7.15293L12.8136 6.064ZM8.34956 6.088L7.26206 5.05487L7.26063 5.05638L8.34956 6.088ZM9.47756 9.88L9.11903 11.3365L9.1256 11.3381L9.47756 9.88ZM10.9896 10.168L10.7713 11.6521L10.7774 11.6529L10.9896 10.168ZM14.2056 11.176L13.447 12.47L13.4638 12.4799L13.4809 12.4894L14.2056 11.176ZM15.3336 12.376L14.0079 13.0778L14.0122 13.0861L14.0167 13.0943L15.3336 12.376ZM14.7576 18.016L15.8182 19.0767H15.8182L14.7576 18.016ZM6.57356 18.016L5.5129 19.0767L5.51929 19.083L5.52576 19.0894L6.57356 18.016ZM7.06556 15.256V14.632H4.06556V15.256H7.06556ZM7.06556 14.632C7.06556 14.7272 7.04074 15.0741 6.72822 15.3867C6.4157 15.6992 6.06878 15.724 5.97356 15.724V12.724C5.60635 12.724 5.05542 12.8168 4.6069 13.2653C4.15838 13.7139 4.06556 14.2648 4.06556 14.632H7.06556ZM5.97356 15.724H7.50956V12.724H5.97356V15.724ZM7.50956 15.724C7.41435 15.724 7.06742 15.6992 6.7549 15.3867C6.44238 15.0741 6.41756 14.7272 6.41756 14.632H9.41756C9.41756 14.2648 9.32474 13.7139 8.87622 13.2653C8.4277 12.8168 7.87678 12.724 7.50956 12.724V15.724ZM6.41756 14.632V15.064H9.41756V14.632H6.41756ZM6.41756 15.064C6.41756 15.8985 6.58808 16.8497 7.26063 17.5596L9.43849 15.4964C9.48873 15.5494 9.48344 15.5746 9.46423 15.5095C9.44354 15.4393 9.41756 15.2994 9.41756 15.064H6.41756ZM7.31795 17.6169C8.03306 18.2944 8.99869 18.46 9.83756 18.46V15.46C9.59126 15.46 9.44339 15.4334 9.36778 15.4115C9.29666 15.3908 9.32378 15.3847 9.38118 15.4391L7.31795 17.6169ZM9.83756 18.46H11.4936V15.46H9.83756V18.46ZM11.4936 18.46C12.3496 18.46 13.328 18.2789 14.0422 17.5647L11.9209 15.4433C11.9747 15.3896 12.0037 15.393 11.9421 15.4118C11.8742 15.4326 11.7341 15.46 11.4936 15.46V18.46ZM14.0691 17.5371C14.7577 16.8123 14.9376 15.8377 14.9376 14.968H11.9376C11.9376 15.2185 11.9098 15.3716 11.8856 15.4531C11.863 15.5293 11.8523 15.5149 11.8941 15.4709L14.0691 17.5371ZM14.9376 14.968V14.416H11.9376V14.968H14.9376ZM14.9376 14.416C14.9376 13.4437 14.5231 12.5812 13.714 11.9987L11.9611 14.4333C11.9752 14.4435 11.9759 14.4461 11.9696 14.4389C11.9666 14.4355 11.9626 14.4305 11.9582 14.4239C11.9538 14.4174 11.9496 14.4102 11.9459 14.4028C11.9422 14.3954 11.9395 14.3888 11.9376 14.3834C11.9357 14.378 11.935 14.3748 11.9349 14.3743C11.9346 14.3732 11.9376 14.3858 11.9376 14.416H14.9376ZM13.7686 12.0399C13.1387 11.5412 12.3949 11.2641 11.6039 11.1543L11.1912 14.1257C11.5523 14.1759 11.7684 14.2828 11.9065 14.3921L13.7686 12.0399ZM11.6442 11.1604C11.1051 11.0706 10.5046 10.9492 9.84133 10.795L9.16179 13.717C9.87451 13.8828 10.5381 14.0174 11.151 14.1196L11.6442 11.1604ZM9.84133 10.795C9.20233 10.6464 8.62785 10.4784 8.11503 10.2932L7.0961 13.1148C7.73527 13.3456 8.4248 13.5456 9.16179 13.717L9.84133 10.795ZM8.11503 10.2932C7.87277 10.2057 7.62285 10.0313 7.37362 9.67241L4.90951 11.3836C5.46027 12.1767 6.18635 12.7863 7.0961 13.1148L8.11503 10.2932ZM7.38964 9.69595C7.21201 9.4295 7.06556 9.00616 7.06556 8.32H4.06556C4.06556 9.42584 4.30312 10.4745 4.89349 11.36L7.38964 9.69595ZM7.06556 8.32V7.312H4.06556V8.32H7.06556ZM7.06556 7.312C7.06556 6.43325 7.30398 5.9429 7.61022 5.63666L5.4889 3.51534C4.48315 4.5211 4.06556 5.85475 4.06556 7.312H7.06556ZM7.61022 5.63666C7.93917 5.30771 8.44262 5.068 9.30956 5.068V2.068C7.84051 2.068 6.50395 2.50029 5.4889 3.51534L7.61022 5.63666ZM9.30956 5.068H11.8536V2.068H9.30956V5.068ZM11.8536 5.068C12.7449 5.068 13.2358 5.31199 13.5402 5.62381L15.6869 3.52819C14.6793 2.49601 13.3302 2.068 11.8536 2.068V5.068ZM13.5658 5.64936C13.8815 5.95755 14.1216 6.44349 14.1216 7.312H17.1216C17.1216 5.84451 16.6897 4.50645 15.6614 3.50264L13.5658 5.64936ZM14.1216 7.312V7.84H17.1216V7.312H14.1216ZM14.1216 7.84C14.1216 7.74478 14.1464 7.39786 14.4589 7.08534C14.7714 6.77282 15.1183 6.748 15.2136 6.748V9.748C15.5808 9.748 16.1317 9.65518 16.5802 9.20666C17.0287 8.75814 17.1216 8.20722 17.1216 7.84H14.1216ZM15.2136 6.748H13.6776V9.748H15.2136V6.748ZM13.6776 6.748C13.7728 6.748 14.1197 6.77282 14.4322 7.08534C14.7447 7.39786 14.7696 7.74478 14.7696 7.84H11.7696C11.7696 8.20722 11.8624 8.75814 12.3109 9.20666C12.7594 9.65518 13.3103 9.748 13.6776 9.748V6.748ZM14.7696 7.84V7.528H11.7696V7.84H14.7696ZM14.7696 7.528C14.7696 6.68217 14.5927 5.68327 13.8452 4.97507L11.7819 7.15293C11.7107 7.08543 11.707 7.03942 11.7234 7.09208C11.7419 7.15152 11.7696 7.28653 11.7696 7.528H14.7696ZM13.9025 5.03238C13.1943 4.28484 12.1954 4.108 11.3496 4.108V7.108C11.591 7.108 11.726 7.13562 11.7855 7.15414C11.8381 7.17054 11.7921 7.16686 11.7246 7.09562L13.9025 5.03238ZM11.3496 4.108H9.83756V7.108H11.3496V4.108ZM9.83756 4.108C8.96368 4.108 7.97393 4.30554 7.26206 5.05487L9.43706 7.12112C9.38755 7.17324 9.35756 7.1725 9.41007 7.15556C9.47035 7.13612 9.60294 7.108 9.83756 7.108V4.108ZM7.26063 5.05638C6.56548 5.79015 6.41756 6.81325 6.41756 7.672H9.41756C9.41756 7.3834 9.44611 7.20422 9.47271 7.10668C9.49896 7.01042 9.50879 7.04541 9.43849 7.11962L7.26063 5.05638ZM6.41756 7.672V8.416H9.41756V7.672H6.41756ZM6.41756 8.416C6.41756 9.18581 6.71566 9.88515 7.28109 10.4158C7.80007 10.9028 8.46483 11.1755 9.11903 11.3365L9.83609 8.42348C9.65259 8.37831 9.52502 8.33077 9.44077 8.29059C9.35683 8.25056 9.33035 8.22476 9.33403 8.22822C9.34146 8.23518 9.36969 8.26565 9.39283 8.31942C9.41584 8.37286 9.41756 8.41155 9.41756 8.416H6.41756ZM9.1256 11.3381C9.63978 11.4622 10.189 11.5664 10.7713 11.652L11.2078 8.68396C10.7022 8.6096 10.2433 8.52176 9.82952 8.42188L9.1256 11.3381ZM10.7774 11.6529C11.2679 11.723 11.7612 11.8285 12.2575 11.9703L13.0816 9.08571C12.458 8.90752 11.8312 8.773 11.2017 8.68307L10.7774 11.6529ZM12.2575 11.9703C12.7062 12.0985 13.1004 12.2669 13.447 12.47L14.9641 9.88195C14.3827 9.54114 13.753 9.27752 13.0816 9.08571L12.2575 11.9703ZM13.4809 12.4894C13.6502 12.5827 13.8339 12.7492 14.0079 13.0778L16.6592 11.6742C16.2572 10.9148 15.689 10.2813 14.9302 9.86263L13.4809 12.4894ZM14.0167 13.0943C14.1558 13.3492 14.2656 13.7351 14.2656 14.32H17.2656C17.2656 13.3689 17.0874 12.4588 16.6504 11.6577L14.0167 13.0943ZM14.2656 14.32V15.256H17.2656V14.32H14.2656ZM14.2656 15.256C14.2656 16.1229 14.0259 16.6264 13.6969 16.9553L15.8182 19.0767C16.8333 18.0616 17.2656 16.7251 17.2656 15.256H14.2656ZM13.6969 16.9553C13.3907 17.2616 12.9003 17.5 12.0216 17.5V20.5C13.4788 20.5 14.8125 20.0824 15.8182 19.0767L13.6969 16.9553ZM12.0216 17.5H9.33356V20.5H12.0216V17.5ZM9.33356 17.5C8.45653 17.5 7.9486 17.2621 7.62137 16.9426L5.52576 19.0894C6.54253 20.0819 7.8746 20.5 9.33356 20.5V17.5ZM7.63422 16.9553C7.30527 16.6264 7.06556 16.1229 7.06556 15.256H4.06556C4.06556 16.7251 4.49785 18.0616 5.5129 19.0767L7.63422 16.9553ZM21.114 18.928L22.1747 19.9887L22.1747 19.9887L21.114 18.928ZM20.382 4.72V2.536H17.382V4.72H20.382ZM20.382 2.536C20.382 2.63922 20.3552 2.99214 20.0387 3.30866C19.7221 3.62518 19.3692 3.652 19.266 3.652V0.651999C18.9068 0.651999 18.3619 0.742819 17.9173 1.18734C17.4728 1.63186 17.382 2.17678 17.382 2.536H20.382ZM19.266 3.652H20.826V0.651999H19.266V3.652ZM20.826 3.652C20.7228 3.652 20.3699 3.62518 20.0533 3.30866C19.7368 2.99214 19.71 2.63922 19.71 2.536H22.71C22.71 2.17678 22.6192 1.63186 22.1747 1.18734C21.7301 0.742819 21.1852 0.651999 20.826 0.651999V3.652ZM19.71 2.536V4.72H22.71V2.536H19.71ZM19.71 4.72C19.71 4.64667 19.7255 4.31265 20.0217 3.99795C20.334 3.66617 20.6987 3.628 20.826 3.628V6.628C21.2093 6.628 21.766 6.52183 22.2063 6.05405C22.6305 5.60335 22.71 5.06533 22.71 4.72H19.71ZM20.826 3.628H19.266V6.628H20.826V3.628ZM19.266 3.628C19.3933 3.628 19.758 3.66617 20.0703 3.99795C20.3665 4.31265 20.382 4.64667 20.382 4.72H17.382C17.382 5.06533 17.4615 5.60335 17.8857 6.05405C18.326 6.52183 18.8827 6.628 19.266 6.628V3.628ZM20.382 18.592V7.168H17.382V18.592H20.382ZM20.382 7.168C20.382 7.24133 20.3665 7.57535 20.0703 7.89005C19.758 8.22183 19.3933 8.26 19.266 8.26V5.26C18.8827 5.26 18.326 5.36617 17.8857 5.83395C17.4615 6.28465 17.382 6.82267 17.382 7.168H20.382ZM19.266 8.26H20.802V5.26H19.266V8.26ZM20.802 8.26C20.7068 8.26 20.3599 8.23518 20.0473 7.92266C19.7348 7.61014 19.71 7.26322 19.71 7.168H22.71C22.71 6.80078 22.6172 6.24986 22.1687 5.80134C21.7201 5.35282 21.1692 5.26 20.802 5.26V8.26ZM19.71 7.168V18.592H22.71V7.168H19.71ZM19.71 18.592C19.71 18.5806 19.7102 18.5014 19.7437 18.3839C19.7781 18.2634 19.8606 18.0601 20.0533 17.8673L22.1747 19.9887C22.6705 19.4928 22.71 18.8686 22.71 18.592H19.71ZM20.0533 17.8673C20.2901 17.6305 20.5398 17.5524 20.6422 17.5268C20.7537 17.4989 20.8256 17.5 20.826 17.5V20.5C20.9704 20.5 21.1623 20.4891 21.3698 20.4372C21.5682 20.3876 21.8899 20.2735 22.1747 19.9887L20.0533 17.8673ZM20.826 17.5H19.29V20.5H20.826V17.5ZM19.29 17.5C19.3852 17.5 19.7321 17.5248 20.0447 17.8373C20.3572 18.1499 20.382 18.4968 20.382 18.592H17.382C17.382 18.9592 17.4748 19.5101 17.9233 19.9587C18.3719 20.4072 18.9228 20.5 19.29 20.5V17.5ZM23.2356 8.728L22.0356 9.628L22.1641 9.79943L22.3356 9.928L23.2356 8.728ZM25.9716 18.04L27.006 16.9538L25.9716 18.04ZM24.7236 7.3H23.5716V10.3H24.7236V7.3ZM23.5716 7.3C23.559 7.3 23.6029 7.29838 23.6819 7.3153C23.7531 7.33057 23.9358 7.37814 24.1356 7.528L22.3356 9.928C22.8145 10.2872 23.3585 10.3 23.5716 10.3V7.3ZM24.4356 7.828C24.5715 8.00922 24.623 8.17753 24.6431 8.26471C24.6638 8.35405 24.6636 8.41108 24.6636 8.416H21.6636C21.6636 8.65619 21.69 9.16725 22.0356 9.628L24.4356 7.828ZM24.6636 8.416V7.168H21.6636V8.416H24.6636ZM24.6636 7.168C24.6636 7.26322 24.6387 7.61014 24.3262 7.92266C24.0137 8.23518 23.6668 8.26 23.5716 8.26V5.26C23.2043 5.26 22.6534 5.35282 22.2049 5.80134C21.7564 6.24986 21.6636 6.80078 21.6636 7.168H24.6636ZM23.5716 8.26H24.7236V5.26H23.5716V8.26ZM24.7236 8.26C25.0348 8.26 25.5437 8.18118 25.9642 7.76066C26.3847 7.34014 26.4636 6.83122 26.4636 6.52H23.4636C23.4636 6.36878 23.5024 5.97986 23.8429 5.63934C24.1834 5.29882 24.5723 5.26 24.7236 5.26V8.26ZM26.4636 6.52V4.36H23.4636V6.52H26.4636ZM26.4636 4.36C26.4636 4.47782 26.4282 4.83595 26.1015 5.14452C25.7909 5.43789 25.4621 5.452 25.3956 5.452V2.452C25.041 2.452 24.4963 2.53411 24.0416 2.96348C23.5709 3.40804 23.4636 3.97018 23.4636 4.36H26.4636ZM25.3956 5.452H26.9076V2.452H25.3956V5.452ZM26.9076 5.452C26.8123 5.452 26.4654 5.42718 26.1529 5.11466C25.8404 4.80214 25.8156 4.45522 25.8156 4.36H28.8156C28.8156 3.99278 28.7227 3.44186 28.2742 2.99334C27.8257 2.54482 27.2748 2.452 26.9076 2.452V5.452ZM25.8156 4.36V6.52H28.8156V4.36H25.8156ZM25.8156 6.52C25.8156 6.87001 25.9184 7.39704 26.3726 7.80991C26.7996 8.19813 27.2938 8.26 27.5796 8.26V5.26C27.6893 5.26 28.0515 5.28187 28.3906 5.59009C28.7567 5.92296 28.8156 6.32999 28.8156 6.52H25.8156ZM27.5796 8.26H29.8116V5.26H27.5796V8.26ZM29.8116 8.26C29.745 8.26 29.4163 8.24589 29.1056 7.95252C28.7789 7.64396 28.7436 7.28582 28.7436 7.168H31.7436C31.7436 6.77818 31.6362 6.21604 31.1655 5.77148C30.7109 5.34211 30.1661 5.26 29.8116 5.26V8.26ZM28.7436 7.168V8.416H31.7436V7.168H28.7436ZM28.7436 8.416C28.7436 8.26402 28.7944 7.88919 29.139 7.58289C29.4499 7.30651 29.765 7.3 29.8116 7.3V10.3C30.1461 10.3 30.6772 10.2295 31.1321 9.82511C31.6207 9.39081 31.7436 8.82398 31.7436 8.416H28.7436ZM29.8116 7.3H27.5796V10.3H29.8116V7.3ZM27.5796 7.3C27.2938 7.3 26.7996 7.36187 26.3726 7.75009C25.9184 8.16296 25.8156 8.68999 25.8156 9.04H28.8156C28.8156 9.23001 28.7567 9.63704 28.3906 9.96991C28.0515 10.2781 27.6893 10.3 27.5796 10.3V7.3ZM25.8156 9.04V15.208H28.8156V9.04H25.8156ZM25.8156 15.208C25.8156 16.0337 26.0301 16.926 26.7193 17.5969C27.4011 18.2605 28.2944 18.46 29.1156 18.46V15.46C28.7368 15.46 28.7301 15.3675 28.8118 15.4471C28.8478 15.4822 28.854 15.5086 28.8472 15.4885C28.8376 15.4607 28.8156 15.3759 28.8156 15.208H25.8156ZM29.1156 18.46H30.0516V15.46H29.1156V18.46ZM30.0516 18.46C29.985 18.46 29.6563 18.4459 29.3456 18.1525C29.0189 17.844 28.9836 17.4858 28.9836 17.368H31.9836C31.9836 16.9782 31.8762 16.416 31.4055 15.9715C30.9509 15.5421 30.4061 15.46 30.0516 15.46V18.46ZM28.9836 17.368V18.616H31.9836V17.368H28.9836ZM28.9836 18.616C28.9836 18.464 29.0344 18.0892 29.379 17.7829C29.6899 17.5065 30.005 17.5 30.0516 17.5V20.5C30.3861 20.5 30.9172 20.4295 31.3721 20.0251C31.8607 19.5908 31.9836 19.024 31.9836 18.616H28.9836ZM30.0516 17.5H28.7556V20.5H30.0516V17.5ZM28.7556 17.5C27.8461 17.5 27.3282 17.2606 27.006 16.9538L24.9371 19.1262C25.959 20.0994 27.297 20.5 28.7556 20.5V17.5ZM27.006 16.9538C26.7041 16.6663 26.4636 16.1982 26.4636 15.328H23.4636C23.4636 16.7938 23.895 18.1337 24.9371 19.1262L27.006 16.9538ZM26.4636 15.328V9.04H23.4636V15.328H26.4636ZM26.4636 9.04C26.4636 8.72878 26.3847 8.21986 25.9642 7.79934C25.5437 7.37882 25.0348 7.3 24.7236 7.3V10.3C24.5723 10.3 24.1834 10.2612 23.8429 9.92066C23.5024 9.58014 23.4636 9.19122 23.4636 9.04H26.4636ZM33.4976 18.016L32.424 19.0635L32.4304 19.0701L32.437 19.0767L33.4976 18.016ZM33.4976 7.744L34.5583 8.80466L33.4976 7.744ZM40.9856 7.744L39.925 8.80466L39.9315 8.81121L39.9381 8.81767L40.9856 7.744ZM39.2336 9.232L38.1431 10.2619L38.1578 10.2775L38.173 10.2927L39.2336 9.232ZM35.2736 9.232L36.3343 10.2927L36.3494 10.2775L36.3641 10.2619L35.2736 9.232ZM41.4416 17.5H36.2576V20.5H41.4416V17.5ZM36.2576 17.5C35.3562 17.5 34.8608 17.2578 34.5583 16.9553L32.437 19.0767C33.4465 20.0862 34.7911 20.5 36.2576 20.5V17.5ZM34.5713 16.9685C34.2741 16.6639 34.0376 16.1689 34.0376 15.28H31.0376C31.0376 16.7271 31.4411 18.0561 32.424 19.0635L34.5713 16.9685ZM34.0376 15.28V10.48H31.0376V15.28H34.0376ZM34.0376 10.48C34.0376 9.56632 34.2785 9.08447 34.5583 8.80466L32.437 6.68334C31.4368 7.68353 31.0376 9.02568 31.0376 10.48H34.0376ZM34.5583 8.80466C34.8608 8.50215 35.3562 8.26 36.2576 8.26V5.26C34.7911 5.26 33.4465 5.67384 32.437 6.68334L34.5583 8.80466ZM36.2576 8.26H38.2256V5.26H36.2576V8.26ZM38.2256 8.26C39.1271 8.26 39.6225 8.50215 39.925 8.80466L42.0463 6.68334C41.0368 5.67384 39.6922 5.26 38.2256 5.26V8.26ZM39.9381 8.81767C40.2268 9.09931 40.4696 9.57651 40.4696 10.48H43.4696C43.4696 9.01549 43.0564 7.66869 42.0331 6.67033L39.9381 8.81767ZM40.4696 10.48V13.528H43.4696V10.48H40.4696ZM40.4696 13.528C40.4696 13.4408 40.4924 13.0999 40.801 12.7913C41.1095 12.4828 41.4504 12.46 41.5376 12.46V15.46C41.9128 15.46 42.4698 15.3652 42.9223 14.9127C43.3748 14.4601 43.4696 13.9032 43.4696 13.528H40.4696ZM41.5376 12.46H35.1056V15.46H41.5376V12.46ZM35.1056 12.46C34.8199 12.46 34.3257 12.5219 33.8986 12.9101C33.4445 13.323 33.3416 13.85 33.3416 14.2H36.3416C36.3416 14.39 36.2828 14.797 35.9166 15.1299C35.5776 15.4381 35.2153 15.46 35.1056 15.46V12.46ZM33.3416 14.2V15.232H36.3416V14.2H33.3416ZM33.3416 15.232C33.3416 16.0472 33.5464 16.9341 34.219 17.6067C34.8915 18.2792 35.7784 18.484 36.5936 18.484V15.484C36.4221 15.484 36.3332 15.462 36.3015 15.4515C36.277 15.4433 36.303 15.4481 36.3403 15.4853C36.3775 15.5226 36.3823 15.5486 36.3741 15.5242C36.3636 15.4925 36.3416 15.4035 36.3416 15.232H33.3416ZM36.5936 18.484H41.4416V15.484H36.5936V18.484ZM41.4416 18.484C41.3544 18.484 41.0135 18.4612 40.705 18.1527C40.3964 17.8441 40.3736 17.5032 40.3736 17.416H43.3736C43.3736 17.0408 43.2788 16.4839 42.8263 16.0313C42.3738 15.5788 41.8168 15.484 41.4416 15.484V18.484ZM40.3736 17.416V18.616H43.3736V17.416H40.3736ZM40.3736 18.616C40.3736 18.464 40.4245 18.0892 40.7691 17.7829C41.08 17.5065 41.3951 17.5 41.4416 17.5V20.5C41.7762 20.5 42.3073 20.4295 42.7622 20.0251C43.2508 19.5908 43.3736 19.024 43.3736 18.616H40.3736ZM35.1056 13.828H39.4016V10.828H35.1056V13.828ZM39.4016 13.828C39.7128 13.828 40.2218 13.7492 40.6423 13.3287C41.0628 12.9081 41.1416 12.3992 41.1416 12.088H38.1416C38.1416 11.9368 38.1804 11.5479 38.521 11.2073C38.8615 10.8668 39.2504 10.828 39.4016 10.828V13.828ZM41.1416 12.088V10.552H38.1416V12.088H41.1416ZM41.1416 10.552C41.1416 9.76959 40.9737 8.85074 40.2943 8.17134L38.173 10.2927C38.1055 10.2252 38.0964 10.1764 38.1065 10.209C38.1186 10.248 38.1416 10.3531 38.1416 10.552H41.1416ZM40.3241 8.20207C39.6476 7.48572 38.7163 7.3 37.9136 7.3V10.3C38.1058 10.3 38.2024 10.3236 38.2331 10.3336C38.2556 10.341 38.2058 10.3283 38.1431 10.2619L40.3241 8.20207ZM37.9136 7.3H36.5936V10.3H37.9136V7.3ZM36.5936 7.3C35.791 7.3 34.8596 7.48572 34.1831 8.20206L36.3641 10.2619C36.3015 10.3283 36.2516 10.341 36.2742 10.3336C36.3048 10.3236 36.4014 10.3 36.5936 10.3V7.3ZM34.213 8.17134C33.5336 8.85074 33.3656 9.76959 33.3656 10.552H36.3656C36.3656 10.3531 36.3887 10.248 36.4007 10.209C36.4108 10.1764 36.4018 10.2252 36.3343 10.2927L34.213 8.17134ZM33.3656 10.552V12.088H36.3656V10.552H33.3656ZM33.3656 12.088C33.3656 12.3992 33.4444 12.9081 33.865 13.3287C34.2855 13.7492 34.7944 13.828 35.1056 13.828V10.828C35.2568 10.828 35.6458 10.8668 35.9863 11.2073C36.3268 11.5479 36.3656 11.9368 36.3656 12.088H33.3656ZM51.6283 7.168L50.1511 7.42868L50.1614 7.48667L50.1761 7.54369L51.6283 7.168ZM54.1243 16.816L52.6721 17.1917L52.963 18.316H54.1243V16.816ZM54.2923 16.816V18.316H55.4592L55.7462 17.1849L54.2923 16.816ZM56.7403 7.168L58.1942 7.53691L58.1974 7.52426L58.2004 7.51156L56.7403 7.168ZM59.1163 7.168L57.7018 6.66877L57.6862 6.7129L57.6735 6.75792L59.1163 7.168ZM55.8763 18.568L54.4335 18.1579L54.4215 18.2L54.412 18.2426L55.8763 18.568ZM52.5163 18.568L53.9806 18.2426L53.9711 18.2L53.9592 18.1579L52.5163 18.568ZM49.2763 7.168L47.8162 7.51156L47.8241 7.54501L47.8335 7.57807L49.2763 7.168ZM49.5643 8.26H51.1723V5.26H49.5643V8.26ZM51.1723 8.26C51.0289 8.26 50.7422 8.21611 50.4781 7.97986C50.2277 7.75582 50.165 7.50729 50.1511 7.42868L53.1055 6.90732C53.0436 6.5567 52.8809 6.10418 52.4785 5.74414C52.0625 5.37189 51.5717 5.26 51.1723 5.26V8.26ZM50.1761 7.54369L52.6721 17.1917L55.5765 16.4403L53.0805 6.79231L50.1761 7.54369ZM54.1243 18.316H54.2923V15.316H54.1243V18.316ZM55.7462 17.1849L58.1942 7.53691L55.2864 6.79909L52.8384 16.4471L55.7462 17.1849ZM58.2004 7.51156C58.1787 7.60381 58.0997 7.83226 57.8581 8.02787C57.6121 8.22699 57.3611 8.26 57.2443 8.26V5.26C56.8555 5.26 56.3845 5.36101 55.9705 5.69613C55.5609 6.02774 55.3659 6.46019 55.2802 6.82444L58.2004 7.51156ZM57.2443 8.26H58.8283V5.26H57.2443V8.26ZM58.8283 8.26C58.7946 8.26 58.6719 8.25764 58.5075 8.19944C58.3294 8.13635 58.0826 7.99859 57.8909 7.72702C57.6993 7.45565 57.6523 7.17742 57.6523 6.9895C57.6523 6.81598 57.6908 6.70013 57.7018 6.66877L60.5308 7.66723C60.6241 7.40297 60.8246 6.68096 60.3418 5.99697C59.8581 5.31183 59.1094 5.26 58.8283 5.26V8.26ZM57.6735 6.75792L54.4335 18.1579L57.3192 18.9781L60.5592 7.57807L57.6735 6.75792ZM54.412 18.2426C54.4311 18.1567 54.5056 17.9281 54.7465 17.7311C54.9913 17.5307 55.2403 17.5 55.3483 17.5V20.5C55.7443 20.5 56.2253 20.3973 56.6462 20.0529C57.063 19.7119 57.2575 19.2673 57.3406 18.8934L54.412 18.2426ZM55.3483 17.5H53.0443V20.5H55.3483V17.5ZM53.0443 17.5C53.1523 17.5 53.4013 17.5307 53.6462 17.7311C53.887 17.9281 53.9615 18.1567 53.9806 18.2426L51.052 18.8934C51.1351 19.2673 51.3296 19.7119 51.7465 20.0529C52.1673 20.3973 52.6483 20.5 53.0443 20.5V17.5ZM53.9592 18.1579L50.7192 6.75792L47.8335 7.57807L51.0735 18.9781L53.9592 18.1579ZM50.7364 6.82444C50.7387 6.83397 50.8505 7.26697 50.5258 7.72702C50.1659 8.23685 49.6519 8.26 49.5643 8.26V5.26C49.2208 5.26 48.5307 5.35115 48.0749 5.99697C47.6541 6.59303 47.7499 7.23003 47.8162 7.51156L50.7364 6.82444ZM63.4421 18.928L64.5028 19.9887V19.9887L63.4421 18.928ZM62.7101 4.72V2.536H59.7101V4.72H62.7101ZM62.7101 2.536C62.7101 2.63922 62.6833 2.99214 62.3668 3.30866C62.0503 3.62518 61.6973 3.652 61.5941 3.652V0.651999C61.2349 0.651999 60.69 0.742819 60.2455 1.18734C59.8009 1.63186 59.7101 2.17678 59.7101 2.536H62.7101ZM61.5941 3.652H63.1541V0.651999H61.5941V3.652ZM63.1541 3.652C63.0509 3.652 62.698 3.62518 62.3815 3.30866C62.0649 2.99214 62.0381 2.63922 62.0381 2.536H65.0381C65.0381 2.17678 64.9473 1.63186 64.5028 1.18734C64.0583 0.742819 63.5133 0.651999 63.1541 0.651999V3.652ZM62.0381 2.536V4.72H65.0381V2.536H62.0381ZM62.0381 4.72C62.0381 4.64667 62.0536 4.31265 62.3498 3.99795C62.6621 3.66617 63.0269 3.628 63.1541 3.628V6.628C63.5374 6.628 64.0942 6.52183 64.5344 6.05405C64.9586 5.60335 65.0381 5.06533 65.0381 4.72H62.0381ZM63.1541 3.628H61.5941V6.628H63.1541V3.628ZM61.5941 3.628C61.7214 3.628 62.0862 3.66617 62.3984 3.99795C62.6946 4.31265 62.7101 4.64667 62.7101 4.72H59.7101C59.7101 5.06533 59.7896 5.60335 60.2138 6.05405C60.6541 6.52183 61.2109 6.628 61.5941 6.628V3.628ZM62.7101 18.592V7.168H59.7101V18.592H62.7101ZM62.7101 7.168C62.7101 7.24133 62.6946 7.57535 62.3984 7.89005C62.0862 8.22183 61.7214 8.26 61.5941 8.26V5.26C61.2109 5.26 60.6541 5.36617 60.2138 5.83395C59.7896 6.28465 59.7101 6.82267 59.7101 7.168H62.7101ZM61.5941 8.26H63.1301V5.26H61.5941V8.26ZM63.1301 8.26C63.0349 8.26 62.688 8.23518 62.3755 7.92266C62.0629 7.61014 62.0381 7.26322 62.0381 7.168H65.0381C65.0381 6.80078 64.9453 6.24986 64.4968 5.80134C64.0483 5.35282 63.4973 5.26 63.1301 5.26V8.26ZM62.0381 7.168V18.592H65.0381V7.168H62.0381ZM62.0381 18.592C62.0381 18.5806 62.0383 18.5014 62.0718 18.3839C62.1063 18.2634 62.1887 18.0601 62.3815 17.8673L64.5028 19.9887C64.9987 19.4928 65.0381 18.8686 65.0381 18.592H62.0381ZM62.3815 17.8673C62.6183 17.6305 62.868 17.5524 62.9703 17.5268C63.0818 17.4989 63.1537 17.5 63.1541 17.5V20.5C63.2985 20.5 63.4905 20.4891 63.6979 20.4372C63.8963 20.3876 64.218 20.2735 64.5028 19.9887L62.3815 17.8673ZM63.1541 17.5H61.6181V20.5H63.1541V17.5ZM61.6181 17.5C61.7133 17.5 62.0603 17.5248 62.3728 17.8373C62.6853 18.1499 62.7101 18.4968 62.7101 18.592H59.7101C59.7101 18.9592 59.8029 19.5101 60.2515 19.9587C60.7 20.4072 61.2509 20.5 61.6181 20.5V17.5ZM65.5637 8.728L64.3637 9.628L64.4923 9.79943L64.6637 9.928L65.5637 8.728ZM68.2997 18.04L69.3342 16.9538L68.2997 18.04ZM67.0517 7.3H65.8997V10.3H67.0517V7.3ZM65.8997 7.3C65.8871 7.3 65.931 7.29838 66.01 7.3153C66.0813 7.33057 66.2639 7.37814 66.4637 7.528L64.6637 9.928C65.1426 10.2872 65.6866 10.3 65.8997 10.3V7.3ZM66.7637 7.828C66.8996 8.00922 66.9512 8.17753 66.9713 8.26471C66.9919 8.35405 66.9917 8.41108 66.9917 8.416H63.9917C63.9917 8.65619 64.0181 9.16725 64.3637 9.628L66.7637 7.828ZM66.9917 8.416V7.168H63.9917V8.416H66.9917ZM66.9917 7.168C66.9917 7.26322 66.9669 7.61014 66.6543 7.92266C66.3418 8.23518 65.9949 8.26 65.8997 8.26V5.26C65.5325 5.26 64.9815 5.35282 64.533 5.80134C64.0845 6.24986 63.9917 6.80078 63.9917 7.168H66.9917ZM65.8997 8.26H67.0517V5.26H65.8997V8.26ZM67.0517 8.26C67.3629 8.26 67.8718 8.18118 68.2924 7.76066C68.7129 7.34014 68.7917 6.83122 68.7917 6.52H65.7917C65.7917 6.36878 65.8305 5.97986 66.171 5.63934C66.5115 5.29882 66.9005 5.26 67.0517 5.26V8.26ZM68.7917 6.52V4.36H65.7917V6.52H68.7917ZM68.7917 4.36C68.7917 4.47782 68.7563 4.83595 68.4296 5.14452C68.119 5.43789 67.7902 5.452 67.7237 5.452V2.452C67.3692 2.452 66.8244 2.53411 66.3698 2.96348C65.899 3.40804 65.7917 3.97018 65.7917 4.36H68.7917ZM67.7237 5.452H69.2357V2.452H67.7237V5.452ZM69.2357 5.452C69.1405 5.452 68.7935 5.42718 68.481 5.11466C68.1685 4.80214 68.1437 4.45522 68.1437 4.36H71.1437C71.1437 3.99278 71.0509 3.44186 70.6023 2.99334C70.1538 2.54482 69.6029 2.452 69.2357 2.452V5.452ZM68.1437 4.36V6.52H71.1437V4.36H68.1437ZM68.1437 6.52C68.1437 6.87001 68.2465 7.39704 68.7007 7.80991C69.1277 8.19813 69.622 8.26 69.9077 8.26V5.26C70.0174 5.26 70.3797 5.28187 70.7187 5.59009C71.0849 5.92296 71.1437 6.32999 71.1437 6.52H68.1437ZM69.9077 8.26H72.1397V5.26H69.9077V8.26ZM72.1397 8.26C72.0732 8.26 71.7444 8.24589 71.4338 7.95252C71.107 7.64396 71.0717 7.28582 71.0717 7.168H74.0717C74.0717 6.77818 73.9643 6.21604 73.4936 5.77148C73.039 5.34211 72.4942 5.26 72.1397 5.26V8.26ZM71.0717 7.168V8.416H74.0717V7.168H71.0717ZM71.0717 8.416C71.0717 8.26402 71.1226 7.88919 71.4671 7.58289C71.7781 7.30651 72.0931 7.3 72.1397 7.3V10.3C72.4742 10.3 73.0053 10.2295 73.4602 9.82511C73.9488 9.39081 74.0717 8.82398 74.0717 8.416H71.0717ZM72.1397 7.3H69.9077V10.3H72.1397V7.3ZM69.9077 7.3C69.622 7.3 69.1277 7.36187 68.7007 7.75009C68.2465 8.16296 68.1437 8.68999 68.1437 9.04H71.1437C71.1437 9.23001 71.0849 9.63704 70.7187 9.96991C70.3797 10.2781 70.0174 10.3 69.9077 10.3V7.3ZM68.1437 9.04V15.208H71.1437V9.04H68.1437ZM68.1437 15.208C68.1437 16.0337 68.3582 16.926 69.0475 17.5969C69.7292 18.2605 70.6225 18.46 71.4437 18.46V15.46C71.0649 15.46 71.0582 15.3675 71.1399 15.4471C71.176 15.4822 71.1822 15.5086 71.1753 15.4885C71.1658 15.4607 71.1437 15.3759 71.1437 15.208H68.1437ZM71.4437 18.46H72.3797V15.46H71.4437V18.46ZM72.3797 18.46C72.3132 18.46 71.9844 18.4459 71.6738 18.1525C71.347 17.844 71.3117 17.4858 71.3117 17.368H74.3117C74.3117 16.9782 74.2043 16.416 73.7336 15.9715C73.279 15.5421 72.7342 15.46 72.3797 15.46V18.46ZM71.3117 17.368V18.616H74.3117V17.368H71.3117ZM71.3117 18.616C71.3117 18.464 71.3626 18.0892 71.7071 17.7829C72.0181 17.5065 72.3331 17.5 72.3797 17.5V20.5C72.7142 20.5 73.2453 20.4295 73.7002 20.0251C74.1888 19.5908 74.3117 19.024 74.3117 18.616H71.3117ZM72.3797 17.5H71.0837V20.5H72.3797V17.5ZM71.0837 17.5C70.1742 17.5 69.6563 17.2606 69.3342 16.9538L67.2652 19.1262C68.2871 20.0994 69.6252 20.5 71.0837 20.5V17.5ZM69.3342 16.9538C69.0322 16.6663 68.7917 16.1982 68.7917 15.328H65.7917C65.7917 16.7938 66.2231 18.1337 67.2652 19.1262L69.3342 16.9538ZM68.7917 15.328V9.04H65.7917V15.328H68.7917ZM68.7917 9.04C68.7917 8.72878 68.7129 8.21986 68.2924 7.79934C67.8718 7.37882 67.3629 7.3 67.0517 7.3V10.3C66.9005 10.3 66.5115 10.2612 66.171 9.92066C65.8305 9.58014 65.7917 9.19122 65.7917 9.04H68.7917ZM77.4338 8.08H75.9338V9.58H77.4338V8.08ZM77.5297 8.08V9.58H78.5453L78.9225 8.63709L77.5297 8.08ZM78.4417 7.12L77.7526 5.78767L77.743 5.79266L77.7334 5.79778L78.4417 7.12ZM80.8658 8.8L81.1264 7.32282L80.9971 7.3H80.8658V8.8ZM77.0257 17.5H75.5137V20.5H77.0257V17.5ZM75.5137 17.5C75.609 17.5 75.9559 17.5248 76.2684 17.8373C76.5809 18.1499 76.6058 18.4968 76.6058 18.592H73.6058C73.6058 18.9592 73.6986 19.5101 74.1471 19.9587C74.5956 20.4072 75.1465 20.5 75.5137 20.5V17.5ZM76.6058 18.592V7.168H73.6058V18.592H76.6058ZM76.6058 7.168C76.6058 7.26322 76.5809 7.61014 76.2684 7.92266C75.9559 8.23518 75.609 8.26 75.5137 8.26V5.26C75.1465 5.26 74.5956 5.35282 74.1471 5.80134C73.6986 6.24986 73.6058 6.80078 73.6058 7.168H76.6058ZM75.5137 8.26H77.0257V5.26H75.5137V8.26ZM77.0257 8.26C76.9305 8.26 76.5836 8.23518 76.2711 7.92266C75.9586 7.61014 75.9338 7.26322 75.9338 7.168H78.9338C78.9338 6.80078 78.8409 6.24986 78.3924 5.80134C77.9439 5.35282 77.393 5.26 77.0257 5.26V8.26ZM75.9338 7.168V8.08H78.9338V7.168H75.9338ZM77.4338 9.58H77.5297V6.58H77.4338V9.58ZM78.9225 8.63709C78.9287 8.62155 78.9545 8.54701 79.1501 8.44222L77.7334 5.79778C77.033 6.17299 76.4508 6.73845 76.137 7.52291L78.9225 8.63709ZM79.1309 8.45232C79.3667 8.33036 79.6399 8.26 79.9778 8.26V5.26C79.1956 5.26 78.4448 5.42964 77.7526 5.78767L79.1309 8.45232ZM79.9778 8.26H80.8658V5.26H79.9778V8.26ZM80.8658 8.26C80.7705 8.26 80.4236 8.23518 80.1111 7.92266C79.7986 7.61014 79.7738 7.26322 79.7738 7.168H82.7738C82.7738 6.80078 82.6809 6.24986 82.2324 5.80134C81.7839 5.35282 81.233 5.26 80.8658 5.26V8.26ZM79.7738 7.168V8.416H82.7738V7.168H79.7738ZM79.7738 8.416C79.7738 8.40475 79.767 8.00221 80.1437 7.6477C80.5625 7.25358 81.0292 7.30566 81.1264 7.32282L80.6051 10.2772C80.9743 10.3423 81.645 10.3544 82.1998 9.8323C82.7125 9.34979 82.7738 8.73125 82.7738 8.416H79.7738ZM80.8658 7.3H79.4258V10.3H80.8658V7.3ZM79.4258 7.3C78.4932 7.3 77.5287 7.56198 76.8235 8.33517C76.1421 9.08221 75.9338 10.0572 75.9338 10.984H78.9338C78.9338 10.4548 79.0574 10.3378 79.04 10.3568C78.9988 10.402 79.0303 10.3 79.4258 10.3V7.3ZM75.9338 10.984V18.592H78.9338V10.984H75.9338ZM75.9338 18.592C75.9338 18.4968 75.9586 18.1499 76.2711 17.8373C76.5836 17.5248 76.9305 17.5 77.0257 17.5V20.5C77.393 20.5 77.9439 20.4072 78.3924 19.9587C78.8409 19.5101 78.9338 18.9592 78.9338 18.592H75.9338ZM85.4968 18.928L86.5575 19.9887V19.9887L85.4968 18.928ZM84.7648 4.72V2.536H81.7648V4.72H84.7648ZM84.7648 2.536C84.7648 2.63922 84.738 2.99214 84.4215 3.30866C84.1049 3.62518 83.752 3.652 83.6488 3.652V0.651999C83.2896 0.651999 82.7447 0.742819 82.3002 1.18734C81.8556 1.63186 81.7648 2.17678 81.7648 2.536H84.7648ZM83.6488 3.652H85.2088V0.651999H83.6488V3.652ZM85.2088 3.652C85.1056 3.652 84.7527 3.62518 84.4362 3.30866C84.1196 2.99214 84.0928 2.63922 84.0928 2.536H87.0928C87.0928 2.17678 87.002 1.63186 86.5575 1.18734C86.113 0.742819 85.568 0.651999 85.2088 0.651999V3.652ZM84.0928 2.536V4.72H87.0928V2.536H84.0928ZM84.0928 4.72C84.0928 4.64667 84.1083 4.31265 84.4045 3.99795C84.7168 3.66617 85.0816 3.628 85.2088 3.628V6.628C85.5921 6.628 86.1488 6.52183 86.5891 6.05405C87.0133 5.60335 87.0928 5.06533 87.0928 4.72H84.0928ZM85.2088 3.628H83.6488V6.628H85.2088V3.628ZM83.6488 3.628C83.7761 3.628 84.1409 3.66617 84.4531 3.99795C84.7493 4.31265 84.7648 4.64667 84.7648 4.72H81.7648C81.7648 5.06533 81.8443 5.60335 82.2685 6.05405C82.7088 6.52183 83.2656 6.628 83.6488 6.628V3.628ZM84.7648 18.592V7.168H81.7648V18.592H84.7648ZM84.7648 7.168C84.7648 7.24133 84.7493 7.57535 84.4531 7.89005C84.1409 8.22183 83.7761 8.26 83.6488 8.26V5.26C83.2656 5.26 82.7088 5.36617 82.2685 5.83395C81.8443 6.28465 81.7648 6.82267 81.7648 7.168H84.7648ZM83.6488 8.26H85.1848V5.26H83.6488V8.26ZM85.1848 8.26C85.0896 8.26 84.7427 8.23518 84.4302 7.92266C84.1176 7.61014 84.0928 7.26322 84.0928 7.168H87.0928C87.0928 6.80078 87 6.24986 86.5515 5.80134C86.103 5.35282 85.552 5.26 85.1848 5.26V8.26ZM84.0928 7.168V18.592H87.0928V7.168H84.0928ZM84.0928 18.592C84.0928 18.5806 84.093 18.5014 84.1265 18.3839C84.161 18.2634 84.2434 18.0601 84.4361 17.8673L86.5575 19.9887C87.0534 19.4928 87.0928 18.8686 87.0928 18.592H84.0928ZM84.4362 17.8673C84.673 17.6305 84.9226 17.5524 85.025 17.5268C85.1365 17.4989 85.2084 17.5 85.2088 17.5V20.5C85.3532 20.5 85.5452 20.4891 85.7526 20.4372C85.951 20.3876 86.2727 20.2735 86.5575 19.9887L84.4362 17.8673ZM85.2088 17.5H83.6728V20.5H85.2088V17.5ZM83.6728 17.5C83.768 17.5 84.115 17.5248 84.4275 17.8373C84.74 18.1499 84.7648 18.4968 84.7648 18.592H81.7648C81.7648 18.9592 81.8576 19.5101 82.3062 19.9587C82.7547 20.4072 83.3056 20.5 83.6728 20.5V17.5ZM91.0744 8.032H89.5744V9.532H91.0744V8.032ZM91.1704 8.032V9.532H92.1378L92.5368 8.65076L91.1704 8.032ZM97.3384 7.72L98.4124 6.67285L97.3384 7.72ZM90.6664 17.5H89.1544V20.5H90.6664V17.5ZM89.1544 17.5C89.2496 17.5 89.5965 17.5248 89.909 17.8373C90.2216 18.1499 90.2464 18.4968 90.2464 18.592H87.2464C87.2464 18.9592 87.3392 19.5101 87.7877 19.9587C88.2362 20.4072 88.7872 20.5 89.1544 20.5V17.5ZM90.2464 18.592V7.168H87.2464V18.592H90.2464ZM90.2464 7.168C90.2464 7.26322 90.2216 7.61014 89.909 7.92266C89.5965 8.23518 89.2496 8.26 89.1544 8.26V5.26C88.7872 5.26 88.2362 5.35282 87.7877 5.80134C87.3392 6.24986 87.2464 6.80078 87.2464 7.168H90.2464ZM89.1544 8.26H90.6664V5.26H89.1544V8.26ZM90.6664 8.26C90.5712 8.26 90.2242 8.23518 89.9117 7.92266C89.5992 7.61014 89.5744 7.26322 89.5744 7.168H92.5744C92.5744 6.80078 92.4816 6.24986 92.033 5.80134C91.5845 5.35282 91.0336 5.26 90.6664 5.26V8.26ZM89.5744 7.168V8.032H92.5744V7.168H89.5744ZM91.0744 9.532H91.1704V6.532H91.0744V9.532ZM92.5368 8.65076C92.5962 8.5197 92.7238 8.26 93.5944 8.26V5.26C92.001 5.26 90.5126 5.8483 89.8039 7.41324L92.5368 8.65076ZM93.5944 8.26H94.6504V5.26H93.5944V8.26ZM94.6504 8.26C95.5435 8.26 96.0019 8.49792 96.2644 8.76715L98.4124 6.67285C97.4269 5.66208 96.0932 5.26 94.6504 5.26V8.26ZM96.2644 8.76715C96.5323 9.04193 96.7744 9.53368 96.7744 10.48H99.7744C99.7744 9.02632 99.3925 7.67807 98.4124 6.67285L96.2644 8.76715ZM96.7744 10.48V18.592H99.7744V10.48H96.7744ZM96.7744 18.592C96.7744 18.4742 96.8097 18.116 97.1364 17.8075C97.4471 17.5141 97.7758 17.5 97.8424 17.5V20.5C98.1969 20.5 98.7417 20.4179 99.1963 19.9885C99.667 19.544 99.7744 18.9818 99.7744 18.592H96.7744ZM97.8424 17.5H96.3304V20.5H97.8424V17.5ZM96.3304 17.5C96.4256 17.5 96.7725 17.5248 97.085 17.8373C97.3976 18.1499 97.4224 18.4968 97.4224 18.592H94.4224C94.4224 18.9592 94.5152 19.5101 94.9637 19.9587C95.4122 20.4072 95.9632 20.5 96.3304 20.5V17.5ZM97.4224 18.592V10.576H94.4224V18.592H97.4224ZM97.4224 10.576C97.4224 9.75788 97.2203 8.86777 96.5522 8.19058C95.8805 7.50963 94.9908 7.3 94.1704 7.3V10.3C94.3401 10.3 94.427 10.322 94.4567 10.3321C94.479 10.3396 94.4527 10.3341 94.4165 10.2974C94.3808 10.2612 94.3782 10.2379 94.3879 10.2676C94.4 10.3042 94.4224 10.3988 94.4224 10.576H97.4224ZM94.1704 7.3H93.0424V10.3H94.1704V7.3ZM93.0424 7.3C92.1412 7.3 91.1931 7.53647 90.4868 8.26856C89.7903 8.99062 89.5744 9.94201 89.5744 10.84H92.5744C92.5744 10.378 92.6865 10.3094 92.6459 10.3514C92.5957 10.4035 92.6316 10.3 93.0424 10.3V7.3ZM89.5744 10.84V18.592H92.5744V10.84H89.5744ZM89.5744 18.592C89.5744 18.4968 89.5992 18.1499 89.9117 17.8373C90.2242 17.5248 90.5712 17.5 90.6664 17.5V20.5C91.0336 20.5 91.5845 20.4072 92.033 19.9587C92.4816 19.5101 92.5744 18.9592 92.5744 18.592H89.5744ZM101.865 18.016L100.791 19.0635L100.798 19.0701L100.804 19.0767L101.865 18.016ZM101.865 7.744L102.925 8.80466L101.865 7.744ZM109.353 7.744L108.292 8.80466L108.299 8.81121L108.305 8.81767L109.353 7.744ZM107.601 9.232L106.51 10.2619L106.525 10.2775L106.54 10.2927L107.601 9.232ZM103.641 9.232L104.701 10.2927L104.717 10.2775L104.731 10.2619L103.641 9.232ZM109.809 17.5H104.625V20.5H109.809V17.5ZM104.625 17.5C103.723 17.5 103.228 17.2578 102.925 16.9553L100.804 19.0767C101.814 20.0862 103.158 20.5 104.625 20.5V17.5ZM102.938 16.9685C102.641 16.6639 102.405 16.1689 102.405 15.28H99.4048C99.4048 16.7271 99.8083 18.0561 100.791 19.0635L102.938 16.9685ZM102.405 15.28V10.48H99.4048V15.28H102.405ZM102.405 10.48C102.405 9.56632 102.646 9.08447 102.925 8.80466L100.804 6.68334C99.804 7.68353 99.4048 9.02568 99.4048 10.48H102.405ZM102.925 8.80466C103.228 8.50215 103.723 8.26 104.625 8.26V5.26C103.158 5.26 101.814 5.67384 100.804 6.68334L102.925 8.80466ZM104.625 8.26H106.593V5.26H104.625V8.26ZM106.593 8.26C107.494 8.26 107.99 8.50215 108.292 8.80466L110.413 6.68334C109.404 5.67384 108.059 5.26 106.593 5.26V8.26ZM108.305 8.81767C108.594 9.09931 108.837 9.57651 108.837 10.48H111.837C111.837 9.01549 111.424 7.66869 110.4 6.67033L108.305 8.81767ZM108.837 10.48V13.528H111.837V10.48H108.837ZM108.837 13.528C108.837 13.4408 108.86 13.0999 109.168 12.7913C109.477 12.4828 109.818 12.46 109.905 12.46V15.46C110.28 15.46 110.837 15.3652 111.289 14.9127C111.742 14.4601 111.837 13.9032 111.837 13.528H108.837ZM109.905 12.46H103.473V15.46H109.905V12.46ZM103.473 12.46C103.187 12.46 102.693 12.5219 102.266 12.9101C101.812 13.323 101.709 13.85 101.709 14.2H104.709C104.709 14.39 104.65 14.797 104.284 15.1299C103.945 15.4381 103.583 15.46 103.473 15.46V12.46ZM101.709 14.2V15.232H104.709V14.2H101.709ZM101.709 15.232C101.709 16.0472 101.914 16.9341 102.586 17.6067C103.259 18.2792 104.146 18.484 104.961 18.484V15.484C104.789 15.484 104.7 15.462 104.669 15.4515C104.644 15.4433 104.67 15.4481 104.707 15.4853C104.745 15.5226 104.749 15.5486 104.741 15.5242C104.731 15.4925 104.709 15.4035 104.709 15.232H101.709ZM104.961 18.484H109.809V15.484H104.961V18.484ZM109.809 18.484C109.722 18.484 109.381 18.4612 109.072 18.1527C108.764 17.8441 108.741 17.5032 108.741 17.416H111.741C111.741 17.0408 111.646 16.4839 111.193 16.0313C110.741 15.5788 110.184 15.484 109.809 15.484V18.484ZM108.741 17.416V18.616H111.741V17.416H108.741ZM108.741 18.616C108.741 18.464 108.792 18.0892 109.136 17.7829C109.447 17.5065 109.762 17.5 109.809 17.5V20.5C110.143 20.5 110.674 20.4295 111.129 20.0251C111.618 19.5908 111.741 19.024 111.741 18.616H108.741ZM103.473 13.828H107.769V10.828H103.473V13.828ZM107.769 13.828C108.08 13.828 108.589 13.7492 109.009 13.3287C109.43 12.9081 109.509 12.3992 109.509 12.088H106.509C106.509 11.9368 106.548 11.5479 106.888 11.2073C107.229 10.8668 107.618 10.828 107.769 10.828V13.828ZM109.509 12.088V10.552H106.509V12.088H109.509ZM109.509 10.552C109.509 9.76959 109.341 8.85074 108.661 8.17134L106.54 10.2927C106.473 10.2252 106.464 10.1764 106.474 10.209C106.486 10.248 106.509 10.3531 106.509 10.552H109.509ZM108.691 8.20207C108.015 7.48572 107.083 7.3 106.281 7.3V10.3C106.473 10.3 106.57 10.3236 106.6 10.3336C106.623 10.341 106.573 10.3283 106.51 10.2619L108.691 8.20207ZM106.281 7.3H104.961V10.3H106.281V7.3ZM104.961 7.3C104.158 7.3 103.227 7.48572 102.55 8.20206L104.731 10.2619C104.669 10.3283 104.619 10.341 104.641 10.3336C104.672 10.3236 104.769 10.3 104.961 10.3V7.3ZM102.58 8.17134C101.901 8.85074 101.733 9.76959 101.733 10.552H104.733C104.733 10.3531 104.756 10.248 104.768 10.209C104.778 10.1764 104.769 10.2252 104.701 10.2927L102.58 8.17134ZM101.733 10.552V12.088H104.733V10.552H101.733ZM101.733 12.088C101.733 12.3992 101.812 12.9081 102.232 13.3287C102.653 13.7492 103.162 13.828 103.473 13.828V10.828C103.624 10.828 104.013 10.8668 104.353 11.2073C104.694 11.5479 104.733 11.9368 104.733 12.088H101.733ZM117.397 14.2L116.751 15.5538L116.768 15.5619L116.785 15.5695L117.397 14.2ZM114.781 12.952L115.427 11.5981L115.419 11.5948L114.781 12.952ZM113.005 11.68L111.83 12.6121V12.6121L113.005 11.68ZM115.261 9.016L116.056 10.288L116.084 10.2706L116.111 10.2521L115.261 9.016ZM116.101 11.272L116.781 9.93526L116.761 9.92469L116.739 9.91477L116.101 11.272ZM118.741 12.616L118.06 13.9527L118.097 13.9713L118.134 13.9878L118.741 12.616ZM120.445 13.936L119.155 14.7018L119.169 14.7258L119.184 14.7492L120.445 13.936ZM117.349 17.5H112.933V20.5H117.349V17.5ZM112.933 17.5C113.028 17.5 113.375 17.5248 113.687 17.8373C114 18.1499 114.025 18.4968 114.025 18.592H111.025C111.025 18.9592 111.118 19.5101 111.566 19.9587C112.015 20.4072 112.566 20.5 112.933 20.5V17.5ZM114.025 18.592V17.416H111.025V18.592H114.025ZM114.025 17.416C114.025 17.5433 113.987 17.908 113.655 18.2203C113.34 18.5165 113.006 18.532 112.933 18.532V15.532C112.587 15.532 112.049 15.6115 111.599 16.0357C111.131 16.476 111.025 17.0327 111.025 17.416H114.025ZM112.933 18.532H116.965V15.532H112.933V18.532ZM116.965 18.532C117.611 18.532 118.363 18.4285 118.989 17.9953C119.714 17.493 120.025 16.7252 120.025 15.952H117.025C117.025 15.9515 117.025 15.8786 117.076 15.7738C117.13 15.6617 117.21 15.5781 117.281 15.5287C117.343 15.4861 117.367 15.4897 117.31 15.5029C117.253 15.5161 117.143 15.532 116.965 15.532V18.532ZM120.025 15.952V15.664H117.025V15.952H120.025ZM120.025 15.664C120.025 15.0266 119.829 14.4196 119.431 13.9025C119.049 13.4067 118.538 13.067 118.009 12.8305L116.785 15.5695C117.007 15.669 117.061 15.7413 117.055 15.7335C117.05 15.7275 117.039 15.7107 117.031 15.6868C117.023 15.6636 117.025 15.6529 117.025 15.664H120.025ZM118.043 12.8462L115.427 11.5982L114.135 14.3058L116.751 15.5538L118.043 12.8462ZM115.419 11.5948C114.713 11.2624 114.349 10.9607 114.18 10.7479L111.83 12.6121C112.397 13.3273 113.216 13.8736 114.142 14.3092L115.419 11.5948ZM114.18 10.7479C114.074 10.6137 113.953 10.3624 113.953 9.856H110.953C110.953 10.8536 111.2 11.8183 111.83 12.6121L114.18 10.7479ZM113.953 9.856C113.953 9.0974 114.156 8.79176 114.315 8.64778C114.504 8.47731 114.936 8.26 115.885 8.26V5.26C114.546 5.26 113.261 5.55869 112.306 6.42022C111.322 7.30824 110.953 8.5506 110.953 9.856H113.953ZM115.885 8.26H119.869V5.26H115.885V8.26ZM119.869 8.26C119.742 8.26 119.377 8.22183 119.064 7.89005C118.768 7.57535 118.753 7.24133 118.753 7.168H121.753C121.753 6.82267 121.673 6.28465 121.249 5.83395C120.809 5.36617 120.252 5.26 119.869 5.26V8.26ZM118.753 7.168V8.344H121.753V7.168H118.753ZM118.753 8.344C118.753 8.27067 118.768 7.93665 119.064 7.62195C119.377 7.29017 119.742 7.252 119.869 7.252V10.252C120.252 10.252 120.809 10.1458 121.249 9.67805C121.673 9.22735 121.753 8.68933 121.753 8.344H118.753ZM119.869 7.252H116.365V10.252H119.869V7.252ZM116.365 7.252C115.735 7.252 115.019 7.3617 114.411 7.77994L116.111 10.2521C116.058 10.2885 116.035 10.2871 116.078 10.2769C116.122 10.2663 116.212 10.252 116.365 10.252V7.252ZM114.466 7.744C113.829 8.14223 113.377 8.81056 113.377 9.664H116.377C116.377 9.7739 116.348 9.92005 116.263 10.0627C116.183 10.1987 116.09 10.2664 116.056 10.288L114.466 7.744ZM113.377 9.664V9.928H116.377V9.664H113.377ZM113.377 9.928C113.377 11.3735 114.54 12.1955 115.462 12.6292L116.739 9.91477C116.592 9.84529 116.484 9.78294 116.408 9.73146C116.332 9.67964 116.299 9.64636 116.292 9.63801C116.285 9.63102 116.309 9.65505 116.334 9.71329C116.36 9.77529 116.377 9.85056 116.377 9.928H113.377ZM115.42 12.6087L118.06 13.9527L119.421 11.2793L116.781 9.93526L115.42 12.6087ZM118.134 13.9878C118.822 14.2921 119.074 14.5655 119.155 14.7018L121.735 13.1702C121.207 12.2825 120.323 11.6759 119.348 11.2442L118.134 13.9878ZM119.184 14.7492C119.302 14.9309 119.425 15.2689 119.425 15.88H122.425C122.425 14.8911 122.228 13.9331 121.705 13.1228L119.184 14.7492ZM119.425 15.88C119.425 16.6315 119.219 16.9377 119.045 17.0897C118.831 17.2759 118.356 17.5 117.349 17.5V20.5C118.726 20.5 120.038 20.2041 121.017 19.3503C122.035 18.4623 122.425 17.2085 122.425 15.88H119.425Z" fill="url(#paint0_linear_111_56)"/>
</g>
<defs>
<filter id="filter0_d_111_56" x="0.065567" y="0.651978" width="126.359" height="27.848" filterUnits="userSpaceOnUse" color-interpolation-filters="sRGB">
<feFlood flood-opacity="0" result="BackgroundImageFix"/>
<feColorMatrix in="SourceAlpha" type="matrix" values="0 0 0 0 0 0 0 0 0 0 0 0 0 0 0 0 0 0 127 0" result="hardAlpha"/>
<feOffset dy="4"/>
<feGaussianBlur stdDeviation="2"/>
<feComposite in2="hardAlpha" operator="out"/>
<feColorMatrix type="matrix" values="0 0 0 0 0 0 0 0 0 0 0 0 0 0 0 0 0 0 0.25 0"/>
<feBlend mode="normal" in2="BackgroundImageFix" result="effect1_dropShadow_111_56"/>
<feBlend mode="normal" in="SourceGraphic" in2="effect1_dropShadow_111_56" result="shape"/>
</filter>
<linearGradient id="paint0_linear_111_56" x1="63" y1="-4" x2="63" y2="27" gradientUnits="userSpaceOnUse">
<stop stop-color="#C6EBFA"/>
<stop offset="1" stop-color="#C9EDFB"/>
</linearGradient>
</defs>
</svg>
