<svg width="166" height="32" viewBox="0 0 166 32" fill="none" xmlns="http://www.w3.org/2000/svg">
<g id="Application web" filter="url(#filter0_d_111_59)">
<path d="M7.95138 19H6.22338C5.99938 19 5.91938 18.864 5.98338 18.592L10.1594 3.976C10.2394 3.704 10.4314 3.568 10.7354 3.568H13.1354C13.4554 3.568 13.6474 3.704 13.7114 3.976L17.8874 18.592C17.9514 18.864 17.8634 19 17.6234 19H15.9194C15.7754 19 15.6714 18.976 15.6074 18.928C15.5594 18.864 15.5194 18.752 15.4874 18.592L14.5754 15.472H9.29538L8.38338 18.592C8.31938 18.864 8.17538 19 7.95138 19ZM11.8874 5.872L9.77538 13.552H14.1194L11.9834 5.872H11.8874ZM21.9398 22.384H20.4278C20.1558 22.384 20.0198 22.248 20.0198 21.976V7.168C20.0198 6.896 20.1558 6.76 20.4278 6.76H21.9398C22.2118 6.76 22.3478 6.896 22.3478 7.168V8.032H22.4438C22.8278 7.184 23.6358 6.76 24.8678 6.76H26.0918C27.2438 6.76 28.1238 7.08 28.7318 7.72C29.3558 8.36 29.6678 9.28 29.6678 10.48V15.28C29.6678 16.464 29.3558 17.384 28.7318 18.04C28.1238 18.68 27.2438 19 26.0918 19H24.8678C23.6358 19 22.8278 18.576 22.4438 17.728H22.3478V21.976C22.3478 22.248 22.2118 22.384 21.9398 22.384ZM24.3158 16.96H25.5878C26.7398 16.96 27.3158 16.368 27.3158 15.184V10.576C27.3158 9.392 26.7398 8.8 25.5878 8.8H24.3158C23.0038 8.8 22.3478 9.48 22.3478 10.84V14.92C22.3478 16.28 23.0038 16.96 24.3158 16.96ZM34.3617 22.384H32.8497C32.5777 22.384 32.4417 22.248 32.4417 21.976V7.168C32.4417 6.896 32.5777 6.76 32.8497 6.76H34.3617C34.6337 6.76 34.7697 6.896 34.7697 7.168V8.032H34.8657C35.2497 7.184 36.0577 6.76 37.2897 6.76H38.5137C39.6657 6.76 40.5457 7.08 41.1537 7.72C41.7777 8.36 42.0897 9.28 42.0897 10.48V15.28C42.0897 16.464 41.7777 17.384 41.1537 18.04C40.5457 18.68 39.6657 19 38.5137 19H37.2897C36.0577 19 35.2497 18.576 34.8657 17.728H34.7697V21.976C34.7697 22.248 34.6337 22.384 34.3617 22.384ZM36.7377 16.96H38.0097C39.1617 16.96 39.7377 16.368 39.7377 15.184V10.576C39.7377 9.392 39.1617 8.8 38.0097 8.8H36.7377C35.4257 8.8 34.7697 9.48 34.7697 10.84V14.92C34.7697 16.28 35.4257 16.96 36.7377 16.96ZM46.9036 19H45.3916C45.1196 19 44.9836 18.864 44.9836 18.592V2.536C44.9836 2.264 45.1196 2.128 45.3916 2.128H46.9036C47.1756 2.128 47.3116 2.264 47.3116 2.536V18.592C47.3116 18.864 47.1756 19 46.9036 19ZM50.5851 4.72V2.536C50.5851 2.28 50.7131 2.152 50.9691 2.152H52.5291C52.7851 2.152 52.9131 2.28 52.9131 2.536V4.72C52.9131 4.992 52.7851 5.128 52.5291 5.128H50.9691C50.7131 5.128 50.5851 4.992 50.5851 4.72ZM50.5851 18.592V7.168C50.5851 6.896 50.7131 6.76 50.9691 6.76H52.5051C52.7771 6.76 52.9131 6.896 52.9131 7.168V18.592C52.9131 18.752 52.8811 18.864 52.8171 18.928C52.7691 18.976 52.6731 19 52.5291 19H50.9931C50.7211 19 50.5851 18.864 50.5851 18.592ZM63.5067 17.368V18.616C63.5067 18.872 63.3627 19 63.0747 19H59.5467C58.3627 19 57.4427 18.672 56.7867 18.016C56.1467 17.36 55.8267 16.448 55.8267 15.28V10.48C55.8267 9.296 56.1467 8.384 56.7867 7.744C57.4427 7.088 58.3627 6.76 59.5467 6.76H63.0747C63.3627 6.76 63.5067 6.896 63.5067 7.168V8.416C63.5067 8.672 63.3627 8.8 63.0747 8.8H59.8827C58.7307 8.8 58.1547 9.392 58.1547 10.576V15.184C58.1547 16.368 58.7307 16.96 59.8827 16.96H63.0747C63.3627 16.96 63.5067 17.096 63.5067 17.368ZM70.2093 19H69.2733C68.0893 19 67.1693 18.672 66.5133 18.016C65.8733 17.36 65.5533 16.448 65.5533 15.28V10.48C65.5533 9.296 65.8733 8.384 66.5133 7.744C67.1693 7.088 68.0893 6.76 69.2733 6.76H74.6493C74.9373 6.76 75.0813 6.896 75.0813 7.168V18.592C75.0813 18.864 74.9373 19 74.6493 19H73.1373C72.8653 19 72.7293 18.864 72.7293 18.592V17.728H72.6333C72.2493 18.576 71.4413 19 70.2093 19ZM72.7293 14.92V9.04C72.7293 8.88 72.6413 8.8 72.4653 8.8H69.6093C68.4573 8.8 67.8813 9.392 67.8813 10.576V15.184C67.8813 16.368 68.4573 16.96 69.6093 16.96H70.7613C72.0733 16.96 72.7293 16.28 72.7293 14.92ZM78.4345 8.8H77.2825C77.1225 8.8 77.0105 8.776 76.9465 8.728C76.8985 8.664 76.8745 8.56 76.8745 8.416V7.168C76.8745 6.896 77.0105 6.76 77.2825 6.76H78.4345C78.5945 6.76 78.6745 6.68 78.6745 6.52V4.36C78.6745 4.088 78.8185 3.952 79.1065 3.952H80.6185C80.8905 3.952 81.0265 4.088 81.0265 4.36V6.52C81.0265 6.68 81.1145 6.76 81.2905 6.76H83.5225C83.8105 6.76 83.9545 6.896 83.9545 7.168V8.416C83.9545 8.672 83.8105 8.8 83.5225 8.8H81.2905C81.1145 8.8 81.0265 8.88 81.0265 9.04V15.208C81.0265 16.376 81.6265 16.96 82.8265 16.96H83.7625C84.0505 16.96 84.1945 17.096 84.1945 17.368V18.616C84.1945 18.872 84.0505 19 83.7625 19H82.4665C81.2825 19 80.3545 18.68 79.6825 18.04C79.0105 17.4 78.6745 16.496 78.6745 15.328V9.04C78.6745 8.88 78.5945 8.8 78.4345 8.8ZM86.6086 4.72V2.536C86.6086 2.28 86.7366 2.152 86.9926 2.152H88.5526C88.8086 2.152 88.9366 2.28 88.9366 2.536V4.72C88.9366 4.992 88.8086 5.128 88.5526 5.128H86.9926C86.7366 5.128 86.6086 4.992 86.6086 4.72ZM86.6086 18.592V7.168C86.6086 6.896 86.7366 6.76 86.9926 6.76H88.5286C88.8006 6.76 88.9366 6.896 88.9366 7.168V18.592C88.9366 18.752 88.9046 18.864 88.8406 18.928C88.7926 18.976 88.6966 19 88.5526 19H87.0166C86.7446 19 86.6086 18.864 86.6086 18.592ZM97.6821 19H95.5701C94.3861 19 93.4661 18.672 92.8101 18.016C92.1701 17.36 91.8501 16.448 91.8501 15.28V10.48C91.8501 9.296 92.1701 8.384 92.8101 7.744C93.4661 7.088 94.3861 6.76 95.5701 6.76H97.6821C98.8501 6.76 99.7621 7.088 100.418 7.744C101.09 8.384 101.426 9.296 101.426 10.48V15.28C101.426 16.448 101.09 17.36 100.418 18.016C99.7621 18.672 98.8501 19 97.6821 19ZM95.9061 16.96H97.3701C98.5221 16.96 99.0981 16.376 99.0981 15.208V10.552C99.0981 9.384 98.5221 8.8 97.3701 8.8H95.9061C95.2981 8.8 94.8581 8.944 94.5861 9.232C94.3141 9.504 94.1781 9.944 94.1781 10.552V15.208C94.1781 15.816 94.3141 16.264 94.5861 16.552C94.8581 16.824 95.2981 16.96 95.9061 16.96ZM106.104 19H104.592C104.32 19 104.184 18.864 104.184 18.592V7.168C104.184 6.896 104.32 6.76 104.592 6.76H106.104C106.376 6.76 106.512 6.896 106.512 7.168V8.032H106.608C106.992 7.184 107.8 6.76 109.032 6.76H110.088C111.256 6.76 112.152 7.08 112.776 7.72C113.4 8.36 113.712 9.28 113.712 10.48V18.592C113.712 18.864 113.568 19 113.28 19H111.768C111.496 19 111.36 18.864 111.36 18.592V10.576C111.36 9.392 110.776 8.8 109.608 8.8H108.48C107.168 8.8 106.512 9.48 106.512 10.84V18.592C106.512 18.864 106.376 19 106.104 19ZM126.597 19H124.533C124.293 19 124.133 18.864 124.053 18.592L121.293 7.168C121.229 6.896 121.325 6.76 121.581 6.76H123.309C123.597 6.76 123.757 6.896 123.789 7.168L125.541 16.24H125.709L127.821 7.168C127.869 6.896 128.021 6.76 128.277 6.76H129.861C130.133 6.76 130.301 6.896 130.365 7.168L132.429 16.24H132.597L134.349 7.168C134.397 6.896 134.557 6.76 134.829 6.76H136.557C136.829 6.76 136.925 6.896 136.845 7.168L134.085 18.592C134.037 18.864 133.877 19 133.605 19H131.541C131.285 19 131.125 18.864 131.061 18.592L129.141 9.688H128.973L127.077 18.592C127.029 18.864 126.869 19 126.597 19ZM147.559 19H142.375C141.191 19 140.271 18.672 139.615 18.016C138.975 17.36 138.655 16.448 138.655 15.28V10.48C138.655 9.296 138.975 8.384 139.615 7.744C140.271 7.088 141.191 6.76 142.375 6.76H144.343C145.527 6.76 146.447 7.088 147.103 7.744C147.759 8.384 148.087 9.296 148.087 10.48V13.528C148.087 13.816 147.943 13.96 147.655 13.96H141.223C141.047 13.96 140.959 14.04 140.959 14.2V15.232C140.959 16.4 141.543 16.984 142.711 16.984H147.559C147.847 16.984 147.991 17.128 147.991 17.416V18.616C147.991 18.872 147.847 19 147.559 19ZM141.223 12.328H145.519C145.679 12.328 145.759 12.248 145.759 12.088V10.552C145.759 9.944 145.623 9.504 145.351 9.232C145.079 8.944 144.639 8.8 144.031 8.8H142.711C142.103 8.8 141.663 8.944 141.391 9.232C141.119 9.504 140.983 9.944 140.983 10.552V12.088C140.983 12.248 141.063 12.328 141.223 12.328ZM153.323 16.96H156.299C157.451 16.96 158.027 16.368 158.027 15.184V10.48C158.027 9.296 157.451 8.704 156.299 8.704H155.027C153.715 8.704 153.059 9.376 153.059 10.72V16.696C153.059 16.872 153.147 16.96 153.323 16.96ZM150.731 18.592V2.536C150.731 2.264 150.867 2.128 151.139 2.128H152.651C152.923 2.128 153.059 2.264 153.059 2.536V7.96H153.155C153.555 7.096 154.363 6.664 155.579 6.664H156.635C157.819 6.664 158.739 6.992 159.395 7.648C160.051 8.288 160.379 9.192 160.379 10.36V15.28C160.379 16.448 160.051 17.36 159.395 18.016C158.739 18.672 157.819 19 156.635 19H151.139C150.867 19 150.731 18.864 150.731 18.592Z" fill="#1A1A1A"/>
<path d="M5.98338 18.592L4.54109 18.1799L4.53136 18.214L4.52325 18.2484L5.98338 18.592ZM10.1594 3.976L8.72028 3.55273L8.71709 3.56392L10.1594 3.976ZM13.7114 3.976L12.2513 4.31956L12.2594 4.35403L12.2691 4.38808L13.7114 3.976ZM17.8874 18.592L19.3475 18.2484L19.3394 18.214L19.3297 18.1799L17.8874 18.592ZM15.6074 18.928L14.4074 19.828L14.5359 19.9994L14.7074 20.128L15.6074 18.928ZM15.4874 18.592L16.9582 18.2978L16.9454 18.2338L16.9271 18.1712L15.4874 18.592ZM14.5754 15.472L16.0151 15.0511L15.6997 13.972H14.5754V15.472ZM9.29537 15.472V13.972H8.17107L7.85562 15.0511L9.29537 15.472ZM8.38338 18.592L6.94362 18.1712L6.93241 18.2095L6.92325 18.2484L8.38338 18.592ZM11.8874 5.872V4.372H10.7442L10.4411 5.47426L11.8874 5.872ZM9.77538 13.552L8.32907 13.1543L7.80719 15.052H9.77538V13.552ZM14.1194 13.552V15.052H16.0935L15.5645 13.1501L14.1194 13.552ZM11.9834 5.872L13.4285 5.47007L13.1231 4.372H11.9834V5.872ZM7.95138 17.5H6.22338V20.5H7.95138V17.5ZM6.22338 17.5C6.39581 17.5 6.95343 17.5682 7.28828 18.1375C7.42527 18.3704 7.45629 18.586 7.46122 18.7117C7.46607 18.8353 7.44796 18.9166 7.4435 18.9356L4.52325 18.2484C4.46514 18.4954 4.36236 19.0803 4.70247 19.6585C5.11732 20.3638 5.82694 20.5 6.22338 20.5V17.5ZM7.42566 19.0041L11.6017 4.38808L8.71709 3.56392L4.54109 18.1799L7.42566 19.0041ZM11.5984 4.39925C11.5634 4.51833 11.4629 4.72938 11.2304 4.89404C11.008 5.0516 10.8035 5.068 10.7354 5.068V2.068C10.3632 2.068 9.9108 2.1524 9.49635 2.44596C9.07189 2.74662 8.83535 3.16167 8.72033 3.55275L11.5984 4.39925ZM10.7354 5.068H13.1354V2.068H10.7354V5.068ZM13.1354 5.068C13.0943 5.068 12.8866 5.05993 12.6524 4.89404C12.3958 4.71229 12.2864 4.46914 12.2513 4.31956L15.1715 3.63244C15.0723 3.21086 14.835 2.76371 14.3864 2.44596C13.9602 2.14407 13.4964 2.068 13.1354 2.068V5.068ZM12.2691 4.38808L16.4451 19.0041L19.3297 18.1799L15.1537 3.56392L12.2691 4.38808ZM16.4272 18.9356C16.4213 18.9102 16.4015 18.8185 16.4095 18.6824C16.4178 18.5412 16.4589 18.3166 16.61 18.0831C16.9597 17.5427 17.4967 17.5 17.6234 17.5V20.5C17.99 20.5 18.691 20.3893 19.1287 19.7129C19.5099 19.1239 19.4095 18.5119 19.3475 18.2484L16.4272 18.9356ZM17.6234 17.5H15.9194V20.5H17.6234V17.5ZM15.9194 17.5C15.9243 17.5 15.9813 17.4998 16.0707 17.5204C16.1578 17.5405 16.3262 17.5921 16.5074 17.728L14.7074 20.128C15.1681 20.4736 15.6792 20.5 15.9194 20.5V17.5ZM16.8074 18.028C16.86 18.0982 16.894 18.1592 16.9145 18.2002C16.9354 18.2419 16.9477 18.274 16.954 18.2915C16.9656 18.324 16.9648 18.3307 16.9582 18.2978L14.0165 18.8862C14.056 19.0837 14.1461 19.4796 14.4074 19.828L16.8074 18.028ZM16.9271 18.1712L16.0151 15.0511L13.1356 15.8929L14.0476 19.0128L16.9271 18.1712ZM14.5754 13.972H9.29537V16.972H14.5754V13.972ZM7.85562 15.0511L6.94362 18.1712L9.82313 19.0128L10.7351 15.8929L7.85562 15.0511ZM6.92325 18.2484C6.93199 18.2113 6.98516 18.008 7.19744 17.8075C7.44092 17.5775 7.73454 17.5 7.95138 17.5V20.5C8.39221 20.5 8.86983 20.3545 9.25731 19.9885C9.61359 19.652 9.77076 19.2447 9.8435 18.9356L6.92325 18.2484ZM10.4411 5.47426L8.32907 13.1543L11.2217 13.9497L13.3337 6.26973L10.4411 5.47426ZM9.77538 15.052H14.1194V12.052H9.77538V15.052ZM15.5645 13.1501L13.4285 5.47007L10.5382 6.27393L12.6742 13.9539L15.5645 13.1501ZM11.9834 4.372H11.8874V7.372H11.9834V4.372ZM22.3478 8.032H20.8478V9.532H22.3478V8.032ZM22.4438 8.032V9.532H23.4112L23.8102 8.65076L22.4438 8.032ZM28.7318 7.72L27.6443 8.75312L27.651 8.76018L27.6578 8.76715L28.7318 7.72ZM28.7318 18.04L27.645 17.0062L27.6443 17.0069L28.7318 18.04ZM22.4438 17.728L23.8102 17.1092L23.4112 16.228H22.4438V17.728ZM22.3478 17.728V16.228H20.8478V17.728H22.3478ZM21.9398 20.884H20.4278V23.884H21.9398V20.884ZM20.4278 20.884C20.523 20.884 20.87 20.9088 21.1825 21.2213C21.495 21.5339 21.5198 21.8808 21.5198 21.976H18.5198C18.5198 22.3432 18.6126 22.8941 19.0612 23.3427C19.5097 23.7912 20.0606 23.884 20.4278 23.884V20.884ZM21.5198 21.976V7.168H18.5198V21.976H21.5198ZM21.5198 7.168C21.5198 7.26322 21.495 7.61014 21.1825 7.92266C20.87 8.23518 20.523 8.26 20.4278 8.26V5.26C20.0606 5.26 19.5097 5.35282 19.0612 5.80134C18.6126 6.24986 18.5198 6.80078 18.5198 7.168H21.5198ZM20.4278 8.26H21.9398V5.26H20.4278V8.26ZM21.9398 8.26C21.8446 8.26 21.4977 8.23518 21.1852 7.92266C20.8726 7.61014 20.8478 7.26322 20.8478 7.168H23.8478C23.8478 6.80078 23.755 6.24986 23.3065 5.80134C22.858 5.35282 22.307 5.26 21.9398 5.26V8.26ZM20.8478 7.168V8.032H23.8478V7.168H20.8478ZM22.3478 9.532H22.4438V6.532H22.3478V9.532ZM23.8102 8.65076C23.8696 8.5197 23.9972 8.26 24.8678 8.26V5.26C23.2744 5.26 21.786 5.8483 21.0774 7.41324L23.8102 8.65076ZM24.8678 8.26H26.0918V5.26H24.8678V8.26ZM26.0918 8.26C26.9642 8.26 27.3989 8.4948 27.6443 8.75312L29.8193 6.68688C28.8487 5.6652 27.5234 5.26 26.0918 5.26V8.26ZM27.6578 8.76715C27.9257 9.04193 28.1678 9.53368 28.1678 10.48H31.1678C31.1678 9.02632 30.7859 7.67807 29.8058 6.67285L27.6578 8.76715ZM28.1678 10.48V15.28H31.1678V10.48H28.1678ZM28.1678 15.28C28.1678 16.2014 27.93 16.7065 27.645 17.0062L29.8186 19.0738C30.7816 18.0615 31.1678 16.7266 31.1678 15.28H28.1678ZM27.6443 17.0069C27.3989 17.2652 26.9642 17.5 26.0918 17.5V20.5C27.5234 20.5 28.8487 20.0948 29.8193 19.0731L27.6443 17.0069ZM26.0918 17.5H24.8678V20.5H26.0918V17.5ZM24.8678 17.5C23.9972 17.5 23.8696 17.2403 23.8102 17.1092L21.0774 18.3468C21.786 19.9117 23.2744 20.5 24.8678 20.5V17.5ZM22.4438 16.228H22.3478V19.228H22.4438V16.228ZM20.8478 17.728V21.976H23.8478V17.728H20.8478ZM20.8478 21.976C20.8478 21.8808 20.8726 21.5339 21.1852 21.2213C21.4977 20.9088 21.8446 20.884 21.9398 20.884V23.884C22.307 23.884 22.858 23.7912 23.3065 23.3427C23.755 22.8941 23.8478 22.3432 23.8478 21.976H20.8478ZM24.3158 18.46H25.5878V15.46H24.3158V18.46ZM25.5878 18.46C26.4056 18.46 27.292 18.2474 27.9589 17.562C28.6183 16.8843 28.8158 15.9971 28.8158 15.184H25.8158C25.8158 15.363 25.7935 15.4596 25.781 15.4982C25.7706 15.5301 25.7725 15.5072 25.8087 15.47C25.8458 15.4319 25.8747 15.4241 25.8577 15.43C25.8329 15.4384 25.7517 15.46 25.5878 15.46V18.46ZM28.8158 15.184V10.576H25.8158V15.184H28.8158ZM28.8158 10.576C28.8158 9.76293 28.6183 8.87572 27.9589 8.19797C27.292 7.51259 26.4056 7.3 25.5878 7.3V10.3C25.7517 10.3 25.8329 10.3216 25.8577 10.33C25.8747 10.3359 25.8458 10.3281 25.8087 10.29C25.7725 10.2528 25.7706 10.2299 25.781 10.2618C25.7935 10.3004 25.8158 10.397 25.8158 10.576H28.8158ZM25.5878 7.3H24.3158V10.3H25.5878V7.3ZM24.3158 7.3C23.4146 7.3 22.4665 7.53647 21.7603 8.26856C21.0637 8.99062 20.8478 9.94201 20.8478 10.84H23.8478C23.8478 10.378 23.9599 10.3094 23.9194 10.3514C23.8691 10.4035 23.905 10.3 24.3158 10.3V7.3ZM20.8478 10.84V14.92H23.8478V10.84H20.8478ZM20.8478 14.92C20.8478 15.818 21.0637 16.7694 21.7603 17.4914C22.4665 18.2235 23.4146 18.46 24.3158 18.46V15.46C23.905 15.46 23.8691 15.3565 23.9194 15.4086C23.9599 15.4506 23.8478 15.382 23.8478 14.92H20.8478ZM34.7697 8.032H33.2697V9.532H34.7697V8.032ZM34.8657 8.032V9.532H35.8331L36.2321 8.65076L34.8657 8.032ZM41.1537 7.72L40.0662 8.75312L40.0729 8.76018L40.0797 8.76715L41.1537 7.72ZM41.1537 18.04L40.0669 17.0062L40.0662 17.0069L41.1537 18.04ZM34.8657 17.728L36.2321 17.1092L35.8331 16.228H34.8657V17.728ZM34.7697 17.728V16.228H33.2697V17.728H34.7697ZM34.3617 20.884H32.8497V23.884H34.3617V20.884ZM32.8497 20.884C32.9449 20.884 33.2918 20.9088 33.6043 21.2213C33.9169 21.5339 33.9417 21.8808 33.9417 21.976H30.9417C30.9417 22.3432 31.0345 22.8941 31.483 23.3427C31.9315 23.7912 32.4825 23.884 32.8497 23.884V20.884ZM33.9417 21.976V7.168H30.9417V21.976H33.9417ZM33.9417 7.168C33.9417 7.26322 33.9169 7.61014 33.6043 7.92266C33.2918 8.23518 32.9449 8.26 32.8497 8.26V5.26C32.4825 5.26 31.9315 5.35282 31.483 5.80134C31.0345 6.24986 30.9417 6.80078 30.9417 7.168H33.9417ZM32.8497 8.26H34.3617V5.26H32.8497V8.26ZM34.3617 8.26C34.2665 8.26 33.9195 8.23518 33.607 7.92266C33.2945 7.61014 33.2697 7.26322 33.2697 7.168H36.2697C36.2697 6.80078 36.1769 6.24986 35.7283 5.80134C35.2798 5.35282 34.7289 5.26 34.3617 5.26V8.26ZM33.2697 7.168V8.032H36.2697V7.168H33.2697ZM34.7697 9.532H34.8657V6.532H34.7697V9.532ZM36.2321 8.65076C36.2915 8.5197 36.4191 8.26 37.2897 8.26V5.26C35.6963 5.26 34.2079 5.8483 33.4993 7.41324L36.2321 8.65076ZM37.2897 8.26H38.5137V5.26H37.2897V8.26ZM38.5137 8.26C39.3861 8.26 39.8208 8.4948 40.0662 8.75312L42.2412 6.68688C41.2706 5.6652 39.9453 5.26 38.5137 5.26V8.26ZM40.0797 8.76715C40.3476 9.04193 40.5897 9.53368 40.5897 10.48H43.5897C43.5897 9.02632 43.2078 7.67807 42.2277 6.67285L40.0797 8.76715ZM40.5897 10.48V15.28H43.5897V10.48H40.5897ZM40.5897 15.28C40.5897 16.2014 40.3519 16.7065 40.0669 17.0062L42.2405 19.0738C43.2035 18.0615 43.5897 16.7266 43.5897 15.28H40.5897ZM40.0662 17.0069C39.8208 17.2652 39.3861 17.5 38.5137 17.5V20.5C39.9453 20.5 41.2706 20.0948 42.2412 19.0731L40.0662 17.0069ZM38.5137 17.5H37.2897V20.5H38.5137V17.5ZM37.2897 17.5C36.4191 17.5 36.2915 17.2403 36.2321 17.1092L33.4993 18.3468C34.2079 19.9117 35.6963 20.5 37.2897 20.5V17.5ZM34.8657 16.228H34.7697V19.228H34.8657V16.228ZM33.2697 17.728V21.976H36.2697V17.728H33.2697ZM33.2697 21.976C33.2697 21.8808 33.2945 21.5339 33.607 21.2213C33.9195 20.9088 34.2665 20.884 34.3617 20.884V23.884C34.7289 23.884 35.2798 23.7912 35.7283 23.3427C36.1769 22.8941 36.2697 22.3432 36.2697 21.976H33.2697ZM36.7377 18.46H38.0097V15.46H36.7377V18.46ZM38.0097 18.46C38.8275 18.46 39.7139 18.2474 40.3808 17.562C41.0402 16.8843 41.2377 15.9971 41.2377 15.184H38.2377C38.2377 15.363 38.2154 15.4596 38.2029 15.4982C38.1925 15.5301 38.1944 15.5072 38.2306 15.47C38.2677 15.4319 38.2966 15.4241 38.2795 15.43C38.2548 15.4384 38.1736 15.46 38.0097 15.46V18.46ZM41.2377 15.184V10.576H38.2377V15.184H41.2377ZM41.2377 10.576C41.2377 9.76293 41.0402 8.87572 40.3808 8.19797C39.7139 7.51259 38.8275 7.3 38.0097 7.3V10.3C38.1736 10.3 38.2548 10.3216 38.2795 10.33C38.2966 10.3359 38.2677 10.3281 38.2306 10.29C38.1944 10.2528 38.1925 10.2299 38.2029 10.2618C38.2154 10.3004 38.2377 10.397 38.2377 10.576H41.2377ZM38.0097 7.3H36.7377V10.3H38.0097V7.3ZM36.7377 7.3C35.8365 7.3 34.8884 7.53647 34.1821 8.26856C33.4856 8.99062 33.2697 9.94201 33.2697 10.84H36.2697C36.2697 10.378 36.3818 10.3094 36.3412 10.3514C36.291 10.4035 36.3269 10.3 36.7377 10.3V7.3ZM33.2697 10.84V14.92H36.2697V10.84H33.2697ZM33.2697 14.92C33.2697 15.818 33.4856 16.7694 34.1821 17.4914C34.8884 18.2235 35.8365 18.46 36.7377 18.46V15.46C36.3269 15.46 36.291 15.3565 36.3412 15.4086C36.3818 15.4506 36.2697 15.382 36.2697 14.92H33.2697ZM46.9036 17.5H45.3916V20.5H46.9036V17.5ZM45.3916 17.5C45.4868 17.5 45.8337 17.5248 46.1462 17.8373C46.4587 18.1499 46.4836 18.4968 46.4836 18.592H43.4836C43.4836 18.9592 43.5764 19.5101 44.0249 19.9587C44.4734 20.4072 45.0243 20.5 45.3916 20.5V17.5ZM46.4836 18.592V2.536H43.4836V18.592H46.4836ZM46.4836 2.536C46.4836 2.63122 46.4587 2.97814 46.1462 3.29066C45.8337 3.60318 45.4868 3.628 45.3916 3.628V0.628C45.0243 0.628 44.4734 0.720819 44.0249 1.16934C43.5764 1.61786 43.4836 2.16878 43.4836 2.536H46.4836ZM45.3916 3.628H46.9036V0.628H45.3916V3.628ZM46.9036 3.628C46.8083 3.628 46.4614 3.60318 46.1489 3.29066C45.8364 2.97814 45.8116 2.63122 45.8116 2.536H48.8116C48.8116 2.16878 48.7187 1.61786 48.2702 1.16934C47.8217 0.720819 47.2708 0.628 46.9036 0.628V3.628ZM45.8116 2.536V18.592H48.8116V2.536H45.8116ZM45.8116 18.592C45.8116 18.4968 45.8364 18.1499 46.1489 17.8373C46.4614 17.5248 46.8083 17.5 46.9036 17.5V20.5C47.2708 20.5 47.8217 20.4072 48.2702 19.9587C48.7187 19.5101 48.8116 18.9592 48.8116 18.592H45.8116ZM52.8171 18.928L53.8778 19.9887V19.9887L52.8171 18.928ZM52.0851 4.72V2.536H49.0851V4.72H52.0851ZM52.0851 2.536C52.0851 2.63922 52.0583 2.99214 51.7418 3.30866C51.4253 3.62518 51.0723 3.652 50.9691 3.652V0.651999C50.6099 0.651999 50.065 0.742819 49.6205 1.18734C49.1759 1.63186 49.0851 2.17678 49.0851 2.536H52.0851ZM50.9691 3.652H52.5291V0.651999H50.9691V3.652ZM52.5291 3.652C52.4259 3.652 52.073 3.62518 51.7565 3.30866C51.4399 2.99214 51.4131 2.63922 51.4131 2.536H54.4131C54.4131 2.17678 54.3223 1.63186 53.8778 1.18734C53.4333 0.742819 52.8883 0.651999 52.5291 0.651999V3.652ZM51.4131 2.536V4.72H54.4131V2.536H51.4131ZM51.4131 4.72C51.4131 4.64667 51.4286 4.31265 51.7248 3.99795C52.0371 3.66617 52.4019 3.628 52.5291 3.628V6.628C52.9124 6.628 53.4692 6.52183 53.9094 6.05405C54.3336 5.60335 54.4131 5.06533 54.4131 4.72H51.4131ZM52.5291 3.628H50.9691V6.628H52.5291V3.628ZM50.9691 3.628C51.0964 3.628 51.4612 3.66617 51.7734 3.99795C52.0696 4.31265 52.0851 4.64667 52.0851 4.72H49.0851C49.0851 5.06533 49.1646 5.60335 49.5888 6.05405C50.0291 6.52183 50.5859 6.628 50.9691 6.628V3.628ZM52.0851 18.592V7.168H49.0851V18.592H52.0851ZM52.0851 7.168C52.0851 7.24133 52.0696 7.57535 51.7734 7.89005C51.4612 8.22183 51.0964 8.26 50.9691 8.26V5.26C50.5859 5.26 50.0291 5.36617 49.5888 5.83395C49.1646 6.28465 49.0851 6.82267 49.0851 7.168H52.0851ZM50.9691 8.26H52.5051V5.26H50.9691V8.26ZM52.5051 8.26C52.4099 8.26 52.063 8.23518 51.7505 7.92266C51.4379 7.61014 51.4131 7.26322 51.4131 7.168H54.4131C54.4131 6.80078 54.3203 6.24986 53.8718 5.80134C53.4233 5.35282 52.8723 5.26 52.5051 5.26V8.26ZM51.4131 7.168V18.592H54.4131V7.168H51.4131ZM51.4131 18.592C51.4131 18.5806 51.4133 18.5014 51.4468 18.3839C51.4813 18.2634 51.5637 18.0601 51.7565 17.8673L53.8778 19.9887C54.3737 19.4928 54.4131 18.8686 54.4131 18.592H51.4131ZM51.7565 17.8673C51.9933 17.6305 52.243 17.5524 52.3453 17.5268C52.4568 17.4989 52.5287 17.5 52.5291 17.5V20.5C52.6735 20.5 52.8655 20.4891 53.0729 20.4372C53.2713 20.3876 53.593 20.2735 53.8778 19.9887L51.7565 17.8673ZM52.5291 17.5H50.9931V20.5H52.5291V17.5ZM50.9931 17.5C51.0883 17.5 51.4353 17.5248 51.7478 17.8373C52.0603 18.1499 52.0851 18.4968 52.0851 18.592H49.0851C49.0851 18.9592 49.1779 19.5101 49.6265 19.9587C50.075 20.4072 50.6259 20.5 50.9931 20.5V17.5ZM56.7867 18.016L55.713 19.0635L55.7195 19.0701L55.726 19.0767L56.7867 18.016ZM56.7867 7.744L57.8473 8.80466L56.7867 7.744ZM62.0067 17.368V18.616H65.0067V17.368H62.0067ZM62.0067 18.616C62.0067 18.464 62.0576 18.0892 62.4021 17.7829C62.7131 17.5065 63.0281 17.5 63.0747 17.5V20.5C63.4092 20.5 63.9403 20.4295 64.3952 20.0251C64.8838 19.5908 65.0067 19.024 65.0067 18.616H62.0067ZM63.0747 17.5H59.5467V20.5H63.0747V17.5ZM59.5467 17.5C58.6452 17.5 58.1499 17.2578 57.8473 16.9553L55.726 19.0767C56.7355 20.0862 58.0801 20.5 59.5467 20.5V17.5ZM57.8604 16.9685C57.5632 16.6639 57.3267 16.1689 57.3267 15.28H54.3267C54.3267 16.7271 54.7302 18.0561 55.713 19.0635L57.8604 16.9685ZM57.3267 15.28V10.48H54.3267V15.28H57.3267ZM57.3267 10.48C57.3267 9.56632 57.5675 9.08447 57.8473 8.80466L55.726 6.68334C54.7258 7.68353 54.3267 9.02568 54.3267 10.48H57.3267ZM57.8473 8.80466C58.1499 8.50215 58.6452 8.26 59.5467 8.26V5.26C58.0801 5.26 56.7355 5.67384 55.726 6.68334L57.8473 8.80466ZM59.5467 8.26H63.0747V5.26H59.5467V8.26ZM63.0747 8.26C63.0082 8.26 62.6794 8.24589 62.3688 7.95252C62.042 7.64396 62.0067 7.28582 62.0067 7.168H65.0067C65.0067 6.77818 64.8993 6.21604 64.4286 5.77148C63.974 5.34211 63.4292 5.26 63.0747 5.26V8.26ZM62.0067 7.168V8.416H65.0067V7.168H62.0067ZM62.0067 8.416C62.0067 8.26402 62.0576 7.88919 62.4021 7.58289C62.7131 7.30651 63.0281 7.3 63.0747 7.3V10.3C63.4092 10.3 63.9403 10.2295 64.3952 9.82511C64.8838 9.39081 65.0067 8.82398 65.0067 8.416H62.0067ZM63.0747 7.3H59.8827V10.3H63.0747V7.3ZM59.8827 7.3C59.0649 7.3 58.1785 7.51259 57.5116 8.19797C56.8522 8.87572 56.6547 9.76293 56.6547 10.576H59.6547C59.6547 10.397 59.677 10.3004 59.6895 10.2618C59.6999 10.2299 59.698 10.2528 59.6618 10.29C59.6247 10.3281 59.5958 10.3359 59.6128 10.33C59.6376 10.3216 59.7188 10.3 59.8827 10.3V7.3ZM56.6547 10.576V15.184H59.6547V10.576H56.6547ZM56.6547 15.184C56.6547 15.9971 56.8522 16.8843 57.5116 17.562C58.1785 18.2474 59.0649 18.46 59.8827 18.46V15.46C59.7188 15.46 59.6376 15.4384 59.6128 15.43C59.5958 15.4241 59.6247 15.4319 59.6618 15.47C59.698 15.5072 59.6999 15.5301 59.6895 15.4982C59.677 15.4596 59.6547 15.363 59.6547 15.184H56.6547ZM59.8827 18.46H63.0747V15.46H59.8827V18.46ZM63.0747 18.46C63.0082 18.46 62.6794 18.4459 62.3688 18.1525C62.042 17.844 62.0067 17.4858 62.0067 17.368H65.0067C65.0067 16.9782 64.8993 16.416 64.4286 15.9715C63.974 15.5421 63.4292 15.46 63.0747 15.46V18.46ZM66.5132 18.016L65.4396 19.0635L65.446 19.0701L65.4526 19.0767L66.5132 18.016ZM66.5132 7.744L67.5739 8.80466L66.5132 7.744ZM72.7292 17.728H74.2292V16.228H72.7292V17.728ZM72.6332 17.728V16.228H71.6659L71.2668 17.1092L72.6332 17.728ZM70.2093 17.5H69.2732V20.5H70.2093V17.5ZM69.2732 17.5C68.3718 17.5 67.8764 17.2578 67.5739 16.9553L65.4526 19.0767C66.4621 20.0862 67.8067 20.5 69.2732 20.5V17.5ZM67.5869 16.9685C67.2898 16.6639 67.0532 16.1689 67.0532 15.28H64.0532C64.0532 16.7271 64.4567 18.0561 65.4396 19.0635L67.5869 16.9685ZM67.0532 15.28V10.48H64.0532V15.28H67.0532ZM67.0532 10.48C67.0532 9.56632 67.2941 9.08447 67.5739 8.80466L65.4526 6.68334C64.4524 7.68353 64.0532 9.02568 64.0532 10.48H67.0532ZM67.5739 8.80466C67.8764 8.50215 68.3718 8.26 69.2732 8.26V5.26C67.8067 5.26 66.4621 5.67384 65.4526 6.68334L67.5739 8.80466ZM69.2732 8.26H74.6493V5.26H69.2732V8.26ZM74.6493 8.26C74.5827 8.26 74.2539 8.24589 73.9433 7.95252C73.6166 7.64396 73.5813 7.28582 73.5813 7.168H76.5813C76.5813 6.77818 76.4739 6.21604 76.0032 5.77148C75.5486 5.34211 75.0038 5.26 74.6493 5.26V8.26ZM73.5813 7.168V18.592H76.5813V7.168H73.5813ZM73.5813 18.592C73.5813 18.4742 73.6166 18.116 73.9433 17.8075C74.2539 17.5141 74.5827 17.5 74.6493 17.5V20.5C75.0038 20.5 75.5486 20.4179 76.0032 19.9885C76.4739 19.544 76.5813 18.9818 76.5813 18.592H73.5813ZM74.6493 17.5H73.1373V20.5H74.6493V17.5ZM73.1373 17.5C73.2325 17.5 73.5794 17.5248 73.8919 17.8373C74.2044 18.1499 74.2292 18.4968 74.2292 18.592H71.2292C71.2292 18.9592 71.3221 19.5101 71.7706 19.9587C72.2191 20.4072 72.77 20.5 73.1373 20.5V17.5ZM74.2292 18.592V17.728H71.2292V18.592H74.2292ZM72.7292 16.228H72.6332V19.228H72.7292V16.228ZM71.2668 17.1092C71.2075 17.2403 71.0799 17.5 70.2093 17.5V20.5C71.8026 20.5 73.291 19.9117 73.9997 18.3468L71.2668 17.1092ZM74.2292 14.92V9.04H71.2292V14.92H74.2292ZM74.2292 9.04C74.2292 8.68999 74.1264 8.16296 73.6723 7.75009C73.2452 7.36187 72.751 7.3 72.4652 7.3V10.3C72.3555 10.3 71.9933 10.2781 71.6542 9.96991C71.2881 9.63704 71.2292 9.23001 71.2292 9.04H74.2292ZM72.4652 7.3H69.6093V10.3H72.4652V7.3ZM69.6093 7.3C68.7914 7.3 67.905 7.51259 67.2382 8.19797C66.5787 8.87572 66.3812 9.76293 66.3812 10.576H69.3812C69.3812 10.397 69.4035 10.3004 69.4161 10.2618C69.4264 10.2299 69.4245 10.2528 69.3883 10.29C69.3513 10.3281 69.3224 10.3359 69.3394 10.33C69.3641 10.3216 69.4454 10.3 69.6093 10.3V7.3ZM66.3812 10.576V15.184H69.3812V10.576H66.3812ZM66.3812 15.184C66.3812 15.9971 66.5787 16.8843 67.2382 17.562C67.905 18.2474 68.7914 18.46 69.6093 18.46V15.46C69.4454 15.46 69.3641 15.4384 69.3394 15.43C69.3224 15.4241 69.3513 15.4319 69.3883 15.47C69.4245 15.5072 69.4264 15.5301 69.4161 15.4982C69.4035 15.4596 69.3812 15.363 69.3812 15.184H66.3812ZM69.6093 18.46H70.7613V15.46H69.6093V18.46ZM70.7613 18.46C71.6624 18.46 72.6105 18.2235 73.3168 17.4914C74.0134 16.7694 74.2292 15.818 74.2292 14.92H71.2292C71.2292 15.382 71.1171 15.4506 71.1577 15.4086C71.208 15.3565 71.1721 15.46 70.7613 15.46V18.46ZM76.9465 8.728L75.7465 9.628L75.8751 9.79943L76.0465 9.928L76.9465 8.728ZM79.6825 18.04L80.717 16.9538L79.6825 18.04ZM78.4345 7.3H77.2825V10.3H78.4345V7.3ZM77.2825 7.3C77.27 7.3 77.3139 7.29838 77.3928 7.3153C77.4641 7.33057 77.6467 7.37814 77.8465 7.528L76.0465 9.928C76.5254 10.2872 77.0694 10.3 77.2825 10.3V7.3ZM78.1465 7.828C78.2824 8.00922 78.334 8.17753 78.3541 8.26471C78.3747 8.35405 78.3745 8.41108 78.3745 8.416H75.3745C75.3745 8.65619 75.4009 9.16725 75.7465 9.628L78.1465 7.828ZM78.3745 8.416V7.168H75.3745V8.416H78.3745ZM78.3745 7.168C78.3745 7.26322 78.3497 7.61014 78.0372 7.92266C77.7246 8.23518 77.3777 8.26 77.2825 8.26V5.26C76.9153 5.26 76.3644 5.35282 75.9158 5.80134C75.4673 6.24986 75.3745 6.80078 75.3745 7.168H78.3745ZM77.2825 8.26H78.4345V5.26H77.2825V8.26ZM78.4345 8.26C78.7457 8.26 79.2546 8.18118 79.6752 7.76066C80.0957 7.34014 80.1745 6.83122 80.1745 6.52H77.1745C77.1745 6.36878 77.2133 5.97986 77.5538 5.63934C77.8944 5.29882 78.2833 5.26 78.4345 5.26V8.26ZM80.1745 6.52V4.36H77.1745V6.52H80.1745ZM80.1745 4.36C80.1745 4.47782 80.1392 4.83595 79.8124 5.14452C79.5018 5.43789 79.173 5.452 79.1065 5.452V2.452C78.752 2.452 78.2072 2.53411 77.7526 2.96348C77.2819 3.40804 77.1745 3.97018 77.1745 4.36H80.1745ZM79.1065 5.452H80.6185V2.452H79.1065V5.452ZM80.6185 5.452C80.5233 5.452 80.1764 5.42718 79.8638 5.11466C79.5513 4.80214 79.5265 4.45522 79.5265 4.36H82.5265C82.5265 3.99278 82.4337 3.44186 81.9852 2.99334C81.5366 2.54482 80.9857 2.452 80.6185 2.452V5.452ZM79.5265 4.36V6.52H82.5265V4.36H79.5265ZM79.5265 6.52C79.5265 6.87001 79.6293 7.39704 80.0835 7.80991C80.5105 8.19813 81.0048 8.26 81.2905 8.26V5.26C81.4002 5.26 81.7625 5.28187 82.1015 5.59009C82.4677 5.92296 82.5265 6.32999 82.5265 6.52H79.5265ZM81.2905 8.26H83.5225V5.26H81.2905V8.26ZM83.5225 8.26C83.456 8.26 83.1272 8.24589 82.8166 7.95252C82.4899 7.64396 82.4545 7.28582 82.4545 7.168H85.4545C85.4545 6.77818 85.3472 6.21604 84.8764 5.77148C84.4218 5.34211 83.877 5.26 83.5225 5.26V8.26ZM82.4545 7.168V8.416H85.4545V7.168H82.4545ZM82.4545 8.416C82.4545 8.26402 82.5054 7.88919 82.85 7.58289C83.1609 7.30651 83.476 7.3 83.5225 7.3V10.3C83.857 10.3 84.3881 10.2295 84.843 9.82511C85.3316 9.39081 85.4545 8.82398 85.4545 8.416H82.4545ZM83.5225 7.3H81.2905V10.3H83.5225V7.3ZM81.2905 7.3C81.0048 7.3 80.5105 7.36187 80.0835 7.75009C79.6293 8.16296 79.5265 8.68999 79.5265 9.04H82.5265C82.5265 9.23001 82.4677 9.63704 82.1015 9.96991C81.7625 10.2781 81.4002 10.3 81.2905 10.3V7.3ZM79.5265 9.04V15.208H82.5265V9.04H79.5265ZM79.5265 15.208C79.5265 16.0337 79.741 16.926 80.4303 17.5969C81.112 18.2605 82.0053 18.46 82.8265 18.46V15.46C82.4477 15.46 82.441 15.3675 82.5227 15.4471C82.5588 15.4822 82.565 15.5086 82.5581 15.4885C82.5486 15.4607 82.5265 15.3759 82.5265 15.208H79.5265ZM82.8265 18.46H83.7625V15.46H82.8265V18.46ZM83.7625 18.46C83.696 18.46 83.3672 18.4459 83.0566 18.1525C82.7299 17.844 82.6945 17.4858 82.6945 17.368H85.6945C85.6945 16.9782 85.5872 16.416 85.1164 15.9715C84.6618 15.5421 84.117 15.46 83.7625 15.46V18.46ZM82.6945 17.368V18.616H85.6945V17.368H82.6945ZM82.6945 18.616C82.6945 18.464 82.7454 18.0892 83.09 17.7829C83.4009 17.5065 83.716 17.5 83.7625 17.5V20.5C84.097 20.5 84.6281 20.4295 85.083 20.0251C85.5716 19.5908 85.6945 19.024 85.6945 18.616H82.6945ZM83.7625 17.5H82.4665V20.5H83.7625V17.5ZM82.4665 17.5C81.557 17.5 81.0391 17.2606 80.717 16.9538L78.648 19.1262C79.6699 20.0994 81.008 20.5 82.4665 20.5V17.5ZM80.717 16.9538C80.4151 16.6663 80.1745 16.1982 80.1745 15.328H77.1745C77.1745 16.7938 77.6059 18.1337 78.648 19.1262L80.717 16.9538ZM80.1745 15.328V9.04H77.1745V15.328H80.1745ZM80.1745 9.04C80.1745 8.72878 80.0957 8.21986 79.6752 7.79934C79.2546 7.37882 78.7457 7.3 78.4345 7.3V10.3C78.2833 10.3 77.8944 10.2612 77.5538 9.92066C77.2133 9.58014 77.1745 9.19122 77.1745 9.04H80.1745ZM88.8406 18.928L89.9012 19.9887V19.9887L88.8406 18.928ZM88.1086 4.72V2.536H85.1086V4.72H88.1086ZM88.1086 2.536C88.1086 2.63922 88.0817 2.99214 87.7652 3.30866C87.4487 3.62518 87.0958 3.652 86.9926 3.652V0.651999C86.6333 0.651999 86.0884 0.742819 85.6439 1.18734C85.1994 1.63186 85.1086 2.17678 85.1086 2.536H88.1086ZM86.9926 3.652H88.5526V0.651999H86.9926V3.652ZM88.5526 3.652C88.4493 3.652 88.0964 3.62518 87.7799 3.30866C87.4634 2.99214 87.4366 2.63922 87.4366 2.536H90.4366C90.4366 2.17678 90.3457 1.63186 89.9012 1.18734C89.4567 0.742819 88.9118 0.651999 88.5526 0.651999V3.652ZM87.4366 2.536V4.72H90.4366V2.536H87.4366ZM87.4366 4.72C87.4366 4.64667 87.4521 4.31265 87.7483 3.99795C88.0605 3.66617 88.4253 3.628 88.5526 3.628V6.628C88.9358 6.628 89.4926 6.52183 89.9329 6.05405C90.357 5.60335 90.4366 5.06533 90.4366 4.72H87.4366ZM88.5526 3.628H86.9926V6.628H88.5526V3.628ZM86.9926 3.628C87.1198 3.628 87.4846 3.66617 87.7969 3.99795C88.093 4.31265 88.1086 4.64667 88.1086 4.72H85.1086C85.1086 5.06533 85.1881 5.60335 85.6123 6.05405C86.0525 6.52183 86.6093 6.628 86.9926 6.628V3.628ZM88.1086 18.592V7.168H85.1086V18.592H88.1086ZM88.1086 7.168C88.1086 7.24133 88.093 7.57535 87.7969 7.89005C87.4846 8.22183 87.1198 8.26 86.9926 8.26V5.26C86.6093 5.26 86.0525 5.36617 85.6123 5.83395C85.1881 6.28465 85.1086 6.82267 85.1086 7.168H88.1086ZM86.9926 8.26H88.5286V5.26H86.9926V8.26ZM88.5286 8.26C88.4333 8.26 88.0864 8.23518 87.7739 7.92266C87.4614 7.61014 87.4366 7.26322 87.4366 7.168H90.4366C90.4366 6.80078 90.3437 6.24986 89.8952 5.80134C89.4467 5.35282 88.8958 5.26 88.5286 5.26V8.26ZM87.4366 7.168V18.592H90.4366V7.168H87.4366ZM87.4366 18.592C87.4366 18.5806 87.4367 18.5014 87.4703 18.3839C87.5047 18.2634 87.5872 18.0601 87.7799 17.8673L89.9012 19.9887C90.3971 19.4928 90.4366 18.8686 90.4366 18.592H87.4366ZM87.7799 17.8673C88.0167 17.6305 88.2664 17.5524 88.3688 17.5268C88.4802 17.4989 88.5522 17.5 88.5526 17.5V20.5C88.697 20.5 88.8889 20.4891 89.0964 20.4372C89.2947 20.3876 89.6164 20.2735 89.9012 19.9887L87.7799 17.8673ZM88.5526 17.5H87.0166V20.5H88.5526V17.5ZM87.0166 17.5C87.1118 17.5 87.4587 17.5248 87.7712 17.8373C88.0837 18.1499 88.1086 18.4968 88.1086 18.592H85.1086C85.1086 18.9592 85.2014 19.5101 85.6499 19.9587C86.0984 20.4072 86.6493 20.5 87.0166 20.5V17.5ZM92.8101 18.016L91.7365 19.0635L91.7429 19.0701L91.7495 19.0767L92.8101 18.016ZM92.8101 7.744L93.8708 8.80466L92.8101 7.744ZM100.418 7.744L99.3575 8.80466L99.3704 8.81759L99.3836 8.83021L100.418 7.744ZM100.418 18.016L99.3703 16.9426L99.3639 16.9489L99.3575 16.9553L100.418 18.016ZM94.5861 9.232L95.6468 10.2927L95.6619 10.2775L95.6766 10.2619L94.5861 9.232ZM94.5861 16.552L93.4956 17.5819L93.5103 17.5975L93.5255 17.6127L94.5861 16.552ZM97.6821 17.5H95.5701V20.5H97.6821V17.5ZM95.5701 17.5C94.6687 17.5 94.1733 17.2578 93.8708 16.9553L91.7495 19.0767C92.759 20.0862 94.1036 20.5 95.5701 20.5V17.5ZM93.8838 16.9685C93.5866 16.6639 93.3501 16.1689 93.3501 15.28H90.3501C90.3501 16.7271 90.7536 18.0561 91.7365 19.0635L93.8838 16.9685ZM93.3501 15.28V10.48H90.3501V15.28H93.3501ZM93.3501 10.48C93.3501 9.56632 93.591 9.08447 93.8708 8.80466L91.7495 6.68334C90.7493 7.68353 90.3501 9.02568 90.3501 10.48H93.3501ZM93.8708 8.80466C94.1733 8.50215 94.6687 8.26 95.5701 8.26V5.26C94.1036 5.26 92.759 5.67384 91.7495 6.68334L93.8708 8.80466ZM95.5701 8.26H97.6821V5.26H95.5701V8.26ZM97.6821 8.26C98.5609 8.26 99.0512 8.49842 99.3575 8.80466L101.479 6.68334C100.473 5.67758 99.1394 5.26 97.6821 5.26V8.26ZM99.3836 8.83021C99.6816 9.11396 99.9261 9.58679 99.9261 10.48H102.926C102.926 9.0052 102.499 7.65404 101.453 6.65779L99.3836 8.83021ZM99.9261 10.48V15.28H102.926V10.48H99.9261ZM99.9261 15.28C99.9261 16.1485 99.686 16.6345 99.3703 16.9426L101.466 19.0894C102.494 18.0855 102.926 16.7475 102.926 15.28H99.9261ZM99.3575 16.9553C99.0512 17.2616 98.5609 17.5 97.6821 17.5V20.5C99.1394 20.5 100.473 20.0824 101.479 19.0767L99.3575 16.9553ZM95.9061 18.46H97.3701V15.46H95.9061V18.46ZM97.3701 18.46C98.1826 18.46 99.0663 18.2523 99.7341 17.5753C100.398 16.9021 100.598 16.0181 100.598 15.208H97.5981C97.5981 15.3812 97.5762 15.4723 97.5652 15.506C97.5564 15.5327 97.5604 15.5069 97.5982 15.4687C97.6363 15.43 97.6651 15.423 97.6459 15.4295C97.6192 15.4385 97.5358 15.46 97.3701 15.46V18.46ZM100.598 15.208V10.552H97.5981V15.208H100.598ZM100.598 10.552C100.598 9.74195 100.398 8.85787 99.7341 8.18468C99.0663 7.50767 98.1826 7.3 97.3701 7.3V10.3C97.5358 10.3 97.6192 10.3215 97.6459 10.3305C97.6651 10.337 97.6363 10.33 97.5982 10.2913C97.5604 10.2531 97.5564 10.2273 97.5652 10.254C97.5762 10.2877 97.5981 10.3788 97.5981 10.552H100.598ZM97.3701 7.3H95.9061V10.3H97.3701V7.3ZM95.9061 7.3C95.1034 7.3 94.1721 7.48572 93.4956 8.20206L95.6766 10.2619C95.614 10.3283 95.5641 10.341 95.5867 10.3336C95.6173 10.3236 95.7139 10.3 95.9061 10.3V7.3ZM93.5255 8.17134C92.8461 8.85074 92.6781 9.76959 92.6781 10.552H95.6781C95.6781 10.3531 95.7012 10.248 95.7132 10.209C95.7233 10.1764 95.7143 10.2252 95.6468 10.2927L93.5255 8.17134ZM92.6781 10.552V15.208H95.6781V10.552H92.6781ZM92.6781 15.208C92.6781 16.0001 92.8501 16.8985 93.4956 17.5819L95.6766 15.5221C95.7265 15.5749 95.7282 15.6063 95.7154 15.5643C95.7009 15.5164 95.6781 15.4059 95.6781 15.208H92.6781ZM93.5255 17.6127C94.2049 18.2921 95.1237 18.46 95.9061 18.46V15.46C95.7072 15.46 95.6021 15.437 95.5631 15.4249C95.5305 15.4148 95.5793 15.4239 95.6468 15.4913L93.5255 17.6127ZM106.512 8.032H105.012V9.532H106.512V8.032ZM106.608 8.032V9.532H107.575L107.974 8.65076L106.608 8.032ZM112.776 7.72L113.85 6.67285L112.776 7.72ZM106.104 17.5H104.592V20.5H106.104V17.5ZM104.592 17.5C104.687 17.5 105.034 17.5248 105.347 17.8373C105.659 18.1499 105.684 18.4968 105.684 18.592H102.684C102.684 18.9592 102.777 19.5101 103.225 19.9587C103.674 20.4072 104.225 20.5 104.592 20.5V17.5ZM105.684 18.592V7.168H102.684V18.592H105.684ZM105.684 7.168C105.684 7.26322 105.659 7.61014 105.347 7.92266C105.034 8.23518 104.687 8.26 104.592 8.26V5.26C104.225 5.26 103.674 5.35282 103.225 5.80134C102.777 6.24986 102.684 6.80078 102.684 7.168H105.684ZM104.592 8.26H106.104V5.26H104.592V8.26ZM106.104 8.26C106.009 8.26 105.662 8.23518 105.349 7.92266C105.037 7.61014 105.012 7.26322 105.012 7.168H108.012C108.012 6.80078 107.919 6.24986 107.471 5.80134C107.022 5.35282 106.471 5.26 106.104 5.26V8.26ZM105.012 7.168V8.032H108.012V7.168H105.012ZM106.512 9.532H106.608V6.532H106.512V9.532ZM107.974 8.65076C108.034 8.5197 108.161 8.26 109.032 8.26V5.26C107.438 5.26 105.95 5.8483 105.241 7.41324L107.974 8.65076ZM109.032 8.26H110.088V5.26H109.032V8.26ZM110.088 8.26C110.981 8.26 111.439 8.49792 111.702 8.76715L113.85 6.67285C112.864 5.66208 111.531 5.26 110.088 5.26V8.26ZM111.702 8.76715C111.97 9.04193 112.212 9.53368 112.212 10.48H115.212C115.212 9.02632 114.83 7.67807 113.85 6.67285L111.702 8.76715ZM112.212 10.48V18.592H115.212V10.48H112.212ZM112.212 18.592C112.212 18.4742 112.247 18.116 112.574 17.8075C112.885 17.5141 113.213 17.5 113.28 17.5V20.5C113.634 20.5 114.179 20.4179 114.634 19.9885C115.105 19.544 115.212 18.9818 115.212 18.592H112.212ZM113.28 17.5H111.768V20.5H113.28V17.5ZM111.768 17.5C111.863 17.5 112.21 17.5248 112.523 17.8373C112.835 18.1499 112.86 18.4968 112.86 18.592H109.86C109.86 18.9592 109.953 19.5101 110.401 19.9587C110.85 20.4072 111.401 20.5 111.768 20.5V17.5ZM112.86 18.592V10.576H109.86V18.592H112.86ZM112.86 10.576C112.86 9.75788 112.658 8.86777 111.99 8.19058C111.318 7.50963 110.428 7.3 109.608 7.3V10.3C109.778 10.3 109.864 10.322 109.894 10.3321C109.916 10.3396 109.89 10.3341 109.854 10.2974C109.818 10.2612 109.816 10.2379 109.825 10.2676C109.837 10.3042 109.86 10.3988 109.86 10.576H112.86ZM109.608 7.3H108.48V10.3H109.608V7.3ZM108.48 7.3C107.579 7.3 106.631 7.53647 105.924 8.26856C105.228 8.99062 105.012 9.94201 105.012 10.84H108.012C108.012 10.378 108.124 10.3094 108.083 10.3514C108.033 10.4035 108.069 10.3 108.48 10.3V7.3ZM105.012 10.84V18.592H108.012V10.84H105.012ZM105.012 18.592C105.012 18.4968 105.037 18.1499 105.349 17.8373C105.662 17.5248 106.009 17.5 106.104 17.5V20.5C106.471 20.5 107.022 20.4072 107.471 19.9587C107.919 19.5101 108.012 18.9592 108.012 18.592H105.012ZM124.053 18.592L122.595 18.9443L122.604 18.98L122.614 19.0152L124.053 18.592ZM121.293 7.168L119.833 7.51156L119.835 7.52026L121.293 7.168ZM123.789 7.168L122.299 7.34326L122.306 7.39816L122.316 7.45243L123.789 7.168ZM125.541 16.24L124.068 16.5244L124.303 17.74H125.541V16.24ZM125.709 16.24V17.74H126.9L127.17 16.5801L125.709 16.24ZM127.821 7.168L129.282 7.50811L129.291 7.46861L129.298 7.42868L127.821 7.168ZM130.365 7.168L131.828 6.83522L131.825 6.82444L130.365 7.168ZM132.429 16.24L130.966 16.5728L131.232 17.74H132.429V16.24ZM132.597 16.24V17.74H133.835L134.07 16.5244L132.597 16.24ZM134.349 7.168L135.822 7.45243L135.824 7.44057L135.826 7.42868L134.349 7.168ZM136.845 7.168L135.406 6.74475L135.396 6.78001L135.387 6.81574L136.845 7.168ZM134.085 18.592L132.627 18.2397L132.616 18.2852L132.608 18.3313L134.085 18.592ZM131.061 18.592L129.595 18.9082L129.598 18.9219L129.601 18.9356L131.061 18.592ZM129.141 9.688L130.607 9.37182L130.352 8.188H129.141V9.688ZM128.973 9.688V8.188H127.759L127.506 9.3756L128.973 9.688ZM127.077 18.592L125.61 18.2796L125.604 18.3054L125.6 18.3313L127.077 18.592ZM126.597 17.5H124.533V20.5H126.597V17.5ZM124.533 17.5C124.715 17.5 124.975 17.5599 125.205 17.7551C125.413 17.9319 125.478 18.1201 125.492 18.1688L122.614 19.0152C122.708 19.3359 122.894 19.7281 123.262 20.0409C123.651 20.3721 124.111 20.5 124.533 20.5V17.5ZM125.511 18.2397L122.751 6.81574L119.835 7.52026L122.595 18.9443L125.511 18.2397ZM122.753 6.82444C122.755 6.83397 122.867 7.26697 122.543 7.72702C122.183 8.23685 121.669 8.26 121.581 8.26V5.26C121.238 5.26 120.547 5.35115 120.092 5.99697C119.671 6.59303 119.767 7.23003 119.833 7.51156L122.753 6.82444ZM121.581 8.26H123.309V5.26H121.581V8.26ZM123.309 8.26C123.229 8.26 122.951 8.24055 122.674 8.00491C122.385 7.76003 122.314 7.46576 122.299 7.34326L125.279 6.99274C125.232 6.59824 125.065 6.09997 124.617 5.71909C124.179 5.34745 123.677 5.26 123.309 5.26V8.26ZM122.316 7.45243L124.068 16.5244L127.014 15.9556L125.262 6.88357L122.316 7.45243ZM125.541 17.74H125.709V14.74H125.541V17.74ZM127.17 16.5801L129.282 7.50811L126.36 6.82789L124.248 15.8999L127.17 16.5801ZM129.298 7.42868C129.284 7.50729 129.222 7.75582 128.971 7.97986C128.707 8.21611 128.42 8.26 128.277 8.26V5.26C127.878 5.26 127.387 5.37189 126.971 5.74414C126.568 6.10418 126.406 6.5567 126.344 6.90732L129.298 7.42868ZM128.277 8.26H129.861V5.26H128.277V8.26ZM129.861 8.26C129.744 8.26 129.493 8.22699 129.247 8.02787C129.006 7.83226 128.927 7.60381 128.905 7.51156L131.825 6.82444C131.739 6.46019 131.544 6.02774 131.135 5.69613C130.721 5.36101 130.25 5.26 129.861 5.26V8.26ZM128.902 7.50077L130.966 16.5728L133.892 15.9072L131.828 6.83523L128.902 7.50077ZM132.429 17.74H132.597V14.74H132.429V17.74ZM134.07 16.5244L135.822 7.45243L132.876 6.88357L131.124 15.9556L134.07 16.5244ZM135.826 7.42868C135.809 7.52709 135.737 7.7838 135.477 8.00491C135.214 8.22843 134.942 8.26 134.829 8.26V5.26C134.444 5.26 133.957 5.35957 133.534 5.71909C133.113 6.0762 132.937 6.53691 132.872 6.90732L135.826 7.42868ZM134.829 8.26H136.557V5.26H134.829V8.26ZM136.557 8.26C136.518 8.26 135.982 8.25764 135.608 7.72702C135.252 7.22362 135.405 6.74786 135.406 6.74475L138.284 7.59125C138.365 7.31613 138.51 6.63638 138.059 5.99697C137.588 5.33036 136.868 5.26 136.557 5.26V8.26ZM135.387 6.81574L132.627 18.2397L135.543 18.9443L138.303 7.52026L135.387 6.81574ZM132.608 18.3313C132.625 18.2329 132.697 17.9762 132.958 17.7551C133.221 17.5316 133.492 17.5 133.605 17.5V20.5C133.99 20.5 134.478 20.4004 134.901 20.0409C135.321 19.6838 135.497 19.2231 135.562 18.8527L132.608 18.3313ZM133.605 17.5H131.541V20.5H133.605V17.5ZM131.541 17.5C131.688 17.5 131.953 17.545 132.201 17.7551C132.434 17.9536 132.504 18.1749 132.521 18.2484L129.601 18.9356C129.682 19.2811 129.864 19.7064 130.258 20.0409C130.665 20.387 131.138 20.5 131.541 20.5V17.5ZM132.527 18.2758L130.607 9.37182L127.675 10.0042L129.595 18.9082L132.527 18.2758ZM129.141 8.188H128.973V11.188H129.141V8.188ZM127.506 9.3756L125.61 18.2796L128.544 18.9044L130.44 10.0004L127.506 9.3756ZM125.6 18.3313C125.617 18.2329 125.689 17.9762 125.95 17.7551C126.213 17.5316 126.484 17.5 126.597 17.5V20.5C126.982 20.5 127.47 20.4004 127.893 20.0409C128.313 19.6838 128.489 19.2231 128.554 18.8527L125.6 18.3313ZM139.615 18.016L138.541 19.0635L138.548 19.0701L138.554 19.0767L139.615 18.016ZM139.615 7.744L140.675 8.80466L139.615 7.744ZM147.103 7.744L146.042 8.80466L146.049 8.81121L146.055 8.81767L147.103 7.744ZM145.351 9.232L144.26 10.2619L144.275 10.2775L144.29 10.2927L145.351 9.232ZM141.391 9.232L142.451 10.2927L142.467 10.2775L142.481 10.2619L141.391 9.232ZM147.559 17.5H142.375V20.5H147.559V17.5ZM142.375 17.5C141.473 17.5 140.978 17.2578 140.675 16.9553L138.554 19.0767C139.564 20.0862 140.908 20.5 142.375 20.5V17.5ZM140.688 16.9685C140.391 16.6639 140.155 16.1689 140.155 15.28H137.155C137.155 16.7271 137.558 18.0561 138.541 19.0635L140.688 16.9685ZM140.155 15.28V10.48H137.155V15.28H140.155ZM140.155 10.48C140.155 9.56632 140.396 9.08447 140.675 8.80466L138.554 6.68334C137.554 7.68353 137.155 9.02568 137.155 10.48H140.155ZM140.675 8.80466C140.978 8.50215 141.473 8.26 142.375 8.26V5.26C140.908 5.26 139.564 5.67384 138.554 6.68334L140.675 8.80466ZM142.375 8.26H144.343V5.26H142.375V8.26ZM144.343 8.26C145.244 8.26 145.74 8.50215 146.042 8.80466L148.163 6.68334C147.154 5.67384 145.809 5.26 144.343 5.26V8.26ZM146.055 8.81767C146.344 9.09931 146.587 9.57651 146.587 10.48H149.587C149.587 9.01549 149.174 7.66869 148.15 6.67033L146.055 8.81767ZM146.587 10.48V13.528H149.587V10.48H146.587ZM146.587 13.528C146.587 13.4408 146.61 13.0999 146.918 12.7913C147.227 12.4828 147.568 12.46 147.655 12.46V15.46C148.03 15.46 148.587 15.3652 149.039 14.9127C149.492 14.4601 149.587 13.9032 149.587 13.528H146.587ZM147.655 12.46H141.223V15.46H147.655V12.46ZM141.223 12.46C140.937 12.46 140.443 12.5219 140.016 12.9101C139.562 13.323 139.459 13.85 139.459 14.2H142.459C142.459 14.39 142.4 14.797 142.034 15.1299C141.695 15.4381 141.333 15.46 141.223 15.46V12.46ZM139.459 14.2V15.232H142.459V14.2H139.459ZM139.459 15.232C139.459 16.0472 139.664 16.9341 140.336 17.6067C141.009 18.2792 141.896 18.484 142.711 18.484V15.484C142.539 15.484 142.45 15.462 142.419 15.4515C142.394 15.4433 142.42 15.4481 142.457 15.4853C142.495 15.5226 142.499 15.5486 142.491 15.5242C142.481 15.4925 142.459 15.4035 142.459 15.232H139.459ZM142.711 18.484H147.559V15.484H142.711V18.484ZM147.559 18.484C147.472 18.484 147.131 18.4612 146.822 18.1527C146.514 17.8441 146.491 17.5032 146.491 17.416H149.491C149.491 17.0408 149.396 16.4839 148.943 16.0313C148.491 15.5788 147.934 15.484 147.559 15.484V18.484ZM146.491 17.416V18.616H149.491V17.416H146.491ZM146.491 18.616C146.491 18.464 146.542 18.0892 146.886 17.7829C147.197 17.5065 147.512 17.5 147.559 17.5V20.5C147.893 20.5 148.424 20.4295 148.879 20.0251C149.368 19.5908 149.491 19.024 149.491 18.616H146.491ZM141.223 13.828H145.519V10.828H141.223V13.828ZM145.519 13.828C145.83 13.828 146.339 13.7492 146.759 13.3287C147.18 12.9081 147.259 12.3992 147.259 12.088H144.259C144.259 11.9368 144.298 11.5479 144.638 11.2073C144.979 10.8668 145.368 10.828 145.519 10.828V13.828ZM147.259 12.088V10.552H144.259V12.088H147.259ZM147.259 10.552C147.259 9.76959 147.091 8.85074 146.411 8.17134L144.29 10.2927C144.223 10.2252 144.214 10.1764 144.224 10.209C144.236 10.248 144.259 10.3531 144.259 10.552H147.259ZM146.441 8.20207C145.765 7.48572 144.833 7.3 144.031 7.3V10.3C144.223 10.3 144.32 10.3236 144.35 10.3336C144.373 10.341 144.323 10.3283 144.26 10.2619L146.441 8.20207ZM144.031 7.3H142.711V10.3H144.031V7.3ZM142.711 7.3C141.908 7.3 140.977 7.48572 140.3 8.20206L142.481 10.2619C142.419 10.3283 142.369 10.341 142.391 10.3336C142.422 10.3236 142.519 10.3 142.711 10.3V7.3ZM140.33 8.17134C139.651 8.85074 139.483 9.76959 139.483 10.552H142.483C142.483 10.3531 142.506 10.248 142.518 10.209C142.528 10.1764 142.519 10.2252 142.451 10.2927L140.33 8.17134ZM139.483 10.552V12.088H142.483V10.552H139.483ZM139.483 12.088C139.483 12.3992 139.562 12.9081 139.982 13.3287C140.403 13.7492 140.912 13.828 141.223 13.828V10.828C141.374 10.828 141.763 10.8668 142.103 11.2073C142.444 11.5479 142.483 11.9368 142.483 12.088H139.483ZM153.059 7.96H151.559V9.46H153.059V7.96ZM153.155 7.96V9.46H154.113L154.516 8.59019L153.155 7.96ZM159.395 7.648L158.334 8.70866L158.341 8.71521L158.347 8.72167L159.395 7.648ZM153.323 18.46H156.299V15.46H153.323V18.46ZM156.299 18.46C157.117 18.46 158.003 18.2474 158.67 17.562C159.329 16.8843 159.527 15.9971 159.527 15.184H156.527C156.527 15.363 156.504 15.4596 156.492 15.4982C156.482 15.5301 156.483 15.5072 156.52 15.47C156.557 15.4319 156.586 15.4241 156.569 15.43C156.544 15.4384 156.463 15.46 156.299 15.46V18.46ZM159.527 15.184V10.48H156.527V15.184H159.527ZM159.527 10.48C159.527 9.66693 159.329 8.77972 158.67 8.10197C158.003 7.41659 157.117 7.204 156.299 7.204V10.204C156.463 10.204 156.544 10.2256 156.569 10.234C156.586 10.2399 156.557 10.2321 156.52 10.194C156.483 10.1568 156.482 10.1339 156.492 10.1658C156.504 10.2044 156.527 10.301 156.527 10.48H159.527ZM156.299 7.204H155.027V10.204H156.299V7.204ZM155.027 7.204C154.13 7.204 153.184 7.43587 152.477 8.16019C151.777 8.87782 151.559 9.82573 151.559 10.72H154.559C154.559 10.2703 154.669 10.2102 154.624 10.2558C154.573 10.3081 154.611 10.204 155.027 10.204V7.204ZM151.559 10.72V16.696H154.559V10.72H151.559ZM151.559 16.696C151.559 17.0152 151.64 17.5301 152.064 17.9547C152.489 18.3792 153.004 18.46 153.323 18.46V15.46C153.466 15.46 153.849 15.4968 154.185 15.8333C154.522 16.1699 154.559 16.5528 154.559 16.696H151.559ZM152.231 18.592V2.536H149.231V18.592H152.231ZM152.231 2.536C152.231 2.63122 152.206 2.97814 151.893 3.29066C151.581 3.60318 151.234 3.628 151.139 3.628V0.628C150.772 0.628 150.221 0.720819 149.772 1.16934C149.324 1.61786 149.231 2.16878 149.231 2.536H152.231ZM151.139 3.628H152.651V0.628H151.139V3.628ZM152.651 3.628C152.556 3.628 152.209 3.60318 151.896 3.29066C151.584 2.97814 151.559 2.63122 151.559 2.536H154.559C154.559 2.16878 154.466 1.61786 154.017 1.16934C153.569 0.720819 153.018 0.628 152.651 0.628V3.628ZM151.559 2.536V7.96H154.559V2.536H151.559ZM153.059 9.46H153.155V6.46H153.059V9.46ZM154.516 8.59019C154.585 8.44156 154.663 8.36679 154.768 8.3108C154.895 8.24295 155.14 8.164 155.579 8.164V5.164C154.802 5.164 154.035 5.30105 153.354 5.6652C152.65 6.04121 152.125 6.61444 151.794 7.32981L154.516 8.59019ZM155.579 8.164H156.635V5.164H155.579V8.164ZM156.635 8.164C157.536 8.164 158.032 8.40615 158.334 8.70866L160.455 6.58734C159.446 5.57784 158.101 5.164 156.635 5.164V8.164ZM158.347 8.72167C158.64 9.00704 158.879 9.47937 158.879 10.36H161.879C161.879 8.90463 161.462 7.56896 160.442 6.57433L158.347 8.72167ZM158.879 10.36V15.28H161.879V10.36H158.879ZM158.879 15.28C158.879 16.1587 158.64 16.6491 158.334 16.9553L160.455 19.0767C161.461 18.0709 161.879 16.7373 161.879 15.28H158.879ZM158.334 16.9553C158.032 17.2578 157.536 17.5 156.635 17.5V20.5C158.101 20.5 159.446 20.0862 160.455 19.0767L158.334 16.9553ZM156.635 17.5H151.139V20.5H156.635V17.5ZM151.139 17.5C151.234 17.5 151.581 17.5248 151.893 17.8373C152.206 18.1499 152.231 18.4968 152.231 18.592H149.231C149.231 18.9592 149.324 19.5101 149.772 19.9587C150.221 20.4072 150.772 20.5 151.139 20.5V17.5Z" fill="url(#paint0_linear_111_59)"/>
</g>
<defs>
<filter id="filter0_d_111_59" x="0.462097" y="0.627991" width="165.417" height="31.256" filterUnits="userSpaceOnUse" color-interpolation-filters="sRGB">
<feFlood flood-opacity="0" result="BackgroundImageFix"/>
<feColorMatrix in="SourceAlpha" type="matrix" values="0 0 0 0 0 0 0 0 0 0 0 0 0 0 0 0 0 0 127 0" result="hardAlpha"/>
<feOffset dy="4"/>
<feGaussianBlur stdDeviation="2"/>
<feComposite in2="hardAlpha" operator="out"/>
<feColorMatrix type="matrix" values="0 0 0 0 0 0 0 0 0 0 0 0 0 0 0 0 0 0 0.25 0"/>
<feBlend mode="normal" in2="BackgroundImageFix" result="effect1_dropShadow_111_59"/>
<feBlend mode="normal" in="SourceGraphic" in2="effect1_dropShadow_111_59" result="shape"/>
</filter>
<linearGradient id="paint0_linear_111_59" x1="83.5" y1="-4" x2="83.5" y2="27" gradientUnits="userSpaceOnUse">
<stop stop-color="#C6EBFA"/>
<stop offset="1" stop-color="#C9EDFB"/>
</linearGradient>
</defs>
</svg>
