<svg  width="62" height="33" viewBox="0 0 62 33" fill="none" xmlns="http://www.w3.org/2000/svg">
<g id="About" filter="url(#filter0_d_158_123)">
<mask id="path-1-outside-1_158_123" maskUnits="userSpaceOnUse" x="9" y="0" width="45" height="13" fill="black">
<rect fill="white" x="9" width="45" height="13"/>
<path d="M17.7984 1.34C18.0038 1.34 18.1858 1.41 18.3444 1.55C18.5124 1.69 18.6104 1.86267 18.6384 2.068L20.0104 11H17.3784L16.6784 4.308C16.6598 4.13067 16.6458 3.958 16.6364 3.79C16.6364 3.622 16.6364 3.454 16.6364 3.286H16.2444C16.2071 3.426 16.1651 3.58467 16.1184 3.762C16.0718 3.93933 16.0111 4.112 15.9364 4.28L13.2904 11H10.5604L14.4524 1.97C14.5271 1.76467 14.6438 1.61067 14.8024 1.508C14.9704 1.396 15.1618 1.34 15.3764 1.34H17.7984ZM18.3864 6.786L18.1624 8.732H13.1224L13.3604 6.786H18.3864ZM26.465 3.846C27.025 3.846 27.473 3.97667 27.809 4.238C28.145 4.49 28.3643 4.89133 28.467 5.442C28.5696 5.98333 28.5556 6.688 28.425 7.556C28.3503 8.088 28.229 8.578 28.061 9.026C27.9023 9.46467 27.6783 9.84267 27.389 10.16C27.0996 10.4773 26.7216 10.7247 26.255 10.902C25.7883 11.0793 25.2096 11.168 24.519 11.168C24.2576 11.168 23.9496 11.154 23.595 11.126C23.2403 11.1073 22.8763 11.0747 22.503 11.028C22.139 10.9813 21.7936 10.9253 21.467 10.86C21.1496 10.7853 20.8883 10.7013 20.683 10.608L22.699 9.264C22.839 9.30133 23.007 9.334 23.203 9.362C23.399 9.38067 23.5996 9.39933 23.805 9.418C24.0103 9.42733 24.1783 9.42733 24.309 9.418C24.5516 9.40867 24.757 9.376 24.925 9.32C25.093 9.25467 25.233 9.152 25.345 9.012C25.4663 8.86267 25.5643 8.65733 25.639 8.396C25.7136 8.12533 25.7836 7.78467 25.849 7.374C25.9143 6.954 25.9423 6.63667 25.933 6.422C25.9236 6.198 25.8723 6.04867 25.779 5.974C25.695 5.89 25.5596 5.848 25.373 5.848C25.0463 5.848 24.7243 5.94133 24.407 6.128C24.099 6.30533 23.7723 6.534 23.427 6.814L23.077 5.974C23.2543 5.694 23.4643 5.428 23.707 5.176C23.9496 4.91467 24.211 4.686 24.491 4.49C24.7803 4.294 25.0883 4.14 25.415 4.028C25.751 3.90667 26.101 3.846 26.465 3.846ZM24.547 1.2L24.295 3.174C24.2576 3.51 24.2016 3.83667 24.127 4.154C24.0523 4.47133 23.9403 4.80267 23.791 5.148L24.015 5.274L23.217 10.72L20.683 10.608L21.999 1.2H24.547ZM33.4992 3.846C34.3952 3.846 35.1139 3.972 35.6552 4.224C36.2059 4.476 36.5792 4.87733 36.7752 5.428C36.9805 5.97867 37.0179 6.71133 36.8872 7.626C36.7659 8.50333 36.5512 9.20333 36.2432 9.726C35.9445 10.2393 35.5152 10.608 34.9552 10.832C34.3952 11.056 33.6719 11.168 32.7852 11.168C31.8985 11.168 31.1799 11.0467 30.6292 10.804C30.0785 10.5613 29.6959 10.1693 29.4812 9.628C29.2759 9.07733 29.2385 8.34467 29.3692 7.43C29.4905 6.54333 29.7005 5.84333 29.9992 5.33C30.3072 4.80733 30.7412 4.42933 31.3012 4.196C31.8705 3.96267 32.6032 3.846 33.4992 3.846ZM33.4572 5.624C33.1492 5.624 32.9065 5.67533 32.7292 5.778C32.5519 5.88067 32.4072 6.07667 32.2952 6.366C32.1925 6.65533 32.0992 7.07533 32.0152 7.626C31.9499 8.11133 31.9265 8.48467 31.9452 8.746C31.9639 8.998 32.0479 9.17067 32.1972 9.264C32.3465 9.35733 32.5705 9.404 32.8692 9.404C33.1679 9.404 33.4012 9.35267 33.5692 9.25C33.7465 9.138 33.8865 8.942 33.9892 8.662C34.0919 8.37267 34.1852 7.962 34.2692 7.43C34.3345 6.93533 34.3579 6.562 34.3392 6.31C34.3205 6.04867 34.2412 5.87133 34.1012 5.778C33.9612 5.67533 33.7465 5.624 33.4572 5.624ZM41.0528 4.042L40.4088 8.494C40.3808 8.70867 40.4041 8.858 40.4788 8.942C40.5628 9.01667 40.6841 9.054 40.8428 9.054C41.1134 9.054 41.3794 8.984 41.6408 8.844C41.9021 8.69467 42.2334 8.45667 42.6348 8.13L43.0548 9.264C42.4388 9.92667 41.8554 10.4167 41.3048 10.734C40.7634 11.042 40.2128 11.196 39.6528 11.196C38.9528 11.196 38.4394 11.0233 38.1128 10.678C37.7954 10.3233 37.6834 9.83333 37.7768 9.208L38.4908 4.042H41.0528ZM45.5468 4.042L44.5808 11H42.5928L42.5648 9.124L42.3408 8.956L43.0268 4.042H45.5468ZM50.4683 2.166L49.5443 8.648C49.5163 8.86267 49.535 9.00733 49.6003 9.082C49.6656 9.15667 49.815 9.194 50.0483 9.194H50.9303L51.0563 10.874C50.8603 10.9487 50.627 11.0047 50.3563 11.042C50.0856 11.0887 49.8196 11.1213 49.5583 11.14C49.297 11.168 49.0823 11.182 48.9143 11.182C48.233 11.182 47.7103 11.0047 47.3463 10.65C46.9823 10.2953 46.847 9.81 46.9403 9.194L47.9623 2.166H50.4683ZM51.9943 4.042L51.7843 5.624H46.2403L46.4363 4.112L47.7803 4.042H51.9943Z"/>
</mask>
<path id="test5" d="M17.7984 1.34C18.0038 1.34 18.1858 1.41 18.3444 1.55C18.5124 1.69 18.6104 1.86267 18.6384 2.068L20.0104 11H17.3784L16.6784 4.308C16.6598 4.13067 16.6458 3.958 16.6364 3.79C16.6364 3.622 16.6364 3.454 16.6364 3.286H16.2444C16.2071 3.426 16.1651 3.58467 16.1184 3.762C16.0718 3.93933 16.0111 4.112 15.9364 4.28L13.2904 11H10.5604L14.4524 1.97C14.5271 1.76467 14.6438 1.61067 14.8024 1.508C14.9704 1.396 15.1618 1.34 15.3764 1.34H17.7984ZM18.3864 6.786L18.1624 8.732H13.1224L13.3604 6.786H18.3864ZM26.465 3.846C27.025 3.846 27.473 3.97667 27.809 4.238C28.145 4.49 28.3643 4.89133 28.467 5.442C28.5696 5.98333 28.5556 6.688 28.425 7.556C28.3503 8.088 28.229 8.578 28.061 9.026C27.9023 9.46467 27.6783 9.84267 27.389 10.16C27.0996 10.4773 26.7216 10.7247 26.255 10.902C25.7883 11.0793 25.2096 11.168 24.519 11.168C24.2576 11.168 23.9496 11.154 23.595 11.126C23.2403 11.1073 22.8763 11.0747 22.503 11.028C22.139 10.9813 21.7936 10.9253 21.467 10.86C21.1496 10.7853 20.8883 10.7013 20.683 10.608L22.699 9.264C22.839 9.30133 23.007 9.334 23.203 9.362C23.399 9.38067 23.5996 9.39933 23.805 9.418C24.0103 9.42733 24.1783 9.42733 24.309 9.418C24.5516 9.40867 24.757 9.376 24.925 9.32C25.093 9.25467 25.233 9.152 25.345 9.012C25.4663 8.86267 25.5643 8.65733 25.639 8.396C25.7136 8.12533 25.7836 7.78467 25.849 7.374C25.9143 6.954 25.9423 6.63667 25.933 6.422C25.9236 6.198 25.8723 6.04867 25.779 5.974C25.695 5.89 25.5596 5.848 25.373 5.848C25.0463 5.848 24.7243 5.94133 24.407 6.128C24.099 6.30533 23.7723 6.534 23.427 6.814L23.077 5.974C23.2543 5.694 23.4643 5.428 23.707 5.176C23.9496 4.91467 24.211 4.686 24.491 4.49C24.7803 4.294 25.0883 4.14 25.415 4.028C25.751 3.90667 26.101 3.846 26.465 3.846ZM24.547 1.2L24.295 3.174C24.2576 3.51 24.2016 3.83667 24.127 4.154C24.0523 4.47133 23.9403 4.80267 23.791 5.148L24.015 5.274L23.217 10.72L20.683 10.608L21.999 1.2H24.547ZM33.4992 3.846C34.3952 3.846 35.1139 3.972 35.6552 4.224C36.2059 4.476 36.5792 4.87733 36.7752 5.428C36.9805 5.97867 37.0179 6.71133 36.8872 7.626C36.7659 8.50333 36.5512 9.20333 36.2432 9.726C35.9445 10.2393 35.5152 10.608 34.9552 10.832C34.3952 11.056 33.6719 11.168 32.7852 11.168C31.8985 11.168 31.1799 11.0467 30.6292 10.804C30.0785 10.5613 29.6959 10.1693 29.4812 9.628C29.2759 9.07733 29.2385 8.34467 29.3692 7.43C29.4905 6.54333 29.7005 5.84333 29.9992 5.33C30.3072 4.80733 30.7412 4.42933 31.3012 4.196C31.8705 3.96267 32.6032 3.846 33.4992 3.846ZM33.4572 5.624C33.1492 5.624 32.9065 5.67533 32.7292 5.778C32.5519 5.88067 32.4072 6.07667 32.2952 6.366C32.1925 6.65533 32.0992 7.07533 32.0152 7.626C31.9499 8.11133 31.9265 8.48467 31.9452 8.746C31.9639 8.998 32.0479 9.17067 32.1972 9.264C32.3465 9.35733 32.5705 9.404 32.8692 9.404C33.1679 9.404 33.4012 9.35267 33.5692 9.25C33.7465 9.138 33.8865 8.942 33.9892 8.662C34.0919 8.37267 34.1852 7.962 34.2692 7.43C34.3345 6.93533 34.3579 6.562 34.3392 6.31C34.3205 6.04867 34.2412 5.87133 34.1012 5.778C33.9612 5.67533 33.7465 5.624 33.4572 5.624ZM41.0528 4.042L40.4088 8.494C40.3808 8.70867 40.4041 8.858 40.4788 8.942C40.5628 9.01667 40.6841 9.054 40.8428 9.054C41.1134 9.054 41.3794 8.984 41.6408 8.844C41.9021 8.69467 42.2334 8.45667 42.6348 8.13L43.0548 9.264C42.4388 9.92667 41.8554 10.4167 41.3048 10.734C40.7634 11.042 40.2128 11.196 39.6528 11.196C38.9528 11.196 38.4394 11.0233 38.1128 10.678C37.7954 10.3233 37.6834 9.83333 37.7768 9.208L38.4908 4.042H41.0528ZM45.5468 4.042L44.5808 11H42.5928L42.5648 9.124L42.3408 8.956L43.0268 4.042H45.5468ZM50.4683 2.166L49.5443 8.648C49.5163 8.86267 49.535 9.00733 49.6003 9.082C49.6656 9.15667 49.815 9.194 50.0483 9.194H50.9303L51.0563 10.874C50.8603 10.9487 50.627 11.0047 50.3563 11.042C50.0856 11.0887 49.8196 11.1213 49.5583 11.14C49.297 11.168 49.0823 11.182 48.9143 11.182C48.233 11.182 47.7103 11.0047 47.3463 10.65C46.9823 10.2953 46.847 9.81 46.9403 9.194L47.9623 2.166H50.4683ZM51.9943 4.042L51.7843 5.624H46.2403L46.4363 4.112L47.7803 4.042H51.9943Z" fill="url(#paint0_linear_158_135)" />

</g>
<defs>
<filter id="filter0_d_158_123" x="0.640497" y="0.200012" width="60.8953" height="32.396" filterUnits="userSpaceOnUse" color-interpolation-filters="sRGB">
<feFlood flood-opacity="0" result="BackgroundImageFix"/>
<feColorMatrix in="SourceAlpha" type="matrix" values="0 0 0 0 0 0 0 0 0 0 0 0 0 0 0 0 0 0 127 0" result="hardAlpha"/>
<feOffset dy="12"/>
<feGaussianBlur stdDeviation="4.2"/>
<feComposite in2="hardAlpha" operator="out"/>
<feColorMatrix type="matrix" values="0 0 0 0 0.376471 0 0 0 0 0.203922 0 0 0 0 0.392157 0 0 0 0.58 0"/>
<feBlend mode="normal" in2="BackgroundImageFix" result="effect1_dropShadow_158_123"/>
<feBlend mode="normal" in="SourceGraphic" in2="effect1_dropShadow_158_123" result="shape"/>
</filter>
<linearGradient id="paint0_linear_158_134" x1="29" y1="-2" x2="29" y2="15" gradientUnits="userSpaceOnUse">
<stop offset="0.45" stop-color="#C8345E" stop-opacity="0.77"/>
<stop offset="0.695" stop-color="#252F34" stop-opacity="0.77"/>
</linearGradient>
<linearGradient id="paint0_linear_158_135" x1="29" y1="-2" x2="29" y2="15" gradientUnits="userSpaceOnUse">
<stop offset="0.45" stop-color="#774DA7" stop-opacity="0.77"/>
<stop offset="0.695" stop-color="#3CA9E6" stop-opacity="0.77"/>
</linearGradient>

</defs>
</svg>
