<svg width="74" height="32" viewBox="0 0 74 32" fill="none" xmlns="http://www.w3.org/2000/svg">
<path id="Ellipse 19" d="M71.5 16C71.5 17.3717 70.8677 18.8823 69.3051 20.4798C67.7315 22.0887 65.3318 23.6521 62.1707 25.0191C55.8566 27.7495 46.9592 29.5 37 29.5C27.0408 29.5 18.1434 27.7495 11.8293 25.0191C8.66816 23.6521 6.26852 22.0887 4.69487 20.4798C3.1323 18.8823 2.5 17.3717 2.5 16C2.5 14.6283 3.1323 13.1177 4.69487 11.5202C6.26852 9.9113 8.66816 8.34792 11.8293 6.98093C18.1434 4.25052 27.0408 2.5 37 2.5C46.9592 2.5 55.8566 4.25052 62.1707 6.98093C65.3318 8.34792 67.7315 9.9113 69.3051 11.5202C70.8677 13.1177 71.5 14.6283 71.5 16Z" stroke="url(#paint0_linear_158_137)" stroke-width="5"/>
<defs>
<linearGradient id="paint0_linear_158_137" x1="74" y1="16" x2="0" y2="16" gradientUnits="userSpaceOnUse">
<stop stop-color="#958CB2"/>
<stop offset="1" stop-color="#54829B"/>
</linearGradient>
</defs>
</svg>
