<svg width="111" height="33" viewBox="0 0 111 33" fill="none" xmlns="http://www.w3.org/2000/svg">
<g id="Contact" filter="url(#filter0_d_25_21)">
<path d="M14.8286 23H11.1166C9.53796 23 8.31129 22.5627 7.43663 21.688C6.58329 20.8133 6.15663 19.5973 6.15663 18.04V7.384C6.15663 5.80533 6.58329 4.58933 7.43663 3.736C8.31129 2.86133 9.53796 2.424 11.1166 2.424H14.8286C16.386 2.424 17.602 2.86133 18.4766 3.736C19.3513 4.58933 19.7886 5.80533 19.7886 7.384V8.92C19.7886 9.304 19.5966 9.496 19.2126 9.496H17.1966C16.834 9.496 16.6526 9.304 16.6526 8.92V7.512C16.6526 5.93333 15.8846 5.144 14.3486 5.144H11.5646C10.0286 5.144 9.26063 5.93333 9.26063 7.512V17.912C9.26063 19.4907 10.0286 20.28 11.5646 20.28H14.3486C15.8846 20.28 16.6526 19.4907 16.6526 17.912V16.504C16.6526 16.12 16.834 15.928 17.1966 15.928H19.2126C19.5966 15.928 19.7886 16.12 19.7886 16.504V18.04C19.7886 19.5973 19.3513 20.8133 18.4766 21.688C17.602 22.5627 16.386 23 14.8286 23ZM30.8939 23H28.0779C26.4992 23 25.2725 22.5627 24.3979 21.688C23.5445 20.8133 23.1179 19.5973 23.1179 18.04V11.64C23.1179 10.0613 23.5445 8.84533 24.3979 7.992C25.2725 7.11733 26.4992 6.68 28.0779 6.68H30.8939C32.4512 6.68 33.6672 7.11733 34.5419 7.992C35.4379 8.84533 35.8859 10.0613 35.8859 11.64V18.04C35.8859 19.5973 35.4379 20.8133 34.5419 21.688C33.6672 22.5627 32.4512 23 30.8939 23ZM28.5259 20.28H30.4779C32.0139 20.28 32.7819 19.5013 32.7819 17.944V11.736C32.7819 10.1787 32.0139 9.4 30.4779 9.4H28.5259C27.7152 9.4 27.1285 9.592 26.7659 9.976C26.4032 10.3387 26.2219 10.9253 26.2219 11.736V17.944C26.2219 18.7547 26.4032 19.352 26.7659 19.736C27.1285 20.0987 27.7152 20.28 28.5259 20.28ZM42.1229 23H40.1069C39.7442 23 39.5629 22.8187 39.5629 22.456V7.224C39.5629 6.86133 39.7442 6.68 40.1069 6.68H42.1229C42.4855 6.68 42.6669 6.86133 42.6669 7.224V8.376H42.7949C43.3069 7.24533 44.3842 6.68 46.0269 6.68H47.4349C48.9922 6.68 50.1869 7.10667 51.0189 7.96C51.8509 8.81333 52.2669 10.04 52.2669 11.64V22.456C52.2669 22.8187 52.0749 23 51.6909 23H49.6749C49.3122 23 49.1309 22.8187 49.1309 22.456V11.768C49.1309 10.1893 48.3522 9.4 46.7949 9.4H45.2909C43.5415 9.4 42.6669 10.3067 42.6669 12.12V22.456C42.6669 22.8187 42.4855 23 42.1229 23ZM56.5741 9.4H55.0381C54.8248 9.4 54.6755 9.368 54.5901 9.304C54.5261 9.21867 54.4941 9.08 54.4941 8.888V7.224C54.4941 6.86133 54.6755 6.68 55.0381 6.68H56.5741C56.7875 6.68 56.8941 6.57333 56.8941 6.36V3.48C56.8941 3.11733 57.0861 2.936 57.4701 2.936H59.4861C59.8488 2.936 60.0301 3.11733 60.0301 3.48V6.36C60.0301 6.57333 60.1475 6.68 60.3821 6.68H63.3581C63.7421 6.68 63.9341 6.86133 63.9341 7.224V8.888C63.9341 9.22933 63.7421 9.4 63.3581 9.4H60.3821C60.1475 9.4 60.0301 9.50667 60.0301 9.72V17.944C60.0301 19.5013 60.8301 20.28 62.4301 20.28H63.6781C64.0621 20.28 64.2541 20.4613 64.2541 20.824V22.488C64.2541 22.8293 64.0621 23 63.6781 23H61.9501C60.3715 23 59.1341 22.5733 58.2381 21.72C57.3421 20.8667 56.8941 19.6613 56.8941 18.104V9.72C56.8941 9.50667 56.7875 9.4 56.5741 9.4ZM73.2009 23H71.9529C70.3742 23 69.1475 22.5627 68.2729 21.688C67.4195 20.8133 66.9929 19.5973 66.9929 18.04V11.64C66.9929 10.0613 67.4195 8.84533 68.2729 7.992C69.1475 7.11733 70.3742 6.68 71.9529 6.68H79.1209C79.5049 6.68 79.6969 6.86133 79.6969 7.224V22.456C79.6969 22.8187 79.5049 23 79.1209 23H77.1049C76.7422 23 76.5609 22.8187 76.5609 22.456V21.304H76.4329C75.9209 22.4347 74.8435 23 73.2009 23ZM76.5609 17.56V9.72C76.5609 9.50667 76.4435 9.4 76.2089 9.4H72.4009C70.8649 9.4 70.0969 10.1893 70.0969 11.768V17.912C70.0969 19.4907 70.8649 20.28 72.4009 20.28H73.9369C75.6862 20.28 76.5609 19.3733 76.5609 17.56ZM93.6079 20.824V22.488C93.6079 22.8293 93.4159 23 93.0319 23H88.3279C86.7492 23 85.5225 22.5627 84.6479 21.688C83.7945 20.8133 83.3679 19.5973 83.3679 18.04V11.64C83.3679 10.0613 83.7945 8.84533 84.6479 7.992C85.5225 7.11733 86.7492 6.68 88.3279 6.68H93.0319C93.4159 6.68 93.6079 6.86133 93.6079 7.224V8.888C93.6079 9.22933 93.4159 9.4 93.0319 9.4H88.7759C87.2399 9.4 86.4719 10.1893 86.4719 11.768V17.912C86.4719 19.4907 87.2399 20.28 88.7759 20.28H93.0319C93.4159 20.28 93.6079 20.4613 93.6079 20.824ZM97.1366 9.4H95.6006C95.3873 9.4 95.238 9.368 95.1526 9.304C95.0886 9.21867 95.0566 9.08 95.0566 8.888V7.224C95.0566 6.86133 95.238 6.68 95.6006 6.68H97.1366C97.35 6.68 97.4566 6.57333 97.4566 6.36V3.48C97.4566 3.11733 97.6486 2.936 98.0326 2.936H100.049C100.411 2.936 100.593 3.11733 100.593 3.48V6.36C100.593 6.57333 100.71 6.68 100.945 6.68H103.921C104.305 6.68 104.497 6.86133 104.497 7.224V8.888C104.497 9.22933 104.305 9.4 103.921 9.4H100.945C100.71 9.4 100.593 9.50667 100.593 9.72V17.944C100.593 19.5013 101.393 20.28 102.993 20.28H104.241C104.625 20.28 104.817 20.4613 104.817 20.824V22.488C104.817 22.8293 104.625 23 104.241 23H102.513C100.934 23 99.6966 22.5733 98.8006 21.72C97.9046 20.8667 97.4566 19.6613 97.4566 18.104V9.72C97.4566 9.50667 97.35 9.4 97.1366 9.4Z" fill="#1A1A1A"/>
<path d="M7.43663 21.688L6.36295 22.7355L6.36942 22.7421L6.37597 22.7487L7.43663 21.688ZM7.43663 3.736L6.37597 2.67534L6.37596 2.67534L7.43663 3.736ZM18.4766 3.736L17.416 4.79666L17.4225 4.80321L17.4291 4.80967L18.4766 3.736ZM14.8286 21.5H11.1166V24.5H14.8286V21.5ZM11.1166 21.5C9.82051 21.5 9.01846 21.1485 8.49729 20.6273L6.37597 22.7487C7.60413 23.9768 9.25541 24.5 11.1166 24.5V21.5ZM8.5103 20.6405C7.9998 20.1173 7.65663 19.3182 7.65663 18.04H4.65663C4.65663 19.8764 5.16678 21.5094 6.36295 22.7355L8.5103 20.6405ZM7.65663 18.04V7.384H4.65663V18.04H7.65663ZM7.65663 7.384C7.65663 6.07566 8.00414 5.28981 8.49729 4.79666L6.37596 2.67534C5.16245 3.88886 4.65663 5.53501 4.65663 7.384H7.65663ZM8.49728 4.79666C9.01846 4.27549 9.82051 3.924 11.1166 3.924V0.924C9.25541 0.924 7.60413 1.44718 6.37597 2.67534L8.49728 4.79666ZM11.1166 3.924H14.8286V0.924H11.1166V3.924ZM14.8286 3.924C16.0967 3.924 16.8911 4.27175 17.416 4.79666L19.5373 2.67534C18.3129 1.45092 16.6752 0.924 14.8286 0.924V3.924ZM17.4291 4.80967C17.9365 5.30464 18.2886 6.08584 18.2886 7.384H21.2886C21.2886 5.52482 20.7661 3.87402 19.5241 2.66233L17.4291 4.80967ZM18.2886 7.384V8.92H21.2886V7.384H18.2886ZM18.2886 8.92C18.2886 8.88078 18.2994 8.57586 18.584 8.29134C18.8685 8.00682 19.1734 7.996 19.2126 7.996V10.996C19.6358 10.996 20.2288 10.8892 20.7053 10.4127C21.1818 9.93614 21.2886 9.34322 21.2886 8.92H18.2886ZM19.2126 7.996H17.1966V10.996H19.2126V7.996ZM17.1966 7.996C17.2691 7.996 17.5932 8.01935 17.8791 8.32206C18.1498 8.60869 18.1526 8.90148 18.1526 8.92H15.1526C15.1526 9.32252 15.2461 9.90331 15.6981 10.3819C16.1653 10.8766 16.7615 10.996 17.1966 10.996V7.996ZM18.1526 8.92V7.512H15.1526V8.92H18.1526ZM18.1526 7.512C18.1526 6.5016 17.9072 5.46639 17.1517 4.68997C16.3889 3.90592 15.3584 3.644 14.3486 3.644V6.644C14.8748 6.644 14.9964 6.77675 15.0015 6.78203C15.0141 6.79494 15.1526 6.94373 15.1526 7.512H18.1526ZM14.3486 3.644H11.5646V6.644H14.3486V3.644ZM11.5646 3.644C10.5548 3.644 9.52439 3.90592 8.76154 4.68997C8.0061 5.46639 7.76063 6.5016 7.76063 7.512H10.7606C10.7606 6.94373 10.8992 6.79494 10.9117 6.78203C10.9169 6.77675 11.0384 6.644 11.5646 6.644V3.644ZM7.76063 7.512V17.912H10.7606V7.512H7.76063ZM7.76063 17.912C7.76063 18.9224 8.0061 19.9576 8.76154 20.734C9.52439 21.5181 10.5548 21.78 11.5646 21.78V18.78C11.0384 18.78 10.9169 18.6473 10.9117 18.642C10.8992 18.6291 10.7606 18.4803 10.7606 17.912H7.76063ZM11.5646 21.78H14.3486V18.78H11.5646V21.78ZM14.3486 21.78C15.3584 21.78 16.3889 21.5181 17.1517 20.734C17.9072 19.9576 18.1526 18.9224 18.1526 17.912H15.1526C15.1526 18.4803 15.0141 18.6291 15.0015 18.642C14.9964 18.6473 14.8748 18.78 14.3486 18.78V21.78ZM18.1526 17.912V16.504H15.1526V17.912H18.1526ZM18.1526 16.504C18.1526 16.5225 18.1498 16.8153 17.8791 17.1019C17.5932 17.4046 17.2691 17.428 17.1966 17.428V14.428C16.7615 14.428 16.1653 14.5474 15.6981 15.0421C15.2461 15.5207 15.1526 16.1015 15.1526 16.504H18.1526ZM17.1966 17.428H19.2126V14.428H17.1966V17.428ZM19.2126 17.428C19.1734 17.428 18.8685 17.4172 18.584 17.1327C18.2994 16.8481 18.2886 16.5432 18.2886 16.504H21.2886C21.2886 16.0808 21.1818 15.4879 20.7053 15.0113C20.2288 14.5348 19.6358 14.428 19.2126 14.428V17.428ZM18.2886 16.504V18.04H21.2886V16.504H18.2886ZM18.2886 18.04C18.2886 19.3081 17.9409 20.1024 17.416 20.6273L19.5373 22.7487C20.7617 21.5242 21.2886 19.8866 21.2886 18.04H18.2886ZM17.416 20.6273C16.8911 21.1522 16.0967 21.5 14.8286 21.5V24.5C16.6752 24.5 18.3129 23.9731 19.5373 22.7487L17.416 20.6273ZM24.3979 21.688L23.3242 22.7355L23.3307 22.7421L23.3372 22.7487L24.3979 21.688ZM24.3979 7.992L25.4585 9.05266L25.4585 9.05266L24.3979 7.992ZM34.5419 7.992L33.4812 9.05266L33.4941 9.06559L33.5074 9.07821L34.5419 7.992ZM34.5419 21.688L33.4941 20.6146L33.4876 20.621L33.4812 20.6273L34.5419 21.688ZM26.7659 9.976L27.8265 11.0367L27.8417 11.0215L27.8564 11.0059L26.7659 9.976ZM26.7659 19.736L25.6754 20.7659L25.6901 20.7815L25.7052 20.7967L26.7659 19.736ZM30.8939 21.5H28.0779V24.5H30.8939V21.5ZM28.0779 21.5C26.7818 21.5 25.9797 21.1485 25.4585 20.6273L23.3372 22.7487C24.5654 23.9768 26.2167 24.5 28.0779 24.5V21.5ZM25.4715 20.6405C24.9611 20.1173 24.6179 19.3182 24.6179 18.04H21.6179C21.6179 19.8764 22.128 21.5094 23.3242 22.7355L25.4715 20.6405ZM24.6179 18.04V11.64H21.6179V18.04H24.6179ZM24.6179 11.64C24.6179 10.3317 24.9654 9.54581 25.4585 9.05266L23.3372 6.93134C22.1237 8.14486 21.6179 9.79101 21.6179 11.64H24.6179ZM25.4585 9.05266C25.9797 8.53149 26.7818 8.18 28.0779 8.18V5.18C26.2167 5.18 24.5654 5.70318 23.3372 6.93134L25.4585 9.05266ZM28.0779 8.18H30.8939V5.18H28.0779V8.18ZM30.8939 8.18C32.162 8.18 32.9563 8.52775 33.4812 9.05266L35.6025 6.93134C34.3781 5.70692 32.7405 5.18 30.8939 5.18V8.18ZM33.5074 9.07821C34.0293 9.57529 34.3859 10.3521 34.3859 11.64H37.3859C37.3859 9.77054 36.8464 8.11538 35.5764 6.90579L33.5074 9.07821ZM34.3859 11.64V18.04H37.3859V11.64H34.3859ZM34.3859 18.04C34.3859 19.2978 34.0338 20.0878 33.4941 20.6146L35.5897 22.7614C36.842 21.5389 37.3859 19.8968 37.3859 18.04H34.3859ZM33.4812 20.6273C32.9563 21.1522 32.162 21.5 30.8939 21.5V24.5C32.7405 24.5 34.3781 23.9731 35.6025 22.7487L33.4812 20.6273ZM28.5259 21.78H30.4779V18.78H28.5259V21.78ZM30.4779 21.78C31.4824 21.78 32.5101 21.5237 33.2738 20.7493C34.0338 19.9788 34.2819 18.9487 34.2819 17.944H31.2819C31.2819 18.4966 31.146 18.6345 31.1379 18.6427C31.1337 18.647 31.0094 18.78 30.4779 18.78V21.78ZM34.2819 17.944V11.736H31.2819V17.944H34.2819ZM34.2819 11.736C34.2819 10.7313 34.0338 9.70121 33.2738 8.93068C32.5101 8.15634 31.4824 7.9 30.4779 7.9V10.9C31.0094 10.9 31.1337 11.033 31.1379 11.0373C31.146 11.0455 31.2819 11.1834 31.2819 11.736H34.2819ZM30.4779 7.9H28.5259V10.9H30.4779V7.9ZM28.5259 7.9C27.5205 7.9 26.4426 8.13372 25.6754 8.94606L27.8564 11.0059C27.8145 11.0503 27.9099 10.9 28.5259 10.9V7.9ZM25.7052 8.91534C24.9352 9.6854 24.7219 10.7509 24.7219 11.736H27.7219C27.7219 11.4358 27.7562 11.2433 27.791 11.131C27.8237 11.025 27.8487 11.0145 27.8265 11.0367L25.7052 8.91534ZM24.7219 11.736V17.944H27.7219V11.736H24.7219ZM24.7219 17.944C24.7219 18.9388 24.9392 19.9865 25.6754 20.7659L27.8564 18.7061C27.8564 18.706 27.856 18.7057 27.8554 18.7049C27.8548 18.7042 27.8538 18.7029 27.8524 18.7011C27.8498 18.6974 27.8454 18.6909 27.8398 18.6807C27.8285 18.6603 27.8112 18.6235 27.7932 18.5643C27.756 18.4418 27.7219 18.2432 27.7219 17.944H24.7219ZM25.7052 20.7967C26.4753 21.5667 27.5408 21.78 28.5259 21.78V18.78C28.2257 18.78 28.0332 18.7456 27.9208 18.7109C27.8149 18.6782 27.8044 18.6532 27.8265 18.6753L25.7052 20.7967ZM42.6669 8.376H41.1669V9.876H42.6669V8.376ZM42.7949 8.376V9.876H43.7623L44.1613 8.99476L42.7949 8.376ZM51.0189 7.96L52.0929 6.91285L52.0929 6.91285L51.0189 7.96ZM42.1229 21.5H40.1069V24.5H42.1229V21.5ZM40.1069 21.5C40.1568 21.5 40.4697 21.5135 40.7595 21.8033C41.0494 22.0932 41.0629 22.4061 41.0629 22.456H38.0629C38.0629 22.8686 38.167 23.4535 38.6382 23.9247C39.1094 24.3958 39.6943 24.5 40.1069 24.5V21.5ZM41.0629 22.456V7.224H38.0629V22.456H41.0629ZM41.0629 7.224C41.0629 7.27388 41.0494 7.58681 40.7595 7.87666C40.4697 8.16651 40.1568 8.18 40.1069 8.18V5.18C39.6943 5.18 39.1094 5.28415 38.6382 5.75534C38.167 6.22653 38.0629 6.81145 38.0629 7.224H41.0629ZM40.1069 8.18H42.1229V5.18H40.1069V8.18ZM42.1229 8.18C42.073 8.18 41.7601 8.16651 41.4702 7.87666C41.1804 7.58681 41.1669 7.27388 41.1669 7.224H44.1669C44.1669 6.81145 44.0627 6.22653 43.5915 5.75534C43.1203 5.28415 42.5354 5.18 42.1229 5.18V8.18ZM41.1669 7.224V8.376H44.1669V7.224H41.1669ZM42.6669 9.876H42.7949V6.876H42.6669V9.876ZM44.1613 8.99476C44.3487 8.58103 44.7456 8.18 46.0269 8.18V5.18C44.0228 5.18 42.2651 5.90963 41.4284 7.75724L44.1613 8.99476ZM46.0269 8.18H47.4349V5.18H46.0269V8.18ZM47.4349 8.18C48.7174 8.18 49.4744 8.52458 49.9449 9.00715L52.0929 6.91285C50.8994 5.68875 49.2671 5.18 47.4349 5.18V8.18ZM49.9449 9.00715C50.4208 9.49526 50.7669 10.2937 50.7669 11.64H53.7669C53.7669 9.78632 53.281 8.13141 52.0929 6.91285L49.9449 9.00715ZM50.7669 11.64V22.456H53.7669V11.64H50.7669ZM50.7669 22.456C50.7669 22.3835 50.7902 22.0594 51.0929 21.7735C51.3796 21.5028 51.6724 21.5 51.6909 21.5V24.5C52.0934 24.5 52.6742 24.4066 53.1528 23.9545C53.6475 23.4873 53.7669 22.8912 53.7669 22.456H50.7669ZM51.6909 21.5H49.6749V24.5H51.6909V21.5ZM49.6749 21.5C49.7248 21.5 50.0377 21.5135 50.3275 21.8033C50.6174 22.0932 50.6309 22.4061 50.6309 22.456H47.6309C47.6309 22.8686 47.735 23.4535 48.2062 23.9247C48.6774 24.3958 49.2623 24.5 49.6749 24.5V21.5ZM50.6309 22.456V11.768H47.6309V22.456H50.6309ZM50.6309 11.768C50.6309 10.7525 50.3801 9.71443 49.6147 8.93858C48.8456 8.15896 47.81 7.9 46.7949 7.9V10.9C47.3371 10.9 47.4694 11.0357 47.479 11.0454C47.4923 11.0589 47.6309 11.2048 47.6309 11.768H50.6309ZM46.7949 7.9H45.2909V10.9H46.7949V7.9ZM45.2909 7.9C44.171 7.9 43.0589 8.19314 42.2433 9.03856C41.4374 9.87395 41.1669 10.9953 41.1669 12.12H44.1669C44.1669 11.4313 44.3337 11.1927 44.4024 11.1214C44.4615 11.0602 44.6614 10.9 45.2909 10.9V7.9ZM41.1669 12.12V22.456H44.1669V12.12H41.1669ZM41.1669 22.456C41.1669 22.4061 41.1804 22.0932 41.4702 21.8033C41.7601 21.5135 42.073 21.5 42.1229 21.5V24.5C42.5354 24.5 43.1203 24.3958 43.5915 23.9247C44.0627 23.4535 44.1669 22.8686 44.1669 22.456H41.1669ZM54.5901 9.304L53.3901 10.204L53.5187 10.3754L53.6901 10.504L54.5901 9.304ZM58.2381 21.72L59.2726 20.6338L59.2726 20.6338L58.2381 21.72ZM56.5741 7.9H55.0381V10.9H56.5741V7.9ZM55.0381 7.9C54.9989 7.9 55.0202 7.89638 55.0804 7.9093C55.133 7.92057 55.301 7.96214 55.4901 8.104L53.6901 10.504C54.1904 10.8792 54.7717 10.9 55.0381 10.9V7.9ZM55.7901 8.404C55.918 8.57455 55.9636 8.72886 55.9797 8.79871C55.9963 8.87072 55.9941 8.90708 55.9941 8.888H52.9941C52.9941 9.17619 53.0286 9.72191 53.3901 10.204L55.7901 8.404ZM55.9941 8.888V7.224H52.9941V8.888H55.9941ZM55.9941 7.224C55.9941 7.27388 55.9806 7.58681 55.6908 7.87666C55.4009 8.16651 55.088 8.18 55.0381 8.18V5.18C54.6256 5.18 54.0407 5.28415 53.5695 5.75534C53.0983 6.22653 52.9941 6.81145 52.9941 7.224H55.9941ZM55.0381 8.18H56.5741V5.18H55.0381V8.18ZM56.5741 8.18C56.912 8.18 57.4409 8.09451 57.8748 7.66066C58.3086 7.22681 58.3941 6.69788 58.3941 6.36H55.3941C55.3941 6.23545 55.4263 5.86652 55.7535 5.53934C56.0807 5.21215 56.4496 5.18 56.5741 5.18V8.18ZM58.3941 6.36V3.48H55.3941V6.36H58.3941ZM58.3941 3.48C58.3941 3.55248 58.3708 3.87662 58.0681 4.16252C57.7814 4.43322 57.4886 4.436 57.4701 4.436V1.436C57.0676 1.436 56.4868 1.52944 56.0082 1.98148C55.5135 2.44871 55.3941 3.04485 55.3941 3.48H58.3941ZM57.4701 4.436H59.4861V1.436H57.4701V4.436ZM59.4861 4.436C59.4362 4.436 59.1233 4.42251 58.8335 4.13266C58.5436 3.84281 58.5301 3.52988 58.5301 3.48H61.5301C61.5301 3.06745 61.426 2.48253 60.9548 2.01134C60.4836 1.54015 59.8987 1.436 59.4861 1.436V4.436ZM58.5301 3.48V6.36H61.5301V3.48H58.5301ZM58.5301 6.36C58.5301 6.73668 58.6403 7.2837 59.1091 7.70991C59.5508 8.11146 60.0671 8.18 60.3821 8.18V5.18C60.4625 5.18 60.8028 5.1952 61.1271 5.49009C61.4786 5.80963 61.5301 6.19665 61.5301 6.36H58.5301ZM60.3821 8.18H63.3581V5.18H60.3821V8.18ZM63.3581 8.18C63.3396 8.18 63.0468 8.17722 62.7602 7.90652C62.4575 7.62062 62.4341 7.29648 62.4341 7.224H65.4341C65.4341 6.78885 65.3148 6.19271 64.8201 5.72548C64.3414 5.27344 63.7607 5.18 63.3581 5.18V8.18ZM62.4341 7.224V8.888H65.4341V7.224H62.4341ZM62.4341 8.888C62.4341 8.77869 62.473 8.43585 62.7936 8.15089C62.9357 8.02452 63.0804 7.9605 63.184 7.9298C63.2826 7.9006 63.3478 7.9 63.3581 7.9V10.9C63.7407 10.9 64.3078 10.8188 64.7867 10.3931C65.2993 9.93748 65.4341 9.33864 65.4341 8.888H62.4341ZM63.3581 7.9H60.3821V10.9H63.3581V7.9ZM60.3821 7.9C60.0671 7.9 59.5508 7.96854 59.1091 8.37009C58.6403 8.79629 58.5301 9.34332 58.5301 9.72H61.5301C61.5301 9.88334 61.4786 10.2704 61.1271 10.5899C60.8028 10.8848 60.4625 10.9 60.3821 10.9V7.9ZM58.5301 9.72V17.944H61.5301V9.72H58.5301ZM58.5301 17.944C58.5301 18.9643 58.7946 20.0027 59.5839 20.7709C60.3656 21.5318 61.4089 21.78 62.4301 21.78V18.78C61.8513 18.78 61.6946 18.6389 61.6764 18.6211C61.6656 18.6107 61.5301 18.481 61.5301 17.944H58.5301ZM62.4301 21.78H63.6781V18.78H62.4301V21.78ZM63.6781 21.78C63.6596 21.78 63.3668 21.7772 63.0802 21.5065C62.7775 21.2206 62.7541 20.8965 62.7541 20.824H65.7541C65.7541 20.3888 65.6348 19.7927 65.1401 19.3255C64.6614 18.8734 64.0806 18.78 63.6781 18.78V21.78ZM62.7541 20.824V22.488H65.7541V20.824H62.7541ZM62.7541 22.488C62.7541 22.3787 62.793 22.0359 63.1136 21.7509C63.2557 21.6245 63.4004 21.5605 63.504 21.5298C63.6026 21.5006 63.6678 21.5 63.6781 21.5V24.5C64.0607 24.5 64.6278 24.4188 65.1067 23.9931C65.6193 23.5375 65.7541 22.9386 65.7541 22.488H62.7541ZM63.6781 21.5H61.9501V24.5H63.6781V21.5ZM61.9501 21.5C60.646 21.5 59.8187 21.1539 59.2726 20.6338L57.2036 22.8062C58.4495 23.9928 60.0969 24.5 61.9501 24.5V21.5ZM59.2726 20.6338C58.7467 20.1329 58.3941 19.3636 58.3941 18.104H55.3941C55.3941 19.9591 55.9376 21.6004 57.2036 22.8062L59.2726 20.6338ZM58.3941 18.104V9.72H55.3941V18.104H58.3941ZM58.3941 9.72C58.3941 9.38212 58.3086 8.85319 57.8748 8.41934C57.4409 7.98549 56.912 7.9 56.5741 7.9V10.9C56.4496 10.9 56.0807 10.8678 55.7535 10.5407C55.4263 10.2135 55.3941 9.84455 55.3941 9.72H58.3941ZM68.2729 21.688L67.1992 22.7355L67.2057 22.7421L67.2122 22.7487L68.2729 21.688ZM68.2729 7.992L69.3335 9.05266L69.3335 9.05266L68.2729 7.992ZM76.5609 21.304H78.0609V19.804H76.5609V21.304ZM76.4329 21.304V19.804H75.4655L75.0664 20.6852L76.4329 21.304ZM73.2009 21.5H71.9529V24.5H73.2009V21.5ZM71.9529 21.5C70.6568 21.5 69.8547 21.1485 69.3335 20.6273L67.2122 22.7487C68.4404 23.9768 70.0917 24.5 71.9529 24.5V21.5ZM69.3465 20.6405C68.8361 20.1173 68.4929 19.3182 68.4929 18.04H65.4929C65.4929 19.8764 66.003 21.5094 67.1992 22.7355L69.3465 20.6405ZM68.4929 18.04V11.64H65.4929V18.04H68.4929ZM68.4929 11.64C68.4929 10.3317 68.8404 9.54581 69.3335 9.05266L67.2122 6.93134C65.9987 8.14486 65.4929 9.79101 65.4929 11.64H68.4929ZM69.3335 9.05266C69.8547 8.53149 70.6568 8.18 71.9529 8.18V5.18C70.0917 5.18 68.4404 5.70318 67.2122 6.93134L69.3335 9.05266ZM71.9529 8.18H79.1209V5.18H71.9529V8.18ZM79.1209 8.18C79.1024 8.18 78.8096 8.17722 78.5229 7.90652C78.2202 7.62062 78.1969 7.29648 78.1969 7.224H81.1969C81.1969 6.78885 81.0775 6.19271 80.5828 5.72548C80.1042 5.27344 79.5234 5.18 79.1209 5.18V8.18ZM78.1969 7.224V22.456H81.1969V7.224H78.1969ZM78.1969 22.456C78.1969 22.3835 78.2202 22.0594 78.5229 21.7735C78.8096 21.5028 79.1024 21.5 79.1209 21.5V24.5C79.5234 24.5 80.1042 24.4066 80.5828 23.9545C81.0775 23.4873 81.1969 22.8912 81.1969 22.456H78.1969ZM79.1209 21.5H77.1049V24.5H79.1209V21.5ZM77.1049 21.5C77.1548 21.5 77.4677 21.5135 77.7575 21.8033C78.0474 22.0932 78.0609 22.4061 78.0609 22.456H75.0609C75.0609 22.8686 75.165 23.4535 75.6362 23.9247C76.1074 24.3958 76.6923 24.5 77.1049 24.5V21.5ZM78.0609 22.456V21.304H75.0609V22.456H78.0609ZM76.5609 19.804H76.4329V22.804H76.5609V19.804ZM75.0664 20.6852C74.8791 21.099 74.4822 21.5 73.2009 21.5V24.5C75.2049 24.5 76.9627 23.7704 77.7993 21.9228L75.0664 20.6852ZM78.0609 17.56V9.72H75.0609V17.56H78.0609ZM78.0609 9.72C78.0609 9.34332 77.9507 8.79629 77.4819 8.37009C77.0402 7.96854 76.5239 7.9 76.2089 7.9V10.9C76.1285 10.9 75.7882 10.8848 75.4639 10.5899C75.1124 10.2704 75.0609 9.88334 75.0609 9.72H78.0609ZM76.2089 7.9H72.4009V10.9H76.2089V7.9ZM72.4009 7.9C71.3911 7.9 70.3606 8.16192 69.5978 8.94597C68.8423 9.72239 68.5969 10.7576 68.5969 11.768H71.5969C71.5969 11.1997 71.7354 11.0509 71.748 11.038C71.7531 11.0327 71.8747 10.9 72.4009 10.9V7.9ZM68.5969 11.768V17.912H71.5969V11.768H68.5969ZM68.5969 17.912C68.5969 18.9224 68.8423 19.9576 69.5978 20.734C70.3606 21.5181 71.3911 21.78 72.4009 21.78V18.78C71.8747 18.78 71.7531 18.6473 71.748 18.642C71.7354 18.6291 71.5969 18.4803 71.5969 17.912H68.5969ZM72.4009 21.78H73.9369V18.78H72.4009V21.78ZM73.9369 21.78C75.0567 21.78 76.1688 21.4869 76.9844 20.6414C77.7903 19.806 78.0609 18.6847 78.0609 17.56H75.0609C75.0609 18.2487 74.8941 18.4873 74.8253 18.5586C74.7663 18.6198 74.5663 18.78 73.9369 18.78V21.78ZM84.6479 21.688L83.5742 22.7355L83.5807 22.7421L83.5872 22.7487L84.6479 21.688ZM84.6479 7.992L85.7085 9.05266L85.7085 9.05266L84.6479 7.992ZM92.1079 20.824V22.488H95.1079V20.824H92.1079ZM92.1079 22.488C92.1079 22.3787 92.1467 22.0359 92.4673 21.7509C92.6095 21.6245 92.7541 21.5605 92.8577 21.5298C92.9563 21.5006 93.0216 21.5 93.0319 21.5V24.5C93.4144 24.5 93.9815 24.4188 94.4604 23.9931C94.973 23.5375 95.1079 22.9386 95.1079 22.488H92.1079ZM93.0319 21.5H88.3279V24.5H93.0319V21.5ZM88.3279 21.5C87.0318 21.5 86.2297 21.1485 85.7085 20.6273L83.5872 22.7487C84.8154 23.9768 86.4667 24.5 88.3279 24.5V21.5ZM85.7215 20.6405C85.2111 20.1173 84.8679 19.3182 84.8679 18.04H81.8679C81.8679 19.8764 82.378 21.5094 83.5742 22.7355L85.7215 20.6405ZM84.8679 18.04V11.64H81.8679V18.04H84.8679ZM84.8679 11.64C84.8679 10.3317 85.2154 9.54581 85.7085 9.05266L83.5872 6.93134C82.3737 8.14486 81.8679 9.79101 81.8679 11.64H84.8679ZM85.7085 9.05266C86.2297 8.53149 87.0318 8.18 88.3279 8.18V5.18C86.4667 5.18 84.8154 5.70318 83.5872 6.93134L85.7085 9.05266ZM88.3279 8.18H93.0319V5.18H88.3279V8.18ZM93.0319 8.18C93.0134 8.18 92.7206 8.17722 92.4339 7.90652C92.1312 7.62062 92.1079 7.29648 92.1079 7.224H95.1079C95.1079 6.78885 94.9885 6.19271 94.4938 5.72548C94.0152 5.27344 93.4344 5.18 93.0319 5.18V8.18ZM92.1079 7.224V8.888H95.1079V7.224H92.1079ZM92.1079 8.888C92.1079 8.77869 92.1467 8.43585 92.4673 8.15089C92.6095 8.02452 92.7541 7.9605 92.8577 7.9298C92.9563 7.9006 93.0216 7.9 93.0319 7.9V10.9C93.4144 10.9 93.9815 10.8188 94.4604 10.3931C94.973 9.93748 95.1079 9.33864 95.1079 8.888H92.1079ZM93.0319 7.9H88.7759V10.9H93.0319V7.9ZM88.7759 7.9C87.7661 7.9 86.7356 8.16192 85.9728 8.94597C85.2173 9.72239 84.9719 10.7576 84.9719 11.768H87.9719C87.9719 11.1997 88.1104 11.0509 88.123 11.038C88.1281 11.0327 88.2497 10.9 88.7759 10.9V7.9ZM84.9719 11.768V17.912H87.9719V11.768H84.9719ZM84.9719 17.912C84.9719 18.9224 85.2173 19.9576 85.9728 20.734C86.7356 21.5181 87.7661 21.78 88.7759 21.78V18.78C88.2497 18.78 88.1281 18.6473 88.123 18.642C88.1104 18.6291 87.9719 18.4803 87.9719 17.912H84.9719ZM88.7759 21.78H93.0319V18.78H88.7759V21.78ZM93.0319 21.78C93.0134 21.78 92.7206 21.7772 92.4339 21.5065C92.1312 21.2206 92.1079 20.8965 92.1079 20.824H95.1079C95.1079 20.3888 94.9885 19.7927 94.4938 19.3255C94.0152 18.8734 93.4344 18.78 93.0319 18.78V21.78ZM95.1526 9.304L93.9526 10.204L94.0812 10.3754L94.2526 10.504L95.1526 9.304ZM98.8006 21.72L99.8351 20.6338L99.8351 20.6338L98.8006 21.72ZM97.1366 7.9H95.6006V10.9H97.1366V7.9ZM95.6006 7.9C95.5614 7.9 95.5827 7.89638 95.6429 7.9093C95.6955 7.92057 95.8635 7.96214 96.0526 8.104L94.2526 10.504C94.7529 10.8792 95.3342 10.9 95.6006 10.9V7.9ZM96.3526 8.404C96.4805 8.57455 96.5261 8.72886 96.5422 8.79871C96.5588 8.87072 96.5566 8.90708 96.5566 8.888H93.5566C93.5566 9.17619 93.5911 9.72191 93.9526 10.204L96.3526 8.404ZM96.5566 8.888V7.224H93.5566V8.888H96.5566ZM96.5566 7.224C96.5566 7.27388 96.5431 7.58681 96.2533 7.87666C95.9634 8.16651 95.6505 8.18 95.6006 8.18V5.18C95.1881 5.18 94.6032 5.28415 94.132 5.75534C93.6608 6.22653 93.5566 6.81145 93.5566 7.224H96.5566ZM95.6006 8.18H97.1366V5.18H95.6006V8.18ZM97.1366 8.18C97.4745 8.18 98.0034 8.09451 98.4373 7.66066C98.8711 7.22681 98.9566 6.69788 98.9566 6.36H95.9566C95.9566 6.23545 95.9888 5.86652 96.316 5.53934C96.6432 5.21215 97.0121 5.18 97.1366 5.18V8.18ZM98.9566 6.36V3.48H95.9566V6.36H98.9566ZM98.9566 3.48C98.9566 3.55248 98.9333 3.87662 98.6306 4.16252C98.3439 4.43322 98.0511 4.436 98.0326 4.436V1.436C97.6301 1.436 97.0493 1.52944 96.5707 1.98148C96.076 2.44871 95.9566 3.04485 95.9566 3.48H98.9566ZM98.0326 4.436H100.049V1.436H98.0326V4.436ZM100.049 4.436C99.9987 4.436 99.6858 4.42251 99.396 4.13266C99.1061 3.84281 99.0926 3.52988 99.0926 3.48H102.093C102.093 3.06745 101.988 2.48253 101.517 2.01134C101.046 1.54015 100.461 1.436 100.049 1.436V4.436ZM99.0926 3.48V6.36H102.093V3.48H99.0926ZM99.0926 6.36C99.0926 6.73668 99.2028 7.2837 99.6716 7.70991C100.113 8.11146 100.63 8.18 100.945 8.18V5.18C101.025 5.18 101.365 5.1952 101.69 5.49009C102.041 5.80963 102.093 6.19665 102.093 6.36H99.0926ZM100.945 8.18H103.921V5.18H100.945V8.18ZM103.921 8.18C103.902 8.18 103.609 8.17722 103.323 7.90652C103.02 7.62062 102.997 7.29648 102.997 7.224H105.997C105.997 6.78885 105.877 6.19271 105.383 5.72548C104.904 5.27344 104.323 5.18 103.921 5.18V8.18ZM102.997 7.224V8.888H105.997V7.224H102.997ZM102.997 8.888C102.997 8.77869 103.035 8.43585 103.356 8.15089C103.498 8.02452 103.643 7.9605 103.746 7.9298C103.845 7.9006 103.91 7.9 103.921 7.9V10.9C104.303 10.9 104.87 10.8188 105.349 10.3931C105.862 9.93748 105.997 9.33864 105.997 8.888H102.997ZM103.921 7.9H100.945V10.9H103.921V7.9ZM100.945 7.9C100.63 7.9 100.113 7.96854 99.6716 8.37009C99.2028 8.79629 99.0926 9.34332 99.0926 9.72H102.093C102.093 9.88334 102.041 10.2704 101.69 10.5899C101.365 10.8848 101.025 10.9 100.945 10.9V7.9ZM99.0926 9.72V17.944H102.093V9.72H99.0926ZM99.0926 17.944C99.0926 18.9643 99.3571 20.0027 100.146 20.7709C100.928 21.5318 101.971 21.78 102.993 21.78V18.78C102.414 18.78 102.257 18.6389 102.239 18.6211C102.228 18.6107 102.093 18.481 102.093 17.944H99.0926ZM102.993 21.78H104.241V18.78H102.993V21.78ZM104.241 21.78C104.222 21.78 103.929 21.7772 103.643 21.5065C103.34 21.2206 103.317 20.8965 103.317 20.824H106.317C106.317 20.3888 106.197 19.7927 105.703 19.3255C105.224 18.8734 104.643 18.78 104.241 18.78V21.78ZM103.317 20.824V22.488H106.317V20.824H103.317ZM103.317 22.488C103.317 22.3787 103.355 22.0359 103.676 21.7509C103.818 21.6245 103.963 21.5605 104.066 21.5298C104.165 21.5006 104.23 21.5 104.241 21.5V24.5C104.623 24.5 105.19 24.4188 105.669 23.9931C106.182 23.5375 106.317 22.9386 106.317 22.488H103.317ZM104.241 21.5H102.513V24.5H104.241V21.5ZM102.513 21.5C101.208 21.5 100.381 21.1539 99.8351 20.6338L97.7661 22.8062C99.012 23.9928 100.659 24.5 102.513 24.5V21.5ZM99.8351 20.6338C99.3092 20.1329 98.9566 19.3636 98.9566 18.104H95.9566C95.9566 19.9591 96.5001 21.6004 97.7661 22.8062L99.8351 20.6338ZM98.9566 18.104V9.72H95.9566V18.104H98.9566ZM98.9566 9.72C98.9566 9.38212 98.8711 8.85319 98.4373 8.41934C98.0034 7.98549 97.4745 7.9 97.1366 7.9V10.9C97.0121 10.9 96.6432 10.8678 96.316 10.5407C95.9888 10.2135 95.9566 9.84455 95.9566 9.72H98.9566Z" fill="url(#paint0_linear_25_21)"/>
</g>
<defs>
<filter id="filter0_d_25_21" x="0.656616" y="0.924011" width="109.66" height="31.576" filterUnits="userSpaceOnUse" color-interpolation-filters="sRGB">
<feFlood flood-opacity="0" result="BackgroundImageFix"/>
<feColorMatrix in="SourceAlpha" type="matrix" values="0 0 0 0 0 0 0 0 0 0 0 0 0 0 0 0 0 0 127 0" result="hardAlpha"/>
<feOffset dy="4"/>
<feGaussianBlur stdDeviation="2"/>
<feComposite in2="hardAlpha" operator="out"/>
<feColorMatrix type="matrix" values="0 0 0 0 0 0 0 0 0 0 0 0 0 0 0 0 0 0 0.25 0"/>
<feBlend mode="normal" in2="BackgroundImageFix" result="effect1_dropShadow_25_21"/>
<feBlend mode="normal" in="SourceGraphic" in2="effect1_dropShadow_25_21" result="shape"/>
</filter>
<linearGradient id="paint0_linear_25_21" x1="55" y1="-7" x2="55" y2="34" gradientUnits="userSpaceOnUse">
<stop stop-color="#C6EBFA"/>
<stop offset="1" stop-color="#C9EDFB"/>
</linearGradient>
</defs>
</svg>
