<svg width="43" height="33" viewBox="0 0 43 33" fill="none" xmlns="http://www.w3.org/2000/svg">
<g  filter="url(#filter0_d_18_31)">
<path d="M14.8443 23H11.1323C9.55358 23 8.32692 22.5627 7.45225 21.688C6.59892 20.8133 6.17225 19.5973 6.17225 18.04V7.384C6.17225 5.80533 6.59892 4.58933 7.45225 3.736C8.32692 2.86133 9.55358 2.424 11.1323 2.424H14.8443C16.4016 2.424 17.6176 2.86133 18.4923 3.736C19.3669 4.58933 19.8043 5.80533 19.8043 7.384V8.92C19.8043 9.304 19.6123 9.496 19.2283 9.496H17.2123C16.8496 9.496 16.6683 9.304 16.6683 8.92V7.512C16.6683 5.93333 15.9003 5.144 14.3643 5.144H11.5803C10.0443 5.144 9.27625 5.93333 9.27625 7.512V17.912C9.27625 19.4907 10.0443 20.28 11.5803 20.28H14.3643C15.9003 20.28 16.6683 19.4907 16.6683 17.912V16.504C16.6683 16.12 16.8496 15.928 17.2123 15.928H19.2283C19.6123 15.928 19.8043 16.12 19.8043 16.504V18.04C19.8043 19.5973 19.3669 20.8133 18.4923 21.688C17.6176 22.5627 16.4016 23 14.8443 23ZM31.2615 23H28.0935C27.7308 23 27.5068 22.8187 27.4215 22.456L22.1095 3.032C21.9815 2.62667 22.1415 2.424 22.5895 2.424H24.8615C25.2028 2.424 25.4055 2.60533 25.4695 2.968L29.5975 19.672H29.7255L33.8215 2.968C33.9068 2.60533 34.1202 2.424 34.4615 2.424H36.7015C37.1495 2.424 37.3202 2.62667 37.2135 3.032L31.8695 22.456C31.7842 22.8187 31.5815 23 31.2615 23Z" fill="#1A1A1A"/>
<path id="CV" d="M7.45225 21.688L6.37858 22.7355L6.38504 22.7421L6.39159 22.7487L7.45225 21.688ZM7.45225 3.736L6.39159 2.67534L6.39159 2.67534L7.45225 3.736ZM18.4923 3.736L17.4316 4.79666L17.4381 4.80321L17.4448 4.80967L18.4923 3.736ZM14.8443 21.5H11.1323V24.5H14.8443V21.5ZM11.1323 21.5C9.83613 21.5 9.03408 21.1485 8.51291 20.6273L6.39159 22.7487C7.61975 23.9768 9.27103 24.5 11.1323 24.5V21.5ZM8.52592 20.6405C8.01543 20.1173 7.67225 19.3182 7.67225 18.04H4.67225C4.67225 19.8764 5.18241 21.5094 6.37858 22.7355L8.52592 20.6405ZM7.67225 18.04V7.384H4.67225V18.04H7.67225ZM7.67225 7.384C7.67225 6.07566 8.01976 5.28981 8.51291 4.79666L6.39159 2.67534C5.17807 3.88886 4.67225 5.53501 4.67225 7.384H7.67225ZM8.51291 4.79666C9.03408 4.27549 9.83613 3.924 11.1323 3.924V0.924C9.27103 0.924 7.61975 1.44718 6.39159 2.67534L8.51291 4.79666ZM11.1323 3.924H14.8443V0.924H11.1323V3.924ZM14.8443 3.924C16.1123 3.924 16.9067 4.27175 17.4316 4.79666L19.5529 2.67534C18.3285 1.45092 16.6908 0.924 14.8443 0.924V3.924ZM17.4448 4.80967C17.9521 5.30464 18.3043 6.08584 18.3043 7.384H21.3043C21.3043 5.52482 20.7817 3.87402 19.5397 2.66233L17.4448 4.80967ZM18.3043 7.384V8.92H21.3043V7.384H18.3043ZM18.3043 8.92C18.3043 8.88078 18.3151 8.57586 18.5996 8.29134C18.8841 8.00682 19.189 7.996 19.2283 7.996V10.996C19.6515 10.996 20.2444 10.8892 20.7209 10.4127C21.1974 9.93614 21.3043 9.34322 21.3043 8.92H18.3043ZM19.2283 7.996H17.2123V10.996H19.2283V7.996ZM17.2123 7.996C17.2847 7.996 17.6089 8.01935 17.8948 8.32206C18.1655 8.60869 18.1683 8.90147 18.1683 8.92H15.1683C15.1683 9.32252 15.2617 9.90331 15.7137 10.3819C16.181 10.8766 16.7771 10.996 17.2123 10.996V7.996ZM18.1683 8.92V7.512H15.1683V8.92H18.1683ZM18.1683 7.512C18.1683 6.5016 17.9228 5.46639 17.1673 4.68997C16.4045 3.90592 15.3741 3.644 14.3643 3.644V6.644C14.8904 6.644 15.012 6.77675 15.0172 6.78203C15.0297 6.79494 15.1683 6.94373 15.1683 7.512H18.1683ZM14.3643 3.644H11.5803V6.644H14.3643V3.644ZM11.5803 3.644C10.5704 3.644 9.54002 3.90592 8.77716 4.68997C8.02172 5.46639 7.77625 6.5016 7.77625 7.512H10.7763C10.7763 6.94373 10.9148 6.79494 10.9273 6.78203C10.9325 6.77675 11.0541 6.644 11.5803 6.644V3.644ZM7.77625 7.512V17.912H10.7763V7.512H7.77625ZM7.77625 17.912C7.77625 18.9224 8.02172 19.9576 8.77716 20.734C9.54002 21.5181 10.5704 21.78 11.5803 21.78V18.78C11.0541 18.78 10.9325 18.6473 10.9273 18.642C10.9148 18.6291 10.7763 18.4803 10.7763 17.912H7.77625ZM11.5803 21.78H14.3643V18.78H11.5803V21.78ZM14.3643 21.78C15.3741 21.78 16.4045 21.5181 17.1673 20.734C17.9228 19.9576 18.1683 18.9224 18.1683 17.912H15.1683C15.1683 18.4803 15.0297 18.6291 15.0172 18.642C15.012 18.6473 14.8904 18.78 14.3643 18.78V21.78ZM18.1683 17.912V16.504H15.1683V17.912H18.1683ZM18.1683 16.504C18.1683 16.5225 18.1655 16.8153 17.8948 17.1019C17.6089 17.4046 17.2847 17.428 17.2123 17.428V14.428C16.7771 14.428 16.181 14.5473 15.7137 15.0421C15.2617 15.5207 15.1683 16.1015 15.1683 16.504H18.1683ZM17.2123 17.428H19.2283V14.428H17.2123V17.428ZM19.2283 17.428C19.189 17.428 18.8841 17.4172 18.5996 17.1327C18.3151 16.8481 18.3043 16.5432 18.3043 16.504H21.3043C21.3043 16.0808 21.1974 15.4879 20.7209 15.0113C20.2444 14.5348 19.6515 14.428 19.2283 14.428V17.428ZM18.3043 16.504V18.04H21.3043V16.504H18.3043ZM18.3043 18.04C18.3043 19.3081 17.9565 20.1024 17.4316 20.6273L19.5529 22.7487C20.7773 21.5242 21.3043 19.8866 21.3043 18.04H18.3043ZM17.4316 20.6273C16.9067 21.1523 16.1123 21.5 14.8443 21.5V24.5C16.6908 24.5 18.3285 23.9731 19.5529 22.7487L17.4316 20.6273ZM27.4215 22.456L28.8816 22.1124L28.8755 22.0863L28.8684 22.0603L27.4215 22.456ZM22.1095 3.032L23.5564 2.63632L23.5487 2.60815L23.5399 2.5803L22.1095 3.032ZM25.4695 2.968L23.9923 3.22868L24.0011 3.27862L24.0133 3.32786L25.4695 2.968ZM29.5975 19.672L28.1413 20.0319L28.4231 21.172H29.5975V19.672ZM29.7255 19.672V21.172H30.9021L31.1823 20.0292L29.7255 19.672ZM33.8215 2.968L35.2784 3.32525L35.2816 3.31156L33.8215 2.968ZM37.2135 3.032L38.6598 3.4299L38.662 3.42183L38.6641 3.41374L37.2135 3.032ZM31.8695 22.456L30.4232 22.0581L30.4158 22.0851L30.4094 22.1124L31.8695 22.456ZM31.2615 21.5H28.0935V24.5H31.2615V21.5ZM28.0935 21.5C28.165 21.5 28.3793 21.5217 28.5973 21.6981C28.8109 21.8711 28.8706 22.0655 28.8816 22.1124L25.9614 22.7996C26.0577 23.2091 26.2721 23.6756 26.7097 24.0299C27.1517 24.3877 27.6594 24.5 28.0935 24.5V21.5ZM28.8684 22.0603L23.5564 2.63632L20.6626 3.42768L25.9746 22.8517L28.8684 22.0603ZM23.5399 2.5803C23.5421 2.58749 23.5738 2.68561 23.5654 2.84484C23.5561 3.02176 23.4957 3.27134 23.3108 3.50547C23.1303 3.73412 22.9162 3.84022 22.7818 3.88503C22.7162 3.9069 22.665 3.91607 22.6353 3.92006C22.6199 3.92214 22.6083 3.9231 22.6009 3.92355C22.5936 3.924 22.5896 3.924 22.5895 3.924V0.924C22.2318 0.924 21.4747 0.989755 20.9562 1.64653C20.4102 2.33806 20.5635 3.11763 20.6791 3.4837L23.5399 2.5803ZM22.5895 3.924H24.8615V0.924H22.5895V3.924ZM24.8615 3.924C24.7608 3.924 24.508 3.89145 24.2693 3.67786C24.0442 3.47649 23.9982 3.26196 23.9923 3.22868L26.9467 2.70732C26.8768 2.31137 26.6974 1.82484 26.2697 1.44214C25.8283 1.04722 25.3035 0.924 24.8615 0.924V3.924ZM24.0133 3.32786L28.1413 20.0319L31.0537 19.3121L26.9257 2.60813L24.0133 3.32786ZM29.5975 21.172H29.7255V18.172H29.5975V21.172ZM31.1823 20.0292L35.2783 3.32523L32.3647 2.61077L28.2687 19.3148L31.1823 20.0292ZM35.2816 3.31156C35.275 3.33977 35.2238 3.52711 35.017 3.70291C34.7965 3.89034 34.5657 3.924 34.4615 3.924V0.924C34.016 0.924 33.5079 1.04832 33.074 1.41709C32.6539 1.77422 32.4533 2.23356 32.3614 2.62444L35.2816 3.31156ZM34.4615 3.924H36.7015V0.924H34.4615V3.924ZM36.7015 3.924C36.7013 3.924 36.6976 3.924 36.6905 3.92356C36.6834 3.92313 36.6723 3.92222 36.6576 3.92025C36.6291 3.91644 36.5806 3.9078 36.5185 3.88746C36.3914 3.8458 36.1922 3.74892 36.0181 3.5422C35.8393 3.32985 35.7682 3.09797 35.7497 2.92303C35.7331 2.76503 35.7593 2.6638 35.7629 2.65026L38.6641 3.41374C38.7675 3.02068 38.8621 2.26207 38.3129 1.6098C37.7956 0.995498 37.0729 0.924 36.7015 0.924V3.924ZM35.7672 2.6341L30.4232 22.0581L33.3158 22.8539L38.6598 3.4299L35.7672 2.6341ZM30.4094 22.1124C30.4117 22.1026 30.4549 21.9236 30.6533 21.7461C30.8745 21.5483 31.1215 21.5 31.2615 21.5V24.5C31.7215 24.5 32.2299 24.3611 32.6537 23.9819C33.0547 23.623 33.242 23.172 33.3296 22.7996L30.4094 22.1124Z" fill="url(#paint0_linear_18_31)"/>
</g>
<defs>
<filter id="filter0_d_18_31" x="0.672241" y="0.924011" width="42.0712" height="31.576" filterUnits="userSpaceOnUse" color-interpolation-filters="sRGB">
<feFlood flood-opacity="0" result="BackgroundImageFix"/>
<feColorMatrix in="SourceAlpha" type="matrix" values="0 0 0 0 0 0 0 0 0 0 0 0 0 0 0 0 0 0 127 0" result="hardAlpha"/>
<feOffset dy="4"/>
<feGaussianBlur stdDeviation="2"/>
<feComposite in2="hardAlpha" operator="out"/>
<feColorMatrix type="matrix" values="0 0 0 0 0 0 0 0 0 0 0 0 0 0 0 0 0 0 0.25 0"/>
<feBlend mode="normal" in2="BackgroundImageFix" result="effect1_dropShadow_18_31"/>
<feBlend mode="normal" in="SourceGraphic" in2="effect1_dropShadow_18_31" result="shape"/>
</filter>
<linearGradient id="paint0_linear_18_31" x1="21" y1="-7" x2="21" y2="34" gradientUnits="userSpaceOnUse">
<stop stop-color="#C6EBFA"/>
<stop offset="1" stop-color="#C9EDFB"/>
</linearGradient>
</defs>
</svg>
