<svg width="100" height="39" viewBox="0 0 100 39" fill="none" xmlns="http://www.w3.org/2000/svg">
<g id="Project" filter="url(#filter0_d_18_23)">
<path d="M8.30225 24H6.28625C5.92358 24 5.74225 23.8187 5.74225 23.456V3.968C5.74225 3.60533 5.92358 3.424 6.28625 3.424H13.9023C15.4596 3.424 16.6756 3.86133 17.5503 4.736C18.4249 5.58933 18.8623 6.80533 18.8623 8.384V11.712C18.8623 13.2693 18.4249 14.4853 17.5503 15.36C16.6756 16.2347 15.4596 16.672 13.9023 16.672H9.23025C8.97425 16.672 8.84625 16.7787 8.84625 16.992V23.456C8.84625 23.8187 8.66492 24 8.30225 24ZM9.19825 13.92H13.4543C14.9689 13.92 15.7263 13.1307 15.7263 11.552V8.512C15.7263 6.93333 14.9689 6.144 13.4543 6.144H9.19825C8.96358 6.144 8.84625 6.25067 8.84625 6.464V13.6C8.84625 13.8133 8.96358 13.92 9.19825 13.92ZM24.8885 24H22.8725C22.5098 24 22.3285 23.8187 22.3285 23.456V8.224C22.3285 7.86133 22.5098 7.68 22.8725 7.68H24.8885C25.2512 7.68 25.4325 7.86133 25.4325 8.224V9.44H25.5605C25.7738 8.90667 26.1792 8.48 26.7765 8.16C27.3952 7.84 28.0778 7.68 28.8245 7.68H30.0085C30.3712 7.68 30.5525 7.86133 30.5525 8.224V9.888C30.5525 10.2933 30.3712 10.464 30.0085 10.4H28.0885C26.3178 10.4 25.4325 11.3707 25.4325 13.312V23.456C25.4325 23.8187 25.2512 24 24.8885 24ZM40.5033 24H37.6873C36.1086 24 34.8819 23.5627 34.0073 22.688C33.1539 21.8133 32.7273 20.5973 32.7273 19.04V12.64C32.7273 11.0613 33.1539 9.84533 34.0073 8.992C34.8819 8.11733 36.1086 7.68 37.6873 7.68H40.5033C42.0606 7.68 43.2766 8.11733 44.1513 8.992C45.0473 9.84533 45.4953 11.0613 45.4953 12.64V19.04C45.4953 20.5973 45.0473 21.8133 44.1513 22.688C43.2766 23.5627 42.0606 24 40.5033 24ZM38.1353 21.28H40.0873C41.6233 21.28 42.3913 20.5013 42.3913 18.944V12.736C42.3913 11.1787 41.6233 10.4 40.0873 10.4H38.1353C37.3246 10.4 36.7379 10.592 36.3753 10.976C36.0126 11.3387 35.8313 11.9253 35.8313 12.736V18.944C35.8313 19.7547 36.0126 20.352 36.3753 20.736C36.7379 21.0987 37.3246 21.28 38.1353 21.28ZM49.3323 4.96V2.048C49.3323 1.70667 49.5029 1.536 49.8443 1.536H51.9243C52.2656 1.536 52.4363 1.70667 52.4363 2.048V4.96C52.4363 5.32267 52.2656 5.504 51.9243 5.504H49.8443C49.5029 5.504 49.3323 5.32267 49.3323 4.96ZM47.4443 28.992H45.7482C45.3856 28.992 45.2042 28.8107 45.2042 28.448V26.816C45.2042 26.4533 45.3856 26.272 45.7482 26.272H46.5802C47.5829 26.272 48.2869 26.0587 48.6923 25.632C49.1189 25.2053 49.3323 24.4907 49.3323 23.488V8.224C49.3323 7.86133 49.5136 7.68 49.8763 7.68H51.8923C52.2549 7.68 52.4363 7.86133 52.4363 8.224V24.032C52.4363 25.5893 51.9883 26.8053 51.0923 27.68C50.2176 28.5547 49.0016 28.992 47.4443 28.992ZM68.193 24H61.281C59.7023 24 58.4757 23.5627 57.601 22.688C56.7477 21.8133 56.321 20.5973 56.321 19.04V12.64C56.321 11.0613 56.7477 9.84533 57.601 8.992C58.4757 8.11733 59.7023 7.68 61.281 7.68H63.905C65.4837 7.68 66.7103 8.11733 67.585 8.992C68.4597 9.84533 68.897 11.0613 68.897 12.64V16.704C68.897 17.088 68.705 17.28 68.321 17.28H59.745C59.5103 17.28 59.393 17.3867 59.393 17.6V18.976C59.393 20.5333 60.1717 21.312 61.729 21.312H68.193C68.577 21.312 68.769 21.504 68.769 21.888V23.488C68.769 23.8293 68.577 24 68.193 24ZM59.745 15.104H65.473C65.6863 15.104 65.793 14.9973 65.793 14.784V12.736C65.793 11.9253 65.6117 11.3387 65.249 10.976C64.8863 10.592 64.2997 10.4 63.489 10.4H61.729C60.9183 10.4 60.3317 10.592 59.969 10.976C59.6063 11.3387 59.425 11.9253 59.425 12.736V14.784C59.425 14.9973 59.5317 15.104 59.745 15.104ZM82.3423 21.824V23.488C82.3423 23.8293 82.1503 24 81.7663 24H77.0623C75.4836 24 74.2569 23.5627 73.3823 22.688C72.5289 21.8133 72.1023 20.5973 72.1023 19.04V12.64C72.1023 11.0613 72.5289 9.84533 73.3823 8.992C74.2569 8.11733 75.4836 7.68 77.0623 7.68H81.7663C82.1503 7.68 82.3423 7.86133 82.3423 8.224V9.888C82.3423 10.2293 82.1503 10.4 81.7663 10.4H77.5103C75.9743 10.4 75.2063 11.1893 75.2063 12.768V18.912C75.2063 20.4907 75.9743 21.28 77.5103 21.28H81.7663C82.1503 21.28 82.3423 21.4613 82.3423 21.824ZM85.871 10.4H84.335C84.1217 10.4 83.9723 10.368 83.887 10.304C83.823 10.2187 83.791 10.08 83.791 9.888V8.224C83.791 7.86133 83.9723 7.68 84.335 7.68H85.871C86.0843 7.68 86.191 7.57333 86.191 7.36V4.48C86.191 4.11733 86.383 3.936 86.767 3.936H88.783C89.1457 3.936 89.327 4.11733 89.327 4.48V7.36C89.327 7.57333 89.4443 7.68 89.679 7.68H92.655C93.039 7.68 93.231 7.86133 93.231 8.224V9.888C93.231 10.2293 93.039 10.4 92.655 10.4H89.679C89.4443 10.4 89.327 10.5067 89.327 10.72V18.944C89.327 20.5013 90.127 21.28 91.727 21.28H92.975C93.359 21.28 93.551 21.4613 93.551 21.824V23.488C93.551 23.8293 93.359 24 92.975 24H91.247C89.6683 24 88.431 23.5733 87.535 22.72C86.639 21.8667 86.191 20.6613 86.191 19.104V10.72C86.191 10.5067 86.0843 10.4 85.871 10.4Z" fill="#1A1A1A"/>
<path d="M17.5503 4.736L16.4896 5.79666L16.4961 5.80321L16.5028 5.80967L17.5503 4.736ZM17.5503 15.36L18.6109 16.4207L17.5503 15.36ZM8.30225 22.5H6.28625V25.5H8.30225V22.5ZM6.28625 22.5C6.33613 22.5 6.64906 22.5135 6.93891 22.8033C7.22876 23.0932 7.24225 23.4061 7.24225 23.456H4.24225C4.24225 23.8686 4.3464 24.4535 4.81759 24.9247C5.28878 25.3958 5.8737 25.5 6.28625 25.5V22.5ZM7.24225 23.456V3.968H4.24225V23.456H7.24225ZM7.24225 3.968C7.24225 4.01788 7.22876 4.33081 6.93891 4.62066C6.64906 4.91051 6.33613 4.924 6.28625 4.924V1.924C5.8737 1.924 5.28878 2.02815 4.81759 2.49934C4.3464 2.97052 4.24225 3.55545 4.24225 3.968H7.24225ZM6.28625 4.924H13.9023V1.924H6.28625V4.924ZM13.9023 4.924C15.1703 4.924 15.9647 5.27175 16.4896 5.79666L18.6109 3.67534C17.3865 2.45092 15.7488 1.924 13.9023 1.924V4.924ZM16.5028 5.80967C17.0101 6.30464 17.3623 7.08584 17.3623 8.384H20.3623C20.3623 6.52482 19.8397 4.87402 18.5977 3.66233L16.5028 5.80967ZM17.3623 8.384V11.712H20.3623V8.384H17.3623ZM17.3623 11.712C17.3623 12.9801 17.0145 13.7744 16.4896 14.2993L18.6109 16.4207C19.8353 15.1962 20.3623 13.5586 20.3623 11.712H17.3623ZM16.4896 14.2993C15.9647 14.8242 15.1703 15.172 13.9023 15.172V18.172C15.7488 18.172 17.3865 17.6451 18.6109 16.4207L16.4896 14.2993ZM13.9023 15.172H9.23025V18.172H13.9023V15.172ZM9.23025 15.172C8.93089 15.172 8.42713 15.2287 7.98197 15.5997C7.48444 16.0143 7.34625 16.5749 7.34625 16.992H10.3463C10.3463 17.1957 10.2721 17.5964 9.90253 17.9043C9.58537 18.1686 9.27361 18.172 9.23025 18.172V15.172ZM7.34625 16.992V23.456H10.3463V16.992H7.34625ZM7.34625 23.456C7.34625 23.4061 7.35974 23.0932 7.64959 22.8033C7.93944 22.5135 8.25237 22.5 8.30225 22.5V25.5C8.7148 25.5 9.29972 25.3958 9.77091 24.9247C10.2421 24.4535 10.3463 23.8685 10.3463 23.456H7.34625ZM9.19825 15.42H13.4543V12.42H9.19825V15.42ZM13.4543 15.42C14.459 15.42 15.4841 15.155 16.2406 14.3665C16.986 13.5896 17.2263 12.5574 17.2263 11.552H14.2263C14.2263 12.1253 14.0878 12.2771 14.0759 12.2895C14.0751 12.2904 13.9642 12.42 13.4543 12.42V15.42ZM17.2263 11.552V8.512H14.2263V11.552H17.2263ZM17.2263 8.512C17.2263 7.50662 16.986 6.4744 16.2406 5.69751C15.4841 4.90903 14.459 4.644 13.4543 4.644V7.644C13.9642 7.644 14.0751 7.77363 14.0759 7.77449C14.0878 7.78693 14.2263 7.93872 14.2263 8.512H17.2263ZM13.4543 4.644H9.19825V7.644H13.4543V4.644ZM9.19825 4.644C8.88319 4.644 8.36695 4.71254 7.92524 5.11409C7.45642 5.54029 7.34625 6.08732 7.34625 6.464H10.3463C10.3463 6.62734 10.2948 7.01437 9.94326 7.33391C9.61889 7.62879 9.27864 7.644 9.19825 7.644V4.644ZM7.34625 6.464V13.6H10.3463V6.464H7.34625ZM7.34625 13.6C7.34625 13.9767 7.45642 14.5237 7.92524 14.9499C8.36695 15.3515 8.88319 15.42 9.19825 15.42V12.42C9.27864 12.42 9.61889 12.4352 9.94326 12.7301C10.2948 13.0496 10.3463 13.4367 10.3463 13.6H7.34625ZM25.4325 9.44H23.9325V10.94H25.4325V9.44ZM25.5605 9.44V10.94H26.576L26.9532 9.99709L25.5605 9.44ZM26.7765 8.16L26.0874 6.82767L26.0777 6.83266L26.0682 6.83778L26.7765 8.16ZM30.0085 10.4L30.2692 8.92282L30.1398 8.9H30.0085V10.4ZM24.8885 22.5H22.8725V25.5H24.8885V22.5ZM22.8725 22.5C22.9224 22.5 23.2353 22.5135 23.5252 22.8033C23.815 23.0932 23.8285 23.4061 23.8285 23.456H20.8285C20.8285 23.8686 20.9327 24.4535 21.4038 24.9247C21.875 25.3958 22.4599 25.5 22.8725 25.5V22.5ZM23.8285 23.456V8.224H20.8285V23.456H23.8285ZM23.8285 8.224C23.8285 8.27388 23.815 8.58681 23.5252 8.87666C23.2353 9.16651 22.9224 9.18 22.8725 9.18V6.18C22.4599 6.18 21.875 6.28415 21.4038 6.75534C20.9327 7.22653 20.8285 7.81145 20.8285 8.224H23.8285ZM22.8725 9.18H24.8885V6.18H22.8725V9.18ZM24.8885 9.18C24.8386 9.18 24.5257 9.16651 24.2358 8.87666C23.946 8.58681 23.9325 8.27388 23.9325 8.224H26.9325C26.9325 7.81145 26.8283 7.22653 26.3572 6.75534C25.886 6.28415 25.3011 6.18 24.8885 6.18V9.18ZM23.9325 8.224V9.44H26.9325V8.224H23.9325ZM25.4325 10.94H25.5605V7.94H25.4325V10.94ZM26.9532 9.99709C27.0128 9.84822 27.1399 9.66701 27.4848 9.48222L26.0682 6.83778C25.2184 7.29299 24.5349 7.96512 24.1678 8.88291L26.9532 9.99709ZM27.4656 9.49232C27.8561 9.29035 28.2999 9.18 28.8245 9.18V6.18C27.8557 6.18 26.9342 6.38964 26.0874 6.82767L27.4656 9.49232ZM28.8245 9.18H30.0085V6.18H28.8245V9.18ZM30.0085 9.18C29.9586 9.18 29.6457 9.16651 29.3558 8.87666C29.066 8.58681 29.0525 8.27388 29.0525 8.224H32.0525C32.0525 7.81145 31.9483 7.22652 31.4772 6.75534C31.006 6.28415 30.4211 6.18 30.0085 6.18V9.18ZM29.0525 8.224V9.888H32.0525V8.224H29.0525ZM29.0525 9.888C29.0525 9.88532 29.0519 9.8115 29.0877 9.69757C29.1259 9.57647 29.2109 9.3948 29.3885 9.2277C29.7845 8.85491 30.2173 8.91366 30.2692 8.92282L29.7478 11.8772C30.1624 11.9503 30.8671 11.9558 31.4445 11.4123C31.9799 10.9085 32.0525 10.2539 32.0525 9.888H29.0525ZM30.0085 8.9H28.0885V11.9H30.0085V8.9ZM28.0885 8.9C26.9346 8.9 25.8041 9.22264 24.9882 10.1172C24.1962 10.9855 23.9325 12.1425 23.9325 13.312H26.9325C26.9325 12.5401 27.1115 12.2411 27.2048 12.1388C27.2742 12.0627 27.4717 11.9 28.0885 11.9V8.9ZM23.9325 13.312V23.456H26.9325V13.312H23.9325ZM23.9325 23.456C23.9325 23.4061 23.946 23.0932 24.2358 22.8033C24.5257 22.5135 24.8386 22.5 24.8885 22.5V25.5C25.3011 25.5 25.886 25.3958 26.3572 24.9247C26.8283 24.4535 26.9325 23.8686 26.9325 23.456H23.9325ZM34.0072 22.688L32.9336 23.7355L32.94 23.7421L32.9466 23.7487L34.0072 22.688ZM34.0072 8.992L35.0679 10.0527L34.0072 8.992ZM44.1513 8.992L43.0906 10.0527L43.1035 10.0656L43.1168 10.0782L44.1513 8.992ZM44.1513 22.688L43.1034 21.6146L43.097 21.621L43.0906 21.6273L44.1513 22.688ZM36.3753 10.976L37.4359 12.0367L37.4511 12.0215L37.4658 12.0059L36.3753 10.976ZM36.3753 20.736L35.2847 21.7659L35.2994 21.7815L35.3146 21.7967L36.3753 20.736ZM40.5033 22.5H37.6872V25.5H40.5033V22.5ZM37.6872 22.5C36.3911 22.5 35.5891 22.1485 35.0679 21.6273L32.9466 23.7487C34.1748 24.9768 35.826 25.5 37.6872 25.5V22.5ZM35.0809 21.6405C34.5704 21.1173 34.2272 20.3182 34.2272 19.04H31.2272C31.2272 20.8764 31.7374 22.5094 32.9336 23.7355L35.0809 21.6405ZM34.2272 19.04V12.64H31.2272V19.04H34.2272ZM34.2272 12.64C34.2272 11.3317 34.5748 10.5458 35.0679 10.0527L32.9466 7.93134C31.7331 9.14486 31.2272 10.791 31.2272 12.64H34.2272ZM35.0679 10.0527C35.5891 9.53149 36.3911 9.18 37.6872 9.18V6.18C35.826 6.18 34.1748 6.70318 32.9466 7.93134L35.0679 10.0527ZM37.6872 9.18H40.5033V6.18H37.6872V9.18ZM40.5033 9.18C41.7713 9.18 42.5657 9.52775 43.0906 10.0527L45.2119 7.93134C43.9875 6.70691 42.3498 6.18 40.5033 6.18V9.18ZM43.1168 10.0782C43.6387 10.5753 43.9953 11.3521 43.9953 12.64H46.9953C46.9953 10.7705 46.4558 9.11538 45.1857 7.90579L43.1168 10.0782ZM43.9953 12.64V19.04H46.9953V12.64H43.9953ZM43.9953 19.04C43.9953 20.2978 43.6431 21.0878 43.1034 21.6146L45.1991 23.7614C46.4514 22.5389 46.9953 20.8968 46.9953 19.04H43.9953ZM43.0906 21.6273C42.5657 22.1523 41.7713 22.5 40.5033 22.5V25.5C42.3498 25.5 43.9875 24.9731 45.2119 23.7487L43.0906 21.6273ZM38.1353 22.78H40.0872V19.78H38.1353V22.78ZM40.0872 22.78C41.0917 22.78 42.1195 22.5237 42.8832 21.7493C43.6432 20.9788 43.8913 19.9487 43.8913 18.944H40.8913C40.8913 19.4966 40.7553 19.6345 40.7473 19.6427C40.743 19.647 40.6188 19.78 40.0872 19.78V22.78ZM43.8913 18.944V12.736H40.8913V18.944H43.8913ZM43.8913 12.736C43.8913 11.7313 43.6432 10.7012 42.8832 9.93068C42.1195 9.15634 41.0917 8.9 40.0872 8.9V11.9C40.6188 11.9 40.743 12.033 40.7473 12.0373C40.7553 12.0455 40.8913 12.1834 40.8913 12.736H43.8913ZM40.0872 8.9H38.1353V11.9H40.0872V8.9ZM38.1353 8.9C37.1299 8.9 36.0519 9.13372 35.2847 9.94606L37.4658 12.0059C37.4239 12.0503 37.5193 11.9 38.1353 11.9V8.9ZM35.3146 9.91534C34.5445 10.6854 34.3312 11.7509 34.3312 12.736H37.3312C37.3312 12.4358 37.3656 12.2433 37.4004 12.131C37.4331 12.025 37.4581 12.0145 37.4359 12.0367L35.3146 9.91534ZM34.3312 12.736V18.944H37.3312V12.736H34.3312ZM34.3312 18.944C34.3312 19.9388 34.5486 20.9865 35.2847 21.7659L37.4658 19.7061C37.4657 19.706 37.4654 19.7057 37.4648 19.7049C37.4642 19.7042 37.4632 19.7029 37.4618 19.7011C37.4592 19.6974 37.4548 19.6909 37.4492 19.6807C37.4378 19.6603 37.4206 19.6235 37.4026 19.5643C37.3654 19.4418 37.3312 19.2432 37.3312 18.944H34.3312ZM35.3146 21.7967C36.0847 22.5667 37.1502 22.78 38.1353 22.78V19.78C37.835 19.78 37.6426 19.7456 37.5302 19.7109C37.4243 19.6782 37.4138 19.6532 37.4359 19.6753L35.3146 21.7967ZM48.6922 25.632L47.6316 24.5713L47.618 24.5849L47.6048 24.5989L48.6922 25.632ZM51.0923 27.68L50.0444 26.6066L50.038 26.6129L50.0316 26.6193L51.0923 27.68ZM50.8322 4.96V2.048H47.8322V4.96H50.8322ZM50.8322 2.048C50.8322 2.10855 50.8161 2.42947 50.5209 2.72466C50.2257 3.01985 49.9048 3.036 49.8442 3.036V0.0359993C49.4424 0.0359993 48.8654 0.137486 48.3996 0.603338C47.9337 1.06919 47.8322 1.64611 47.8322 2.048H50.8322ZM49.8442 3.036H51.9243V0.0359993H49.8442V3.036ZM51.9243 3.036C51.8637 3.036 51.5428 3.01985 51.2476 2.72466C50.9524 2.42947 50.9362 2.10855 50.9362 2.048H53.9362C53.9362 1.64611 53.8348 1.06919 53.3689 0.603338C52.9031 0.137486 52.3261 0.0359993 51.9243 0.0359993V3.036ZM50.9362 2.048V4.96H53.9362V2.048H50.9362ZM50.9362 4.96C50.9362 4.932 50.9411 4.63198 51.216 4.33995C51.5069 4.03084 51.8397 4.004 51.9243 4.004V7.004C52.3502 7.004 52.939 6.88649 53.4006 6.39605C53.8461 5.92268 53.9362 5.35066 53.9362 4.96H50.9362ZM51.9243 4.004H49.8442V7.004H51.9243V4.004ZM49.8442 4.004C49.9288 4.004 50.2616 4.03084 50.5526 4.33995C50.8274 4.63198 50.8322 4.932 50.8322 4.96H47.8322C47.8322 5.35066 47.9224 5.92268 48.368 6.39605C48.8295 6.88649 49.4183 7.004 49.8442 7.004V4.004ZM47.4442 27.492H45.7482V30.492H47.4442V27.492ZM45.7482 27.492C45.7981 27.492 46.1111 27.5055 46.4009 27.7953C46.6908 28.0852 46.7043 28.3981 46.7043 28.448H43.7043C43.7043 28.8605 43.8084 29.4455 44.2796 29.9167C44.7508 30.3878 45.3357 30.492 45.7482 30.492V27.492ZM46.7043 28.448V26.816H43.7043V28.448H46.7043ZM46.7043 26.816C46.7043 26.8659 46.6908 27.1788 46.4009 27.4687C46.1111 27.7585 45.7981 27.772 45.7482 27.772V24.772C45.3357 24.772 44.7508 24.8762 44.2796 25.3473C43.8084 25.8185 43.7043 26.4035 43.7043 26.816H46.7043ZM45.7482 27.772H46.5802V24.772H45.7482V27.772ZM46.5802 27.772C47.721 27.772 48.9463 27.5424 49.7798 26.6651L47.6048 24.5989C47.6206 24.5822 47.5899 24.6266 47.4252 24.6765C47.2549 24.7281 46.9838 24.772 46.5802 24.772V27.772ZM49.7529 26.6927C50.5982 25.8473 50.8322 24.6393 50.8322 23.488H47.8322C47.8322 24.3421 47.6396 24.5633 47.6316 24.5713L49.7529 26.6927ZM50.8322 23.488V8.224H47.8322V23.488H50.8322ZM50.8322 8.224C50.8322 8.27388 50.8188 8.58681 50.5289 8.87666C50.2391 9.16651 49.9261 9.18 49.8763 9.18V6.18C49.4637 6.18 48.8788 6.28415 48.4076 6.75534C47.9364 7.22653 47.8322 7.81145 47.8322 8.224H50.8322ZM49.8763 9.18H51.8923V6.18H49.8763V9.18ZM51.8923 9.18C51.8424 9.18 51.5294 9.16651 51.2396 8.87666C50.9497 8.58681 50.9362 8.27388 50.9362 8.224H53.9362C53.9362 7.81145 53.8321 7.22653 53.3609 6.75534C52.8897 6.28415 52.3048 6.18 51.8923 6.18V9.18ZM50.9362 8.224V24.032H53.9362V8.224H50.9362ZM50.9362 24.032C50.9362 25.2898 50.5841 26.0798 50.0444 26.6066L52.1401 28.7534C53.3924 27.5309 53.9362 25.8888 53.9362 24.032H50.9362ZM50.0316 26.6193C49.5067 27.1442 48.7123 27.492 47.4442 27.492V30.492C49.2908 30.492 50.9285 29.9651 52.1529 28.7407L50.0316 26.6193ZM57.601 22.688L56.5273 23.7355L56.5338 23.7421L56.5403 23.7487L57.601 22.688ZM57.601 8.992L58.6617 10.0527L57.601 8.992ZM67.585 8.992L66.5243 10.0527L66.5309 10.0592L66.5375 10.0657L67.585 8.992ZM65.249 10.976L64.1585 12.0059L64.1732 12.0215L64.1883 12.0367L65.249 10.976ZM59.969 10.976L61.0297 12.0367L61.0448 12.0215L61.0595 12.0059L59.969 10.976ZM68.193 22.5H61.281V25.5H68.193V22.5ZM61.281 22.5C59.9849 22.5 59.1828 22.1485 58.6617 21.6273L56.5403 23.7487C57.7685 24.9768 59.4198 25.5 61.281 25.5V22.5ZM58.6747 21.6405C58.1642 21.1173 57.821 20.3182 57.821 19.04H54.821C54.821 20.8764 55.3312 22.5094 56.5273 23.7355L58.6747 21.6405ZM57.821 19.04V12.64H54.821V19.04H57.821ZM57.821 12.64C57.821 11.3317 58.1685 10.5458 58.6617 10.0527L56.5403 7.93134C55.3268 9.14486 54.821 10.791 54.821 12.64H57.821ZM58.6617 10.0527C59.1828 9.53149 59.9849 9.18 61.281 9.18V6.18C59.4198 6.18 57.7685 6.70318 56.5403 7.93134L58.6617 10.0527ZM61.281 9.18H63.905V6.18H61.281V9.18ZM63.905 9.18C65.2011 9.18 66.0032 9.53149 66.5243 10.0527L68.6457 7.93134C67.4175 6.70318 65.7662 6.18 63.905 6.18V9.18ZM66.5375 10.0657C67.0449 10.5606 67.397 11.3418 67.397 12.64H70.397C70.397 10.7808 69.8745 9.13002 68.6325 7.91833L66.5375 10.0657ZM67.397 12.64V16.704H70.397V12.64H67.397ZM67.397 16.704C67.397 16.6648 67.4078 16.3599 67.6923 16.0753C67.9769 15.7908 68.2818 15.78 68.321 15.78V18.78C68.7442 18.78 69.3371 18.6732 69.8137 18.1967C70.2902 17.7201 70.397 17.1272 70.397 16.704H67.397ZM68.321 15.78H59.745V18.78H68.321V15.78ZM59.745 15.78C59.4299 15.78 58.9137 15.8485 58.472 16.2501C58.0032 16.6763 57.893 17.2233 57.893 17.6H60.893C60.893 17.7633 60.8415 18.1504 60.49 18.4699C60.1656 18.7648 59.8254 18.78 59.745 18.78V15.78ZM57.893 17.6V18.976H60.893V17.6H57.893ZM57.893 18.976C57.893 19.9859 58.1465 21.0188 58.9163 21.7887C59.6862 22.5585 60.7191 22.812 61.729 22.812V19.812C61.1815 19.812 61.0465 19.6762 61.0377 19.6673C61.0288 19.6585 60.893 19.5234 60.893 18.976H57.893ZM61.729 22.812H68.193V19.812H61.729V22.812ZM68.193 22.812C68.1538 22.812 67.8489 22.8012 67.5643 22.5167C67.2798 22.2321 67.269 21.9272 67.269 21.888H70.269C70.269 21.4648 70.1622 20.8719 69.6857 20.3953C69.2091 19.9188 68.6162 19.812 68.193 19.812V22.812ZM67.269 21.888V23.488H70.269V21.888H67.269ZM67.269 23.488C67.269 23.3787 67.3079 23.0359 67.6285 22.7509C67.7706 22.6245 67.9153 22.5605 68.0189 22.5298C68.1174 22.5006 68.1827 22.5 68.193 22.5V25.5C68.5755 25.5 69.1426 25.4188 69.6215 24.9931C70.1341 24.5375 70.269 23.9386 70.269 23.488H67.269ZM59.745 16.604H65.473V13.604H59.745V16.604ZM65.473 16.604C65.8109 16.604 66.3398 16.5185 66.7737 16.0847C67.2075 15.6508 67.293 15.1219 67.293 14.784H64.293C64.293 14.6594 64.3252 14.2905 64.6523 13.9633C64.9795 13.6362 65.3484 13.604 65.473 13.604V16.604ZM67.293 14.784V12.736H64.293V14.784H67.293ZM67.293 12.736C67.293 11.7509 67.0797 10.6854 66.3097 9.91534L64.1883 12.0367C64.1662 12.0145 64.1912 12.025 64.2239 12.131C64.2586 12.2433 64.293 12.4358 64.293 12.736H67.293ZM66.3395 9.94606C65.5723 9.13372 64.4943 8.9 63.489 8.9V11.9C64.105 11.9 64.2004 12.0503 64.1585 12.0059L66.3395 9.94606ZM63.489 8.9H61.729V11.9H63.489V8.9ZM61.729 8.9C60.7237 8.9 59.6457 9.13372 58.8785 9.94606L61.0595 12.0059C61.0176 12.0503 61.113 11.9 61.729 11.9V8.9ZM58.9083 9.91534C58.1383 10.6854 57.925 11.7509 57.925 12.736H60.925C60.925 12.4358 60.9594 12.2433 60.9941 12.131C61.0268 12.025 61.0518 12.0145 61.0297 12.0367L58.9083 9.91534ZM57.925 12.736V14.784H60.925V12.736H57.925ZM57.925 14.784C57.925 15.1219 58.0105 15.6508 58.4443 16.0847C58.8782 16.5185 59.4071 16.604 59.745 16.604V13.604C59.8695 13.604 60.2385 13.6362 60.5657 13.9633C60.8928 14.2905 60.925 14.6594 60.925 14.784H57.925ZM73.3822 22.688L72.3086 23.7355L72.315 23.7421L72.3216 23.7487L73.3822 22.688ZM73.3822 8.992L74.4429 10.0527L73.3822 8.992ZM80.8423 21.824V23.488H83.8423V21.824H80.8423ZM80.8423 23.488C80.8423 23.3787 80.8811 23.0359 81.2017 22.7509C81.3439 22.6245 81.4885 22.5605 81.5921 22.5298C81.6907 22.5006 81.756 22.5 81.7663 22.5V25.5C82.1488 25.5 82.7159 25.4188 83.1948 24.9931C83.7074 24.5375 83.8423 23.9386 83.8423 23.488H80.8423ZM81.7663 22.5H77.0622V25.5H81.7663V22.5ZM77.0622 22.5C75.7661 22.5 74.9641 22.1485 74.4429 21.6273L72.3216 23.7487C73.5498 24.9768 75.201 25.5 77.0622 25.5V22.5ZM74.4559 21.6405C73.9454 21.1173 73.6022 20.3182 73.6022 19.04H70.6022C70.6022 20.8764 71.1124 22.5094 72.3086 23.7355L74.4559 21.6405ZM73.6022 19.04V12.64H70.6022V19.04H73.6022ZM73.6022 12.64C73.6022 11.3317 73.9498 10.5458 74.4429 10.0527L72.3216 7.93134C71.1081 9.14486 70.6022 10.791 70.6022 12.64H73.6022ZM74.4429 10.0527C74.9641 9.53149 75.7661 9.18 77.0622 9.18V6.18C75.201 6.18 73.5498 6.70318 72.3216 7.93134L74.4429 10.0527ZM77.0622 9.18H81.7663V6.18H77.0622V9.18ZM81.7663 9.18C81.7477 9.18 81.4549 9.17722 81.1683 8.90652C80.8656 8.62062 80.8423 8.29648 80.8423 8.224H83.8423C83.8423 7.78885 83.7229 7.19271 83.2282 6.72548C82.7496 6.27344 82.1688 6.18 81.7663 6.18V9.18ZM80.8423 8.224V9.888H83.8423V8.224H80.8423ZM80.8423 9.888C80.8423 9.77869 80.8811 9.43585 81.2017 9.15089C81.3439 9.02452 81.4885 8.9605 81.5921 8.9298C81.6907 8.9006 81.756 8.9 81.7663 8.9V11.9C82.1488 11.9 82.7159 11.8188 83.1948 11.3931C83.7074 10.9375 83.8423 10.3386 83.8423 9.888H80.8423ZM81.7663 8.9H77.5103V11.9H81.7663V8.9ZM77.5103 8.9C76.5004 8.9 75.47 9.16192 74.7072 9.94597C73.9517 10.7224 73.7063 11.7576 73.7063 12.768H76.7063C76.7063 12.1997 76.8448 12.0509 76.8573 12.038C76.8625 12.0327 76.9841 11.9 77.5103 11.9V8.9ZM73.7063 12.768V18.912H76.7063V12.768H73.7063ZM73.7063 18.912C73.7063 19.9224 73.9517 20.9576 74.7072 21.734C75.47 22.5181 76.5004 22.78 77.5103 22.78V19.78C76.9841 19.78 76.8625 19.6473 76.8573 19.642C76.8448 19.6291 76.7063 19.4803 76.7063 18.912H73.7063ZM77.5103 22.78H81.7663V19.78H77.5103V22.78ZM81.7663 22.78C81.7477 22.78 81.4549 22.7772 81.1683 22.5065C80.8656 22.2206 80.8423 21.8965 80.8423 21.824H83.8423C83.8423 21.3888 83.7229 20.7927 83.2282 20.3255C82.7496 19.8734 82.1688 19.78 81.7663 19.78V22.78ZM83.887 10.304L82.687 11.204L82.8156 11.3754L82.987 11.504L83.887 10.304ZM87.535 22.72L88.5695 21.6338L87.535 22.72ZM85.871 8.9H84.335V11.9H85.871V8.9ZM84.335 8.9C84.2958 8.9 84.317 8.89638 84.3773 8.9093C84.4299 8.92057 84.5979 8.96214 84.787 9.104L82.987 11.504C83.4873 11.8792 84.0686 11.9 84.335 11.9V8.9ZM85.087 9.404C85.2149 9.57455 85.2605 9.72886 85.2766 9.79871C85.2932 9.87072 85.291 9.90708 85.291 9.888H82.291C82.291 10.1762 82.3254 10.7219 82.687 11.204L85.087 9.404ZM85.291 9.888V8.224H82.291V9.888H85.291ZM85.291 8.224C85.291 8.27388 85.2775 8.58681 84.9877 8.87666C84.6978 9.16651 84.3849 9.18 84.335 9.18V6.18C83.9224 6.18 83.3375 6.28415 82.8663 6.75534C82.3952 7.22653 82.291 7.81145 82.291 8.224H85.291ZM84.335 9.18H85.871V6.18H84.335V9.18ZM85.871 9.18C86.2089 9.18 86.7378 9.09451 87.1717 8.66066C87.6055 8.22681 87.691 7.69788 87.691 7.36H84.691C84.691 7.23545 84.7232 6.86652 85.0503 6.53934C85.3775 6.21215 85.7465 6.18 85.871 6.18V9.18ZM87.691 7.36V4.48H84.691V7.36H87.691ZM87.691 4.48C87.691 4.55248 87.6676 4.87662 87.3649 5.16252C87.0783 5.43322 86.7855 5.436 86.767 5.436V2.436C86.3645 2.436 85.7837 2.52944 85.3051 2.98148C84.8103 3.44871 84.691 4.04485 84.691 4.48H87.691ZM86.767 5.436H88.783V2.436H86.767V5.436ZM88.783 5.436C88.7331 5.436 88.4202 5.42251 88.1303 5.13266C87.8405 4.8428 87.827 4.52988 87.827 4.48H90.827C90.827 4.06745 90.7228 3.48253 90.2517 3.01134C89.7805 2.54015 89.1955 2.436 88.783 2.436V5.436ZM87.827 4.48V7.36H90.827V4.48H87.827ZM87.827 7.36C87.827 7.73668 87.9372 8.2837 88.406 8.70991C88.8477 9.11146 89.3639 9.18 89.679 9.18V6.18C89.7594 6.18 90.0996 6.1952 90.424 6.49009C90.7755 6.80963 90.827 7.19665 90.827 7.36H87.827ZM89.679 9.18H92.655V6.18H89.679V9.18ZM92.655 9.18C92.6365 9.18 92.3437 9.17722 92.0571 8.90652C91.7543 8.62062 91.731 8.29648 91.731 8.224H94.731C94.731 7.78885 94.6116 7.19271 94.1169 6.72548C93.6383 6.27344 93.0575 6.18 92.655 6.18V9.18ZM91.731 8.224V9.888H94.731V8.224H91.731ZM91.731 9.888C91.731 9.77869 91.7699 9.43585 92.0905 9.15089C92.2326 9.02452 92.3773 8.9605 92.4809 8.9298C92.5794 8.9006 92.6447 8.9 92.655 8.9V11.9C93.0375 11.9 93.6046 11.8188 94.0835 11.3931C94.5961 10.9375 94.731 10.3386 94.731 9.888H91.731ZM92.655 8.9H89.679V11.9H92.655V8.9ZM89.679 8.9C89.3639 8.9 88.8477 8.96854 88.406 9.37009C87.9372 9.79629 87.827 10.3433 87.827 10.72H90.827C90.827 10.8833 90.7755 11.2704 90.424 11.5899C90.0996 11.8848 89.7594 11.9 89.679 11.9V8.9ZM87.827 10.72V18.944H90.827V10.72H87.827ZM87.827 18.944C87.827 19.9643 88.0915 21.0027 88.8808 21.7709C89.6625 22.5318 90.7058 22.78 91.727 22.78V19.78C91.1482 19.78 90.9915 19.6389 90.9732 19.6211C90.9625 19.6107 90.827 19.481 90.827 18.944H87.827ZM91.727 22.78H92.975V19.78H91.727V22.78ZM92.975 22.78C92.9565 22.78 92.6637 22.7772 92.3771 22.5065C92.0743 22.2206 92.051 21.8965 92.051 21.824H95.051C95.051 21.3888 94.9316 20.7927 94.4369 20.3255C93.9583 19.8734 93.3775 19.78 92.975 19.78V22.78ZM92.051 21.824V23.488H95.051V21.824H92.051ZM92.051 23.488C92.051 23.3787 92.0899 23.0359 92.4105 22.7509C92.5526 22.6245 92.6973 22.5605 92.8009 22.5298C92.8994 22.5006 92.9647 22.5 92.975 22.5V25.5C93.3575 25.5 93.9246 25.4188 94.4035 24.9931C94.9161 24.5375 95.051 23.9386 95.051 23.488H92.051ZM92.975 22.5H91.247V25.5H92.975V22.5ZM91.247 22.5C89.9429 22.5 89.1156 22.1539 88.5695 21.6338L86.5005 23.8062C87.7464 24.9928 89.3938 25.5 91.247 25.5V22.5ZM88.5695 21.6338C88.0436 21.1329 87.691 20.3636 87.691 19.104H84.691C84.691 20.9591 85.2344 22.6004 86.5005 23.8062L88.5695 21.6338ZM87.691 19.104V10.72H84.691V19.104H87.691ZM87.691 10.72C87.691 10.3821 87.6055 9.85319 87.1717 9.41934C86.7378 8.98549 86.2089 8.9 85.871 8.9V11.9C85.7465 11.9 85.3775 11.8678 85.0503 11.5407C84.7232 11.2135 84.691 10.8446 84.691 10.72H87.691Z" fill="url(#paint0_linear_18_23)"/>
</g>
<defs>
<filter id="filter0_d_18_23" x="0.242249" y="0.0360107" width="98.8087" height="38.456" filterUnits="userSpaceOnUse" color-interpolation-filters="sRGB">
<feFlood flood-opacity="0" result="BackgroundImageFix"/>
<feColorMatrix in="SourceAlpha" type="matrix" values="0 0 0 0 0 0 0 0 0 0 0 0 0 0 0 0 0 0 127 0" result="hardAlpha"/>
<feOffset dy="4"/>
<feGaussianBlur stdDeviation="2"/>
<feComposite in2="hardAlpha" operator="out"/>
<feColorMatrix type="matrix" values="0 0 0 0 0 0 0 0 0 0 0 0 0 0 0 0 0 0 0.25 0"/>
<feBlend mode="normal" in2="BackgroundImageFix" result="effect1_dropShadow_18_23"/>
<feBlend mode="normal" in="SourceGraphic" in2="effect1_dropShadow_18_23" result="shape"/>
</filter>
<linearGradient id="paint0_linear_18_23" x1="49" y1="-6" x2="49" y2="35" gradientUnits="userSpaceOnUse">
<stop stop-color="#C6EBFA"/>
<stop offset="1" stop-color="#C9EDFB"/>
</linearGradient>
</defs>
</svg>
