<svg width="53" height="34" viewBox="0 0 53 34" fill="none" xmlns="http://www.w3.org/2000/svg">
<g id="twitter-svgrepo-com 1" clip-path="url(#clip0_68_17)" filter="url(#filter0_d_68_17)">
<g id="XMLID_826_">
<path id="XMLID_827_" d="M47.9798 5.18342C47.2728 5.37852 46.546 5.54317 45.8034 5.67685C46.6826 5.05814 47.353 4.33014 47.7622 3.5335C47.8539 3.35493 47.7588 3.15947 47.5229 3.04268C47.2873 2.92581 46.96 2.91181 46.7006 3.00746C45.1234 3.5895 43.4218 4.00778 41.6377 4.25237C39.8404 3.15965 37.3994 2.53778 34.8759 2.53778C29.5492 2.53778 25.2156 5.23418 25.2156 8.54848C25.2156 8.80951 25.2421 9.0691 25.2947 9.32507C18.6848 8.96396 12.5397 6.94245 8.31981 3.72164C8.16943 3.60684 7.93775 3.54497 7.70056 3.5568C7.46322 3.56836 7.24997 3.65164 7.13007 3.77963C6.2742 4.69342 5.82173 5.73854 5.82173 6.80191C5.82173 8.25023 6.65278 9.6244 8.1208 10.6982C7.67443 10.602 7.24127 10.4817 6.82785 10.3389C6.60589 10.2621 6.33502 10.2633 6.11452 10.3419C5.89388 10.4206 5.75554 10.5653 5.74973 10.7234C5.74872 10.7501 5.74872 10.7767 5.74872 10.8037C5.74872 12.9656 7.61868 14.912 10.4776 15.9728C10.232 15.9575 9.98656 15.9354 9.74268 15.9064C9.49127 15.8765 9.23273 15.9314 9.06318 16.0507C8.89335 16.1699 8.83717 16.3361 8.91541 16.4878C9.97364 18.5436 12.6982 20.0557 15.9919 20.5167C13.2601 21.5813 10.1361 22.139 6.85659 22.139C6.1723 22.139 5.48409 22.1139 4.81054 22.0643C4.47594 22.0396 4.15601 22.1625 4.04206 22.3605C3.9281 22.5586 4.04888 22.7794 4.33354 22.893C8.54656 24.5738 13.418 25.4622 18.421 25.4622C28.2563 25.4622 34.4089 22.5764 37.8384 20.1555C42.1148 17.1368 44.5675 13.1412 44.5675 9.19329C44.5675 9.02836 44.5634 8.86181 44.5553 8.69579C46.2425 7.90484 47.6951 6.9476 48.8771 5.84738C49.0567 5.68028 49.0373 5.45944 48.8292 5.30563C48.6215 5.15172 48.2753 5.10195 47.9798 5.18342Z" fill="url(#paint0_linear_68_17)" fill-opacity="0.82"/>
</g>
</g>
<defs>
<filter id="filter0_d_68_17" x="0" y="0" width="53" height="36" filterUnits="userSpaceOnUse" color-interpolation-filters="sRGB">
<feFlood flood-opacity="0" result="BackgroundImageFix"/>
<feColorMatrix in="SourceAlpha" type="matrix" values="0 0 0 0 0 0 0 0 0 0 0 0 0 0 0 0 0 0 127 0" result="hardAlpha"/>
<feOffset dy="4"/>
<feGaussianBlur stdDeviation="2"/>
<feComposite in2="hardAlpha" operator="out"/>
<feColorMatrix type="matrix" values="0 0 0 0 0 0 0 0 0 0 0 0 0 0 0 0 0 0 0.25 0"/>
<feBlend mode="normal" in2="BackgroundImageFix" result="effect1_dropShadow_68_17"/>
<feBlend mode="normal" in="SourceGraphic" in2="effect1_dropShadow_68_17" result="shape"/>
</filter>
<linearGradient id="paint0_linear_68_17" x1="26.4996" y1="2.53778" x2="26.4996" y2="25.4622" gradientUnits="userSpaceOnUse">
<stop stop-color="#C7ECFB"/>
<stop offset="1" stop-color="#888888"/>
</linearGradient>
<clipPath id="clip0_68_17">
<rect width="45" height="28" fill="white" transform="translate(4)"/>
</clipPath>
</defs>
</svg>
