<svg width="50" height="40" viewBox="0 0 50 40" fill="none" xmlns="http://www.w3.org/2000/svg">
<g id="icons8-github 1">
<path id="Vector" d="M18.4226 35.8688C19.1336 35.624 19.6316 35.0584 19.6316 34.4V30.08C19.6316 29.9224 19.6476 29.7584 19.6726 29.592C19.6586 29.5952 19.6456 29.5976 19.6316 29.6C19.6316 29.6 16.6316 29.6 16.0316 29.6C14.5316 29.6 13.2316 29.12 12.6316 28.16C11.9316 27.12 11.6316 25.36 9.83158 24.4C9.53158 24.24 9.73158 24 10.3316 24C10.9316 24.08 12.2316 24.72 13.0316 25.6C13.9316 26.48 14.8316 27.2 16.4316 27.2C18.9186 27.2 20.2516 27.1 21.0536 26.756C21.9876 25.6448 23.2806 24.8 24.6316 24.8V24.78C18.9636 24.6344 15.3426 23.1272 13.6566 20.8C9.99158 20.8336 6.80058 21.124 4.97958 21.3656C4.92158 21.104 4.87158 20.8408 4.82858 20.576C6.62558 20.3392 9.67158 20.0584 13.1736 20.0048C13.0616 19.784 12.9646 19.5576 12.8826 19.3256C9.37158 19.1832 6.34158 19.2944 4.69558 19.4032C4.67558 19.1376 4.64858 18.8728 4.64458 18.604C6.29358 18.496 9.24158 18.388 12.6626 18.5152C12.5836 18.1152 12.5326 17.7064 12.5326 17.2808C12.5326 15.9208 13.1326 14.4808 14.2326 13.2808C13.7326 11.9208 13.0326 9.0408 14.4326 8.0008C17.1326 8.0008 19.0326 9.0408 19.9326 9.6808C21.6316 9.12 23.5316 8.8 25.6316 8.8C27.7316 8.8 29.6316 9.12 31.2316 9.68C32.1316 9.04 34.0316 8 36.7316 8C38.2316 9.12 37.4316 12 36.9316 13.28C38.0316 14.48 38.6316 15.84 38.5316 17.28C38.5316 17.6672 38.4866 18.0408 38.4216 18.4072C41.9206 18.2696 44.9486 18.38 46.6256 18.4888C46.6236 18.7584 46.5926 19.0216 46.5746 19.288C44.9036 19.1776 41.7996 19.064 38.2156 19.2168C38.1266 19.4856 38.0186 19.7472 37.8906 20.0008C41.4366 20.0376 44.5556 20.312 46.4386 20.552C46.3956 20.8176 46.3456 21.0808 46.2876 21.3416C44.3756 21.0968 41.1166 20.8104 37.4086 20.796C35.7436 23.0984 32.1886 24.6 26.6316 24.7752V24.8C29.2316 24.8 31.6316 27.92 31.6316 30.08V34.4C31.6316 35.0584 32.1296 35.624 32.8406 35.8688C42.0016 33.4432 48.6316 26.5312 48.6316 18.4C48.6316 8.2544 38.3146 0 25.6316 0C12.9486 0 2.63158 8.2544 2.63158 18.4C2.63158 26.5312 9.26158 33.4432 18.4226 35.8688Z" fill="url(#paint0_linear_68_20)" fill-opacity="0.72"/>
</g>
<defs>
<linearGradient id="paint0_linear_68_20" x1="25.6316" y1="0" x2="25.6316" y2="35.8688" gradientUnits="userSpaceOnUse">
<stop stop-color="#C7ECFB"/>
<stop offset="1" stop-color="#888888"/>
</linearGradient>
</defs>
</svg>
