<svg width="49" height="35" viewBox="0 0 49 35" fill="none" xmlns="http://www.w3.org/2000/svg">
<g id="SVGRepo_iconCarrier" filter="url(#filter0_d_68_10)">
<g id="XMLID_801_">
<path id="XMLID_802_" d="M13.5437 8.38364H5.31292C4.94763 8.38364 4.65163 8.5725 4.65163 8.8054V25.6697C4.65163 25.9026 4.94763 26.0914 5.31292 26.0914H13.5437C13.909 26.0914 14.205 25.9026 14.205 25.6697V8.8054C14.205 8.5725 13.909 8.38364 13.5437 8.38364Z" fill="url(#paint0_linear_68_10)" fill-opacity="0.5"/>
<path id="XMLID_803_" d="M9.43131 0C6.43646 0 4 1.55224 4 3.46019C4 5.36899 6.43646 6.92182 9.43131 6.92182C12.4238 6.92182 14.8583 5.3689 14.8583 3.46019C14.8584 1.55224 12.4238 0 9.43131 0Z" fill="url(#paint1_linear_68_10)" fill-opacity="0.5"/>
<path id="XMLID_804_" d="M34.4794 7.96448C31.1736 7.96448 28.7299 8.87084 27.2477 9.90069V8.80538C27.2477 8.57248 26.9517 8.38362 26.5864 8.38362H18.7039C18.3386 8.38362 18.0426 8.57248 18.0426 8.80538V25.6696C18.0426 25.9026 18.3386 26.0914 18.7039 26.0914H26.9168C27.2821 26.0914 27.578 25.9026 27.578 25.6696V17.3257C27.578 14.5141 28.7755 13.4187 31.8487 13.4187C35.1956 13.4187 35.4616 15.1747 35.4616 17.4704V25.6697C35.4616 25.9027 35.7575 26.0915 36.1228 26.0915H44.3387C44.704 26.0915 45 25.9027 45 25.6697V16.4194C45 12.2385 43.75 7.96448 34.4794 7.96448Z" fill="url(#paint2_linear_68_10)" fill-opacity="0.5"/>
</g>
</g>
<defs>
<filter id="filter0_d_68_10" x="0" y="0" width="49" height="34.0915" filterUnits="userSpaceOnUse" color-interpolation-filters="sRGB">
<feFlood flood-opacity="0" result="BackgroundImageFix"/>
<feColorMatrix in="SourceAlpha" type="matrix" values="0 0 0 0 0 0 0 0 0 0 0 0 0 0 0 0 0 0 127 0" result="hardAlpha"/>
<feOffset dy="4"/>
<feGaussianBlur stdDeviation="2"/>
<feComposite in2="hardAlpha" operator="out"/>
<feColorMatrix type="matrix" values="0 0 0 0 0 0 0 0 0 0 0 0 0 0 0 0 0 0 0.59 0"/>
<feBlend mode="normal" in2="BackgroundImageFix" result="effect1_dropShadow_68_10"/>
<feBlend mode="normal" in="SourceGraphic" in2="effect1_dropShadow_68_10" result="shape"/>
</filter>
<linearGradient id="paint0_linear_68_10" x1="9.42833" y1="8.38364" x2="9.42833" y2="26.0914" gradientUnits="userSpaceOnUse">
<stop stop-color="#C7ECFB"/>
<stop offset="1" stop-color="#888888"/>
</linearGradient>
<linearGradient id="paint1_linear_68_10" x1="9.42913" y1="0" x2="9.42913" y2="6.92182" gradientUnits="userSpaceOnUse">
<stop stop-color="#C7ECFB"/>
<stop offset="1" stop-color="#888888"/>
</linearGradient>
<linearGradient id="paint2_linear_68_10" x1="31.5213" y1="7.96448" x2="31.5213" y2="26.0915" gradientUnits="userSpaceOnUse">
<stop stop-color="#C7ECFB"/>
<stop offset="1" stop-color="#888888"/>
</linearGradient>
</defs>
</svg>
