<svg width="49" height="33" viewBox="0 0 49 33" fill="none" xmlns="http://www.w3.org/2000/svg">
<g id="icons8-github 1">
<path id="Vector" d="M18.0541 29.5918C18.7509 29.3898 19.2389 28.9232 19.2389 28.38V24.816C19.2389 24.686 19.2546 24.5507 19.2791 24.4134C19.2654 24.416 19.2526 24.418 19.2389 24.42C19.2389 24.42 16.2989 24.42 15.7109 24.42C14.2409 24.42 12.9669 24.024 12.3789 23.232C11.6929 22.374 11.3989 20.922 9.63492 20.13C9.34092 19.998 9.53692 19.8 10.1249 19.8C10.7129 19.866 11.9869 20.394 12.7709 21.12C13.6529 21.846 14.5349 22.44 16.1029 22.44C18.5402 22.44 19.8465 22.3575 20.6325 22.0737C21.5478 21.157 22.8149 20.46 24.1389 20.46V20.4435C18.5843 20.3234 15.0357 19.0799 13.3834 17.16C9.79172 17.1877 6.66454 17.4273 4.87996 17.6266C4.82312 17.4108 4.77412 17.1937 4.73198 16.9752C6.49304 16.7798 9.47812 16.5482 12.9101 16.504C12.8003 16.3218 12.7053 16.135 12.6249 15.9436C9.18412 15.8261 6.21472 15.9179 4.60164 16.0076C4.58204 15.7885 4.55558 15.5701 4.55166 15.3483C6.16768 15.2592 9.05672 15.1701 12.4093 15.275C12.3319 14.945 12.2819 14.6078 12.2819 14.2567C12.2819 13.1347 12.8699 11.9467 13.9479 10.9567C13.4579 9.83466 12.7719 7.45866 14.1439 6.60066C16.7899 6.60066 18.6519 7.45866 19.5339 7.98666C21.1989 7.524 23.0609 7.26 25.1189 7.26C27.1769 7.26 29.0389 7.524 30.6069 7.986C31.4889 7.458 33.3509 6.6 35.9969 6.6C37.4669 7.524 36.6829 9.9 36.1929 10.956C37.2709 11.946 37.8589 13.068 37.7609 14.256C37.7609 14.5754 37.7168 14.8837 37.6531 15.1859C41.0821 15.0724 44.0496 15.1635 45.693 15.2533C45.6911 15.4757 45.6607 15.6928 45.6431 15.9126C44.0055 15.8215 40.9636 15.7278 37.4512 15.8539C37.364 16.0756 37.2582 16.2914 37.1327 16.5007C40.6078 16.531 43.6644 16.7574 45.5098 16.9554C45.4676 17.1745 45.4186 17.3917 45.3618 17.6068C43.488 17.4049 40.2942 17.1686 36.6604 17.1567C35.0287 19.0562 31.5448 20.295 26.0989 20.4395V20.46C28.6469 20.46 30.9989 23.034 30.9989 24.816V28.38C30.9989 28.9232 31.487 29.3898 32.1837 29.5918C41.1615 27.5906 47.6589 21.8882 47.6589 15.18C47.6589 6.80988 37.5483 0 25.1189 0C12.6896 0 2.57892 6.80988 2.57892 15.18C2.57892 21.8882 9.07632 27.5906 18.0541 29.5918Z" fill="url(#paint0_linear_152_60)"/>
</g>
<defs>
<linearGradient id="paint0_linear_152_60" x1="25.1189" y1="0" x2="25.1189" y2="29.5918" gradientUnits="userSpaceOnUse">
<stop offset="0.235" stop-color="#DDA5D7"/>
<stop offset="0.91" stop-color="#4B1C5B"/>
</linearGradient>
</defs>
</svg>
