<svg width="127" height="49" viewBox="0 0 127 49" fill="none" xmlns="http://www.w3.org/2000/svg">
<g id="About" filter="url(#filter0_d_25_6)">
<mask id="path-1-outside-1_25_6" maskUnits="userSpaceOnUse" x="9" y="0" width="110" height="29" fill="black">
<rect fill="white" x="9" width="110" height="29"/>
<path d="M29.2674 2.16C29.7954 2.16 30.2634 2.34 30.6714 2.7C31.1034 3.06 31.3554 3.504 31.4274 4.032L34.9554 27H28.1874L26.3874 9.792C26.3394 9.336 26.3034 8.892 26.2794 8.46C26.2794 8.028 26.2794 7.596 26.2794 7.164H25.2714C25.1754 7.524 25.0674 7.932 24.9474 8.388C24.8274 8.844 24.6714 9.288 24.4794 9.72L17.6754 27H10.6554L20.6634 3.78C20.8554 3.252 21.1554 2.856 21.5634 2.592C21.9954 2.304 22.4874 2.16 23.0394 2.16H29.2674ZM30.7794 16.164L30.2034 21.168H17.2434L17.8554 16.164H30.7794ZM51.5528 8.604C52.9928 8.604 54.1448 8.94 55.0088 9.612C55.8728 10.26 56.4368 11.292 56.7008 12.708C56.9648 14.1 56.9288 15.912 56.5928 18.144C56.4008 19.512 56.0888 20.772 55.6568 21.924C55.2488 23.052 54.6728 24.024 53.9288 24.84C53.1848 25.656 52.2128 26.292 51.0128 26.748C49.8128 27.204 48.3248 27.432 46.5488 27.432C45.8768 27.432 45.0848 27.396 44.1728 27.324C43.2608 27.276 42.3248 27.192 41.3648 27.072C40.4288 26.952 39.5408 26.808 38.7008 26.64C37.8848 26.448 37.2128 26.232 36.6848 25.992L41.8688 22.536C42.2288 22.632 42.6608 22.716 43.1648 22.788C43.6688 22.836 44.1848 22.884 44.7128 22.932C45.2408 22.956 45.6728 22.956 46.0088 22.932C46.6328 22.908 47.1608 22.824 47.5928 22.68C48.0248 22.512 48.3848 22.248 48.6728 21.888C48.9848 21.504 49.2368 20.976 49.4288 20.304C49.6208 19.608 49.8008 18.732 49.9688 17.676C50.1368 16.596 50.2088 15.78 50.1848 15.228C50.1608 14.652 50.0288 14.268 49.7888 14.076C49.5728 13.86 49.2248 13.752 48.7448 13.752C47.9048 13.752 47.0768 13.992 46.2608 14.472C45.4688 14.928 44.6288 15.516 43.7408 16.236L42.8408 14.076C43.2968 13.356 43.8368 12.672 44.4608 12.024C45.0848 11.352 45.7568 10.764 46.4768 10.26C47.2208 9.756 48.0128 9.36 48.8528 9.072C49.7168 8.76 50.6168 8.604 51.5528 8.604ZM46.6208 1.8L45.9728 6.876C45.8768 7.74 45.7328 8.58 45.5408 9.396C45.3488 10.212 45.0608 11.064 44.6768 11.952L45.2528 12.276L43.2008 26.28L36.6848 25.992L40.0688 1.8H46.6208ZM69.6408 8.604C71.9448 8.604 73.7928 8.928 75.1848 9.576C76.6008 10.224 77.5608 11.256 78.0648 12.672C78.5928 14.088 78.6888 15.972 78.3528 18.324C78.0408 20.58 77.4888 22.38 76.6968 23.724C75.9288 25.044 74.8248 25.992 73.3848 26.568C71.9448 27.144 70.0848 27.432 67.8048 27.432C65.5248 27.432 63.6768 27.12 62.2608 26.496C60.8448 25.872 59.8608 24.864 59.3088 23.472C58.7808 22.056 58.6848 20.172 59.0208 17.82C59.3328 15.54 59.8728 13.74 60.6408 12.42C61.4328 11.076 62.5488 10.104 63.9888 9.504C65.4528 8.904 67.3368 8.604 69.6408 8.604ZM69.5328 13.176C68.7408 13.176 68.1168 13.308 67.6608 13.572C67.2048 13.836 66.8328 14.34 66.5448 15.084C66.2808 15.828 66.0408 16.908 65.8248 18.324C65.6568 19.572 65.5968 20.532 65.6448 21.204C65.6928 21.852 65.9088 22.296 66.2928 22.536C66.6768 22.776 67.2528 22.896 68.0208 22.896C68.7888 22.896 69.3888 22.764 69.8208 22.5C70.2768 22.212 70.6368 21.708 70.9008 20.988C71.1648 20.244 71.4048 19.188 71.6208 17.82C71.7888 16.548 71.8488 15.588 71.8008 14.94C71.7528 14.268 71.5488 13.812 71.1888 13.572C70.8288 13.308 70.2768 13.176 69.5328 13.176ZM89.0642 9.108L87.4082 20.556C87.3362 21.108 87.3962 21.492 87.5882 21.708C87.8042 21.9 88.1162 21.996 88.5242 21.996C89.2202 21.996 89.9042 21.816 90.5762 21.456C91.2482 21.072 92.1002 20.46 93.1322 19.62L94.2122 22.536C92.6282 24.24 91.1282 25.5 89.7122 26.316C88.3202 27.108 86.9042 27.504 85.4642 27.504C83.6642 27.504 82.3442 27.06 81.5042 26.172C80.6882 25.26 80.4002 24 80.6402 22.392L82.4762 9.108H89.0642ZM100.62 9.108L98.1362 27H93.0242L92.9522 22.176L92.3762 21.744L94.1402 9.108H100.62ZM113.276 4.284L110.9 20.952C110.828 21.504 110.876 21.876 111.044 22.068C111.212 22.26 111.596 22.356 112.196 22.356H114.464L114.788 26.676C114.284 26.868 113.684 27.012 112.988 27.108C112.292 27.228 111.608 27.312 110.936 27.36C110.264 27.432 109.712 27.468 109.28 27.468C107.528 27.468 106.184 27.012 105.248 26.1C104.312 25.188 103.964 23.94 104.204 22.356L106.832 4.284H113.276ZM117.2 9.108L116.66 13.176H102.404L102.908 9.288L106.364 9.108H117.2Z"/>
</mask>
<path id="test" d="M29.2674 2.16C29.7954 2.16 30.2634 2.34 30.6714 2.7C31.1034 3.06 31.3554 3.504 31.4274 4.032L34.9554 27H28.1874L26.3874 9.792C26.3394 9.336 26.3034 8.892 26.2794 8.46C26.2794 8.028 26.2794 7.596 26.2794 7.164H25.2714C25.1754 7.524 25.0674 7.932 24.9474 8.388C24.8274 8.844 24.6714 9.288 24.4794 9.72L17.6754 27H10.6554L20.6634 3.78C20.8554 3.252 21.1554 2.856 21.5634 2.592C21.9954 2.304 22.4874 2.16 23.0394 2.16H29.2674ZM30.7794 16.164L30.2034 21.168H17.2434L17.8554 16.164H30.7794ZM51.5528 8.604C52.9928 8.604 54.1448 8.94 55.0088 9.612C55.8728 10.26 56.4368 11.292 56.7008 12.708C56.9648 14.1 56.9288 15.912 56.5928 18.144C56.4008 19.512 56.0888 20.772 55.6568 21.924C55.2488 23.052 54.6728 24.024 53.9288 24.84C53.1848 25.656 52.2128 26.292 51.0128 26.748C49.8128 27.204 48.3248 27.432 46.5488 27.432C45.8768 27.432 45.0848 27.396 44.1728 27.324C43.2608 27.276 42.3248 27.192 41.3648 27.072C40.4288 26.952 39.5408 26.808 38.7008 26.64C37.8848 26.448 37.2128 26.232 36.6848 25.992L41.8688 22.536C42.2288 22.632 42.6608 22.716 43.1648 22.788C43.6688 22.836 44.1848 22.884 44.7128 22.932C45.2408 22.956 45.6728 22.956 46.0088 22.932C46.6328 22.908 47.1608 22.824 47.5928 22.68C48.0248 22.512 48.3848 22.248 48.6728 21.888C48.9848 21.504 49.2368 20.976 49.4288 20.304C49.6208 19.608 49.8008 18.732 49.9688 17.676C50.1368 16.596 50.2088 15.78 50.1848 15.228C50.1608 14.652 50.0288 14.268 49.7888 14.076C49.5728 13.86 49.2248 13.752 48.7448 13.752C47.9048 13.752 47.0768 13.992 46.2608 14.472C45.4688 14.928 44.6288 15.516 43.7408 16.236L42.8408 14.076C43.2968 13.356 43.8368 12.672 44.4608 12.024C45.0848 11.352 45.7568 10.764 46.4768 10.26C47.2208 9.756 48.0128 9.36 48.8528 9.072C49.7168 8.76 50.6168 8.604 51.5528 8.604ZM46.6208 1.8L45.9728 6.876C45.8768 7.74 45.7328 8.58 45.5408 9.396C45.3488 10.212 45.0608 11.064 44.6768 11.952L45.2528 12.276L43.2008 26.28L36.6848 25.992L40.0688 1.8H46.6208ZM69.6408 8.604C71.9448 8.604 73.7928 8.928 75.1848 9.576C76.6008 10.224 77.5608 11.256 78.0648 12.672C78.5928 14.088 78.6888 15.972 78.3528 18.324C78.0408 20.58 77.4888 22.38 76.6968 23.724C75.9288 25.044 74.8248 25.992 73.3848 26.568C71.9448 27.144 70.0848 27.432 67.8048 27.432C65.5248 27.432 63.6768 27.12 62.2608 26.496C60.8448 25.872 59.8608 24.864 59.3088 23.472C58.7808 22.056 58.6848 20.172 59.0208 17.82C59.3328 15.54 59.8728 13.74 60.6408 12.42C61.4328 11.076 62.5488 10.104 63.9888 9.504C65.4528 8.904 67.3368 8.604 69.6408 8.604ZM69.5328 13.176C68.7408 13.176 68.1168 13.308 67.6608 13.572C67.2048 13.836 66.8328 14.34 66.5448 15.084C66.2808 15.828 66.0408 16.908 65.8248 18.324C65.6568 19.572 65.5968 20.532 65.6448 21.204C65.6928 21.852 65.9088 22.296 66.2928 22.536C66.6768 22.776 67.2528 22.896 68.0208 22.896C68.7888 22.896 69.3888 22.764 69.8208 22.5C70.2768 22.212 70.6368 21.708 70.9008 20.988C71.1648 20.244 71.4048 19.188 71.6208 17.82C71.7888 16.548 71.8488 15.588 71.8008 14.94C71.7528 14.268 71.5488 13.812 71.1888 13.572C70.8288 13.308 70.2768 13.176 69.5328 13.176ZM89.0642 9.108L87.4082 20.556C87.3362 21.108 87.3962 21.492 87.5882 21.708C87.8042 21.9 88.1162 21.996 88.5242 21.996C89.2202 21.996 89.9042 21.816 90.5762 21.456C91.2482 21.072 92.1002 20.46 93.1322 19.62L94.2122 22.536C92.6282 24.24 91.1282 25.5 89.7122 26.316C88.3202 27.108 86.9042 27.504 85.4642 27.504C83.6642 27.504 82.3442 27.06 81.5042 26.172C80.6882 25.26 80.4002 24 80.6402 22.392L82.4762 9.108H89.0642ZM100.62 9.108L98.1362 27H93.0242L92.9522 22.176L92.3762 21.744L94.1402 9.108H100.62ZM113.276 4.284L110.9 20.952C110.828 21.504 110.876 21.876 111.044 22.068C111.212 22.26 111.596 22.356 112.196 22.356H114.464L114.788 26.676C114.284 26.868 113.684 27.012 112.988 27.108C112.292 27.228 111.608 27.312 110.936 27.36C110.264 27.432 109.712 27.468 109.28 27.468C107.528 27.468 106.184 27.012 105.248 26.1C104.312 25.188 103.964 23.94 104.204 22.356L106.832 4.284H113.276ZM117.2 9.108L116.66 13.176H102.404L102.908 9.288L106.364 9.108H117.2Z" fill="url(#paint0_linear_25_6)" />
<path d="M30.6714 2.7L30.0098 3.44984L30.0204 3.45918L30.0312 3.46822L30.6714 2.7ZM31.4274 4.032L30.4366 4.16711L30.4377 4.17548L30.439 4.18382L31.4274 4.032ZM34.9554 27V28H36.1207L35.9438 26.8482L34.9554 27ZM28.1874 27L27.1928 27.104L27.2865 28H28.1874V27ZM26.3874 9.792L27.382 9.68796L27.3819 9.68731L26.3874 9.792ZM26.2794 8.46H25.2794V8.48775L25.2809 8.51547L26.2794 8.46ZM26.2794 7.164H27.2794V6.164H26.2794V7.164ZM25.2714 7.164V6.164H24.5031L24.3052 6.90634L25.2714 7.164ZM24.9474 8.388L25.9145 8.64249L25.9145 8.64249L24.9474 8.388ZM24.4794 9.72L23.5656 9.31386L23.5568 9.33356L23.5489 9.35363L24.4794 9.72ZM17.6754 27V28H18.3564L18.6059 27.3664L17.6754 27ZM10.6554 27L9.73706 26.6042L9.13545 28H10.6554V27ZM20.6634 3.78L21.5817 4.17581L21.5932 4.14909L21.6032 4.12174L20.6634 3.78ZM21.5634 2.592L22.1067 3.43165L22.1181 3.42405L21.5634 2.592ZM30.7794 16.164L31.7728 16.2784L31.9011 15.164H30.7794V16.164ZM30.2034 21.168V22.168H31.0949L31.1968 21.2824L30.2034 21.168ZM17.2434 21.168L16.2508 21.0466L16.1136 22.168H17.2434V21.168ZM17.8554 16.164V15.164H16.9702L16.8628 16.0426L17.8554 16.164ZM29.2674 3.16C29.5437 3.16 29.7783 3.24564 30.0098 3.44984L31.333 1.95016C30.7484 1.43436 30.0471 1.16 29.2674 1.16V3.16ZM30.0312 3.46822C30.283 3.67805 30.4003 3.90112 30.4366 4.16711L32.4182 3.89689C32.3105 3.10688 31.9238 2.44195 31.3116 1.93178L30.0312 3.46822ZM30.439 4.18382L33.967 27.1518L35.9438 26.8482L32.4158 3.88018L30.439 4.18382ZM34.9554 26H28.1874V28H34.9554V26ZM29.182 26.896L27.382 9.68796L25.3928 9.89603L27.1928 27.104L29.182 26.896ZM27.3819 9.68731C27.3355 9.24672 27.3009 8.81915 27.2779 8.40453L25.2809 8.51547C25.3059 8.96484 25.3433 9.42528 25.3929 9.89668L27.3819 9.68731ZM27.2794 8.46C27.2794 8.45915 27.2794 8.45831 27.2794 8.45747C27.2794 8.45662 27.2794 8.45578 27.2794 8.45494C27.2794 8.45409 27.2794 8.45325 27.2794 8.4524C27.2794 8.45156 27.2794 8.45072 27.2794 8.44987C27.2794 8.44903 27.2794 8.44819 27.2794 8.44734C27.2794 8.4465 27.2794 8.44565 27.2794 8.44481C27.2794 8.44397 27.2794 8.44312 27.2794 8.44228C27.2794 8.44144 27.2794 8.44059 27.2794 8.43975C27.2794 8.4389 27.2794 8.43806 27.2794 8.43722C27.2794 8.43637 27.2794 8.43553 27.2794 8.43469C27.2794 8.43384 27.2794 8.433 27.2794 8.43215C27.2794 8.43131 27.2794 8.43047 27.2794 8.42962C27.2794 8.42878 27.2794 8.42794 27.2794 8.42709C27.2794 8.42625 27.2794 8.4254 27.2794 8.42456C27.2794 8.42372 27.2794 8.42287 27.2794 8.42203C27.2794 8.42119 27.2794 8.42034 27.2794 8.4195C27.2794 8.41865 27.2794 8.41781 27.2794 8.41697C27.2794 8.41612 27.2794 8.41528 27.2794 8.41444C27.2794 8.41359 27.2794 8.41275 27.2794 8.4119C27.2794 8.41106 27.2794 8.41022 27.2794 8.40937C27.2794 8.40853 27.2794 8.40769 27.2794 8.40684C27.2794 8.406 27.2794 8.40515 27.2794 8.40431C27.2794 8.40347 27.2794 8.40262 27.2794 8.40178C27.2794 8.40094 27.2794 8.40009 27.2794 8.39925C27.2794 8.3984 27.2794 8.39756 27.2794 8.39672C27.2794 8.39587 27.2794 8.39503 27.2794 8.39419C27.2794 8.39334 27.2794 8.3925 27.2794 8.39165C27.2794 8.39081 27.2794 8.38997 27.2794 8.38912C27.2794 8.38828 27.2794 8.38744 27.2794 8.38659C27.2794 8.38575 27.2794 8.3849 27.2794 8.38406C27.2794 8.38322 27.2794 8.38237 27.2794 8.38153C27.2794 8.38069 27.2794 8.37984 27.2794 8.379C27.2794 8.37815 27.2794 8.37731 27.2794 8.37647C27.2794 8.37562 27.2794 8.37478 27.2794 8.37394C27.2794 8.37309 27.2794 8.37225 27.2794 8.3714C27.2794 8.37056 27.2794 8.36972 27.2794 8.36887C27.2794 8.36803 27.2794 8.36719 27.2794 8.36634C27.2794 8.3655 27.2794 8.36465 27.2794 8.36381C27.2794 8.36297 27.2794 8.36212 27.2794 8.36128C27.2794 8.36044 27.2794 8.35959 27.2794 8.35875C27.2794 8.3579 27.2794 8.35706 27.2794 8.35622C27.2794 8.35537 27.2794 8.35453 27.2794 8.35369C27.2794 8.35284 27.2794 8.352 27.2794 8.35115C27.2794 8.35031 27.2794 8.34947 27.2794 8.34862C27.2794 8.34778 27.2794 8.34694 27.2794 8.34609C27.2794 8.34525 27.2794 8.3444 27.2794 8.34356C27.2794 8.34272 27.2794 8.34187 27.2794 8.34103C27.2794 8.34019 27.2794 8.33934 27.2794 8.3385C27.2794 8.33765 27.2794 8.33681 27.2794 8.33597C27.2794 8.33512 27.2794 8.33428 27.2794 8.33344C27.2794 8.33259 27.2794 8.33175 27.2794 8.3309C27.2794 8.33006 27.2794 8.32922 27.2794 8.32837C27.2794 8.32753 27.2794 8.32669 27.2794 8.32584C27.2794 8.325 27.2794 8.32415 27.2794 8.32331C27.2794 8.32247 27.2794 8.32162 27.2794 8.32078C27.2794 8.31994 27.2794 8.31909 27.2794 8.31825C27.2794 8.3174 27.2794 8.31656 27.2794 8.31572C27.2794 8.31487 27.2794 8.31403 27.2794 8.31319C27.2794 8.31234 27.2794 8.3115 27.2794 8.31065C27.2794 8.30981 27.2794 8.30897 27.2794 8.30812C27.2794 8.30728 27.2794 8.30644 27.2794 8.30559C27.2794 8.30475 27.2794 8.3039 27.2794 8.30306C27.2794 8.30222 27.2794 8.30137 27.2794 8.30053C27.2794 8.29969 27.2794 8.29884 27.2794 8.298C27.2794 8.29715 27.2794 8.29631 27.2794 8.29547C27.2794 8.29462 27.2794 8.29378 27.2794 8.29294C27.2794 8.29209 27.2794 8.29125 27.2794 8.2904C27.2794 8.28956 27.2794 8.28872 27.2794 8.28787C27.2794 8.28703 27.2794 8.28619 27.2794 8.28534C27.2794 8.2845 27.2794 8.28365 27.2794 8.28281C27.2794 8.28197 27.2794 8.28112 27.2794 8.28028C27.2794 8.27944 27.2794 8.27859 27.2794 8.27775C27.2794 8.2769 27.2794 8.27606 27.2794 8.27522C27.2794 8.27437 27.2794 8.27353 27.2794 8.27269C27.2794 8.27184 27.2794 8.271 27.2794 8.27015C27.2794 8.26931 27.2794 8.26847 27.2794 8.26762C27.2794 8.26678 27.2794 8.26594 27.2794 8.26509C27.2794 8.26425 27.2794 8.2634 27.2794 8.26256C27.2794 8.26172 27.2794 8.26087 27.2794 8.26003C27.2794 8.25919 27.2794 8.25834 27.2794 8.2575C27.2794 8.25665 27.2794 8.25581 27.2794 8.25497C27.2794 8.25412 27.2794 8.25328 27.2794 8.25244C27.2794 8.25159 27.2794 8.25075 27.2794 8.2499C27.2794 8.24906 27.2794 8.24822 27.2794 8.24737C27.2794 8.24653 27.2794 8.24569 27.2794 8.24484C27.2794 8.244 27.2794 8.24315 27.2794 8.24231C27.2794 8.24147 27.2794 8.24062 27.2794 8.23978C27.2794 8.23894 27.2794 8.23809 27.2794 8.23725C27.2794 8.2364 27.2794 8.23556 27.2794 8.23472C27.2794 8.23387 27.2794 8.23303 27.2794 8.23219C27.2794 8.23134 27.2794 8.2305 27.2794 8.22965C27.2794 8.22881 27.2794 8.22797 27.2794 8.22712C27.2794 8.22628 27.2794 8.22544 27.2794 8.22459C27.2794 8.22375 27.2794 8.2229 27.2794 8.22206C27.2794 8.22122 27.2794 8.22037 27.2794 8.21953C27.2794 8.21869 27.2794 8.21784 27.2794 8.217C27.2794 8.21615 27.2794 8.21531 27.2794 8.21447C27.2794 8.21362 27.2794 8.21278 27.2794 8.21194C27.2794 8.21109 27.2794 8.21025 27.2794 8.2094C27.2794 8.20856 27.2794 8.20772 27.2794 8.20687C27.2794 8.20603 27.2794 8.20519 27.2794 8.20434C27.2794 8.2035 27.2794 8.20265 27.2794 8.20181C27.2794 8.20097 27.2794 8.20012 27.2794 8.19928C27.2794 8.19844 27.2794 8.19759 27.2794 8.19675C27.2794 8.1959 27.2794 8.19506 27.2794 8.19422C27.2794 8.19337 27.2794 8.19253 27.2794 8.19169C27.2794 8.19084 27.2794 8.19 27.2794 8.18915C27.2794 8.18831 27.2794 8.18747 27.2794 8.18662C27.2794 8.18578 27.2794 8.18494 27.2794 8.18409C27.2794 8.18325 27.2794 8.1824 27.2794 8.18156C27.2794 8.18072 27.2794 8.17987 27.2794 8.17903C27.2794 8.17819 27.2794 8.17734 27.2794 8.1765C27.2794 8.17565 27.2794 8.17481 27.2794 8.17397C27.2794 8.17312 27.2794 8.17228 27.2794 8.17144C27.2794 8.17059 27.2794 8.16975 27.2794 8.1689C27.2794 8.16806 27.2794 8.16722 27.2794 8.16637C27.2794 8.16553 27.2794 8.16469 27.2794 8.16384C27.2794 8.163 27.2794 8.16215 27.2794 8.16131C27.2794 8.16047 27.2794 8.15962 27.2794 8.15878C27.2794 8.15794 27.2794 8.15709 27.2794 8.15625C27.2794 8.1554 27.2794 8.15456 27.2794 8.15372C27.2794 8.15287 27.2794 8.15203 27.2794 8.15119C27.2794 8.15034 27.2794 8.1495 27.2794 8.14865C27.2794 8.14781 27.2794 8.14697 27.2794 8.14612C27.2794 8.14528 27.2794 8.14444 27.2794 8.14359C27.2794 8.14275 27.2794 8.1419 27.2794 8.14106C27.2794 8.14022 27.2794 8.13937 27.2794 8.13853C27.2794 8.13769 27.2794 8.13684 27.2794 8.136C27.2794 8.13515 27.2794 8.13431 27.2794 8.13347C27.2794 8.13262 27.2794 8.13178 27.2794 8.13094C27.2794 8.13009 27.2794 8.12925 27.2794 8.1284C27.2794 8.12756 27.2794 8.12672 27.2794 8.12587C27.2794 8.12503 27.2794 8.12419 27.2794 8.12334C27.2794 8.1225 27.2794 8.12165 27.2794 8.12081C27.2794 8.11997 27.2794 8.11912 27.2794 8.11828C27.2794 8.11744 27.2794 8.11659 27.2794 8.11575C27.2794 8.1149 27.2794 8.11406 27.2794 8.11322C27.2794 8.11237 27.2794 8.11153 27.2794 8.11069C27.2794 8.10984 27.2794 8.109 27.2794 8.10815C27.2794 8.10731 27.2794 8.10647 27.2794 8.10562C27.2794 8.10478 27.2794 8.10394 27.2794 8.10309C27.2794 8.10225 27.2794 8.1014 27.2794 8.10056C27.2794 8.09972 27.2794 8.09887 27.2794 8.09803C27.2794 8.09719 27.2794 8.09634 27.2794 8.0955C27.2794 8.09465 27.2794 8.09381 27.2794 8.09297C27.2794 8.09212 27.2794 8.09128 27.2794 8.09044C27.2794 8.08959 27.2794 8.08875 27.2794 8.0879C27.2794 8.08706 27.2794 8.08622 27.2794 8.08537C27.2794 8.08453 27.2794 8.08369 27.2794 8.08284C27.2794 8.082 27.2794 8.08115 27.2794 8.08031C27.2794 8.07947 27.2794 8.07862 27.2794 8.07778C27.2794 8.07694 27.2794 8.07609 27.2794 8.07525C27.2794 8.0744 27.2794 8.07356 27.2794 8.07272C27.2794 8.07187 27.2794 8.07103 27.2794 8.07019C27.2794 8.06934 27.2794 8.0685 27.2794 8.06765C27.2794 8.06681 27.2794 8.06597 27.2794 8.06512C27.2794 8.06428 27.2794 8.06344 27.2794 8.06259C27.2794 8.06175 27.2794 8.0609 27.2794 8.06006C27.2794 8.05922 27.2794 8.05837 27.2794 8.05753C27.2794 8.05669 27.2794 8.05584 27.2794 8.055C27.2794 8.05415 27.2794 8.05331 27.2794 8.05247C27.2794 8.05162 27.2794 8.05078 27.2794 8.04994C27.2794 8.04909 27.2794 8.04825 27.2794 8.0474C27.2794 8.04656 27.2794 8.04572 27.2794 8.04487C27.2794 8.04403 27.2794 8.04319 27.2794 8.04234C27.2794 8.0415 27.2794 8.04065 27.2794 8.03981C27.2794 8.03897 27.2794 8.03812 27.2794 8.03728C27.2794 8.03644 27.2794 8.03559 27.2794 8.03475C27.2794 8.0339 27.2794 8.03306 27.2794 8.03222C27.2794 8.03137 27.2794 8.03053 27.2794 8.02969C27.2794 8.02884 27.2794 8.028 27.2794 8.02715C27.2794 8.02631 27.2794 8.02547 27.2794 8.02462C27.2794 8.02378 27.2794 8.02294 27.2794 8.02209C27.2794 8.02125 27.2794 8.0204 27.2794 8.01956C27.2794 8.01872 27.2794 8.01787 27.2794 8.01703C27.2794 8.01619 27.2794 8.01534 27.2794 8.0145C27.2794 8.01365 27.2794 8.01281 27.2794 8.01197C27.2794 8.01112 27.2794 8.01028 27.2794 8.00944C27.2794 8.00859 27.2794 8.00775 27.2794 8.0069C27.2794 8.00606 27.2794 8.00522 27.2794 8.00437C27.2794 8.00353 27.2794 8.00269 27.2794 8.00184C27.2794 8.001 27.2794 8.00015 27.2794 7.99931C27.2794 7.99847 27.2794 7.99762 27.2794 7.99678C27.2794 7.99594 27.2794 7.99509 27.2794 7.99425C27.2794 7.9934 27.2794 7.99256 27.2794 7.99172C27.2794 7.99087 27.2794 7.99003 27.2794 7.98919C27.2794 7.98834 27.2794 7.9875 27.2794 7.98665C27.2794 7.98581 27.2794 7.98497 27.2794 7.98412C27.2794 7.98328 27.2794 7.98244 27.2794 7.98159C27.2794 7.98075 27.2794 7.9799 27.2794 7.97906C27.2794 7.97822 27.2794 7.97737 27.2794 7.97653C27.2794 7.97569 27.2794 7.97484 27.2794 7.974C27.2794 7.97315 27.2794 7.97231 27.2794 7.97147C27.2794 7.97062 27.2794 7.96978 27.2794 7.96894C27.2794 7.96809 27.2794 7.96725 27.2794 7.9664C27.2794 7.96556 27.2794 7.96472 27.2794 7.96387C27.2794 7.96303 27.2794 7.96219 27.2794 7.96134C27.2794 7.9605 27.2794 7.95965 27.2794 7.95881C27.2794 7.95797 27.2794 7.95712 27.2794 7.95628C27.2794 7.95544 27.2794 7.95459 27.2794 7.95375C27.2794 7.9529 27.2794 7.95206 27.2794 7.95122C27.2794 7.95037 27.2794 7.94953 27.2794 7.94869C27.2794 7.94784 27.2794 7.947 27.2794 7.94615C27.2794 7.94531 27.2794 7.94447 27.2794 7.94362C27.2794 7.94278 27.2794 7.94194 27.2794 7.94109C27.2794 7.94025 27.2794 7.9394 27.2794 7.93856C27.2794 7.93772 27.2794 7.93687 27.2794 7.93603C27.2794 7.93519 27.2794 7.93434 27.2794 7.9335C27.2794 7.93265 27.2794 7.93181 27.2794 7.93097C27.2794 7.93012 27.2794 7.92928 27.2794 7.92844C27.2794 7.92759 27.2794 7.92675 27.2794 7.9259C27.2794 7.92506 27.2794 7.92422 27.2794 7.92337C27.2794 7.92253 27.2794 7.92169 27.2794 7.92084C27.2794 7.92 27.2794 7.91915 27.2794 7.91831C27.2794 7.91747 27.2794 7.91662 27.2794 7.91578C27.2794 7.91494 27.2794 7.91409 27.2794 7.91325C27.2794 7.9124 27.2794 7.91156 27.2794 7.91072C27.2794 7.90987 27.2794 7.90903 27.2794 7.90819C27.2794 7.90734 27.2794 7.9065 27.2794 7.90565C27.2794 7.90481 27.2794 7.90397 27.2794 7.90312C27.2794 7.90228 27.2794 7.90144 27.2794 7.90059C27.2794 7.89975 27.2794 7.8989 27.2794 7.89806C27.2794 7.89722 27.2794 7.89637 27.2794 7.89553C27.2794 7.89469 27.2794 7.89384 27.2794 7.893C27.2794 7.89215 27.2794 7.89131 27.2794 7.89047C27.2794 7.88962 27.2794 7.88878 27.2794 7.88794C27.2794 7.88709 27.2794 7.88625 27.2794 7.8854C27.2794 7.88456 27.2794 7.88372 27.2794 7.88287C27.2794 7.88203 27.2794 7.88119 27.2794 7.88034C27.2794 7.8795 27.2794 7.87865 27.2794 7.87781C27.2794 7.87697 27.2794 7.87612 27.2794 7.87528C27.2794 7.87444 27.2794 7.87359 27.2794 7.87275C27.2794 7.8719 27.2794 7.87106 27.2794 7.87022C27.2794 7.86937 27.2794 7.86853 27.2794 7.86769C27.2794 7.86684 27.2794 7.866 27.2794 7.86515C27.2794 7.86431 27.2794 7.86347 27.2794 7.86262C27.2794 7.86178 27.2794 7.86094 27.2794 7.86009C27.2794 7.85925 27.2794 7.8584 27.2794 7.85756C27.2794 7.85672 27.2794 7.85587 27.2794 7.85503C27.2794 7.85419 27.2794 7.85334 27.2794 7.8525C27.2794 7.85165 27.2794 7.85081 27.2794 7.84997C27.2794 7.84912 27.2794 7.84828 27.2794 7.84744C27.2794 7.84659 27.2794 7.84575 27.2794 7.8449C27.2794 7.84406 27.2794 7.84322 27.2794 7.84237C27.2794 7.84153 27.2794 7.84069 27.2794 7.83984C27.2794 7.839 27.2794 7.83815 27.2794 7.83731C27.2794 7.83647 27.2794 7.83562 27.2794 7.83478C27.2794 7.83394 27.2794 7.83309 27.2794 7.83225C27.2794 7.8314 27.2794 7.83056 27.2794 7.82972C27.2794 7.82887 27.2794 7.82803 27.2794 7.82719C27.2794 7.82634 27.2794 7.8255 27.2794 7.82465C27.2794 7.82381 27.2794 7.82297 27.2794 7.82212C27.2794 7.82128 27.2794 7.82044 27.2794 7.81959C27.2794 7.81875 27.2794 7.8179 27.2794 7.81706C27.2794 7.81622 27.2794 7.81537 27.2794 7.81453C27.2794 7.81369 27.2794 7.81284 27.2794 7.812C27.2794 7.81115 27.2794 7.81031 27.2794 7.80947C27.2794 7.80862 27.2794 7.80778 27.2794 7.80694C27.2794 7.80609 27.2794 7.80525 27.2794 7.8044C27.2794 7.80356 27.2794 7.80272 27.2794 7.80187C27.2794 7.80103 27.2794 7.80019 27.2794 7.79934C27.2794 7.7985 27.2794 7.79765 27.2794 7.79681C27.2794 7.79597 27.2794 7.79512 27.2794 7.79428C27.2794 7.79344 27.2794 7.79259 27.2794 7.79175C27.2794 7.7909 27.2794 7.79006 27.2794 7.78922C27.2794 7.78837 27.2794 7.78753 27.2794 7.78669C27.2794 7.78584 27.2794 7.785 27.2794 7.78415C27.2794 7.78331 27.2794 7.78247 27.2794 7.78162C27.2794 7.78078 27.2794 7.77994 27.2794 7.77909C27.2794 7.77825 27.2794 7.7774 27.2794 7.77656C27.2794 7.77572 27.2794 7.77487 27.2794 7.77403C27.2794 7.77319 27.2794 7.77234 27.2794 7.7715C27.2794 7.77065 27.2794 7.76981 27.2794 7.76897C27.2794 7.76812 27.2794 7.76728 27.2794 7.76644C27.2794 7.76559 27.2794 7.76475 27.2794 7.7639C27.2794 7.76306 27.2794 7.76222 27.2794 7.76137C27.2794 7.76053 27.2794 7.75969 27.2794 7.75884C27.2794 7.758 27.2794 7.75715 27.2794 7.75631C27.2794 7.75547 27.2794 7.75462 27.2794 7.75378C27.2794 7.75294 27.2794 7.75209 27.2794 7.75125C27.2794 7.7504 27.2794 7.74956 27.2794 7.74872C27.2794 7.74787 27.2794 7.74703 27.2794 7.74619C27.2794 7.74534 27.2794 7.7445 27.2794 7.74366C27.2794 7.74281 27.2794 7.74197 27.2794 7.74112C27.2794 7.74028 27.2794 7.73944 27.2794 7.73859C27.2794 7.73775 27.2794 7.73691 27.2794 7.73606C27.2794 7.73522 27.2794 7.73437 27.2794 7.73353C27.2794 7.73269 27.2794 7.73184 27.2794 7.731C27.2794 7.73016 27.2794 7.72931 27.2794 7.72847C27.2794 7.72762 27.2794 7.72678 27.2794 7.72594C27.2794 7.72509 27.2794 7.72425 27.2794 7.72341C27.2794 7.72256 27.2794 7.72172 27.2794 7.72087C27.2794 7.72003 27.2794 7.71919 27.2794 7.71834C27.2794 7.7175 27.2794 7.71666 27.2794 7.71581C27.2794 7.71497 27.2794 7.71412 27.2794 7.71328C27.2794 7.71244 27.2794 7.71159 27.2794 7.71075C27.2794 7.70991 27.2794 7.70906 27.2794 7.70822C27.2794 7.70737 27.2794 7.70653 27.2794 7.70569C27.2794 7.70484 27.2794 7.704 27.2794 7.70316C27.2794 7.70231 27.2794 7.70147 27.2794 7.70062C27.2794 7.69978 27.2794 7.69894 27.2794 7.69809C27.2794 7.69725 27.2794 7.69641 27.2794 7.69556C27.2794 7.69472 27.2794 7.69387 27.2794 7.69303C27.2794 7.69219 27.2794 7.69134 27.2794 7.6905C27.2794 7.68966 27.2794 7.68881 27.2794 7.68797C27.2794 7.68712 27.2794 7.68628 27.2794 7.68544C27.2794 7.68459 27.2794 7.68375 27.2794 7.68291C27.2794 7.68206 27.2794 7.68122 27.2794 7.68037C27.2794 7.67953 27.2794 7.67869 27.2794 7.67784C27.2794 7.677 27.2794 7.67616 27.2794 7.67531C27.2794 7.67447 27.2794 7.67362 27.2794 7.67278C27.2794 7.67194 27.2794 7.67109 27.2794 7.67025C27.2794 7.66941 27.2794 7.66856 27.2794 7.66772C27.2794 7.66687 27.2794 7.66603 27.2794 7.66519C27.2794 7.66434 27.2794 7.6635 27.2794 7.66266C27.2794 7.66181 27.2794 7.66097 27.2794 7.66012C27.2794 7.65928 27.2794 7.65844 27.2794 7.65759C27.2794 7.65675 27.2794 7.65591 27.2794 7.65506C27.2794 7.65422 27.2794 7.65337 27.2794 7.65253C27.2794 7.65169 27.2794 7.65084 27.2794 7.65C27.2794 7.64916 27.2794 7.64831 27.2794 7.64747C27.2794 7.64662 27.2794 7.64578 27.2794 7.64494C27.2794 7.64409 27.2794 7.64325 27.2794 7.64241C27.2794 7.64156 27.2794 7.64072 27.2794 7.63987C27.2794 7.63903 27.2794 7.63819 27.2794 7.63734C27.2794 7.6365 27.2794 7.63566 27.2794 7.63481C27.2794 7.63397 27.2794 7.63312 27.2794 7.63228C27.2794 7.63144 27.2794 7.63059 27.2794 7.62975C27.2794 7.62891 27.2794 7.62806 27.2794 7.62722C27.2794 7.62637 27.2794 7.62553 27.2794 7.62469C27.2794 7.62384 27.2794 7.623 27.2794 7.62216C27.2794 7.62131 27.2794 7.62047 27.2794 7.61962C27.2794 7.61878 27.2794 7.61794 27.2794 7.61709C27.2794 7.61625 27.2794 7.61541 27.2794 7.61456C27.2794 7.61372 27.2794 7.61287 27.2794 7.61203C27.2794 7.61119 27.2794 7.61034 27.2794 7.6095C27.2794 7.60866 27.2794 7.60781 27.2794 7.60697C27.2794 7.60612 27.2794 7.60528 27.2794 7.60444C27.2794 7.60359 27.2794 7.60275 27.2794 7.60191C27.2794 7.60106 27.2794 7.60022 27.2794 7.59937C27.2794 7.59853 27.2794 7.59769 27.2794 7.59684C27.2794 7.596 27.2794 7.59516 27.2794 7.59431C27.2794 7.59347 27.2794 7.59262 27.2794 7.59178C27.2794 7.59094 27.2794 7.59009 27.2794 7.58925C27.2794 7.58841 27.2794 7.58756 27.2794 7.58672C27.2794 7.58587 27.2794 7.58503 27.2794 7.58419C27.2794 7.58334 27.2794 7.5825 27.2794 7.58166C27.2794 7.58081 27.2794 7.57997 27.2794 7.57912C27.2794 7.57828 27.2794 7.57744 27.2794 7.57659C27.2794 7.57575 27.2794 7.57491 27.2794 7.57406C27.2794 7.57322 27.2794 7.57237 27.2794 7.57153C27.2794 7.57069 27.2794 7.56984 27.2794 7.569C27.2794 7.56816 27.2794 7.56731 27.2794 7.56647C27.2794 7.56562 27.2794 7.56478 27.2794 7.56394C27.2794 7.56309 27.2794 7.56225 27.2794 7.56141C27.2794 7.56056 27.2794 7.55972 27.2794 7.55887C27.2794 7.55803 27.2794 7.55719 27.2794 7.55634C27.2794 7.5555 27.2794 7.55466 27.2794 7.55381C27.2794 7.55297 27.2794 7.55212 27.2794 7.55128C27.2794 7.55044 27.2794 7.54959 27.2794 7.54875C27.2794 7.54791 27.2794 7.54706 27.2794 7.54622C27.2794 7.54537 27.2794 7.54453 27.2794 7.54369C27.2794 7.54284 27.2794 7.542 27.2794 7.54116C27.2794 7.54031 27.2794 7.53947 27.2794 7.53862C27.2794 7.53778 27.2794 7.53694 27.2794 7.53609C27.2794 7.53525 27.2794 7.53441 27.2794 7.53356C27.2794 7.53272 27.2794 7.53187 27.2794 7.53103C27.2794 7.53019 27.2794 7.52934 27.2794 7.5285C27.2794 7.52766 27.2794 7.52681 27.2794 7.52597C27.2794 7.52512 27.2794 7.52428 27.2794 7.52344C27.2794 7.52259 27.2794 7.52175 27.2794 7.52091C27.2794 7.52006 27.2794 7.51922 27.2794 7.51837C27.2794 7.51753 27.2794 7.51669 27.2794 7.51584C27.2794 7.515 27.2794 7.51416 27.2794 7.51331C27.2794 7.51247 27.2794 7.51162 27.2794 7.51078C27.2794 7.50994 27.2794 7.50909 27.2794 7.50825C27.2794 7.50741 27.2794 7.50656 27.2794 7.50572C27.2794 7.50487 27.2794 7.50403 27.2794 7.50319C27.2794 7.50234 27.2794 7.5015 27.2794 7.50066C27.2794 7.49981 27.2794 7.49897 27.2794 7.49812C27.2794 7.49728 27.2794 7.49644 27.2794 7.49559C27.2794 7.49475 27.2794 7.49391 27.2794 7.49306C27.2794 7.49222 27.2794 7.49137 27.2794 7.49053C27.2794 7.48969 27.2794 7.48884 27.2794 7.488C27.2794 7.48716 27.2794 7.48631 27.2794 7.48547C27.2794 7.48462 27.2794 7.48378 27.2794 7.48294C27.2794 7.48209 27.2794 7.48125 27.2794 7.48041C27.2794 7.47956 27.2794 7.47872 27.2794 7.47787C27.2794 7.47703 27.2794 7.47619 27.2794 7.47534C27.2794 7.4745 27.2794 7.47366 27.2794 7.47281C27.2794 7.47197 27.2794 7.47112 27.2794 7.47028C27.2794 7.46944 27.2794 7.46859 27.2794 7.46775C27.2794 7.46691 27.2794 7.46606 27.2794 7.46522C27.2794 7.46437 27.2794 7.46353 27.2794 7.46269C27.2794 7.46184 27.2794 7.461 27.2794 7.46016C27.2794 7.45931 27.2794 7.45847 27.2794 7.45762C27.2794 7.45678 27.2794 7.45594 27.2794 7.45509C27.2794 7.45425 27.2794 7.45341 27.2794 7.45256C27.2794 7.45172 27.2794 7.45087 27.2794 7.45003C27.2794 7.44919 27.2794 7.44834 27.2794 7.4475C27.2794 7.44666 27.2794 7.44581 27.2794 7.44497C27.2794 7.44412 27.2794 7.44328 27.2794 7.44244C27.2794 7.44159 27.2794 7.44075 27.2794 7.43991C27.2794 7.43906 27.2794 7.43822 27.2794 7.43737C27.2794 7.43653 27.2794 7.43569 27.2794 7.43484C27.2794 7.434 27.2794 7.43316 27.2794 7.43231C27.2794 7.43147 27.2794 7.43062 27.2794 7.42978C27.2794 7.42894 27.2794 7.42809 27.2794 7.42725C27.2794 7.42641 27.2794 7.42556 27.2794 7.42472C27.2794 7.42387 27.2794 7.42303 27.2794 7.42219C27.2794 7.42134 27.2794 7.4205 27.2794 7.41966C27.2794 7.41881 27.2794 7.41797 27.2794 7.41712C27.2794 7.41628 27.2794 7.41544 27.2794 7.41459C27.2794 7.41375 27.2794 7.41291 27.2794 7.41206C27.2794 7.41122 27.2794 7.41037 27.2794 7.40953C27.2794 7.40869 27.2794 7.40784 27.2794 7.407C27.2794 7.40616 27.2794 7.40531 27.2794 7.40447C27.2794 7.40362 27.2794 7.40278 27.2794 7.40194C27.2794 7.40109 27.2794 7.40025 27.2794 7.39941C27.2794 7.39856 27.2794 7.39772 27.2794 7.39687C27.2794 7.39603 27.2794 7.39519 27.2794 7.39434C27.2794 7.3935 27.2794 7.39266 27.2794 7.39181C27.2794 7.39097 27.2794 7.39012 27.2794 7.38928C27.2794 7.38844 27.2794 7.38759 27.2794 7.38675C27.2794 7.38591 27.2794 7.38506 27.2794 7.38422C27.2794 7.38337 27.2794 7.38253 27.2794 7.38169C27.2794 7.38084 27.2794 7.38 27.2794 7.37916C27.2794 7.37831 27.2794 7.37747 27.2794 7.37662C27.2794 7.37578 27.2794 7.37494 27.2794 7.37409C27.2794 7.37325 27.2794 7.37241 27.2794 7.37156C27.2794 7.37072 27.2794 7.36987 27.2794 7.36903C27.2794 7.36819 27.2794 7.36734 27.2794 7.3665C27.2794 7.36566 27.2794 7.36481 27.2794 7.36397C27.2794 7.36312 27.2794 7.36228 27.2794 7.36144C27.2794 7.36059 27.2794 7.35975 27.2794 7.35891C27.2794 7.35806 27.2794 7.35722 27.2794 7.35637C27.2794 7.35553 27.2794 7.35469 27.2794 7.35384C27.2794 7.353 27.2794 7.35216 27.2794 7.35131C27.2794 7.35047 27.2794 7.34962 27.2794 7.34878C27.2794 7.34794 27.2794 7.34709 27.2794 7.34625C27.2794 7.34541 27.2794 7.34456 27.2794 7.34372C27.2794 7.34287 27.2794 7.34203 27.2794 7.34119C27.2794 7.34034 27.2794 7.3395 27.2794 7.33866C27.2794 7.33781 27.2794 7.33697 27.2794 7.33612C27.2794 7.33528 27.2794 7.33444 27.2794 7.33359C27.2794 7.33275 27.2794 7.33191 27.2794 7.33106C27.2794 7.33022 27.2794 7.32937 27.2794 7.32853C27.2794 7.32769 27.2794 7.32684 27.2794 7.326C27.2794 7.32516 27.2794 7.32431 27.2794 7.32347C27.2794 7.32262 27.2794 7.32178 27.2794 7.32094C27.2794 7.32009 27.2794 7.31925 27.2794 7.31841C27.2794 7.31756 27.2794 7.31672 27.2794 7.31587C27.2794 7.31503 27.2794 7.31419 27.2794 7.31334C27.2794 7.3125 27.2794 7.31166 27.2794 7.31081C27.2794 7.30997 27.2794 7.30912 27.2794 7.30828C27.2794 7.30744 27.2794 7.30659 27.2794 7.30575C27.2794 7.30491 27.2794 7.30406 27.2794 7.30322C27.2794 7.30237 27.2794 7.30153 27.2794 7.30069C27.2794 7.29984 27.2794 7.299 27.2794 7.29816C27.2794 7.29731 27.2794 7.29647 27.2794 7.29562C27.2794 7.29478 27.2794 7.29394 27.2794 7.29309C27.2794 7.29225 27.2794 7.29141 27.2794 7.29056C27.2794 7.28972 27.2794 7.28887 27.2794 7.28803C27.2794 7.28719 27.2794 7.28634 27.2794 7.2855C27.2794 7.28466 27.2794 7.28381 27.2794 7.28297C27.2794 7.28212 27.2794 7.28128 27.2794 7.28044C27.2794 7.27959 27.2794 7.27875 27.2794 7.27791C27.2794 7.27706 27.2794 7.27622 27.2794 7.27537C27.2794 7.27453 27.2794 7.27369 27.2794 7.27284C27.2794 7.272 27.2794 7.27116 27.2794 7.27031C27.2794 7.26947 27.2794 7.26862 27.2794 7.26778C27.2794 7.26694 27.2794 7.26609 27.2794 7.26525C27.2794 7.26441 27.2794 7.26356 27.2794 7.26272C27.2794 7.26187 27.2794 7.26103 27.2794 7.26019C27.2794 7.25934 27.2794 7.2585 27.2794 7.25766C27.2794 7.25681 27.2794 7.25597 27.2794 7.25512C27.2794 7.25428 27.2794 7.25344 27.2794 7.25259C27.2794 7.25175 27.2794 7.25091 27.2794 7.25006C27.2794 7.24922 27.2794 7.24837 27.2794 7.24753C27.2794 7.24669 27.2794 7.24584 27.2794 7.245C27.2794 7.24416 27.2794 7.24331 27.2794 7.24247C27.2794 7.24162 27.2794 7.24078 27.2794 7.23994C27.2794 7.23909 27.2794 7.23825 27.2794 7.23741C27.2794 7.23656 27.2794 7.23572 27.2794 7.23487C27.2794 7.23403 27.2794 7.23319 27.2794 7.23234C27.2794 7.2315 27.2794 7.23066 27.2794 7.22981C27.2794 7.22897 27.2794 7.22812 27.2794 7.22728C27.2794 7.22644 27.2794 7.22559 27.2794 7.22475C27.2794 7.22391 27.2794 7.22306 27.2794 7.22222C27.2794 7.22137 27.2794 7.22053 27.2794 7.21969C27.2794 7.21884 27.2794 7.218 27.2794 7.21716C27.2794 7.21631 27.2794 7.21547 27.2794 7.21462C27.2794 7.21378 27.2794 7.21294 27.2794 7.21209C27.2794 7.21125 27.2794 7.21041 27.2794 7.20956C27.2794 7.20872 27.2794 7.20787 27.2794 7.20703C27.2794 7.20619 27.2794 7.20534 27.2794 7.2045C27.2794 7.20366 27.2794 7.20281 27.2794 7.20197C27.2794 7.20112 27.2794 7.20028 27.2794 7.19944C27.2794 7.19859 27.2794 7.19775 27.2794 7.19691C27.2794 7.19606 27.2794 7.19522 27.2794 7.19437C27.2794 7.19353 27.2794 7.19269 27.2794 7.19184C27.2794 7.191 27.2794 7.19016 27.2794 7.18931C27.2794 7.18847 27.2794 7.18762 27.2794 7.18678C27.2794 7.18594 27.2794 7.18509 27.2794 7.18425C27.2794 7.18341 27.2794 7.18256 27.2794 7.18172C27.2794 7.18087 27.2794 7.18003 27.2794 7.17919C27.2794 7.17834 27.2794 7.1775 27.2794 7.17666C27.2794 7.17581 27.2794 7.17497 27.2794 7.17413C27.2794 7.17328 27.2794 7.17244 27.2794 7.17159C27.2794 7.17075 27.2794 7.16991 27.2794 7.16906C27.2794 7.16822 27.2794 7.16738 27.2794 7.16653C27.2794 7.16569 27.2794 7.16484 27.2794 7.164H25.2794C25.2794 7.16484 25.2794 7.16569 25.2794 7.16653C25.2794 7.16738 25.2794 7.16822 25.2794 7.16906C25.2794 7.16991 25.2794 7.17075 25.2794 7.17159C25.2794 7.17244 25.2794 7.17328 25.2794 7.17413C25.2794 7.17497 25.2794 7.17581 25.2794 7.17666C25.2794 7.1775 25.2794 7.17834 25.2794 7.17919C25.2794 7.18003 25.2794 7.18087 25.2794 7.18172C25.2794 7.18256 25.2794 7.18341 25.2794 7.18425C25.2794 7.18509 25.2794 7.18594 25.2794 7.18678C25.2794 7.18762 25.2794 7.18847 25.2794 7.18931C25.2794 7.19016 25.2794 7.191 25.2794 7.19184C25.2794 7.19269 25.2794 7.19353 25.2794 7.19437C25.2794 7.19522 25.2794 7.19606 25.2794 7.19691C25.2794 7.19775 25.2794 7.19859 25.2794 7.19944C25.2794 7.20028 25.2794 7.20112 25.2794 7.20197C25.2794 7.20281 25.2794 7.20366 25.2794 7.2045C25.2794 7.20534 25.2794 7.20619 25.2794 7.20703C25.2794 7.20787 25.2794 7.20872 25.2794 7.20956C25.2794 7.21041 25.2794 7.21125 25.2794 7.21209C25.2794 7.21294 25.2794 7.21378 25.2794 7.21462C25.2794 7.21547 25.2794 7.21631 25.2794 7.21716C25.2794 7.218 25.2794 7.21884 25.2794 7.21969C25.2794 7.22053 25.2794 7.22137 25.2794 7.22222C25.2794 7.22306 25.2794 7.22391 25.2794 7.22475C25.2794 7.22559 25.2794 7.22644 25.2794 7.22728C25.2794 7.22812 25.2794 7.22897 25.2794 7.22981C25.2794 7.23066 25.2794 7.2315 25.2794 7.23234C25.2794 7.23319 25.2794 7.23403 25.2794 7.23487C25.2794 7.23572 25.2794 7.23656 25.2794 7.23741C25.2794 7.23825 25.2794 7.23909 25.2794 7.23994C25.2794 7.24078 25.2794 7.24162 25.2794 7.24247C25.2794 7.24331 25.2794 7.24416 25.2794 7.245C25.2794 7.24584 25.2794 7.24669 25.2794 7.24753C25.2794 7.24837 25.2794 7.24922 25.2794 7.25006C25.2794 7.25091 25.2794 7.25175 25.2794 7.25259C25.2794 7.25344 25.2794 7.25428 25.2794 7.25512C25.2794 7.25597 25.2794 7.25681 25.2794 7.25766C25.2794 7.2585 25.2794 7.25934 25.2794 7.26019C25.2794 7.26103 25.2794 7.26187 25.2794 7.26272C25.2794 7.26356 25.2794 7.26441 25.2794 7.26525C25.2794 7.26609 25.2794 7.26694 25.2794 7.26778C25.2794 7.26862 25.2794 7.26947 25.2794 7.27031C25.2794 7.27116 25.2794 7.272 25.2794 7.27284C25.2794 7.27369 25.2794 7.27453 25.2794 7.27537C25.2794 7.27622 25.2794 7.27706 25.2794 7.27791C25.2794 7.27875 25.2794 7.27959 25.2794 7.28044C25.2794 7.28128 25.2794 7.28212 25.2794 7.28297C25.2794 7.28381 25.2794 7.28466 25.2794 7.2855C25.2794 7.28634 25.2794 7.28719 25.2794 7.28803C25.2794 7.28887 25.2794 7.28972 25.2794 7.29056C25.2794 7.29141 25.2794 7.29225 25.2794 7.29309C25.2794 7.29394 25.2794 7.29478 25.2794 7.29562C25.2794 7.29647 25.2794 7.29731 25.2794 7.29816C25.2794 7.299 25.2794 7.29984 25.2794 7.30069C25.2794 7.30153 25.2794 7.30237 25.2794 7.30322C25.2794 7.30406 25.2794 7.30491 25.2794 7.30575C25.2794 7.30659 25.2794 7.30744 25.2794 7.30828C25.2794 7.30912 25.2794 7.30997 25.2794 7.31081C25.2794 7.31166 25.2794 7.3125 25.2794 7.31334C25.2794 7.31419 25.2794 7.31503 25.2794 7.31587C25.2794 7.31672 25.2794 7.31756 25.2794 7.31841C25.2794 7.31925 25.2794 7.32009 25.2794 7.32094C25.2794 7.32178 25.2794 7.32262 25.2794 7.32347C25.2794 7.32431 25.2794 7.32516 25.2794 7.326C25.2794 7.32684 25.2794 7.32769 25.2794 7.32853C25.2794 7.32937 25.2794 7.33022 25.2794 7.33106C25.2794 7.33191 25.2794 7.33275 25.2794 7.33359C25.2794 7.33444 25.2794 7.33528 25.2794 7.33612C25.2794 7.33697 25.2794 7.33781 25.2794 7.33866C25.2794 7.3395 25.2794 7.34034 25.2794 7.34119C25.2794 7.34203 25.2794 7.34287 25.2794 7.34372C25.2794 7.34456 25.2794 7.34541 25.2794 7.34625C25.2794 7.34709 25.2794 7.34794 25.2794 7.34878C25.2794 7.34962 25.2794 7.35047 25.2794 7.35131C25.2794 7.35216 25.2794 7.353 25.2794 7.35384C25.2794 7.35469 25.2794 7.35553 25.2794 7.35637C25.2794 7.35722 25.2794 7.35806 25.2794 7.35891C25.2794 7.35975 25.2794 7.36059 25.2794 7.36144C25.2794 7.36228 25.2794 7.36312 25.2794 7.36397C25.2794 7.36481 25.2794 7.36566 25.2794 7.3665C25.2794 7.36734 25.2794 7.36819 25.2794 7.36903C25.2794 7.36987 25.2794 7.37072 25.2794 7.37156C25.2794 7.37241 25.2794 7.37325 25.2794 7.37409C25.2794 7.37494 25.2794 7.37578 25.2794 7.37662C25.2794 7.37747 25.2794 7.37831 25.2794 7.37916C25.2794 7.38 25.2794 7.38084 25.2794 7.38169C25.2794 7.38253 25.2794 7.38337 25.2794 7.38422C25.2794 7.38506 25.2794 7.38591 25.2794 7.38675C25.2794 7.38759 25.2794 7.38844 25.2794 7.38928C25.2794 7.39012 25.2794 7.39097 25.2794 7.39181C25.2794 7.39266 25.2794 7.3935 25.2794 7.39434C25.2794 7.39519 25.2794 7.39603 25.2794 7.39687C25.2794 7.39772 25.2794 7.39856 25.2794 7.39941C25.2794 7.40025 25.2794 7.40109 25.2794 7.40194C25.2794 7.40278 25.2794 7.40362 25.2794 7.40447C25.2794 7.40531 25.2794 7.40616 25.2794 7.407C25.2794 7.40784 25.2794 7.40869 25.2794 7.40953C25.2794 7.41037 25.2794 7.41122 25.2794 7.41206C25.2794 7.41291 25.2794 7.41375 25.2794 7.41459C25.2794 7.41544 25.2794 7.41628 25.2794 7.41712C25.2794 7.41797 25.2794 7.41881 25.2794 7.41966C25.2794 7.4205 25.2794 7.42134 25.2794 7.42219C25.2794 7.42303 25.2794 7.42387 25.2794 7.42472C25.2794 7.42556 25.2794 7.42641 25.2794 7.42725C25.2794 7.42809 25.2794 7.42894 25.2794 7.42978C25.2794 7.43062 25.2794 7.43147 25.2794 7.43231C25.2794 7.43316 25.2794 7.434 25.2794 7.43484C25.2794 7.43569 25.2794 7.43653 25.2794 7.43737C25.2794 7.43822 25.2794 7.43906 25.2794 7.43991C25.2794 7.44075 25.2794 7.44159 25.2794 7.44244C25.2794 7.44328 25.2794 7.44412 25.2794 7.44497C25.2794 7.44581 25.2794 7.44666 25.2794 7.4475C25.2794 7.44834 25.2794 7.44919 25.2794 7.45003C25.2794 7.45087 25.2794 7.45172 25.2794 7.45256C25.2794 7.45341 25.2794 7.45425 25.2794 7.45509C25.2794 7.45594 25.2794 7.45678 25.2794 7.45762C25.2794 7.45847 25.2794 7.45931 25.2794 7.46016C25.2794 7.461 25.2794 7.46184 25.2794 7.46269C25.2794 7.46353 25.2794 7.46437 25.2794 7.46522C25.2794 7.46606 25.2794 7.46691 25.2794 7.46775C25.2794 7.46859 25.2794 7.46944 25.2794 7.47028C25.2794 7.47112 25.2794 7.47197 25.2794 7.47281C25.2794 7.47366 25.2794 7.4745 25.2794 7.47534C25.2794 7.47619 25.2794 7.47703 25.2794 7.47787C25.2794 7.47872 25.2794 7.47956 25.2794 7.48041C25.2794 7.48125 25.2794 7.48209 25.2794 7.48294C25.2794 7.48378 25.2794 7.48462 25.2794 7.48547C25.2794 7.48631 25.2794 7.48716 25.2794 7.488C25.2794 7.48884 25.2794 7.48969 25.2794 7.49053C25.2794 7.49137 25.2794 7.49222 25.2794 7.49306C25.2794 7.49391 25.2794 7.49475 25.2794 7.49559C25.2794 7.49644 25.2794 7.49728 25.2794 7.49812C25.2794 7.49897 25.2794 7.49981 25.2794 7.50066C25.2794 7.5015 25.2794 7.50234 25.2794 7.50319C25.2794 7.50403 25.2794 7.50487 25.2794 7.50572C25.2794 7.50656 25.2794 7.50741 25.2794 7.50825C25.2794 7.50909 25.2794 7.50994 25.2794 7.51078C25.2794 7.51162 25.2794 7.51247 25.2794 7.51331C25.2794 7.51416 25.2794 7.515 25.2794 7.51584C25.2794 7.51669 25.2794 7.51753 25.2794 7.51837C25.2794 7.51922 25.2794 7.52006 25.2794 7.52091C25.2794 7.52175 25.2794 7.52259 25.2794 7.52344C25.2794 7.52428 25.2794 7.52512 25.2794 7.52597C25.2794 7.52681 25.2794 7.52766 25.2794 7.5285C25.2794 7.52934 25.2794 7.53019 25.2794 7.53103C25.2794 7.53187 25.2794 7.53272 25.2794 7.53356C25.2794 7.53441 25.2794 7.53525 25.2794 7.53609C25.2794 7.53694 25.2794 7.53778 25.2794 7.53862C25.2794 7.53947 25.2794 7.54031 25.2794 7.54116C25.2794 7.542 25.2794 7.54284 25.2794 7.54369C25.2794 7.54453 25.2794 7.54537 25.2794 7.54622C25.2794 7.54706 25.2794 7.54791 25.2794 7.54875C25.2794 7.54959 25.2794 7.55044 25.2794 7.55128C25.2794 7.55212 25.2794 7.55297 25.2794 7.55381C25.2794 7.55466 25.2794 7.5555 25.2794 7.55634C25.2794 7.55719 25.2794 7.55803 25.2794 7.55887C25.2794 7.55972 25.2794 7.56056 25.2794 7.56141C25.2794 7.56225 25.2794 7.56309 25.2794 7.56394C25.2794 7.56478 25.2794 7.56562 25.2794 7.56647C25.2794 7.56731 25.2794 7.56816 25.2794 7.569C25.2794 7.56984 25.2794 7.57069 25.2794 7.57153C25.2794 7.57237 25.2794 7.57322 25.2794 7.57406C25.2794 7.57491 25.2794 7.57575 25.2794 7.57659C25.2794 7.57744 25.2794 7.57828 25.2794 7.57912C25.2794 7.57997 25.2794 7.58081 25.2794 7.58166C25.2794 7.5825 25.2794 7.58334 25.2794 7.58419C25.2794 7.58503 25.2794 7.58587 25.2794 7.58672C25.2794 7.58756 25.2794 7.58841 25.2794 7.58925C25.2794 7.59009 25.2794 7.59094 25.2794 7.59178C25.2794 7.59262 25.2794 7.59347 25.2794 7.59431C25.2794 7.59516 25.2794 7.596 25.2794 7.59684C25.2794 7.59769 25.2794 7.59853 25.2794 7.59937C25.2794 7.60022 25.2794 7.60106 25.2794 7.60191C25.2794 7.60275 25.2794 7.60359 25.2794 7.60444C25.2794 7.60528 25.2794 7.60612 25.2794 7.60697C25.2794 7.60781 25.2794 7.60866 25.2794 7.6095C25.2794 7.61034 25.2794 7.61119 25.2794 7.61203C25.2794 7.61287 25.2794 7.61372 25.2794 7.61456C25.2794 7.61541 25.2794 7.61625 25.2794 7.61709C25.2794 7.61794 25.2794 7.61878 25.2794 7.61962C25.2794 7.62047 25.2794 7.62131 25.2794 7.62216C25.2794 7.623 25.2794 7.62384 25.2794 7.62469C25.2794 7.62553 25.2794 7.62637 25.2794 7.62722C25.2794 7.62806 25.2794 7.62891 25.2794 7.62975C25.2794 7.63059 25.2794 7.63144 25.2794 7.63228C25.2794 7.63312 25.2794 7.63397 25.2794 7.63481C25.2794 7.63566 25.2794 7.6365 25.2794 7.63734C25.2794 7.63819 25.2794 7.63903 25.2794 7.63987C25.2794 7.64072 25.2794 7.64156 25.2794 7.64241C25.2794 7.64325 25.2794 7.64409 25.2794 7.64494C25.2794 7.64578 25.2794 7.64662 25.2794 7.64747C25.2794 7.64831 25.2794 7.64916 25.2794 7.65C25.2794 7.65084 25.2794 7.65169 25.2794 7.65253C25.2794 7.65337 25.2794 7.65422 25.2794 7.65506C25.2794 7.65591 25.2794 7.65675 25.2794 7.65759C25.2794 7.65844 25.2794 7.65928 25.2794 7.66012C25.2794 7.66097 25.2794 7.66181 25.2794 7.66266C25.2794 7.6635 25.2794 7.66434 25.2794 7.66519C25.2794 7.66603 25.2794 7.66687 25.2794 7.66772C25.2794 7.66856 25.2794 7.66941 25.2794 7.67025C25.2794 7.67109 25.2794 7.67194 25.2794 7.67278C25.2794 7.67362 25.2794 7.67447 25.2794 7.67531C25.2794 7.67616 25.2794 7.677 25.2794 7.67784C25.2794 7.67869 25.2794 7.67953 25.2794 7.68037C25.2794 7.68122 25.2794 7.68206 25.2794 7.68291C25.2794 7.68375 25.2794 7.68459 25.2794 7.68544C25.2794 7.68628 25.2794 7.68712 25.2794 7.68797C25.2794 7.68881 25.2794 7.68966 25.2794 7.6905C25.2794 7.69134 25.2794 7.69219 25.2794 7.69303C25.2794 7.69387 25.2794 7.69472 25.2794 7.69556C25.2794 7.69641 25.2794 7.69725 25.2794 7.69809C25.2794 7.69894 25.2794 7.69978 25.2794 7.70062C25.2794 7.70147 25.2794 7.70231 25.2794 7.70316C25.2794 7.704 25.2794 7.70484 25.2794 7.70569C25.2794 7.70653 25.2794 7.70737 25.2794 7.70822C25.2794 7.70906 25.2794 7.70991 25.2794 7.71075C25.2794 7.71159 25.2794 7.71244 25.2794 7.71328C25.2794 7.71412 25.2794 7.71497 25.2794 7.71581C25.2794 7.71666 25.2794 7.7175 25.2794 7.71834C25.2794 7.71919 25.2794 7.72003 25.2794 7.72087C25.2794 7.72172 25.2794 7.72256 25.2794 7.72341C25.2794 7.72425 25.2794 7.72509 25.2794 7.72594C25.2794 7.72678 25.2794 7.72762 25.2794 7.72847C25.2794 7.72931 25.2794 7.73016 25.2794 7.731C25.2794 7.73184 25.2794 7.73269 25.2794 7.73353C25.2794 7.73437 25.2794 7.73522 25.2794 7.73606C25.2794 7.73691 25.2794 7.73775 25.2794 7.73859C25.2794 7.73944 25.2794 7.74028 25.2794 7.74112C25.2794 7.74197 25.2794 7.74281 25.2794 7.74366C25.2794 7.7445 25.2794 7.74534 25.2794 7.74619C25.2794 7.74703 25.2794 7.74787 25.2794 7.74872C25.2794 7.74956 25.2794 7.7504 25.2794 7.75125C25.2794 7.75209 25.2794 7.75294 25.2794 7.75378C25.2794 7.75462 25.2794 7.75547 25.2794 7.75631C25.2794 7.75715 25.2794 7.758 25.2794 7.75884C25.2794 7.75969 25.2794 7.76053 25.2794 7.76137C25.2794 7.76222 25.2794 7.76306 25.2794 7.7639C25.2794 7.76475 25.2794 7.76559 25.2794 7.76644C25.2794 7.76728 25.2794 7.76812 25.2794 7.76897C25.2794 7.76981 25.2794 7.77065 25.2794 7.7715C25.2794 7.77234 25.2794 7.77319 25.2794 7.77403C25.2794 7.77487 25.2794 7.77572 25.2794 7.77656C25.2794 7.7774 25.2794 7.77825 25.2794 7.77909C25.2794 7.77994 25.2794 7.78078 25.2794 7.78162C25.2794 7.78247 25.2794 7.78331 25.2794 7.78415C25.2794 7.785 25.2794 7.78584 25.2794 7.78669C25.2794 7.78753 25.2794 7.78837 25.2794 7.78922C25.2794 7.79006 25.2794 7.7909 25.2794 7.79175C25.2794 7.79259 25.2794 7.79344 25.2794 7.79428C25.2794 7.79512 25.2794 7.79597 25.2794 7.79681C25.2794 7.79765 25.2794 7.7985 25.2794 7.79934C25.2794 7.80019 25.2794 7.80103 25.2794 7.80187C25.2794 7.80272 25.2794 7.80356 25.2794 7.8044C25.2794 7.80525 25.2794 7.80609 25.2794 7.80694C25.2794 7.80778 25.2794 7.80862 25.2794 7.80947C25.2794 7.81031 25.2794 7.81115 25.2794 7.812C25.2794 7.81284 25.2794 7.81369 25.2794 7.81453C25.2794 7.81537 25.2794 7.81622 25.2794 7.81706C25.2794 7.8179 25.2794 7.81875 25.2794 7.81959C25.2794 7.82044 25.2794 7.82128 25.2794 7.82212C25.2794 7.82297 25.2794 7.82381 25.2794 7.82465C25.2794 7.8255 25.2794 7.82634 25.2794 7.82719C25.2794 7.82803 25.2794 7.82887 25.2794 7.82972C25.2794 7.83056 25.2794 7.8314 25.2794 7.83225C25.2794 7.83309 25.2794 7.83394 25.2794 7.83478C25.2794 7.83562 25.2794 7.83647 25.2794 7.83731C25.2794 7.83815 25.2794 7.839 25.2794 7.83984C25.2794 7.84069 25.2794 7.84153 25.2794 7.84237C25.2794 7.84322 25.2794 7.84406 25.2794 7.8449C25.2794 7.84575 25.2794 7.84659 25.2794 7.84744C25.2794 7.84828 25.2794 7.84912 25.2794 7.84997C25.2794 7.85081 25.2794 7.85165 25.2794 7.8525C25.2794 7.85334 25.2794 7.85419 25.2794 7.85503C25.2794 7.85587 25.2794 7.85672 25.2794 7.85756C25.2794 7.8584 25.2794 7.85925 25.2794 7.86009C25.2794 7.86094 25.2794 7.86178 25.2794 7.86262C25.2794 7.86347 25.2794 7.86431 25.2794 7.86515C25.2794 7.866 25.2794 7.86684 25.2794 7.86769C25.2794 7.86853 25.2794 7.86937 25.2794 7.87022C25.2794 7.87106 25.2794 7.8719 25.2794 7.87275C25.2794 7.87359 25.2794 7.87444 25.2794 7.87528C25.2794 7.87612 25.2794 7.87697 25.2794 7.87781C25.2794 7.87865 25.2794 7.8795 25.2794 7.88034C25.2794 7.88119 25.2794 7.88203 25.2794 7.88287C25.2794 7.88372 25.2794 7.88456 25.2794 7.8854C25.2794 7.88625 25.2794 7.88709 25.2794 7.88794C25.2794 7.88878 25.2794 7.88962 25.2794 7.89047C25.2794 7.89131 25.2794 7.89215 25.2794 7.893C25.2794 7.89384 25.2794 7.89469 25.2794 7.89553C25.2794 7.89637 25.2794 7.89722 25.2794 7.89806C25.2794 7.8989 25.2794 7.89975 25.2794 7.90059C25.2794 7.90144 25.2794 7.90228 25.2794 7.90312C25.2794 7.90397 25.2794 7.90481 25.2794 7.90565C25.2794 7.9065 25.2794 7.90734 25.2794 7.90819C25.2794 7.90903 25.2794 7.90987 25.2794 7.91072C25.2794 7.91156 25.2794 7.9124 25.2794 7.91325C25.2794 7.91409 25.2794 7.91494 25.2794 7.91578C25.2794 7.91662 25.2794 7.91747 25.2794 7.91831C25.2794 7.91915 25.2794 7.92 25.2794 7.92084C25.2794 7.92169 25.2794 7.92253 25.2794 7.92337C25.2794 7.92422 25.2794 7.92506 25.2794 7.9259C25.2794 7.92675 25.2794 7.92759 25.2794 7.92844C25.2794 7.92928 25.2794 7.93012 25.2794 7.93097C25.2794 7.93181 25.2794 7.93265 25.2794 7.9335C25.2794 7.93434 25.2794 7.93519 25.2794 7.93603C25.2794 7.93687 25.2794 7.93772 25.2794 7.93856C25.2794 7.9394 25.2794 7.94025 25.2794 7.94109C25.2794 7.94194 25.2794 7.94278 25.2794 7.94362C25.2794 7.94447 25.2794 7.94531 25.2794 7.94615C25.2794 7.947 25.2794 7.94784 25.2794 7.94869C25.2794 7.94953 25.2794 7.95037 25.2794 7.95122C25.2794 7.95206 25.2794 7.9529 25.2794 7.95375C25.2794 7.95459 25.2794 7.95544 25.2794 7.95628C25.2794 7.95712 25.2794 7.95797 25.2794 7.95881C25.2794 7.95965 25.2794 7.9605 25.2794 7.96134C25.2794 7.96219 25.2794 7.96303 25.2794 7.96387C25.2794 7.96472 25.2794 7.96556 25.2794 7.9664C25.2794 7.96725 25.2794 7.96809 25.2794 7.96894C25.2794 7.96978 25.2794 7.97062 25.2794 7.97147C25.2794 7.97231 25.2794 7.97315 25.2794 7.974C25.2794 7.97484 25.2794 7.97569 25.2794 7.97653C25.2794 7.97737 25.2794 7.97822 25.2794 7.97906C25.2794 7.9799 25.2794 7.98075 25.2794 7.98159C25.2794 7.98244 25.2794 7.98328 25.2794 7.98412C25.2794 7.98497 25.2794 7.98581 25.2794 7.98665C25.2794 7.9875 25.2794 7.98834 25.2794 7.98919C25.2794 7.99003 25.2794 7.99087 25.2794 7.99172C25.2794 7.99256 25.2794 7.9934 25.2794 7.99425C25.2794 7.99509 25.2794 7.99594 25.2794 7.99678C25.2794 7.99762 25.2794 7.99847 25.2794 7.99931C25.2794 8.00015 25.2794 8.001 25.2794 8.00184C25.2794 8.00269 25.2794 8.00353 25.2794 8.00437C25.2794 8.00522 25.2794 8.00606 25.2794 8.0069C25.2794 8.00775 25.2794 8.00859 25.2794 8.00944C25.2794 8.01028 25.2794 8.01112 25.2794 8.01197C25.2794 8.01281 25.2794 8.01365 25.2794 8.0145C25.2794 8.01534 25.2794 8.01619 25.2794 8.01703C25.2794 8.01787 25.2794 8.01872 25.2794 8.01956C25.2794 8.0204 25.2794 8.02125 25.2794 8.02209C25.2794 8.02294 25.2794 8.02378 25.2794 8.02462C25.2794 8.02547 25.2794 8.02631 25.2794 8.02715C25.2794 8.028 25.2794 8.02884 25.2794 8.02969C25.2794 8.03053 25.2794 8.03137 25.2794 8.03222C25.2794 8.03306 25.2794 8.0339 25.2794 8.03475C25.2794 8.03559 25.2794 8.03644 25.2794 8.03728C25.2794 8.03812 25.2794 8.03897 25.2794 8.03981C25.2794 8.04065 25.2794 8.0415 25.2794 8.04234C25.2794 8.04319 25.2794 8.04403 25.2794 8.04487C25.2794 8.04572 25.2794 8.04656 25.2794 8.0474C25.2794 8.04825 25.2794 8.04909 25.2794 8.04994C25.2794 8.05078 25.2794 8.05162 25.2794 8.05247C25.2794 8.05331 25.2794 8.05415 25.2794 8.055C25.2794 8.05584 25.2794 8.05669 25.2794 8.05753C25.2794 8.05837 25.2794 8.05922 25.2794 8.06006C25.2794 8.0609 25.2794 8.06175 25.2794 8.06259C25.2794 8.06344 25.2794 8.06428 25.2794 8.06512C25.2794 8.06597 25.2794 8.06681 25.2794 8.06765C25.2794 8.0685 25.2794 8.06934 25.2794 8.07019C25.2794 8.07103 25.2794 8.07187 25.2794 8.07272C25.2794 8.07356 25.2794 8.0744 25.2794 8.07525C25.2794 8.07609 25.2794 8.07694 25.2794 8.07778C25.2794 8.07862 25.2794 8.07947 25.2794 8.08031C25.2794 8.08115 25.2794 8.082 25.2794 8.08284C25.2794 8.08369 25.2794 8.08453 25.2794 8.08537C25.2794 8.08622 25.2794 8.08706 25.2794 8.0879C25.2794 8.08875 25.2794 8.08959 25.2794 8.09044C25.2794 8.09128 25.2794 8.09212 25.2794 8.09297C25.2794 8.09381 25.2794 8.09465 25.2794 8.0955C25.2794 8.09634 25.2794 8.09719 25.2794 8.09803C25.2794 8.09887 25.2794 8.09972 25.2794 8.10056C25.2794 8.1014 25.2794 8.10225 25.2794 8.10309C25.2794 8.10394 25.2794 8.10478 25.2794 8.10562C25.2794 8.10647 25.2794 8.10731 25.2794 8.10815C25.2794 8.109 25.2794 8.10984 25.2794 8.11069C25.2794 8.11153 25.2794 8.11237 25.2794 8.11322C25.2794 8.11406 25.2794 8.1149 25.2794 8.11575C25.2794 8.11659 25.2794 8.11744 25.2794 8.11828C25.2794 8.11912 25.2794 8.11997 25.2794 8.12081C25.2794 8.12165 25.2794 8.1225 25.2794 8.12334C25.2794 8.12419 25.2794 8.12503 25.2794 8.12587C25.2794 8.12672 25.2794 8.12756 25.2794 8.1284C25.2794 8.12925 25.2794 8.13009 25.2794 8.13094C25.2794 8.13178 25.2794 8.13262 25.2794 8.13347C25.2794 8.13431 25.2794 8.13515 25.2794 8.136C25.2794 8.13684 25.2794 8.13769 25.2794 8.13853C25.2794 8.13937 25.2794 8.14022 25.2794 8.14106C25.2794 8.1419 25.2794 8.14275 25.2794 8.14359C25.2794 8.14444 25.2794 8.14528 25.2794 8.14612C25.2794 8.14697 25.2794 8.14781 25.2794 8.14865C25.2794 8.1495 25.2794 8.15034 25.2794 8.15119C25.2794 8.15203 25.2794 8.15287 25.2794 8.15372C25.2794 8.15456 25.2794 8.1554 25.2794 8.15625C25.2794 8.15709 25.2794 8.15794 25.2794 8.15878C25.2794 8.15962 25.2794 8.16047 25.2794 8.16131C25.2794 8.16215 25.2794 8.163 25.2794 8.16384C25.2794 8.16469 25.2794 8.16553 25.2794 8.16637C25.2794 8.16722 25.2794 8.16806 25.2794 8.1689C25.2794 8.16975 25.2794 8.17059 25.2794 8.17144C25.2794 8.17228 25.2794 8.17312 25.2794 8.17397C25.2794 8.17481 25.2794 8.17565 25.2794 8.1765C25.2794 8.17734 25.2794 8.17819 25.2794 8.17903C25.2794 8.17987 25.2794 8.18072 25.2794 8.18156C25.2794 8.1824 25.2794 8.18325 25.2794 8.18409C25.2794 8.18494 25.2794 8.18578 25.2794 8.18662C25.2794 8.18747 25.2794 8.18831 25.2794 8.18915C25.2794 8.19 25.2794 8.19084 25.2794 8.19169C25.2794 8.19253 25.2794 8.19337 25.2794 8.19422C25.2794 8.19506 25.2794 8.1959 25.2794 8.19675C25.2794 8.19759 25.2794 8.19844 25.2794 8.19928C25.2794 8.20012 25.2794 8.20097 25.2794 8.20181C25.2794 8.20265 25.2794 8.2035 25.2794 8.20434C25.2794 8.20519 25.2794 8.20603 25.2794 8.20687C25.2794 8.20772 25.2794 8.20856 25.2794 8.2094C25.2794 8.21025 25.2794 8.21109 25.2794 8.21194C25.2794 8.21278 25.2794 8.21362 25.2794 8.21447C25.2794 8.21531 25.2794 8.21615 25.2794 8.217C25.2794 8.21784 25.2794 8.21869 25.2794 8.21953C25.2794 8.22037 25.2794 8.22122 25.2794 8.22206C25.2794 8.2229 25.2794 8.22375 25.2794 8.22459C25.2794 8.22544 25.2794 8.22628 25.2794 8.22712C25.2794 8.22797 25.2794 8.22881 25.2794 8.22965C25.2794 8.2305 25.2794 8.23134 25.2794 8.23219C25.2794 8.23303 25.2794 8.23387 25.2794 8.23472C25.2794 8.23556 25.2794 8.2364 25.2794 8.23725C25.2794 8.23809 25.2794 8.23894 25.2794 8.23978C25.2794 8.24062 25.2794 8.24147 25.2794 8.24231C25.2794 8.24315 25.2794 8.244 25.2794 8.24484C25.2794 8.24569 25.2794 8.24653 25.2794 8.24737C25.2794 8.24822 25.2794 8.24906 25.2794 8.2499C25.2794 8.25075 25.2794 8.25159 25.2794 8.25244C25.2794 8.25328 25.2794 8.25412 25.2794 8.25497C25.2794 8.25581 25.2794 8.25665 25.2794 8.2575C25.2794 8.25834 25.2794 8.25919 25.2794 8.26003C25.2794 8.26087 25.2794 8.26172 25.2794 8.26256C25.2794 8.2634 25.2794 8.26425 25.2794 8.26509C25.2794 8.26594 25.2794 8.26678 25.2794 8.26762C25.2794 8.26847 25.2794 8.26931 25.2794 8.27015C25.2794 8.271 25.2794 8.27184 25.2794 8.27269C25.2794 8.27353 25.2794 8.27437 25.2794 8.27522C25.2794 8.27606 25.2794 8.2769 25.2794 8.27775C25.2794 8.27859 25.2794 8.27944 25.2794 8.28028C25.2794 8.28112 25.2794 8.28197 25.2794 8.28281C25.2794 8.28365 25.2794 8.2845 25.2794 8.28534C25.2794 8.28619 25.2794 8.28703 25.2794 8.28787C25.2794 8.28872 25.2794 8.28956 25.2794 8.2904C25.2794 8.29125 25.2794 8.29209 25.2794 8.29294C25.2794 8.29378 25.2794 8.29462 25.2794 8.29547C25.2794 8.29631 25.2794 8.29715 25.2794 8.298C25.2794 8.29884 25.2794 8.29969 25.2794 8.30053C25.2794 8.30137 25.2794 8.30222 25.2794 8.30306C25.2794 8.3039 25.2794 8.30475 25.2794 8.30559C25.2794 8.30644 25.2794 8.30728 25.2794 8.30812C25.2794 8.30897 25.2794 8.30981 25.2794 8.31065C25.2794 8.3115 25.2794 8.31234 25.2794 8.31319C25.2794 8.31403 25.2794 8.31487 25.2794 8.31572C25.2794 8.31656 25.2794 8.3174 25.2794 8.31825C25.2794 8.31909 25.2794 8.31994 25.2794 8.32078C25.2794 8.32162 25.2794 8.32247 25.2794 8.32331C25.2794 8.32415 25.2794 8.325 25.2794 8.32584C25.2794 8.32669 25.2794 8.32753 25.2794 8.32837C25.2794 8.32922 25.2794 8.33006 25.2794 8.3309C25.2794 8.33175 25.2794 8.33259 25.2794 8.33344C25.2794 8.33428 25.2794 8.33512 25.2794 8.33597C25.2794 8.33681 25.2794 8.33765 25.2794 8.3385C25.2794 8.33934 25.2794 8.34019 25.2794 8.34103C25.2794 8.34187 25.2794 8.34272 25.2794 8.34356C25.2794 8.3444 25.2794 8.34525 25.2794 8.34609C25.2794 8.34694 25.2794 8.34778 25.2794 8.34862C25.2794 8.34947 25.2794 8.35031 25.2794 8.35115C25.2794 8.352 25.2794 8.35284 25.2794 8.35369C25.2794 8.35453 25.2794 8.35537 25.2794 8.35622C25.2794 8.35706 25.2794 8.3579 25.2794 8.35875C25.2794 8.35959 25.2794 8.36044 25.2794 8.36128C25.2794 8.36212 25.2794 8.36297 25.2794 8.36381C25.2794 8.36465 25.2794 8.3655 25.2794 8.36634C25.2794 8.36719 25.2794 8.36803 25.2794 8.36887C25.2794 8.36972 25.2794 8.37056 25.2794 8.3714C25.2794 8.37225 25.2794 8.37309 25.2794 8.37394C25.2794 8.37478 25.2794 8.37562 25.2794 8.37647C25.2794 8.37731 25.2794 8.37815 25.2794 8.379C25.2794 8.37984 25.2794 8.38069 25.2794 8.38153C25.2794 8.38237 25.2794 8.38322 25.2794 8.38406C25.2794 8.3849 25.2794 8.38575 25.2794 8.38659C25.2794 8.38744 25.2794 8.38828 25.2794 8.38912C25.2794 8.38997 25.2794 8.39081 25.2794 8.39165C25.2794 8.3925 25.2794 8.39334 25.2794 8.39419C25.2794 8.39503 25.2794 8.39587 25.2794 8.39672C25.2794 8.39756 25.2794 8.3984 25.2794 8.39925C25.2794 8.40009 25.2794 8.40094 25.2794 8.40178C25.2794 8.40262 25.2794 8.40347 25.2794 8.40431C25.2794 8.40515 25.2794 8.406 25.2794 8.40684C25.2794 8.40769 25.2794 8.40853 25.2794 8.40937C25.2794 8.41022 25.2794 8.41106 25.2794 8.4119C25.2794 8.41275 25.2794 8.41359 25.2794 8.41444C25.2794 8.41528 25.2794 8.41612 25.2794 8.41697C25.2794 8.41781 25.2794 8.41865 25.2794 8.4195C25.2794 8.42034 25.2794 8.42119 25.2794 8.42203C25.2794 8.42287 25.2794 8.42372 25.2794 8.42456C25.2794 8.4254 25.2794 8.42625 25.2794 8.42709C25.2794 8.42794 25.2794 8.42878 25.2794 8.42962C25.2794 8.43047 25.2794 8.43131 25.2794 8.43215C25.2794 8.433 25.2794 8.43384 25.2794 8.43469C25.2794 8.43553 25.2794 8.43637 25.2794 8.43722C25.2794 8.43806 25.2794 8.4389 25.2794 8.43975C25.2794 8.44059 25.2794 8.44144 25.2794 8.44228C25.2794 8.44312 25.2794 8.44397 25.2794 8.44481C25.2794 8.44565 25.2794 8.4465 25.2794 8.44734C25.2794 8.44819 25.2794 8.44903 25.2794 8.44987C25.2794 8.45072 25.2794 8.45156 25.2794 8.4524C25.2794 8.45325 25.2794 8.45409 25.2794 8.45494C25.2794 8.45578 25.2794 8.45662 25.2794 8.45747C25.2794 8.45831 25.2794 8.45915 25.2794 8.46H27.2794ZM26.2794 6.164H25.2714V8.164H26.2794V6.164ZM24.3052 6.90634C24.2088 7.26763 24.1005 7.67671 23.9803 8.13351L25.9145 8.64249C26.0343 8.18729 26.142 7.78037 26.2376 7.42166L24.3052 6.90634ZM23.9803 8.1335C23.874 8.53747 23.7358 8.93077 23.5656 9.31386L25.3932 10.1261C25.6069 9.64523 25.7808 9.15052 25.9145 8.64249L23.9803 8.1335ZM23.5489 9.35363L16.7449 26.6336L18.6059 27.3664L25.4099 10.0864L23.5489 9.35363ZM17.6754 26H10.6554V28H17.6754V26ZM11.5737 27.3958L21.5817 4.17581L19.7451 3.38419L9.73706 26.6042L11.5737 27.3958ZM21.6032 4.12174C21.7328 3.76516 21.9092 3.55935 22.1066 3.43157L21.0201 1.75243C20.4016 2.15265 19.9779 2.73883 19.7236 3.43826L21.6032 4.12174ZM22.1181 3.42405C22.3752 3.25261 22.6717 3.16 23.0394 3.16V1.16C22.3031 1.16 21.6155 1.35538 21.0087 1.75995L22.1181 3.42405ZM23.0394 3.16H29.2674V1.16H23.0394V3.16ZM29.786 16.0496L29.21 21.0536L31.1968 21.2824L31.7728 16.2784L29.786 16.0496ZM30.2034 20.168H17.2434V22.168H30.2034V20.168ZM18.236 21.2894L18.848 16.2854L16.8628 16.0426L16.2508 21.0466L18.236 21.2894ZM17.8554 17.164H30.7794V15.164H17.8554V17.164ZM55.0088 9.612L54.3949 10.4014L54.4018 10.4067L54.4088 10.412L55.0088 9.612ZM56.7008 12.708L55.7177 12.8913L55.7183 12.8943L56.7008 12.708ZM56.5928 18.144L55.6039 17.9951L55.6025 18.005L56.5928 18.144ZM55.6568 21.924L54.7204 21.5729L54.7164 21.5839L55.6568 21.924ZM51.0128 26.748L50.6576 25.8132L50.6576 25.8132L51.0128 26.748ZM44.1728 27.324L44.2515 26.3271L44.2384 26.3261L44.2254 26.3254L44.1728 27.324ZM41.3648 27.072L41.2376 28.0639L41.2408 28.0643L41.3648 27.072ZM38.7008 26.64L38.4718 27.6134L38.4882 27.6173L38.5047 27.6206L38.7008 26.64ZM36.6848 25.992L36.1301 25.1599L34.6332 26.1579L36.271 26.9024L36.6848 25.992ZM41.8688 22.536L42.1265 21.5698L41.69 21.4534L41.3141 21.7039L41.8688 22.536ZM43.1648 22.788L43.0234 23.7779L43.0466 23.7813L43.07 23.7835L43.1648 22.788ZM44.7128 22.932L44.6223 23.9279L44.6448 23.9299L44.6674 23.931L44.7128 22.932ZM46.0088 22.932L45.9704 21.9327L45.9539 21.9334L45.9376 21.9345L46.0088 22.932ZM47.5928 22.68L47.909 23.6287L47.9323 23.6209L47.9552 23.612L47.5928 22.68ZM48.6728 21.888L47.8967 21.2574L47.8919 21.2633L48.6728 21.888ZM49.4288 20.304L50.3904 20.5787L50.3928 20.5699L49.4288 20.304ZM49.9688 17.676L50.9564 17.8331L50.9569 17.8297L49.9688 17.676ZM50.1848 15.228L49.1857 15.2696L49.1857 15.2714L50.1848 15.228ZM49.7888 14.076L49.0817 14.7831L49.1209 14.8223L49.1641 14.8569L49.7888 14.076ZM46.2608 14.472L46.7598 15.3387L46.7678 15.3339L46.2608 14.472ZM43.7408 16.236L42.8177 16.6206L43.332 17.8549L44.3706 17.0128L43.7408 16.236ZM42.8408 14.076L41.996 13.5409L41.7176 13.9804L41.9177 14.4606L42.8408 14.076ZM44.4608 12.024L45.1811 12.7176L45.1874 12.7111L45.1936 12.7045L44.4608 12.024ZM46.4768 10.26L45.9159 9.43208L45.9096 9.43638L45.9033 9.44077L46.4768 10.26ZM48.8528 9.072L49.1771 10.0179L49.1848 10.0153L49.1924 10.0126L48.8528 9.072ZM46.6208 1.8L47.6127 1.92663L47.7566 0.799998H46.6208V1.8ZM45.9728 6.876L44.9808 6.74937L44.9798 6.75746L44.9789 6.76557L45.9728 6.876ZM45.5408 9.396L44.5674 9.16696L44.5674 9.16696L45.5408 9.396ZM44.6768 11.952L43.7589 11.5551L43.4014 12.3819L44.1865 12.8236L44.6768 11.952ZM45.2528 12.276L46.2422 12.421L46.3418 11.7412L45.7431 11.4044L45.2528 12.276ZM43.2008 26.28L43.1566 27.279L44.0592 27.3189L44.1902 26.425L43.2008 26.28ZM36.6848 25.992L35.6944 25.8535L35.5421 26.9425L36.6406 26.991L36.6848 25.992ZM40.0688 1.8V0.799998H39.1989L39.0784 1.66147L40.0688 1.8ZM51.5528 9.604C52.8408 9.604 53.7548 9.90355 54.3949 10.4014L55.6227 8.82265C54.5348 7.97645 53.1448 7.604 51.5528 7.604V9.604ZM54.4088 10.412C55.0132 10.8653 55.484 11.6378 55.7177 12.8913L57.6839 12.5247C57.3896 10.9462 56.7324 9.65467 55.6088 8.812L54.4088 10.412ZM55.7183 12.8943C55.9527 14.13 55.9319 15.8165 55.6039 17.9951L57.5817 18.2929C57.9257 16.0075 57.9769 14.07 57.6833 12.5217L55.7183 12.8943ZM55.6025 18.005C55.4195 19.3092 55.1239 20.4972 54.7205 21.5729L56.5931 22.2751C57.0537 21.0468 57.3821 19.7148 57.5831 18.283L55.6025 18.005ZM54.7164 21.5839C54.3492 22.5992 53.8381 23.4552 53.1898 24.1662L54.6678 25.5138C55.5075 24.5928 56.1484 23.5048 56.5972 22.2641L54.7164 21.5839ZM53.1898 24.1662C52.5674 24.8489 51.7348 25.4039 50.6576 25.8132L51.368 27.6828C52.6908 27.1801 53.8021 26.4631 54.6678 25.5138L53.1898 24.1662ZM50.6576 25.8132C49.6055 26.213 48.2467 26.432 46.5488 26.432V28.432C48.4029 28.432 50.0201 28.195 51.368 27.6828L50.6576 25.8132ZM46.5488 26.432C45.9105 26.432 45.146 26.3977 44.2515 26.3271L44.0941 28.3209C45.0236 28.3943 45.8431 28.432 46.5488 28.432V26.432ZM44.2254 26.3254C43.3386 26.2787 42.4265 26.1969 41.4888 26.0797L41.2408 28.0643C42.2231 28.1871 43.183 28.2733 44.1202 28.3226L44.2254 26.3254ZM41.492 26.0801C40.5768 25.9628 39.7119 25.8224 38.8969 25.6594L38.5047 27.6206C39.3697 27.7936 40.2808 27.9412 41.2376 28.0639L41.492 26.0801ZM38.9298 25.6666C38.1519 25.4835 37.5474 25.2856 37.0986 25.0816L36.271 26.9024C36.8782 27.1784 37.6177 27.4125 38.4718 27.6134L38.9298 25.6666ZM37.2395 26.8241L42.4235 23.3681L41.3141 21.7039L36.1301 25.1599L37.2395 26.8241ZM41.6111 23.5022C42.0203 23.6114 42.4933 23.7022 43.0234 23.7779L43.3062 21.7981C42.8283 21.7298 42.4373 21.6526 42.1265 21.5698L41.6111 23.5022ZM43.07 23.7835C43.5755 23.8316 44.0929 23.8798 44.6223 23.9279L44.8033 21.9361C44.2767 21.8882 43.7621 21.8404 43.2596 21.7925L43.07 23.7835ZM44.6674 23.931C45.2151 23.9559 45.6899 23.9573 46.08 23.9295L45.9376 21.9345C45.6557 21.9547 45.2665 21.9561 44.7582 21.933L44.6674 23.931ZM46.0472 23.9313C46.7334 23.9049 47.361 23.8114 47.909 23.6287L47.2766 21.7313C46.9606 21.8366 46.5322 21.9111 45.9704 21.9327L46.0472 23.9313ZM47.9552 23.612C48.5504 23.3806 49.0551 23.011 49.4537 22.5127L47.8919 21.2633C47.7145 21.485 47.4992 21.6434 47.2304 21.748L47.9552 23.612ZM49.4489 22.5186C49.8736 21.9959 50.1754 21.3309 50.3903 20.5787L48.4673 20.0293C48.2982 20.6211 48.096 21.0121 47.8967 21.2574L49.4489 22.5186ZM50.3928 20.5699C50.5981 19.8256 50.785 18.9102 50.9564 17.8331L48.9812 17.5189C48.8166 18.5538 48.6435 19.3904 48.4648 20.0381L50.3928 20.5699ZM50.9569 17.8297C51.1272 16.7347 51.2123 15.8389 51.1839 15.1846L49.1857 15.2714C49.2053 15.7211 49.1463 16.4573 48.9807 17.5223L50.9569 17.8297ZM51.1839 15.1864C51.1575 14.5529 51.0126 13.7744 50.4135 13.2951L49.1641 14.8569C49.0956 14.802 49.0984 14.764 49.1221 14.8331C49.1466 14.9043 49.1761 15.0412 49.1857 15.2696L51.1839 15.1864ZM50.4959 13.3689C50.0092 12.8822 49.3431 12.752 48.7448 12.752V14.752C48.9142 14.752 49.0163 14.7716 49.0694 14.7881C49.1182 14.8032 49.1086 14.81 49.0817 14.7831L50.4959 13.3689ZM48.7448 12.752C47.7047 12.752 46.7035 13.0514 45.7538 13.6101L46.7678 15.3339C47.4501 14.9326 48.1049 14.752 48.7448 14.752V12.752ZM45.7618 13.6054C44.9142 14.0934 44.0304 14.7138 43.111 15.4592L44.3706 17.0128C45.2272 16.3182 46.0234 15.7626 46.7598 15.3386L45.7618 13.6054ZM44.6639 15.8514L43.7639 13.6914L41.9177 14.4606L42.8177 16.6206L44.6639 15.8514ZM43.6856 14.6111C44.1036 13.951 44.6013 13.3198 45.1811 12.7176L43.7405 11.3304C43.0723 12.0242 42.49 12.761 41.996 13.5409L43.6856 14.6111ZM45.1936 12.7045C45.7716 12.082 46.3906 11.541 47.0503 11.0792L45.9033 9.44077C45.123 9.98699 44.398 10.622 43.728 11.3435L45.1936 12.7045ZM47.0376 11.0879C47.7093 10.633 48.4218 10.2769 49.1771 10.0179L48.5285 8.12605C47.6037 8.4431 46.7323 8.87905 45.9159 9.43208L47.0376 11.0879ZM49.1924 10.0126C49.9454 9.74064 50.7304 9.604 51.5528 9.604V7.604C50.5032 7.604 49.4882 7.77936 48.5132 8.13145L49.1924 10.0126ZM45.6288 1.67337L44.9808 6.74937L46.9647 7.00263L47.6127 1.92663L45.6288 1.67337ZM44.9789 6.76557C44.8872 7.59112 44.7499 8.39146 44.5674 9.16696L46.5142 9.62504C46.7157 8.76854 46.8664 7.88887 46.9667 6.98643L44.9789 6.76557ZM44.5674 9.16696C44.3908 9.91749 44.123 10.7132 43.7589 11.5551L45.5947 12.3489C45.9986 11.4148 46.3068 10.5065 46.5142 9.62504L44.5674 9.16696ZM44.1865 12.8236L44.7625 13.1476L45.7431 11.4044L45.1671 11.0804L44.1865 12.8236ZM44.2634 12.131L42.2114 26.135L44.1902 26.425L46.2422 12.421L44.2634 12.131ZM43.245 25.281L36.729 24.993L36.6406 26.991L43.1566 27.279L43.245 25.281ZM37.6752 26.1305L41.0592 1.93853L39.0784 1.66147L35.6944 25.8535L37.6752 26.1305ZM40.0688 2.8H46.6208V0.799998H40.0688V2.8ZM75.1848 9.576L74.7628 10.4826L74.7687 10.4853L75.1848 9.576ZM78.0648 12.672L77.1227 13.0073L77.1252 13.0144L77.1278 13.0214L78.0648 12.672ZM78.3528 18.324L77.3629 18.1826L77.3623 18.187L78.3528 18.324ZM76.6968 23.724L75.8353 23.2163L75.8325 23.2211L76.6968 23.724ZM73.3848 26.568L73.7562 27.4965L73.7562 27.4965L73.3848 26.568ZM62.2608 26.496L61.8576 27.4111L61.8576 27.4111L62.2608 26.496ZM59.3088 23.472L58.3718 23.8214L58.3754 23.831L58.3793 23.8406L59.3088 23.472ZM59.0208 17.82L60.0108 17.9614L60.0116 17.9556L59.0208 17.82ZM60.6408 12.42L59.7793 11.9123L59.7765 11.9171L60.6408 12.42ZM63.9888 9.504L63.6096 8.57868L63.6042 8.58092L63.9888 9.504ZM67.6608 13.572L67.1598 12.7066L67.1598 12.7066L67.6608 13.572ZM66.5448 15.084L65.6123 14.723L65.6071 14.7362L65.6024 14.7496L66.5448 15.084ZM65.8248 18.324L64.8363 18.1732L64.8349 18.1819L64.8338 18.1906L65.8248 18.324ZM65.6448 21.204L64.6474 21.2752L64.6476 21.2779L65.6448 21.204ZM66.2928 22.536L66.8228 21.688L66.8228 21.688L66.2928 22.536ZM69.8208 22.5L70.3423 23.3533L70.3486 23.3494L70.3548 23.3455L69.8208 22.5ZM70.9008 20.988L71.8398 21.3323L71.8433 21.3224L70.9008 20.988ZM71.6208 17.82L72.6086 17.976L72.6106 17.9635L72.6122 17.9509L71.6208 17.82ZM71.8008 14.94L70.8034 15.0112L70.8036 15.0139L71.8008 14.94ZM71.1888 13.572L70.5975 14.3784L70.6155 14.3916L70.6341 14.404L71.1888 13.572ZM69.6408 9.604C71.8655 9.604 73.5523 9.91907 74.7628 10.4826L75.6069 8.66942C74.0334 7.93692 72.0241 7.604 69.6408 7.604V9.604ZM74.7687 10.4853C75.949 11.0254 76.7129 11.856 77.1227 13.0073L79.0069 12.3367C78.4087 10.656 77.2527 9.42256 75.601 8.66669L74.7687 10.4853ZM77.1278 13.0214C77.5733 14.216 77.6875 15.9104 77.3629 18.1826L79.3428 18.4654C79.6902 16.0336 79.6124 13.96 79.0018 12.3226L77.1278 13.0214ZM77.3623 18.187C77.0607 20.3672 76.5368 22.0259 75.8353 23.2163L77.5584 24.2317C78.4408 22.7341 79.0209 20.7928 79.3434 18.461L77.3623 18.187ZM75.8325 23.2211C75.1786 24.345 74.2497 25.145 73.0134 25.6395L73.7562 27.4965C75.3999 26.839 76.6791 25.743 77.5612 24.2269L75.8325 23.2211ZM73.0134 25.6395C71.7333 26.1516 70.0121 26.432 67.8048 26.432V28.432C70.1576 28.432 72.1563 28.1364 73.7562 27.4965L73.0134 25.6395ZM67.8048 26.432C65.6036 26.432 63.9076 26.1289 62.6641 25.5809L61.8576 27.4111C63.446 28.1111 65.4461 28.432 67.8048 28.432V26.432ZM62.6641 25.5809C61.4796 25.0589 60.69 24.2422 60.2384 23.1034L58.3793 23.8406C59.0316 25.4858 60.2101 26.6851 61.8576 27.4111L62.6641 25.5809ZM60.2458 23.1226C59.8004 21.928 59.6862 20.2336 60.0108 17.9614L58.0309 17.6786C57.6835 20.1104 57.7613 22.184 58.3718 23.8214L60.2458 23.1226ZM60.0116 17.9556C60.314 15.7458 60.8275 14.0876 61.5052 12.9229L59.7765 11.9171C58.9182 13.3924 58.3517 15.3342 58.0301 17.6844L60.0116 17.9556ZM61.5024 12.9277C62.1845 11.7701 63.1332 10.9439 64.3734 10.4271L63.6042 8.58092C61.9645 9.26414 60.6811 10.3819 59.7793 11.9123L61.5024 12.9277ZM64.3681 10.4293C65.67 9.89572 67.4126 9.604 69.6408 9.604V7.604C67.2611 7.604 65.2357 7.91228 63.6096 8.57869L64.3681 10.4293ZM69.5328 12.176C68.6468 12.176 67.826 12.3209 67.1598 12.7066L68.1619 14.4374C68.4077 14.2951 68.8349 14.176 69.5328 14.176V12.176ZM67.1598 12.7066C66.4279 13.1303 65.9421 13.8709 65.6123 14.723L67.4774 15.445C67.7235 14.8091 67.9818 14.5417 68.1619 14.4374L67.1598 12.7066ZM65.6024 14.7496C65.3067 15.5829 65.0554 16.7364 64.8363 18.1732L66.8134 18.4748C67.0262 17.0796 67.2549 16.0731 67.4873 15.4184L65.6024 14.7496ZM64.8338 18.1906C64.6631 19.4587 64.592 20.4996 64.6474 21.2752L66.6423 21.1328C66.6017 20.5644 66.6506 19.6853 66.8159 18.4574L64.8338 18.1906ZM64.6476 21.2779C64.7083 22.0972 65.0045 22.9101 65.7628 23.384L66.8228 21.688C66.8131 21.6819 66.6774 21.6068 66.6421 21.1301L64.6476 21.2779ZM65.7628 23.384C66.3814 23.7706 67.181 23.896 68.0208 23.896V21.896C67.3246 21.896 66.9722 21.7814 66.8228 21.688L65.7628 23.384ZM68.0208 23.896C68.8847 23.896 69.6921 23.7506 70.3423 23.3533L69.2994 21.6467C69.0856 21.7774 68.6929 21.896 68.0208 21.896V23.896ZM70.3548 23.3455C71.0617 22.899 71.5309 22.1744 71.8397 21.3323L69.962 20.6437C69.7427 21.2416 69.4919 21.525 69.2868 21.6545L70.3548 23.3455ZM71.8433 21.3224C72.1376 20.4929 72.389 19.3667 72.6086 17.976L70.6331 17.664C70.4206 19.0093 70.1921 19.9951 69.9584 20.6536L71.8433 21.3224ZM72.6122 17.9509C72.7823 16.6632 72.8539 15.6201 72.7981 14.8661L70.8036 15.0139C70.8437 15.5559 70.7954 16.4328 70.6294 17.6891L72.6122 17.9509ZM72.7983 14.8688C72.7407 14.0627 72.4777 13.2294 71.7435 12.7399L70.6341 14.404C70.6341 14.4041 70.6619 14.4194 70.699 14.5024C70.7399 14.5938 70.785 14.7537 70.8034 15.0112L72.7983 14.8688ZM71.7802 12.7656C71.1679 12.3166 70.3608 12.176 69.5328 12.176V14.176C70.1928 14.176 70.4897 14.2994 70.5975 14.3784L71.7802 12.7656ZM89.0642 9.108L90.0539 9.25116L90.2193 8.108H89.0642V9.108ZM87.4082 20.556L86.4184 20.4128L86.4166 20.4267L87.4082 20.556ZM87.5882 21.708L86.8408 22.3724L86.8799 22.4163L86.9239 22.4554L87.5882 21.708ZM90.5762 21.456L91.0485 22.3375L91.0605 22.331L91.0724 22.3242L90.5762 21.456ZM93.1322 19.62L94.07 19.2727L93.5847 17.9623L92.501 18.8444L93.1322 19.62ZM94.2122 22.536L94.9447 23.2168L95.3638 22.766L95.15 22.1887L94.2122 22.536ZM89.7122 26.316L90.2068 27.1852L90.2115 27.1824L89.7122 26.316ZM81.5042 26.172L80.759 26.8388L80.7682 26.8491L80.7778 26.8592L81.5042 26.172ZM80.6402 22.392L81.6293 22.5396L81.6308 22.5289L80.6402 22.392ZM82.4762 9.108V8.108H81.6049L81.4857 8.97109L82.4762 9.108ZM100.62 9.108L101.611 9.24551L101.769 8.108H100.62V9.108ZM98.1362 27V28H99.007L99.1267 27.1375L98.1362 27ZM93.0242 27L92.0243 27.0149L92.039 28H93.0242V27ZM92.9522 22.176L93.9521 22.1611L93.9448 21.6704L93.5522 21.376L92.9522 22.176ZM92.3762 21.744L91.3858 21.6057L91.3043 22.19L91.7762 22.544L92.3762 21.744ZM94.1402 9.108V8.108H93.2701L93.1498 8.96974L94.1402 9.108ZM88.0745 8.96484L86.4185 20.4128L88.3979 20.6992L90.0539 9.25116L88.0745 8.96484ZM86.4166 20.4267C86.3385 21.0256 86.3389 21.8077 86.8408 22.3724L88.3356 21.0436C88.404 21.1206 88.3976 21.1697 88.3872 21.1036C88.3767 21.0364 88.3713 20.9041 88.3998 20.6853L86.4166 20.4267ZM86.9239 22.4554C87.3861 22.8663 87.9716 22.996 88.5242 22.996V20.996C88.2609 20.996 88.2224 20.9337 88.2526 20.9606L86.9239 22.4554ZM88.5242 22.996C89.4003 22.996 90.2454 22.7677 91.0485 22.3375L90.104 20.5745C89.5631 20.8643 89.0401 20.996 88.5242 20.996V22.996ZM91.0724 22.3242C91.8138 21.9006 92.7146 21.2493 93.7635 20.3956L92.501 18.8444C91.4859 19.6707 90.6827 20.2434 90.0801 20.5878L91.0724 22.3242ZM92.1945 19.9673L93.2745 22.8833L95.15 22.1887L94.07 19.2727L92.1945 19.9673ZM93.4798 21.8552C91.9375 23.5143 90.5143 24.6996 89.2129 25.4496L90.2115 27.1824C91.7421 26.3004 93.3189 24.9657 94.9447 23.2168L93.4798 21.8552ZM89.2177 25.4468C87.9591 26.1629 86.712 26.504 85.4642 26.504V28.504C87.0965 28.504 88.6813 28.0531 90.2068 27.1852L89.2177 25.4468ZM85.4642 26.504C83.8087 26.504 82.8078 26.0949 82.2307 25.4848L80.7778 26.8592C81.8807 28.0251 83.5198 28.504 85.4642 28.504V26.504ZM82.2495 25.5052C81.6922 24.8824 81.4178 23.9565 81.6293 22.5396L79.6512 22.2444C79.3827 24.0435 79.6843 25.6376 80.759 26.8388L82.2495 25.5052ZM81.6308 22.5289L83.4668 9.24491L81.4857 8.97109L79.6497 22.2551L81.6308 22.5289ZM82.4762 10.108H89.0642V8.108H82.4762V10.108ZM99.6297 8.97049L97.1457 26.8625L99.1267 27.1375L101.611 9.24551L99.6297 8.97049ZM98.1362 26H93.0242V28H98.1362V26ZM94.0241 26.9851L93.9521 22.1611L91.9523 22.1909L92.0243 27.0149L94.0241 26.9851ZM93.5522 21.376L92.9762 20.944L91.7762 22.544L92.3522 22.976L93.5522 21.376ZM93.3666 21.8823L95.1306 9.24626L93.1498 8.96974L91.3858 21.6057L93.3666 21.8823ZM94.1402 10.108H100.62V8.108H94.1402V10.108ZM113.276 4.284L114.266 4.42512L114.428 3.284H113.276V4.284ZM110.9 20.952L109.91 20.8109L109.908 20.8227L110.9 20.952ZM114.464 22.356L115.461 22.2812L115.391 21.356H114.464V22.356ZM114.788 26.676L115.144 27.6105L115.841 27.345L115.785 26.6012L114.788 26.676ZM112.988 27.108L112.851 26.1174L112.834 26.1197L112.818 26.1225L112.988 27.108ZM110.936 27.36L110.864 26.3625L110.847 26.3638L110.829 26.3657L110.936 27.36ZM104.204 22.356L105.192 22.5058L105.193 22.4999L104.204 22.356ZM106.832 4.284V3.284H105.967L105.842 4.14009L106.832 4.284ZM117.2 9.108L118.191 9.23959L118.341 8.108H117.2V9.108ZM116.66 13.176V14.176H117.536L117.651 13.3076L116.66 13.176ZM102.404 13.176L101.412 13.0474L101.266 14.176H102.404V13.176ZM102.908 9.288L102.856 8.28935L102.023 8.33271L101.916 9.15945L102.908 9.288ZM106.364 9.108V8.108H106.338L106.312 8.10935L106.364 9.108ZM112.286 4.14288L109.91 20.8109L111.89 21.0931L114.266 4.42512L112.286 4.14288ZM109.908 20.8227C109.866 21.1471 109.851 21.4711 109.89 21.773C109.928 22.0681 110.029 22.4264 110.291 22.7265L111.796 21.4095C111.891 21.5176 111.883 21.5939 111.873 21.517C111.864 21.4469 111.862 21.3089 111.891 21.0813L109.908 20.8227ZM110.291 22.7265C110.565 23.0393 110.927 23.182 111.215 23.2541C111.516 23.3294 111.851 23.356 112.196 23.356V21.356C111.94 21.356 111.783 21.3346 111.7 21.3139C111.661 21.3041 111.656 21.2987 111.673 21.3074C111.69 21.3165 111.741 21.3461 111.796 21.4095L110.291 22.7265ZM112.196 23.356H114.464V21.356H112.196V23.356ZM113.466 22.4308L113.79 26.7508L115.785 26.6012L115.461 22.2812L113.466 22.4308ZM114.432 25.7415C114.016 25.8999 113.493 26.0288 112.851 26.1174L113.124 28.0986C113.874 27.9952 114.551 27.8361 115.144 27.6105L114.432 25.7415ZM112.818 26.1225C112.153 26.2372 111.502 26.317 110.864 26.3625L111.007 28.3575C111.713 28.307 112.43 28.2188 113.158 28.0935L112.818 26.1225ZM110.829 26.3657C110.175 26.4358 109.662 26.468 109.28 26.468V28.468C109.761 28.468 110.352 28.4282 111.042 28.3543L110.829 26.3657ZM109.28 26.468C107.697 26.468 106.638 26.0588 105.946 25.3838L104.55 26.8162C105.729 27.9652 107.358 28.468 109.28 28.468V26.468ZM105.946 25.3838C105.293 24.7484 104.988 23.8522 105.192 22.5058L103.215 22.2062C102.939 24.0278 103.33 25.6276 104.55 26.8162L105.946 25.3838ZM105.193 22.4999L107.821 4.4279L105.842 4.14009L103.214 22.2121L105.193 22.4999ZM106.832 5.284H113.276V3.284H106.832V5.284ZM116.208 8.97641L115.668 13.0444L117.651 13.3076L118.191 9.23959L116.208 8.97641ZM116.66 12.176H102.404V14.176H116.66V12.176ZM103.395 13.3046L103.899 9.41655L101.916 9.15945L101.412 13.0474L103.395 13.3046ZM102.96 10.2866L106.416 10.1066L106.312 8.10935L102.856 8.28935L102.96 10.2866ZM106.364 10.108H117.2V8.108H106.364V10.108Z" fill="white" fill-opacity="0.52" mask="url(#path-1-outside-1_25_6)"/>
</g>
<defs>
<filter id="filter0_d_25_6" x="0.735498" y="0.799995" width="126.006" height="48.104" filterUnits="userSpaceOnUse" color-interpolation-filters="sRGB">
<feFlood flood-opacity="0" result="BackgroundImageFix"/>
<feColorMatrix in="SourceAlpha"  type="matrix" values="0 0 0 0 0 0 0 0 0 0 0 0 0 0 0 0 0 0 127 0" result="hardAlpha"/>
<feOffset dy="12"/>
<feGaussianBlur stdDeviation="4.2"/>
<feComposite in2="hardAlpha" operator="out"/>
<feColorMatrix type="matrix" values="0 0 0 0 0.376471 0 0 0 0 0.203922 0 0 0 0 0.392157 0 0 0 1 0"/>
<feBlend mode="normal" in2="BackgroundImageFix" result="effect1_dropShadow_25_6"/>
<feBlend mode="normal" in="SourceGraphic" in2="effect1_dropShadow_25_6" result="shape"/>
</filter>
<linearGradient id="paint0_linear_25_6" x1="64.5" y1="-9" x2="64.5" y2="34" gradientUnits="userSpaceOnUse">
<stop offset="0.45" stop-color="#774DA7" stop-opacity="0.77"/>
<stop offset="0.695" stop-color="#3CA9E6" stop-opacity="0.77"/>
</linearGradient>
 <linearGradient id="paint0_linear_25_7" x1="64.5" y1="-9" x2="64.5" y2="34" gradientUnits="userSpaceOnUse">
                        <stop offset="0.45" stopColor="#221332" stopOpacity="0.77" />
                        <stop offset="0.695" stopColor="#E63C9A" stopOpacity="0.77" />
                    </linearGradient>
</defs>
</svg>
