<svg width="61" height="49" viewBox="0 0 61 49" fill="none" xmlns="http://www.w3.org/2000/svg">
<g id="Cv" filter="url(#filter0_d_599_9)">
<mask id="path-1-outside-1_599_9" maskUnits="userSpaceOnUse" x="8" y="0" width="45" height="29" fill="black">
<rect fill="white" x="8" width="45" height="29"/>
<path  d="M22.1817 1.728C23.4057 1.728 24.4617 1.764 25.3497 1.836C26.2377 1.908 27.0537 2.016 27.7977 2.16C28.5417 2.28 29.2857 2.448 30.0297 2.664L29.2377 7.596C28.3977 7.548 27.6177 7.524 26.8977 7.524C26.1777 7.5 25.4217 7.488 24.6297 7.488C23.8617 7.464 22.9377 7.452 21.8577 7.452C21.0897 7.452 20.4417 7.548 19.9137 7.74C19.3857 7.908 18.9297 8.244 18.5457 8.748C18.1857 9.252 17.8737 9.996 17.6097 10.98C17.3457 11.964 17.1177 13.248 16.9257 14.832C16.6617 16.656 16.5417 18.072 16.5657 19.08C16.6137 20.064 16.8657 20.748 17.3217 21.132C17.8017 21.516 18.5577 21.708 19.5897 21.708C21.3417 21.708 22.7937 21.684 23.9457 21.636C25.0977 21.564 26.2377 21.48 27.3657 21.384L27.6177 26.352C26.3457 26.736 25.0857 27.012 23.8377 27.18C22.5897 27.348 21.0777 27.432 19.3017 27.432C16.6377 27.432 14.5377 27.012 13.0017 26.172C11.4657 25.332 10.4457 23.952 9.94173 22.032C9.43773 20.112 9.41373 17.544 9.86973 14.328C10.2297 11.856 10.6977 9.804 11.2737 8.172C11.8497 6.54 12.6057 5.256 13.5417 4.32C14.4777 3.384 15.6537 2.724 17.0697 2.34C18.4857 1.932 20.1897 1.728 22.1817 1.728ZM50.8639 9.108C50.7199 10.068 50.5279 11.052 50.2879 12.06C50.0719 13.044 49.8319 13.992 49.5679 14.904C49.3039 15.816 49.0279 16.644 48.7399 17.388C48.2359 18.852 47.7199 20.136 47.1919 21.24C46.6639 22.344 46.2319 23.16 45.8959 23.688C45.3679 24.624 44.8159 25.332 44.2399 25.812C43.6639 26.268 43.0159 26.58 42.2959 26.748C41.5759 26.916 40.7119 27 39.7039 27H34.9519C34.4719 27 34.0519 26.844 33.6919 26.532C33.3319 26.196 33.1279 25.8 33.0799 25.344L30.8479 9.108H37.9759L38.4799 22.932H38.8759C39.3559 22.932 39.7159 22.812 39.9559 22.572C40.1959 22.308 40.4959 21.756 40.8559 20.916C41.1199 20.316 41.3839 19.644 41.6479 18.9C41.9359 18.132 42.2119 17.232 42.4759 16.2C42.8359 14.904 43.1119 13.644 43.3039 12.42C43.4959 11.172 43.6519 10.068 43.7719 9.108H50.8639Z"/>
</mask>
<path id="test" d="M22.1817 1.728C23.4057 1.728 24.4617 1.764 25.3497 1.836C26.2377 1.908 27.0537 2.016 27.7977 2.16C28.5417 2.28 29.2857 2.448 30.0297 2.664L29.2377 7.596C28.3977 7.548 27.6177 7.524 26.8977 7.524C26.1777 7.5 25.4217 7.488 24.6297 7.488C23.8617 7.464 22.9377 7.452 21.8577 7.452C21.0897 7.452 20.4417 7.548 19.9137 7.74C19.3857 7.908 18.9297 8.244 18.5457 8.748C18.1857 9.252 17.8737 9.996 17.6097 10.98C17.3457 11.964 17.1177 13.248 16.9257 14.832C16.6617 16.656 16.5417 18.072 16.5657 19.08C16.6137 20.064 16.8657 20.748 17.3217 21.132C17.8017 21.516 18.5577 21.708 19.5897 21.708C21.3417 21.708 22.7937 21.684 23.9457 21.636C25.0977 21.564 26.2377 21.48 27.3657 21.384L27.6177 26.352C26.3457 26.736 25.0857 27.012 23.8377 27.18C22.5897 27.348 21.0777 27.432 19.3017 27.432C16.6377 27.432 14.5377 27.012 13.0017 26.172C11.4657 25.332 10.4457 23.952 9.94173 22.032C9.43773 20.112 9.41373 17.544 9.86973 14.328C10.2297 11.856 10.6977 9.804 11.2737 8.172C11.8497 6.54 12.6057 5.256 13.5417 4.32C14.4777 3.384 15.6537 2.724 17.0697 2.34C18.4857 1.932 20.1897 1.728 22.1817 1.728ZM50.8639 9.108C50.7199 10.068 50.5279 11.052 50.2879 12.06C50.0719 13.044 49.8319 13.992 49.5679 14.904C49.3039 15.816 49.0279 16.644 48.7399 17.388C48.2359 18.852 47.7199 20.136 47.1919 21.24C46.6639 22.344 46.2319 23.16 45.8959 23.688C45.3679 24.624 44.8159 25.332 44.2399 25.812C43.6639 26.268 43.0159 26.58 42.2959 26.748C41.5759 26.916 40.7119 27 39.7039 27H34.9519C34.4719 27 34.0519 26.844 33.6919 26.532C33.3319 26.196 33.1279 25.8 33.0799 25.344L30.8479 9.108H37.9759L38.4799 22.932H38.8759C39.3559 22.932 39.7159 22.812 39.9559 22.572C40.1959 22.308 40.4959 21.756 40.8559 20.916C41.1199 20.316 41.3839 19.644 41.6479 18.9C41.9359 18.132 42.2119 17.232 42.4759 16.2C42.8359 14.904 43.1119 13.644 43.3039 12.42C43.4959 11.172 43.6519 10.068 43.7719 9.108H50.8639Z" fill="url(#paint0_linear_599_9)"/>
<path d="M25.3497 1.836L25.4306 0.839269H25.4305L25.3497 1.836ZM27.7977 2.16L27.6077 3.14178L27.6231 3.14475L27.6385 3.14724L27.7977 2.16ZM30.0297 2.664L31.0171 2.82255L31.1572 1.95003L30.3085 1.70365L30.0297 2.664ZM29.2377 7.596L29.1807 8.59437L30.082 8.64587L30.2251 7.75455L29.2377 7.596ZM26.8977 7.524L26.8644 8.52345L26.8811 8.524H26.8977V7.524ZM24.6297 7.488L24.5985 8.48751L24.6141 8.488H24.6297V7.488ZM19.9137 7.74L20.2169 8.69292L20.2363 8.68675L20.2555 8.67979L19.9137 7.74ZM18.5457 8.748L17.7503 8.14195L17.741 8.15422L17.732 8.16676L18.5457 8.748ZM17.6097 10.98L18.5756 11.2391H18.5756L17.6097 10.98ZM16.9257 14.832L17.9154 14.9752L17.9171 14.9638L17.9185 14.9523L16.9257 14.832ZM16.5657 19.08L15.566 19.1038L15.5663 19.1163L15.5669 19.1287L16.5657 19.08ZM17.3217 21.132L16.6776 21.8969L16.6872 21.905L16.697 21.9129L17.3217 21.132ZM23.9457 21.636L23.9874 22.6351L23.9977 22.6347L24.0081 22.6341L23.9457 21.636ZM27.3657 21.384L28.3645 21.3333L28.312 20.2998L27.2809 20.3876L27.3657 21.384ZM27.6177 26.352L27.9067 27.3093L28.6561 27.0831L28.6165 26.3013L27.6177 26.352ZM23.8377 27.18L23.9711 28.1711L23.8377 27.18ZM13.0017 26.172L12.5219 27.0494L13.0017 26.172ZM9.94173 22.032L10.909 21.7781L9.94173 22.032ZM9.86973 14.328L8.88017 14.1839L8.87964 14.1876L9.86973 14.328ZM11.2737 8.172L12.2167 8.50482L11.2737 8.172ZM13.5417 4.32L12.8346 3.61289H12.8346L13.5417 4.32ZM17.0697 2.34L17.3315 3.30514L17.3391 3.30308L17.3466 3.30091L17.0697 2.34ZM22.1817 2.728C23.3879 2.728 24.4156 2.76354 25.2689 2.83273L25.4305 0.839269C24.5079 0.764457 23.4235 0.727999 22.1817 0.727999V2.728ZM25.2689 2.83273C26.1264 2.90226 26.9054 3.00585 27.6077 3.14178L27.9878 1.17822C27.2021 1.02615 26.349 0.91374 25.4306 0.839269L25.2689 2.83273ZM27.6385 3.14724C28.341 3.26055 29.0451 3.41943 29.7509 3.62434L30.3085 1.70365C29.5264 1.47657 28.7425 1.29945 27.957 1.17276L27.6385 3.14724ZM29.0424 2.50545L28.2504 7.43745L30.2251 7.75455L31.0171 2.82255L29.0424 2.50545ZM29.2948 6.59763C28.4389 6.54872 27.6396 6.524 26.8977 6.524V8.524C27.5959 8.524 28.3566 8.54728 29.1807 8.59437L29.2948 6.59763ZM26.9311 6.52456C26.1989 6.50015 25.4318 6.488 24.6297 6.488V8.488C25.4117 8.488 26.1565 8.49985 26.8644 8.52345L26.9311 6.52456ZM24.661 6.48849C23.8793 6.46406 22.9443 6.452 21.8577 6.452V8.452C22.9311 8.452 23.8441 8.46394 24.5985 8.48751L24.661 6.48849ZM21.8577 6.452C21.013 6.452 20.2416 6.55672 19.572 6.80021L20.2555 8.67979C20.6419 8.53928 21.1665 8.452 21.8577 8.452V6.452ZM19.6105 6.78707C18.8595 7.02604 18.2403 7.4988 17.7503 8.14195L19.3412 9.35404C19.6191 8.9892 19.912 8.78996 20.2169 8.69292L19.6105 6.78707ZM17.732 8.16676C17.2719 8.81085 16.9215 9.686 16.6439 10.7209L18.5756 11.2391C18.8259 10.306 19.0995 9.69315 19.3595 9.32924L17.732 8.16676ZM16.6439 10.7209C16.3628 11.7684 16.1279 13.1039 15.933 14.7117L17.9185 14.9523C18.1076 13.3921 18.3286 12.1596 18.5756 11.2391L16.6439 10.7209ZM15.936 14.6888C15.6694 16.5308 15.54 18.0119 15.566 19.1038L17.5655 19.0562C17.5434 18.1321 17.654 16.7812 17.9154 14.9752L15.936 14.6888ZM15.5669 19.1287C15.62 20.2165 15.9049 21.2462 16.6776 21.8969L17.9659 20.3671C17.8266 20.2498 17.6075 19.9115 17.5645 19.0313L15.5669 19.1287ZM16.697 21.9129C17.4397 22.507 18.4716 22.708 19.5897 22.708V20.708C18.6439 20.708 18.1638 20.525 17.9464 20.3511L16.697 21.9129ZM19.5897 22.708C21.3493 22.708 22.8164 22.6839 23.9874 22.6351L23.9041 20.6369C22.7711 20.6841 21.3342 20.708 19.5897 20.708V22.708ZM24.0081 22.6341C25.1674 22.5616 26.3149 22.477 27.4505 22.3804L27.2809 20.3876C26.1605 20.483 25.028 20.5664 23.8834 20.6379L24.0081 22.6341ZM26.367 21.4347L26.619 26.4027L28.6165 26.3013L28.3645 21.3333L26.367 21.4347ZM27.3287 25.3947C26.1048 25.7641 24.8968 26.0284 23.7043 26.1889L23.9711 28.1711C25.2746 27.9956 26.5866 27.7079 27.9067 27.3093L27.3287 25.3947ZM23.7043 26.1889C22.5144 26.3491 21.0497 26.432 19.3017 26.432V28.432C21.1058 28.432 22.6651 28.3469 23.9711 28.1711L23.7043 26.1889ZM19.3017 26.432C16.7253 26.432 14.8133 26.0229 13.4815 25.2946L12.5219 27.0494C14.2622 28.0011 16.5502 28.432 19.3017 28.432V26.432ZM13.4815 25.2946C12.2202 24.6048 11.3534 23.4712 10.909 21.7781L8.9745 22.2859C9.53806 24.4328 10.7113 26.0592 12.5219 27.0494L13.4815 25.2946ZM10.909 21.7781C10.4535 20.0429 10.4121 17.626 10.8598 14.4684L8.87964 14.1876C8.41536 17.462 8.422 20.1811 8.9745 22.2859L10.909 21.7781ZM10.8593 14.4721C11.2137 12.0388 11.6695 10.0552 12.2167 8.50482L10.3307 7.83918C9.72595 9.55277 9.2458 11.6732 8.88017 14.1839L10.8593 14.4721ZM12.2167 8.50482C12.7577 6.97209 13.4457 5.83026 14.2488 5.0271L12.8346 3.61289C11.7658 4.68174 10.9418 6.10791 10.3307 7.83918L12.2167 8.50482ZM14.2488 5.02711C15.0484 4.22752 16.0652 3.64853 17.3315 3.30514L16.808 1.37486C15.2423 1.79946 13.907 2.54048 12.8346 3.61289L14.2488 5.02711ZM17.3466 3.30091C18.6473 2.92612 20.2528 2.728 22.1817 2.728V0.727999C20.1266 0.727999 18.3241 0.937875 16.7929 1.37909L17.3466 3.30091ZM50.8639 9.108L51.8528 9.25634L52.0251 8.108H50.8639V9.108ZM50.2879 12.06L49.3151 11.8284L49.313 11.837L49.3111 11.8456L50.2879 12.06ZM49.5679 14.904L48.6073 14.6259V14.6259L49.5679 14.904ZM48.7399 17.388L47.8073 17.027L47.8005 17.0446L47.7944 17.0625L48.7399 17.388ZM45.8959 23.688L45.0522 23.1511L45.038 23.1735L45.0249 23.1967L45.8959 23.688ZM44.2399 25.812L44.8606 26.596L44.8704 26.5883L44.8801 26.5802L44.2399 25.812ZM33.6919 26.532L33.0096 27.2631L33.023 27.2756L33.037 27.2877L33.6919 26.532ZM33.0799 25.344L34.0744 25.2393L34.0727 25.2235L34.0706 25.2078L33.0799 25.344ZM30.8479 9.108V8.108H29.701L29.8572 9.24419L30.8479 9.108ZM37.9759 9.108L38.9752 9.07157L38.9401 8.108H37.9759V9.108ZM38.4799 22.932L37.4806 22.9684L37.5157 23.932H38.4799V22.932ZM39.9559 22.572L40.663 23.2791L40.6798 23.2623L40.6958 23.2447L39.9559 22.572ZM40.8559 20.916L39.9405 20.5132L39.9367 20.5221L40.8559 20.916ZM41.6479 18.9L40.7116 18.5489L40.7084 18.5572L40.7055 18.5656L41.6479 18.9ZM42.4759 16.2L41.5124 15.9324L41.5096 15.9422L41.5071 15.9522L42.4759 16.2ZM43.3039 12.42L44.2918 12.575L44.2923 12.5721L43.3039 12.42ZM43.7719 9.108V8.108H42.8891L42.7796 8.98396L43.7719 9.108ZM49.875 8.95966C49.7354 9.88989 49.549 10.8461 49.3151 11.8284L51.2607 12.2916C51.5068 11.2579 51.7044 10.2461 51.8528 9.25634L49.875 8.95966ZM49.3111 11.8456C49.0996 12.8095 48.8649 13.7362 48.6073 14.6259L50.5285 15.1821C50.7989 14.2478 51.0442 13.2785 51.2646 12.2744L49.3111 11.8456ZM48.6073 14.6259C48.35 15.515 48.083 16.3148 47.8073 17.027L49.6725 17.749C49.9728 16.9732 50.2578 16.117 50.5285 15.1821L48.6073 14.6259ZM47.7944 17.0625C47.2997 18.4993 46.7976 19.7466 46.2898 20.8085L48.094 21.6715C48.6421 20.5254 49.1721 19.2047 49.6854 17.7135L47.7944 17.0625ZM46.2898 20.8085C45.766 21.9036 45.3549 22.6755 45.0522 23.1511L46.7396 24.2249C47.1089 23.6445 47.5617 22.7844 48.094 21.6715L46.2898 20.8085ZM45.0249 23.1967C44.5328 24.0691 44.0517 24.6671 43.5997 25.0438L44.8801 26.5802C45.5801 25.9969 46.203 25.1789 46.7669 24.1793L45.0249 23.1967ZM43.6192 25.028C43.1595 25.3919 42.6461 25.6394 42.0687 25.7742L42.5231 27.7218C43.3857 27.5206 44.1683 27.1441 44.8606 26.596L43.6192 25.028ZM42.0687 25.7742C41.4445 25.9198 40.661 26 39.7039 26V28C40.7628 28 41.7073 27.9122 42.5231 27.7218L42.0687 25.7742ZM39.7039 26H34.9519V28H39.7039V26ZM34.9519 26C34.7105 26 34.5235 25.9294 34.3468 25.7763L33.037 27.2877C33.5803 27.7586 34.2333 28 34.9519 28V26ZM34.3742 25.8009C34.1762 25.6161 34.0952 25.4372 34.0744 25.2393L32.0854 25.4487C32.1606 26.1628 32.4876 26.7759 33.0096 27.2631L34.3742 25.8009ZM34.0706 25.2078L31.8386 8.97181L29.8572 9.24419L32.0892 25.4802L34.0706 25.2078ZM30.8479 10.108H37.9759V8.108H30.8479V10.108ZM36.9766 9.14443L37.4806 22.9684L39.4792 22.8956L38.9752 9.07157L36.9766 9.14443ZM38.4799 23.932H38.8759V21.932H38.4799V23.932ZM38.8759 23.932C39.51 23.932 40.1693 23.7728 40.663 23.2791L39.2488 21.8649C39.2484 21.8653 39.246 21.8678 39.2389 21.872C39.2315 21.8765 39.2162 21.8845 39.1897 21.8933C39.1345 21.9117 39.0355 21.932 38.8759 21.932V23.932ZM40.6958 23.2447C41.0628 22.841 41.4189 22.1409 41.775 21.3099L39.9367 20.5221C39.5729 21.3711 39.3289 21.775 39.216 21.8993L40.6958 23.2447ZM41.7712 21.3187C42.0468 20.6923 42.3197 19.997 42.5903 19.2344L40.7055 18.5656C40.4481 19.291 40.193 19.9397 39.9406 20.5133L41.7712 21.3187ZM42.5842 19.2511C42.888 18.4411 43.1742 17.5051 43.4447 16.4478L41.5071 15.9522C41.2496 16.9589 40.9838 17.8229 40.7116 18.5489L42.5842 19.2511ZM43.4394 16.4676C43.8088 15.1377 44.0934 13.84 44.2918 12.575L42.316 12.265C42.1304 13.448 41.8629 14.6703 41.5124 15.9324L43.4394 16.4676ZM44.2923 12.5721C44.4853 11.3174 44.6427 10.2037 44.7642 9.23203L42.7796 8.98396C42.6611 9.93229 42.5065 11.0266 42.3155 12.2679L44.2923 12.5721ZM43.7719 10.108H50.8639V8.108H43.7719V10.108Z" fill="white" fill-opacity="0.52" style="fill:white;fill-opacity:0.52;" mask="url(#path-1-outside-1_599_9)"/>
</g>
<defs>
<filter id="filter0_d_599_9" x="0.1448" y="0.727997" width="60.2803" height="48.104" filterUnits="userSpaceOnUse" color-interpolation-filters="sRGB">
<feFlood flood-opacity="0" result="BackgroundImageFix"/>
<feColorMatrix in="SourceAlpha" type="matrix" values="0 0 0 0 0 0 0 0 0 0 0 0 0 0 0 0 0 0 127 0" result="hardAlpha"/>
<feOffset dy="12"/>
<feGaussianBlur stdDeviation="4.2"/>
<feComposite in2="hardAlpha" operator="out"/>
<feColorMatrix type="matrix" values="0 0 0 0 0.376471 0 0 0 0 0.203922 0 0 0 0 0.392157 0 0 0 1 0"/>
<feBlend mode="normal" in2="BackgroundImageFix" result="effect1_dropShadow_599_9"/>
<feBlend mode="normal" in="SourceGraphic" in2="effect1_dropShadow_599_9" result="shape"/>
</filter>
<linearGradient id="paint0_linear_599_9" x1="29.5" y1="-9" x2="29.5" y2="34" gradientUnits="userSpaceOnUse">
<stop offset="0.45" stop-color="#774DA7" stop-opacity="0.77" style="stop-color:#774DA7;stop-color:color(display-p3 0.4667 0.3020 0.6549);stop-opacity:0.77;"/>
<stop offset="0.695" stop-color="#3CA9E6" stop-opacity="0.77" style="stop-color:#3CA9E6;stop-color:color(display-p3 0.2353 0.6627 0.9020);stop-opacity:0.77;"/>
</linearGradient>
</defs>
</svg>
