<svg width="118" height="48" viewBox="0 0 118 48" fill="none" xmlns="http://www.w3.org/2000/svg">
<g id="Home" filter="url(#filter0_d_20_11)">
<mask id="path-1-outside-1_20_11" maskUnits="userSpaceOnUse" x="8" y="0" width="101" height="28" fill="black">
<rect fill="white" x="8" width="101" height="28"/>
<path d="M20.3034 1.16L16.8114 26H10.0434L13.5354 1.16H20.3034ZM26.6034 10.34L25.8834 15.272H18.0714L18.7194 10.34H26.6034ZM34.2714 1.16L30.7794 26H24.0114L27.5034 1.16H34.2714ZM46.0178 7.604C48.3218 7.604 50.1698 7.928 51.5618 8.576C52.9778 9.224 53.9378 10.256 54.4418 11.672C54.9698 13.088 55.0658 14.972 54.7298 17.324C54.4178 19.58 53.8658 21.38 53.0738 22.724C52.3058 24.044 51.2018 24.992 49.7618 25.568C48.3218 26.144 46.4618 26.432 44.1818 26.432C41.9018 26.432 40.0538 26.12 38.6378 25.496C37.2218 24.872 36.2378 23.864 35.6858 22.472C35.1578 21.056 35.0618 19.172 35.3978 16.82C35.7098 14.54 36.2498 12.74 37.0178 11.42C37.8098 10.076 38.9258 9.104 40.3658 8.504C41.8298 7.904 43.7138 7.604 46.0178 7.604ZM45.9098 12.176C45.1178 12.176 44.4938 12.308 44.0378 12.572C43.5818 12.836 43.2098 13.34 42.9218 14.084C42.6578 14.828 42.4178 15.908 42.2018 17.324C42.0338 18.572 41.9738 19.532 42.0218 20.204C42.0698 20.852 42.2858 21.296 42.6698 21.536C43.0538 21.776 43.6298 21.896 44.3978 21.896C45.1658 21.896 45.7658 21.764 46.1978 21.5C46.6538 21.212 47.0138 20.708 47.2778 19.988C47.5418 19.244 47.7818 18.188 47.9978 16.82C48.1658 15.548 48.2258 14.588 48.1778 13.94C48.1298 13.268 47.9258 12.812 47.5658 12.572C47.2058 12.308 46.6538 12.176 45.9098 12.176ZM64.0732 8.108L64.2532 11.96L64.8652 12.428L62.9932 26H56.4772L58.9972 8.108H64.0732ZM70.9852 7.604C72.6892 7.604 73.9372 8.06 74.7292 8.972C75.5452 9.86 75.8332 11.108 75.5932 12.716L73.7212 26H67.4572L69.0412 14.552C69.1372 14 69.1012 13.628 68.9332 13.436C68.7652 13.244 68.4652 13.148 68.0332 13.148C67.6972 13.148 67.3252 13.22 66.9172 13.364C66.5332 13.484 66.0772 13.712 65.5492 14.048C65.0452 14.384 64.4332 14.84 63.7132 15.416L62.7052 12.536C64.2172 10.808 65.6092 9.56 66.8812 8.792C68.1532 8 69.5212 7.604 70.9852 7.604ZM81.8572 7.604C83.6092 7.604 84.8812 8.06 85.6732 8.972C86.4652 9.884 86.7532 11.132 86.5372 12.716L84.6652 26H78.1852L79.7692 14.552C79.8412 13.976 79.7812 13.604 79.5892 13.436C79.3972 13.244 79.1212 13.148 78.7612 13.148C78.4492 13.148 78.1012 13.22 77.7172 13.364C77.3332 13.484 76.8892 13.712 76.3852 14.048C75.8812 14.36 75.2932 14.816 74.6212 15.416L73.5772 12.536C75.0892 10.808 76.4812 9.56 77.7532 8.792C79.0252 8 80.3932 7.604 81.8572 7.604ZM99.4561 7.604C101.808 7.604 103.62 7.856 104.892 8.36C106.188 8.864 107.052 9.596 107.484 10.556C107.94 11.492 108.06 12.668 107.844 14.084C107.7 15.164 107.328 16.016 106.728 16.64C106.152 17.24 105.348 17.696 104.316 18.008C103.284 18.296 101.976 18.5 100.392 18.62L91.0681 19.376L91.5001 16.1L98.8801 15.344C99.4321 15.296 99.8881 15.224 100.248 15.128C100.632 15.008 100.932 14.828 101.148 14.588C101.388 14.324 101.532 13.94 101.58 13.436C101.652 13.028 101.628 12.716 101.508 12.5C101.388 12.284 101.16 12.14 100.824 12.068C100.512 11.972 100.044 11.936 99.4201 11.96C98.8201 11.96 98.3161 12.032 97.9081 12.176C97.5001 12.32 97.1521 12.56 96.8641 12.896C96.6001 13.208 96.3721 13.676 96.1801 14.3C96.0121 14.9 95.8441 15.692 95.6761 16.676C95.4601 18.02 95.4001 19.028 95.4961 19.7C95.6161 20.372 95.9161 20.816 96.3961 21.032C96.9001 21.248 97.5961 21.356 98.4841 21.356C99.0361 21.356 99.7321 21.344 100.572 21.32C101.412 21.272 102.288 21.224 103.2 21.176C104.136 21.104 104.952 21.032 105.648 20.96L106.116 24.992C105.324 25.328 104.46 25.616 103.524 25.856C102.588 26.072 101.64 26.216 100.68 26.288C99.7201 26.384 98.7841 26.432 97.8721 26.432C95.3041 26.432 93.3241 26.072 91.9321 25.352C90.5401 24.608 89.6161 23.528 89.1601 22.112C88.7041 20.672 88.5841 18.92 88.8001 16.856C89.0161 14.984 89.3881 13.448 89.9161 12.248C90.4681 11.024 91.1761 10.088 92.0401 9.44C92.9281 8.768 93.9841 8.3 95.2081 8.036C96.4561 7.748 97.8721 7.604 99.4561 7.604Z"/>
</mask>
<path id="test" d="M20.3034 1.16L16.8114 26H10.0434L13.5354 1.16H20.3034ZM26.6034 10.34L25.8834 15.272H18.0714L18.7194 10.34H26.6034ZM34.2714 1.16L30.7794 26H24.0114L27.5034 1.16H34.2714ZM46.0178 7.604C48.3218 7.604 50.1698 7.928 51.5618 8.576C52.9778 9.224 53.9378 10.256 54.4418 11.672C54.9698 13.088 55.0658 14.972 54.7298 17.324C54.4178 19.58 53.8658 21.38 53.0738 22.724C52.3058 24.044 51.2018 24.992 49.7618 25.568C48.3218 26.144 46.4618 26.432 44.1818 26.432C41.9018 26.432 40.0538 26.12 38.6378 25.496C37.2218 24.872 36.2378 23.864 35.6858 22.472C35.1578 21.056 35.0618 19.172 35.3978 16.82C35.7098 14.54 36.2498 12.74 37.0178 11.42C37.8098 10.076 38.9258 9.104 40.3658 8.504C41.8298 7.904 43.7138 7.604 46.0178 7.604ZM45.9098 12.176C45.1178 12.176 44.4938 12.308 44.0378 12.572C43.5818 12.836 43.2098 13.34 42.9218 14.084C42.6578 14.828 42.4178 15.908 42.2018 17.324C42.0338 18.572 41.9738 19.532 42.0218 20.204C42.0698 20.852 42.2858 21.296 42.6698 21.536C43.0538 21.776 43.6298 21.896 44.3978 21.896C45.1658 21.896 45.7658 21.764 46.1978 21.5C46.6538 21.212 47.0138 20.708 47.2778 19.988C47.5418 19.244 47.7818 18.188 47.9978 16.82C48.1658 15.548 48.2258 14.588 48.1778 13.94C48.1298 13.268 47.9258 12.812 47.5658 12.572C47.2058 12.308 46.6538 12.176 45.9098 12.176ZM64.0732 8.108L64.2532 11.96L64.8652 12.428L62.9932 26H56.4772L58.9972 8.108H64.0732ZM70.9852 7.604C72.6892 7.604 73.9372 8.06 74.7292 8.972C75.5452 9.86 75.8332 11.108 75.5932 12.716L73.7212 26H67.4572L69.0412 14.552C69.1372 14 69.1012 13.628 68.9332 13.436C68.7652 13.244 68.4652 13.148 68.0332 13.148C67.6972 13.148 67.3252 13.22 66.9172 13.364C66.5332 13.484 66.0772 13.712 65.5492 14.048C65.0452 14.384 64.4332 14.84 63.7132 15.416L62.7052 12.536C64.2172 10.808 65.6092 9.56 66.8812 8.792C68.1532 8 69.5212 7.604 70.9852 7.604ZM81.8572 7.604C83.6092 7.604 84.8812 8.06 85.6732 8.972C86.4652 9.884 86.7532 11.132 86.5372 12.716L84.6652 26H78.1852L79.7692 14.552C79.8412 13.976 79.7812 13.604 79.5892 13.436C79.3972 13.244 79.1212 13.148 78.7612 13.148C78.4492 13.148 78.1012 13.22 77.7172 13.364C77.3332 13.484 76.8892 13.712 76.3852 14.048C75.8812 14.36 75.2932 14.816 74.6212 15.416L73.5772 12.536C75.0892 10.808 76.4812 9.56 77.7532 8.792C79.0252 8 80.3932 7.604 81.8572 7.604ZM99.4561 7.604C101.808 7.604 103.62 7.856 104.892 8.36C106.188 8.864 107.052 9.596 107.484 10.556C107.94 11.492 108.06 12.668 107.844 14.084C107.7 15.164 107.328 16.016 106.728 16.64C106.152 17.24 105.348 17.696 104.316 18.008C103.284 18.296 101.976 18.5 100.392 18.62L91.0681 19.376L91.5001 16.1L98.8801 15.344C99.4321 15.296 99.8881 15.224 100.248 15.128C100.632 15.008 100.932 14.828 101.148 14.588C101.388 14.324 101.532 13.94 101.58 13.436C101.652 13.028 101.628 12.716 101.508 12.5C101.388 12.284 101.16 12.14 100.824 12.068C100.512 11.972 100.044 11.936 99.4201 11.96C98.8201 11.96 98.3161 12.032 97.9081 12.176C97.5001 12.32 97.1521 12.56 96.8641 12.896C96.6001 13.208 96.3721 13.676 96.1801 14.3C96.0121 14.9 95.8441 15.692 95.6761 16.676C95.4601 18.02 95.4001 19.028 95.4961 19.7C95.6161 20.372 95.9161 20.816 96.3961 21.032C96.9001 21.248 97.5961 21.356 98.4841 21.356C99.0361 21.356 99.7321 21.344 100.572 21.32C101.412 21.272 102.288 21.224 103.2 21.176C104.136 21.104 104.952 21.032 105.648 20.96L106.116 24.992C105.324 25.328 104.46 25.616 103.524 25.856C102.588 26.072 101.64 26.216 100.68 26.288C99.7201 26.384 98.7841 26.432 97.8721 26.432C95.3041 26.432 93.3241 26.072 91.9321 25.352C90.5401 24.608 89.6161 23.528 89.1601 22.112C88.7041 20.672 88.5841 18.92 88.8001 16.856C89.0161 14.984 89.3881 13.448 89.9161 12.248C90.4681 11.024 91.1761 10.088 92.0401 9.44C92.9281 8.768 93.9841 8.3 95.2081 8.036C96.4561 7.748 97.8721 7.604 99.4561 7.604Z" fill="url(#paint0_linear_20_11)" />
<path d="M20.3034 1.16L21.2936 1.29921L21.4538 0.159998H20.3034V1.16ZM16.8114 26V27H17.6806L17.8016 26.1392L16.8114 26ZM10.0434 26L9.05311 25.8608L8.89296 27H10.0434V26ZM13.5354 1.16V0.159998H12.6661L12.5451 1.02079L13.5354 1.16ZM26.6034 10.34L27.5929 10.4845L27.76 9.34H26.6034V10.34ZM25.8834 15.272V16.272H26.748L26.8729 15.4165L25.8834 15.272ZM18.0714 15.272L17.0799 15.1417L16.9314 16.272H18.0714V15.272ZM18.7194 10.34V9.34H17.8422L17.7279 10.2097L18.7194 10.34ZM34.2714 1.16L35.2616 1.29921L35.4218 0.159998H34.2714V1.16ZM30.7794 26V27H31.6486L31.7696 26.1392L30.7794 26ZM24.0114 26L23.0211 25.8608L22.861 27H24.0114V26ZM27.5034 1.16V0.159998H26.6341L26.5131 1.02079L27.5034 1.16ZM19.3131 1.02079L15.8211 25.8608L17.8016 26.1392L21.2936 1.29921L19.3131 1.02079ZM16.8114 25H10.0434V27H16.8114V25ZM11.0336 26.1392L14.5256 1.29921L12.5451 1.02079L9.05311 25.8608L11.0336 26.1392ZM13.5354 2.16H20.3034V0.159998H13.5354V2.16ZM25.6139 10.1955L24.8939 15.1275L26.8729 15.4165L27.5929 10.4845L25.6139 10.1955ZM25.8834 14.272H18.0714V16.272H25.8834V14.272ZM19.0629 15.4023L19.7109 10.4703L17.7279 10.2097L17.0799 15.1417L19.0629 15.4023ZM18.7194 11.34H26.6034V9.34H18.7194V11.34ZM33.2811 1.02079L29.7891 25.8608L31.7696 26.1392L35.2616 1.29921L33.2811 1.02079ZM30.7794 25H24.0114V27H30.7794V25ZM25.0016 26.1392L28.4936 1.29921L26.5131 1.02079L23.0211 25.8608L25.0016 26.1392ZM27.5034 2.16H34.2714V0.159998H27.5034V2.16ZM51.5618 8.576L51.1397 9.4826L51.1457 9.48531L51.5618 8.576ZM54.4418 11.672L53.4997 12.0073L53.5022 12.0144L53.5048 12.0214L54.4418 11.672ZM54.7298 17.324L53.7398 17.1826L53.7392 17.187L54.7298 17.324ZM53.0738 22.724L52.2122 22.2163L52.2094 22.2211L53.0738 22.724ZM49.7618 25.568L50.1332 26.4965L50.1332 26.4965L49.7618 25.568ZM38.6378 25.496L38.2345 26.4111L38.2345 26.4111L38.6378 25.496ZM35.6858 22.472L34.7488 22.8214L34.7524 22.831L34.7562 22.8406L35.6858 22.472ZM35.3978 16.82L36.3877 16.9614L36.3885 16.9556L35.3978 16.82ZM37.0178 11.42L36.1562 10.9123L36.1534 10.9171L37.0178 11.42ZM40.3658 8.504L39.9866 7.57868L39.9812 7.58092L40.3658 8.504ZM44.0378 12.572L43.5367 11.7066L43.5367 11.7066L44.0378 12.572ZM42.9218 14.084L41.9892 13.723L41.9841 13.7362L41.9794 13.7496L42.9218 14.084ZM42.2018 17.324L41.2132 17.1732L41.2119 17.1819L41.2107 17.1906L42.2018 17.324ZM42.0218 20.204L41.0243 20.2752L41.0245 20.2779L42.0218 20.204ZM42.6698 21.536L43.1998 20.688L43.1998 20.688L42.6698 21.536ZM46.1978 21.5L46.7192 22.3533L46.7255 22.3494L46.7318 22.3455L46.1978 21.5ZM47.2778 19.988L48.2167 20.3323L48.2202 20.3224L47.2778 19.988ZM47.9978 16.82L48.9855 16.976L48.9875 16.9635L48.9892 16.9509L47.9978 16.82ZM48.1778 13.94L47.1803 14.0112L47.1805 14.0139L48.1778 13.94ZM47.5658 12.572L46.9744 13.3784L46.9925 13.3916L47.0111 13.404L47.5658 12.572ZM46.0178 8.604C48.2425 8.604 49.9293 8.91907 51.1398 9.48258L51.9838 7.66942C50.4103 6.93692 48.4011 6.604 46.0178 6.604V8.604ZM51.1457 9.48531C52.3259 10.0254 53.0899 10.856 53.4997 12.0073L55.3839 11.3367C54.7857 9.65603 53.6296 8.42256 51.9779 7.66669L51.1457 9.48531ZM53.5048 12.0214C53.9502 13.216 54.0644 14.9104 53.7398 17.1826L55.7197 17.4654C56.0671 15.0336 55.9893 12.96 55.3788 11.3226L53.5048 12.0214ZM53.7392 17.187C53.4377 19.3672 52.9138 21.0259 52.2122 22.2163L53.9353 23.2317C54.8178 21.7341 55.3979 19.7928 55.7204 17.461L53.7392 17.187ZM52.2094 22.2211C51.5555 23.345 50.6267 24.145 49.3904 24.6395L50.1332 26.4965C51.7769 25.839 53.056 24.743 53.9381 23.2269L52.2094 22.2211ZM49.3904 24.6395C48.1103 25.1516 46.389 25.432 44.1818 25.432V27.432C46.5345 27.432 48.5333 27.1364 50.1332 26.4965L49.3904 24.6395ZM44.1818 25.432C41.9805 25.432 40.2846 25.1289 39.041 24.5809L38.2345 26.4111C39.823 27.1111 41.823 27.432 44.1818 27.432V25.432ZM39.041 24.5809C37.8565 24.0589 37.067 23.2422 36.6154 22.1034L34.7562 22.8406C35.4086 24.4858 36.5871 25.6851 38.2345 26.4111L39.041 24.5809ZM36.6228 22.1226C36.1773 20.928 36.0631 19.2336 36.3877 16.9614L34.4078 16.6786C34.0604 19.1104 34.1382 21.184 34.7488 22.8214L36.6228 22.1226ZM36.3885 16.9556C36.6909 14.7458 37.2045 13.0876 37.8821 11.9229L36.1534 10.9171C35.2951 12.3924 34.7286 14.3342 34.407 16.6844L36.3885 16.9556ZM37.8793 11.9277C38.5615 10.7701 39.5101 9.94386 40.7504 9.42708L39.9812 7.58092C38.3414 8.26414 37.0581 9.3819 36.1562 10.9123L37.8793 11.9277ZM40.745 9.4293C42.047 8.89572 43.7895 8.604 46.0178 8.604V6.604C43.638 6.604 41.6126 6.91228 39.9866 7.57869L40.745 9.4293ZM45.9098 11.176C45.0237 11.176 44.203 11.3209 43.5367 11.7066L44.5388 13.4374C44.7846 13.2951 45.2118 13.176 45.9098 13.176V11.176ZM43.5367 11.7066C42.8048 12.1303 42.3191 12.8709 41.9892 13.723L43.8543 14.445C44.1005 13.8091 44.3587 13.5417 44.5388 13.4374L43.5367 11.7066ZM41.9794 13.7496C41.6837 14.5829 41.4324 15.7364 41.2132 17.1732L43.1903 17.4748C43.4032 16.0796 43.6319 15.0731 43.8642 14.4184L41.9794 13.7496ZM41.2107 17.1906C41.04 18.4587 40.9689 19.4996 41.0243 20.2752L43.0192 20.1328C42.9786 19.5644 43.0276 18.6853 43.1928 17.4574L41.2107 17.1906ZM41.0245 20.2779C41.0852 21.0972 41.3815 21.9101 42.1398 22.384L43.1998 20.688C43.1901 20.6819 43.0544 20.6068 43.019 20.1301L41.0245 20.2779ZM42.1398 22.384C42.7584 22.7706 43.558 22.896 44.3978 22.896V20.896C43.7016 20.896 43.3492 20.7814 43.1998 20.688L42.1398 22.384ZM44.3978 22.896C45.2617 22.896 46.069 22.7506 46.7192 22.3533L45.6763 20.6467C45.4625 20.7774 45.0699 20.896 44.3978 20.896V22.896ZM46.7318 22.3455C47.4387 21.899 47.9079 21.1744 48.2167 20.3323L46.3389 19.6437C46.1197 20.2416 45.8689 20.525 45.6638 20.6545L46.7318 22.3455ZM48.2202 20.3224C48.5146 19.4929 48.766 18.3667 48.9855 16.976L47.01 16.664C46.7976 18.0093 46.569 18.9951 46.3354 19.6536L48.2202 20.3224ZM48.9892 16.9509C49.1593 15.6632 49.2309 14.6201 49.1751 13.8661L47.1805 14.0139C47.2207 14.5559 47.1723 15.4328 47.0064 16.6891L48.9892 16.9509ZM49.1752 13.8688C49.1177 13.0627 48.8547 12.2294 48.1205 11.7399L47.0111 13.404C47.0111 13.4041 47.0388 13.4194 47.076 13.5024C47.1169 13.5938 47.1619 13.7537 47.1803 14.0112L49.1752 13.8688ZM48.1571 11.7656C47.5449 11.3166 46.7378 11.176 45.9098 11.176V13.176C46.5698 13.176 46.8667 13.2994 46.9744 13.3784L48.1571 11.7656ZM64.0732 8.108L65.0721 8.06132L65.0276 7.108H64.0732V8.108ZM64.2532 11.96L63.2543 12.0067L63.276 12.4716L63.6457 12.7544L64.2532 11.96ZM64.8652 12.428L65.8558 12.5646L65.9354 11.9875L65.4726 11.6336L64.8652 12.428ZM62.9932 26V27H63.8647L63.9838 26.1366L62.9932 26ZM56.4772 26L55.487 25.8605L55.3265 27H56.4772V26ZM58.9972 8.108V7.108H58.1282L58.007 7.96853L58.9972 8.108ZM74.7292 8.972L73.9742 9.62769L73.9834 9.63829L73.9929 9.64862L74.7292 8.972ZM75.5932 12.716L74.6041 12.5684L74.603 12.5765L75.5932 12.716ZM73.7212 26V27H74.5901L74.7114 26.1395L73.7212 26ZM67.4572 26L66.4666 25.8629L66.3093 27H67.4572V26ZM69.0412 14.552L68.056 14.3807L68.053 14.3978L68.0506 14.4149L69.0412 14.552ZM68.9332 13.436L68.1806 14.0945L68.1806 14.0945L68.9332 13.436ZM66.9172 13.364L67.2155 14.3185L67.2328 14.313L67.25 14.307L66.9172 13.364ZM65.5492 14.048L65.0123 13.2043L65.0033 13.21L64.9945 13.2159L65.5492 14.048ZM63.7132 15.416L62.7693 15.7464L63.2356 17.0787L64.3379 16.1969L63.7132 15.416ZM62.7052 12.536L61.9526 11.8775L61.5688 12.3162L61.7613 12.8663L62.7052 12.536ZM66.8812 8.792L67.3981 9.64814L67.4097 9.6409L66.8812 8.792ZM85.6732 8.972L84.9182 9.62769L84.9182 9.62769L85.6732 8.972ZM86.5372 12.716L87.5274 12.8555L87.528 12.8511L86.5372 12.716ZM84.6652 26V27H85.5341L85.6554 26.1395L84.6652 26ZM78.1852 26L77.1946 25.8629L77.0373 27H78.1852V26ZM79.7692 14.552L80.7598 14.6891L80.7615 14.676L79.7692 14.552ZM79.5892 13.436L78.8821 14.1431L78.9056 14.1666L78.9307 14.1886L79.5892 13.436ZM77.7172 13.364L78.0155 14.3185L78.0421 14.3101L78.0683 14.3003L77.7172 13.364ZM76.3852 14.048L76.9115 14.8983L76.9259 14.8894L76.9399 14.8801L76.3852 14.048ZM74.6212 15.416L73.6811 15.7568L74.1847 17.1463L75.2872 16.1619L74.6212 15.416ZM73.5772 12.536L72.8246 11.8775L72.4359 12.3218L72.6371 12.8768L73.5772 12.536ZM77.7532 8.792L78.2701 9.64814L78.2817 9.6409L77.7532 8.792ZM63.0743 8.15468L63.2543 12.0067L65.2521 11.9133L65.0721 8.06132L63.0743 8.15468ZM63.6457 12.7544L64.2577 13.2224L65.4726 11.6336L64.8606 11.1656L63.6457 12.7544ZM63.8746 12.2914L62.0026 25.8634L63.9838 26.1366L65.8558 12.5646L63.8746 12.2914ZM62.9932 25H56.4772V27H62.9932V25ZM57.4674 26.1395L59.9874 8.24747L58.007 7.96853L55.487 25.8605L57.4674 26.1395ZM58.9972 9.108H64.0732V7.108H58.9972V9.108ZM70.9852 8.604C72.5227 8.604 73.4402 9.01281 73.9742 9.62769L75.4842 8.31631C74.4342 7.10719 72.8557 6.604 70.9852 6.604V8.604ZM73.9929 9.64862C74.539 10.243 74.8161 11.1483 74.6041 12.5684L76.5822 12.8636C76.8503 11.0677 76.5513 9.47702 75.4655 8.29537L73.9929 9.64862ZM74.603 12.5765L72.731 25.8605L74.7114 26.1395L76.5834 12.8555L74.603 12.5765ZM73.7212 25H67.4572V27H73.7212V25ZM68.4478 26.1371L70.0318 14.6891L68.0506 14.4149L66.4666 25.8629L68.4478 26.1371ZM70.0264 14.7233C70.0829 14.3983 70.1113 14.0705 70.0815 13.7627C70.0523 13.4609 69.9581 13.0887 69.6858 12.7775L68.1806 14.0945C68.0763 13.9753 68.084 13.8851 68.0908 13.9553C68.0971 14.0195 68.0955 14.1537 68.056 14.3807L70.0264 14.7233ZM69.6858 12.7775C69.2304 12.257 68.5619 12.148 68.0332 12.148V14.148C68.1813 14.148 68.2549 14.1652 68.2774 14.1724C68.2947 14.1779 68.2416 14.1642 68.1806 14.0945L69.6858 12.7775ZM68.0332 12.148C67.5565 12.148 67.0701 12.2496 66.5844 12.421L67.25 14.307C67.5803 14.1904 67.8379 14.148 68.0332 14.148V12.148ZM66.6189 12.4095C66.1178 12.5661 65.5783 12.8441 65.0123 13.2043L66.0861 14.8917C66.576 14.5799 66.9485 14.4019 67.2155 14.3185L66.6189 12.4095ZM64.9945 13.2159C64.4575 13.574 63.8207 14.0493 63.0885 14.6351L64.3379 16.1969C65.0456 15.6307 65.6329 15.194 66.1039 14.88L64.9945 13.2159ZM64.657 15.0856L63.649 12.2056L61.7613 12.8663L62.7693 15.7464L64.657 15.0856ZM63.4578 13.1945C64.9346 11.5067 66.2487 10.342 67.3981 9.64806L66.3643 7.93593C64.9697 8.77799 63.4997 10.1093 61.9526 11.8775L63.4578 13.1945ZM67.4097 9.6409C68.5271 8.9452 69.7126 8.604 70.9852 8.604V6.604C69.3298 6.604 67.7793 7.05479 66.3526 7.9431L67.4097 9.6409ZM81.8572 8.604C83.4532 8.604 84.389 9.01834 84.9182 9.62769L86.4282 8.31631C85.3734 7.10166 83.7652 6.604 81.8572 6.604V8.604ZM84.9182 9.62769C85.4652 10.2576 85.7368 11.1845 85.5464 12.5809L87.528 12.8511C87.7696 11.0795 87.4652 9.5104 86.4282 8.31631L84.9182 9.62769ZM85.547 12.5765L83.675 25.8605L85.6554 26.1395L87.5274 12.8555L85.547 12.5765ZM84.6652 25H78.1852V27H84.6652V25ZM79.1758 26.1371L80.7598 14.6891L78.7786 14.4149L77.1946 25.8629L79.1758 26.1371ZM80.7615 14.676C80.8036 14.3389 80.8164 13.9976 80.7654 13.6818C80.7155 13.372 80.5858 12.9793 80.2477 12.6834L78.9307 14.1886C78.7846 14.0607 78.7809 13.938 78.7909 14.0002C78.7948 14.0241 78.7995 14.0707 78.7985 14.1456C78.7976 14.2197 78.7913 14.3131 78.7769 14.428L80.7615 14.676ZM80.2963 12.7289C79.8618 12.2944 79.2969 12.148 78.7612 12.148V14.148C78.8543 14.148 78.8986 14.1606 78.9097 14.1645C78.9146 14.1662 78.9123 14.1659 78.9053 14.1617C78.8982 14.1573 78.8899 14.1509 78.8821 14.1431L80.2963 12.7289ZM78.7612 12.148C78.2982 12.148 77.829 12.2541 77.3661 12.4277L78.0683 14.3003C78.3734 14.1859 78.6002 14.148 78.7612 14.148V12.148ZM77.4189 12.4095C76.9106 12.5684 76.378 12.851 75.8305 13.2159L76.9399 14.8801C77.4004 14.573 77.7558 14.3996 78.0155 14.3185L77.4189 12.4095ZM75.8588 13.1977C75.2869 13.5518 74.6507 14.049 73.9552 14.6701L75.2872 16.1619C75.9357 15.583 76.4755 15.1682 76.9115 14.8983L75.8588 13.1977ZM75.5613 15.0752L74.5173 12.1952L72.6371 12.8768L73.6811 15.7568L75.5613 15.0752ZM74.3298 13.1945C75.8066 11.5067 77.1207 10.342 78.2701 9.64806L77.2363 7.93594C75.8417 8.77799 74.3717 10.1093 72.8246 11.8775L74.3298 13.1945ZM78.2817 9.6409C79.3991 8.9452 80.5846 8.604 81.8572 8.604V6.604C80.2018 6.604 78.6513 7.05479 77.2246 7.9431L78.2817 9.6409ZM104.892 8.36L104.524 9.2897L104.53 9.292L104.892 8.36ZM107.484 10.556L106.572 10.9664L106.578 10.9803L106.585 10.994L107.484 10.556ZM107.844 14.084L106.856 13.9332L106.854 13.9425L106.853 13.9518L107.844 14.084ZM106.728 16.64L106.007 15.9469L106.007 15.9475L106.728 16.64ZM104.316 18.008L104.585 18.9712L104.595 18.9683L104.606 18.9652L104.316 18.008ZM100.392 18.62L100.317 17.6228L100.311 17.6233L100.392 18.62ZM91.0681 19.376L90.0767 19.2453L89.9148 20.4728L91.1489 20.3727L91.0681 19.376ZM91.5001 16.1L91.3982 15.1052L90.612 15.1857L90.5087 15.9693L91.5001 16.1ZM98.8801 15.344L98.7935 14.3478L98.7859 14.3484L98.7782 14.3492L98.8801 15.344ZM100.248 15.128L100.506 16.0942L100.526 16.0888L100.546 16.0825L100.248 15.128ZM101.148 14.588L100.408 13.9153L100.405 13.919L101.148 14.588ZM101.58 13.436L100.595 13.2622L100.588 13.3015L100.585 13.3412L101.58 13.436ZM101.508 12.5L102.382 12.0144L102.382 12.0144L101.508 12.5ZM100.824 12.068L100.53 13.0238L100.572 13.0366L100.615 13.0458L100.824 12.068ZM99.4201 11.96V12.96H99.4393L99.4586 12.9593L99.4201 11.96ZM97.9081 12.176L98.2409 13.119L98.2409 13.119L97.9081 12.176ZM96.8641 12.896L96.1049 12.2452L96.1007 12.2501L96.8641 12.896ZM96.1801 14.3L95.2243 14.0059L95.2206 14.0181L95.2172 14.0304L96.1801 14.3ZM95.6761 16.676L94.6903 16.5077L94.6888 16.5173L95.6761 16.676ZM95.4961 19.7L94.5062 19.8414L94.5086 19.8587L94.5117 19.8758L95.4961 19.7ZM96.3961 21.032L95.9858 21.9439L95.994 21.9476L96.0022 21.9511L96.3961 21.032ZM100.572 21.32L100.601 22.3196L100.615 22.3192L100.629 22.3184L100.572 21.32ZM103.2 21.176L103.253 22.1746L103.265 22.174L103.277 22.1731L103.2 21.176ZM105.648 20.96L106.641 20.8447L106.528 19.8637L105.545 19.9653L105.648 20.96ZM106.116 24.992L106.507 25.9126L107.196 25.6202L107.109 24.8767L106.116 24.992ZM103.524 25.856L103.749 26.8304L103.761 26.8277L103.773 26.8247L103.524 25.856ZM100.68 26.288L100.605 25.2908L100.593 25.2917L100.581 25.293L100.68 26.288ZM91.9321 25.352L91.4607 26.234L91.4727 26.2402L91.9321 25.352ZM89.1601 22.112L88.2068 22.4139L88.2083 22.4185L89.1601 22.112ZM88.8001 16.856L87.8067 16.7414L87.8056 16.7519L88.8001 16.856ZM89.9161 12.248L89.0045 11.8369L89.0008 11.8453L89.9161 12.248ZM92.0401 9.44L92.6401 10.24L92.6436 10.2374L92.0401 9.44ZM95.2081 8.036L95.419 9.01352L95.426 9.01201L95.433 9.01039L95.2081 8.036ZM99.4561 8.604C101.759 8.604 103.424 8.85402 104.524 9.28968L105.26 7.43032C103.816 6.85798 101.857 6.604 99.4561 6.604V8.604ZM104.53 9.292C105.662 9.73247 106.279 10.3147 106.572 10.9664L108.396 10.1456C107.825 8.8773 106.714 7.99553 105.255 7.428L104.53 9.292ZM106.585 10.994C106.924 11.6904 107.052 12.6446 106.856 13.9332L108.833 14.2348C109.068 12.6914 108.956 11.2936 108.383 10.118L106.585 10.994ZM106.853 13.9518C106.73 14.876 106.425 15.5121 106.007 15.9469L107.449 17.3331C108.231 16.5199 108.671 15.452 108.835 14.2162L106.853 13.9518ZM106.007 15.9475C105.58 16.3922 104.942 16.7741 104.027 17.0508L104.606 18.9652C105.754 18.6179 106.724 18.0878 107.45 17.3325L106.007 15.9475ZM104.047 17.0448C103.101 17.3089 101.863 17.5057 100.317 17.6229L100.468 19.6171C102.089 19.4943 103.467 19.283 104.585 18.9712L104.047 17.0448ZM100.311 17.6233L90.9873 18.3793L91.1489 20.3727L100.473 19.6167L100.311 17.6233ZM92.0595 19.5067L92.4915 16.2307L90.5087 15.9693L90.0767 19.2453L92.0595 19.5067ZM91.602 17.0948L98.982 16.3388L98.7782 14.3492L91.3982 15.1052L91.602 17.0948ZM98.9668 16.3402C99.5515 16.2894 100.07 16.2105 100.506 16.0942L99.9905 14.1618C99.7064 14.2375 99.3127 14.3026 98.7935 14.3478L98.9668 16.3402ZM100.546 16.0825C101.06 15.922 101.529 15.6595 101.891 15.257L100.405 13.919C100.335 13.9965 100.204 14.094 99.9499 14.1735L100.546 16.0825ZM101.888 15.2607C102.323 14.782 102.515 14.1625 102.576 13.5308L100.585 13.3412C100.549 13.7175 100.453 13.866 100.408 13.9153L101.888 15.2607ZM102.565 13.6098C102.652 13.1159 102.667 12.5275 102.382 12.0144L100.634 12.9856C100.608 12.9389 100.615 12.9233 100.619 12.9727C100.623 13.0231 100.621 13.1159 100.595 13.2622L102.565 13.6098ZM102.382 12.0144C102.074 11.4591 101.537 11.1981 101.034 11.0902L100.615 13.0458C100.655 13.0544 100.682 13.0631 100.698 13.0694C100.714 13.0755 100.718 13.0786 100.713 13.0755C100.708 13.0721 100.695 13.0631 100.679 13.0465C100.663 13.0296 100.647 13.0089 100.634 12.9856L102.382 12.0144ZM101.118 11.1122C100.641 10.9653 100.035 10.9356 99.3817 10.9607L99.4586 12.9593C100.053 12.9364 100.384 12.9787 100.53 13.0238L101.118 11.1122ZM99.4201 10.96C98.7473 10.96 98.1227 11.0398 97.5753 11.233L98.2409 13.119C98.5095 13.0242 98.8929 12.96 99.4201 12.96V10.96ZM97.5753 11.233C96.9981 11.4367 96.5042 11.7793 96.1049 12.2452L97.6234 13.5468C97.8 13.3407 98.0021 13.2033 98.2409 13.119L97.5753 11.233ZM96.1007 12.2501C95.7129 12.7084 95.4351 13.321 95.2243 14.0059L97.1359 14.5941C97.3092 14.031 97.4873 13.7076 97.6275 13.5419L96.1007 12.2501ZM95.2172 14.0304C95.036 14.6774 94.8612 15.5072 94.6904 16.5077L96.6619 16.8443C96.827 15.8768 96.9883 15.1226 97.1431 14.5696L95.2172 14.0304ZM94.6888 16.5173C94.4695 17.8819 94.3879 19.0134 94.5062 19.8414L96.4861 19.5586C96.4124 19.0426 96.4508 18.1581 96.6635 16.8347L94.6888 16.5173ZM94.5117 19.8758C94.6706 20.7654 95.1171 21.553 95.9858 21.9439L96.8065 20.1201C96.7152 20.079 96.5617 19.9786 96.4806 19.5242L94.5117 19.8758ZM96.0022 21.9511C96.6842 22.2434 97.5345 22.356 98.4841 22.356V20.356C97.6578 20.356 97.1161 20.2526 96.79 20.1129L96.0022 21.9511ZM98.4841 22.356C99.0492 22.356 99.7555 22.3437 100.601 22.3196L100.544 20.3204C99.7087 20.3443 99.0231 20.356 98.4841 20.356V22.356ZM100.629 22.3184C101.468 22.2705 102.342 22.2225 103.253 22.1746L103.148 20.1774C102.234 20.2255 101.357 20.2735 100.515 20.3216L100.629 22.3184ZM103.277 22.1731C104.219 22.1006 105.044 22.0278 105.751 21.9547L105.545 19.9653C104.86 20.0362 104.053 20.1074 103.123 20.1789L103.277 22.1731ZM104.655 21.0753L105.123 25.1073L107.109 24.8767L106.641 20.8447L104.655 21.0753ZM105.726 24.0714C104.985 24.3856 104.169 24.6583 103.276 24.8873L103.773 26.8247C104.751 26.5737 105.663 26.2704 106.507 25.9126L105.726 24.0714ZM103.299 24.8816C102.413 25.0862 101.515 25.2226 100.605 25.2908L100.755 27.2852C101.765 27.2094 102.764 27.0578 103.749 26.8304L103.299 24.8816ZM100.581 25.293C99.6518 25.3858 98.749 25.432 97.8721 25.432V27.432C98.8192 27.432 99.7885 27.3822 100.78 27.283L100.581 25.293ZM97.8721 25.432C95.3736 25.432 93.5786 25.0778 92.3915 24.4638L91.4727 26.2402C93.0697 27.0662 95.2347 27.432 97.8721 27.432V25.432ZM92.4035 24.4701C91.2248 23.8401 90.4833 22.9585 90.112 21.8055L88.2083 22.4185C88.749 24.0975 89.8554 25.3759 91.4607 26.2339L92.4035 24.4701ZM90.1135 21.8101C89.7114 20.5404 89.588 18.9353 89.7947 16.9601L87.8056 16.7519C87.5803 18.9047 87.6969 20.8036 88.2068 22.4139L90.1135 21.8101ZM89.7935 16.9706C90.0026 15.1585 90.3571 13.7287 90.8314 12.6507L89.0008 11.8453C88.4191 13.1673 88.0296 14.8095 87.8067 16.7414L89.7935 16.9706ZM90.8277 12.6591C91.327 11.5521 91.9402 10.765 92.6401 10.24L91.4401 8.64C90.4121 9.41105 89.6093 10.4959 89.0045 11.8369L90.8277 12.6591ZM92.6436 10.2374C93.4017 9.66369 94.3196 9.25064 95.419 9.01352L94.9973 7.05848C93.6487 7.34936 92.4546 7.87231 91.4367 8.64259L92.6436 10.2374ZM95.433 9.01039C96.5923 8.74285 97.9308 8.604 99.4561 8.604V6.604C97.8135 6.604 96.3199 6.75315 94.9833 7.06161L95.433 9.01039Z" fill="white" fill-opacity="0.52" mask="url(#path-1-outside-1_20_11)"/>
</g>
<defs>
<filter id="filter0_d_20_11" x="0.492945" y="0.159996" width="116.855" height="47.672" filterUnits="userSpaceOnUse" color-interpolation-filters="sRGB">
<feFlood flood-opacity="0" result="BackgroundImageFix"/>
<feColorMatrix in="SourceAlpha" type="matrix" values="0 0 0 0 0 0 0 0 0 0 0 0 0 0 0 0 0 0 127 0" result="hardAlpha"/>
<feOffset dy="12"/>
<feGaussianBlur stdDeviation="4.2"/>
<feComposite in2="hardAlpha" operator="out"/>
<feColorMatrix type="matrix" values="0 0 0 0 0.376471 0 0 0 0 0.203922 0 0 0 0 0.392157 0 0 0 1 0"/>
<feBlend mode="normal" in2="BackgroundImageFix" result="effect1_dropShadow_20_11"/>
<feBlend mode="normal" in="SourceGraphic" in2="effect1_dropShadow_20_11" result="shape"/>
</filter>
<linearGradient id="paint0_linear_25_6" x1="64.5" y1="-9" x2="64.5" y2="34" gradientUnits="userSpaceOnUse">
<stop offset="0.45" stop-color="#774DA7" stop-opacity="0.77"/>
<stop offset="0.695" stop-color="#3CA9E6" stop-opacity="0.77"/>
</linearGradient>
 <linearGradient id="paint0_linear_25_7" x1="64.5" y1="-9" x2="64.5" y2="34" gradientUnits="userSpaceOnUse">
                        <stop offset="0.45" stopColor="#221332" stopOpacity="0.77" />
                        <stop offset="0.695" stopColor="#E63C9A" stopOpacity="0.77" />
                    </linearGradient>
</defs>
</svg>
